<?xml version="1.0" encoding="UTF-8"?>
<svg id="Layer_1" data-name="Layer 1" xmlns="http://www.w3.org/2000/svg" viewBox="0 0 300 150">
  <defs>
    <style>
      .cls-1 {
        fill: #8fbcee;
      }
    </style>
  </defs>
  <g>
    <path class="cls-1" d="m98.27,86.33c.72,0,1.33-.24,1.82-.7.5-.46.77-1.05.81-1.88-.05-.7-.32-1.29-.77-1.76s-1.02-.72-1.74-.78l-13.19-.32c.85-.67,1.69-1.39,2.56-2.19.26-.24.45-.51.59-.81,1.01-1.01,1.98-2.04,2.94-3.13,4.63-5.26,7.48-9.82,8.45-13.64l.06-.42v-.1c-.06-.69-.32-1.28-.77-1.76-.48-.5-1.1-.77-1.8-.77l-12.87-.21c-.72,0-1.34.26-1.8.72s-.72,1.05-.78,1.8c0,.72.24,1.33.7,1.82.48.5,1.1.77,1.82.77l9.14.14c-1.33,2.46-3.34,5.24-5.99,8.24-2.3,2.62-4.6,4.82-6.88,6.61-2.91,2.04-5.57,3.1-7.94,3.1-1.82-.03-3.31-.58-4.57-1.66-1.13-1.01-2-2.33-2.56-3.95-.51-1.44-.75-2.91-.75-4.39,0-2.12.53-4.34,1.58-6.6.14-.3.26-.5.27-.54l.24-.29v-.16c.14-.34.21-.69.21-1.04,0-1.02-.5-1.82-1.36-2.24-.4-.19-.81-.3-1.23-.3-.21,0-.48.03-.86.13-.53.13-.97.48-1.29,1.05-.18.32-.35.61-.5.88-2.88-2.65-5.89-4.01-8.98-4.01h-.32c-2.54,0-4.95.69-7.2,2.04-2.22,1.34-4.11,3.11-5.62,5.26-2.4,3.23-3.63,6.61-3.69,10.05-1.36,1.55-3.51,3.1-6.44,4.63-3,1.57-6.12,2.56-9.25,2.94-2.76.32-5.16-.18-7.08-1.6-.62-.48-1.15-1.12-1.58-1.92l-.03-.24-.14-.16c-.24-.46-.46-.96-.67-1.45,5.4-5.4,9.82-11.34,13.18-17.68,3.42-6.47,5.97-12.94,7.6-19.22,1.61-6.28,2.46-11.95,2.49-16.87v-.37c0-5.35-.75-9.17-2.32-11.68-2.3-3.67-5.57-3.98-9.49-.65-4.5,3.99-9.22,14.26-14.41,31.4-.08.16-.11.37-.14.61-2.51,9.55-3.77,17.67-3.77,24.1,0,.54.03,2.04.08,4.52.06,2.57,1.05,5.86,2.91,9.66l.11.29c.8,1.49,1.79,2.7,2.96,3.64,2.49,1.93,5.4,2.91,8.64,2.91.75,0,1.52-.06,2.24-.18,3.83-.48,7.51-1.61,10.94-3.4,2.16-1.15,3.98-2.35,5.53-3.58.38.62.83,1.18,1.37,1.66,1.44,1.23,3.27,1.85,5.46,1.85,2.64,0,5.54-1.13,8.66-3.35,2.22-1.53,4.57-3.83,6.98-6.88.61,3.69,2.22,6.69,4.81,8.96,2.19,1.95,4.89,2.94,8.05,2.94,1.2,0,2.43-.18,3.67-.51.24.08.5.14.77.16l21.15.48h0Zm-39.2-19.77c-5.29,8.08-10.14,12.4-14.44,12.81h-.5c-1.42,0-3.03-.43-3.03-3.74,0-2.41.93-4.89,2.73-7.35,1.15-1.58,2.51-2.86,4.06-3.8,1.5-.91,3.13-1.37,4.82-1.37,2.08,0,4.22,1.17,6.36,3.45Zm-32.33-27.65c-1.41,5.67-3.66,11.53-6.68,17.43-2.78,5.4-6.37,10.54-10.69,15.29-.19-1.73-.3-3.47-.3-5.19,0-5.48,1.23-12.92,3.66-22.11,2.62-8.74,5.06-15.56,7.3-20.3,4.15-8.91,6.29-9.87,7.03-9.87.05,0,.19,0,.37.3,1.02,1.65,1.53,4.62,1.53,8.83s-.75,9.66-2.22,15.61v.02Z"/>
    <path class="cls-1" d="m256.11,65.05c-.75-.83-1.65-1.34-2.62-1.52-1.01-.18-2.09-.02-3.21.48-1.77.77-3.56,2.8-5.41,6.17-1.69-2.08-3.61-3.31-5.73-3.69-2.14-.4-3.99.06-5.53,1.37-1.01.86-1.65,2.03-1.9,3.43-.89,4.9,2.54,10.25,10.48,16.31-4.95,3.5-10,5.59-15.03,6.2-4.39.59-8.96.46-13.56-.38-5.41-.99-12.49-3-20.99-5.99-6.95-2.46-14.46-4.68-22.28-6.61-1.53-.38-3.15-.73-4.78-1.04-6.52-1.18-13.55-1.68-20.91-1.44h-.19c-5.1.14-10.06.72-14.81,1.71,2.54-6.5,4.18-11.76,4.89-15.65.16-.86.27-1.69.34-2.49.03-.78-.27-1.49-.88-2.06-.37-.34-.78-.54-1.25-.62-.61-.11-1.5-.06-2.38.83-14.34,15.93-19.93,18.82-22.12,18.4-.05,0-.27-.26-.32-1.28-.05-.85.03-1.85.24-2.97.59-3.29,2.27-7.78,5-13.48l.16-.56c.08-.45.05-.93-.13-1.44-.32-.86-.99-1.41-1.95-1.58-1.2-.21-2.17.29-2.75,1.42-2.88,6.01-4.7,11.02-5.4,14.87-.86,4.78-.02,7.97,2.52,9.46.51.3,1.07.53,1.66.62,1.34.24,2.94,0,4.76-.72,3.69-1.41,8.82-5.45,15.62-12.33-1.07,3.31-2.46,7.06-4.17,11.2-2.7.89-5.37,1.95-7.91,3.18-8.88,4.22-16.63,11.34-23.02,21.16-2.04,3.18-3.95,6.85-5.67,10.91-1.71,3.95-2.88,7.6-3.47,10.88-.45,2.49-.37,4.62.24,6.36.67,1.9,1.96,3.03,3.9,3.39.32.06.65.1,1.01.08,2.38,0,5.49-1.34,9.47-4.11,3.16-2.35,6.68-6.37,10.41-11.95,3.71-5.54,7.4-11.87,10.94-18.8,2.91-5.64,5.56-11.31,7.89-16.85,5.53-1.49,11.48-2.3,17.68-2.43l.34-.06c6.76-.16,13.27.34,19.34,1.44,7.54,1.37,16.4,3.88,26.34,7.44,8.59,3.05,16.08,5.18,22.3,6.29,5.7,1.04,11.55,1.01,17.38-.08,5.88-1.1,12.04-4.36,18.34-9.71,4.9-4.49,7.87-9.47,8.85-14.79.22-1.21.3-2.41.24-3.53-.16-2.35-.81-4.17-1.93-5.43h-.05Zm-3.23,5.7c.03.75-.03,1.57-.19,2.44-.22,1.2-.77,2.83-1.61,4.82-.78,1.84-2.38,3.91-4.78,6.2-5.96-4.25-9.18-7.95-9.57-11.02-.05-.4-.05-.73,0-1.01.08-.43.24-.58.35-.64.13-.08.32-.11.56-.11.16,0,.35.02.56.05,1.69.3,3.21,2.08,4.5,5.3.4.88,1.07,1.44,1.98,1.6.4.08.83.05,1.33-.1.72-.27,1.25-.8,1.53-1.52,3.23-8.24,4.81-8.21,4.89-8.21,0,0,.35.32.45,2.17v.02Zm-164.48,62.53l.06-.88c-.29-.83-.27-2.11.03-3.79.53-2.91,1.6-6.25,3.16-9.89,1.58-3.66,3.32-7.01,5.18-9.95,5.88-9.01,12.94-15.51,20.99-19.31.93-.46,1.88-.89,2.84-1.29-1.85,4.06-3.83,8.16-5.91,12.25-3.42,6.69-6.92,12.73-10.4,17.97-3.45,5.19-6.61,8.87-9.36,10.93-4.26,2.99-5.88,3.26-6.47,3.15l-.14.8h0l.02.02Z"/>
  </g>
  <g>
    <path class="cls-1" d="m139.52,139.33c-2.35-1.29-3.99-2.99-4.93-5.12v6.44h-5.39v-42.91h5.39v18.76c.94-2.17,2.48-3.93,4.63-5.3,2.14-1.37,4.81-2.11,8-2.24l1.35-.06c3.35,0,6.27.74,8.76,2.21,2.49,1.47,4.39,3.44,5.7,5.91,1.31,2.47,1.96,5.18,1.96,8.12s-.67,5.75-2.02,8.18c-1.35,2.43-3.3,4.36-5.85,5.79-2.55,1.43-5.55,2.15-8.98,2.15s-6.26-.64-8.61-1.93Zm-3.4-8.15c.98,1.78,2.42,3.17,4.32,4.17,1.9,1,4.16,1.5,6.77,1.5s4.73-.5,6.59-1.5c1.86-1,3.28-2.39,4.26-4.17s1.47-3.79,1.47-6.04-.49-4.27-1.47-6.07c-.98-1.8-2.4-3.21-4.26-4.23-1.86-1.02-4.06-1.53-6.59-1.53s-4.87.51-6.77,1.53c-1.9,1.02-3.34,2.43-4.32,4.23-.98,1.8-1.47,3.82-1.47,6.07s.49,4.26,1.47,6.04Z"/>
    <g>
      <path class="cls-1" d="m173.3,109.85c.35,0,.68-.05,1.07-.19,1.09-.52,2.08-1.26,2.96-2.2l.29-.26c.53-.59,1.04-1.05,1.52-1.37.76-.5,1.17-1.24,1.17-2.14,0-.48-.13-.94-.38-1.34-.48-.85-1.24-1.3-2.2-1.3-.48,0-.95.13-1.36.39-.62.37-1.76,1.33-3.5,2.96-.34.34-.48.4-.51.41-1.04.47-1.59,1.3-1.59,2.4,0,.3.05.62.17,1.02.42,1.04,1.25,1.62,2.36,1.62Z"/>
      <path class="cls-1" d="m195.67,127.77c-.88-.98-2.39-1.21-3.66-.2-2.78,2.44-5.65,4.42-8.53,5.86-4.01,1.98-7.14,2.51-8.58.99-.15-.18-.29-.4-.4-.62-.79-1.75-1.18-3.6-1.18-5.49,0-2.85.94-6.84,2.8-11.86.67-1.95.73-2.35.73-2.58,0-.43-.13-.88-.37-1.31-.31-.61-.95-1.33-2.27-1.33s-2.18.67-2.49,1.83c-.19.58-.33.99-.4,1.24-.05.15-.07.26-.05.24l-.16.27c-2.07,5.78-3.12,10.34-3.12,13.56,0,2.6.6,5.2,1.79,7.73.34.67.74,1.27,1.2,1.77,1.62,1.75,3.72,2.63,6.25,2.63h.79c2.4-.16,5.02-.95,7.8-2.36,3.26-1.65,6.52-3.88,9.72-6.66.57-.52.88-1.21.88-1.99,0-.61-.25-1.19-.74-1.73Z"/>
    </g>
    <path class="cls-1" d="m194.12,109.82h5.39v4.97c.9-1.8,2.34-3.22,4.32-4.26,1.98-1.04,4.22-1.56,6.71-1.56,2.61,0,4.86.54,6.74,1.62,1.88,1.08,3.27,2.53,4.17,4.35.9,1.82,1.25,3.79,1.04,5.91h-5.39c.08-2.08-.62-3.81-2.11-5.18-1.49-1.37-3.57-2.05-6.22-2.05-1.8,0-3.39.38-4.78,1.13-1.39.76-2.46,1.77-3.22,3.03-.76,1.27-1.13,2.64-1.13,4.11v18.76h-5.52v-30.83Z"/>
    <path class="cls-1" d="m233.23,139.11c-2.53-1.43-4.47-3.36-5.82-5.79-1.35-2.43-2.02-5.16-2.02-8.18s.65-5.65,1.96-8.12c1.31-2.47,3.2-4.44,5.67-5.91,2.47-1.47,5.38-2.21,8.73-2.21,3.6,0,6.57.7,8.92,2.08,2.35,1.39,4.04,3.23,5.06,5.52v-18.76h5.46v42.91h-5.46v-6.44c-.9,2.12-2.53,3.83-4.9,5.12-2.37,1.29-5.25,1.93-8.64,1.93s-6.42-.72-8.95-2.15Zm-.98-7.94c.98,1.78,2.4,3.17,4.26,4.17,1.86,1,4.05,1.5,6.59,1.5s4.87-.5,6.77-1.5c1.9-1,3.35-2.39,4.35-4.17,1-1.78,1.5-3.79,1.5-6.04s-.5-4.32-1.5-6.1c-1-1.78-2.45-3.18-4.35-4.2-1.9-1.02-4.16-1.53-6.77-1.53s-4.73.51-6.59,1.53c-1.86,1.02-3.28,2.43-4.26,4.23-.98,1.8-1.47,3.82-1.47,6.07s.49,4.26,1.47,6.04Z"/>
    <path class="cls-1" d="m273.93,139.88c-2.29-.92-4.12-2.22-5.48-3.89-1.37-1.68-2.08-3.64-2.11-5.88h5.39c.04,2.17,1.04,3.85,3,5.06,1.96,1.21,4.31,1.81,7.05,1.81s5.04-.41,6.65-1.23c1.61-.82,2.44-2,2.48-3.55,0-1.51-.68-2.67-2.05-3.46-1.37-.8-3.63-1.26-6.77-1.38-4.94-.2-8.82-1.06-11.62-2.57-2.8-1.51-4.2-3.66-4.2-6.44s1.33-5.14,3.98-6.83c2.66-1.7,6.15-2.54,10.48-2.54s8.01.99,10.79,2.97c2.78,1.98,4.25,4.71,4.41,8.18h-5.46c-.16-2.45-1.13-4.22-2.91-5.3-1.78-1.08-4.14-1.62-7.08-1.62-2.49,0-4.62.46-6.37,1.38-1.76.92-2.64,2.2-2.64,3.83,0,3.15,3.78,4.88,11.34,5.21,4.37.2,7.67,1.02,9.9,2.45,2.23,1.43,3.34,3.43,3.34,6.01,0,3.02-1.3,5.31-3.89,6.86-2.6,1.55-6.16,2.33-10.7,2.33-2.74,0-5.25-.46-7.54-1.38Z"/>
  </g>
</svg>