<?xml version="1.0" encoding="UTF-8"?>
<svg id="Layer_1" data-name="Layer 1" xmlns="http://www.w3.org/2000/svg" viewBox="0 0 289.82 87.43">
  <defs>
    <style>
      .cls-1 {
        fill: #8fbcee;
      }
    </style>
  </defs>
  <path class="cls-1" d="m63.49,51.94c.45,0,.83-.15,1.14-.44.31-.29.48-.66.51-1.18-.03-.44-.2-.81-.48-1.1s-.64-.45-1.09-.49l-8.26-.2c.53-.42,1.06-.87,1.6-1.37.16-.15.28-.32.37-.51.63-.63,1.24-1.28,1.84-1.96,2.9-3.29,4.68-6.15,5.29-8.54l.04-.26v-.06c-.04-.43-.2-.8-.48-1.1-.3-.31-.69-.48-1.13-.48l-8.06-.13c-.45,0-.84.16-1.13.45-.29.29-.45.66-.49,1.13,0,.45.15.83.44,1.14.3.31.69.48,1.14.48l5.72.09c-.83,1.54-2.09,3.28-3.75,5.16-1.44,1.64-2.88,3.02-4.31,4.14-1.82,1.28-3.49,1.94-4.97,1.94-1.14-.02-2.07-.36-2.86-1.04-.71-.63-1.25-1.46-1.6-2.47-.32-.9-.47-1.82-.47-2.75,0-1.33.33-2.72.99-4.13.09-.19.16-.31.17-.34l.15-.18v-.1c.09-.21.13-.43.13-.65,0-.64-.31-1.14-.85-1.4-.25-.12-.51-.19-.77-.19-.13,0-.3.02-.54.08-.33.08-.61.3-.81.66-.11.2-.22.38-.31.55-1.8-1.66-3.69-2.51-5.62-2.51h-.2c-1.59,0-3.1.43-4.51,1.28-1.39.84-2.57,1.95-3.52,3.29-1.5,2.02-2.27,4.14-2.31,6.29-.85.97-2.2,1.94-4.03,2.9-1.88.98-3.83,1.6-5.79,1.84-1.73.2-3.23-.11-4.43-1-.39-.3-.72-.7-.99-1.2l-.02-.15-.09-.1c-.15-.29-.29-.6-.42-.91,3.38-3.38,6.15-7.1,8.25-11.07,2.14-4.05,3.74-8.1,4.76-12.03,1.01-3.93,1.54-7.48,1.56-10.56v-.23c0-3.35-.47-5.74-1.45-7.31-1.44-2.3-3.49-2.49-5.94-.41-2.82,2.5-5.77,8.93-9.02,19.66-.05.1-.07.23-.09.38-1.57,5.98-2.36,11.06-2.36,15.09,0,.34.02,1.28.05,2.83.04,1.61.66,3.67,1.82,6.05l.07.18c.5.93,1.12,1.69,1.85,2.28,1.56,1.21,3.38,1.82,5.41,1.82.47,0,.95-.04,1.4-.11,2.4-.3,4.7-1.01,6.85-2.13,1.35-.72,2.49-1.47,3.46-2.24.24.39.52.74.86,1.04.9.77,2.05,1.16,3.42,1.16,1.65,0,3.47-.71,5.42-2.1,1.39-.96,2.86-2.4,4.37-4.31.38,2.31,1.39,4.19,3.01,5.61,1.37,1.22,3.06,1.84,5.04,1.84.75,0,1.52-.11,2.3-.32.15.05.31.09.48.1l13.24.3Zm-24.54-12.38c-3.31,5.06-6.35,7.76-9.04,8.02h-.31c-.89,0-1.9-.27-1.9-2.34,0-1.51.58-3.06,1.71-4.6.72-.99,1.57-1.79,2.54-2.38.94-.57,1.96-.86,3.02-.86,1.3,0,2.64.73,3.98,2.16Zm-20.24-17.31c-.88,3.55-2.29,7.22-4.18,10.91-1.74,3.38-3.99,6.6-6.69,9.57-.12-1.08-.19-2.17-.19-3.25,0-3.43.77-8.09,2.29-13.84,1.64-5.47,3.17-9.74,4.57-12.71,2.6-5.58,3.94-6.18,4.4-6.18.03,0,.12,0,.23.19.64,1.03.96,2.89.96,5.53s-.47,6.05-1.39,9.77Z"/>
  <path class="cls-1" d="m162.31,38.62c-.47-.52-1.03-.84-1.64-.95-.63-.11-1.31-.01-2.01.3-1.11.48-2.23,1.75-3.39,3.86-1.06-1.3-2.26-2.07-3.59-2.31-1.34-.25-2.5.04-3.46.86-.63.54-1.03,1.27-1.19,2.15-.56,3.07,1.59,6.42,6.56,10.21-3.1,2.19-6.26,3.5-9.41,3.88-2.75.37-5.61.29-8.49-.24-3.39-.62-7.82-1.88-13.14-3.75-4.35-1.54-9.05-2.93-13.95-4.14-.96-.24-1.97-.46-2.99-.65-4.08-.74-8.48-1.05-13.09-.9h-.12c-3.19.09-6.3.45-9.27,1.07,1.59-4.07,2.62-7.36,3.06-9.8.1-.54.17-1.06.21-1.56.02-.49-.17-.93-.55-1.29-.23-.21-.49-.34-.78-.39-.38-.07-.94-.04-1.49.52-8.98,9.97-12.48,11.78-13.85,11.52-.03,0-.17-.16-.2-.8-.03-.53.02-1.16.15-1.86.37-2.06,1.42-4.87,3.13-8.44l.1-.35c.05-.28.03-.58-.08-.9-.2-.54-.62-.88-1.22-.99-.75-.13-1.36.18-1.72.89-1.8,3.76-2.94,6.9-3.38,9.31-.54,2.99-.01,4.99,1.58,5.92.32.19.67.33,1.04.39.84.15,1.84,0,2.98-.45,2.31-.88,5.52-3.41,9.78-7.72-.67,2.07-1.54,4.42-2.61,7.01-1.69.56-3.36,1.22-4.95,1.99-5.56,2.64-10.41,7.1-14.41,13.25-1.28,1.99-2.47,4.29-3.55,6.83-1.07,2.47-1.8,4.76-2.17,6.81-.28,1.56-.23,2.89.15,3.98.42,1.19,1.23,1.9,2.44,2.12.2.04.41.06.63.05,1.49,0,3.44-.84,5.93-2.57,1.98-1.47,4.18-3.99,6.52-7.48,2.32-3.47,4.63-7.43,6.85-11.77,1.82-3.53,3.48-7.08,4.94-10.55,3.46-.93,7.19-1.44,11.07-1.52l.21-.04c4.23-.1,8.31.21,12.11.9,4.72.86,10.27,2.43,16.49,4.66,5.38,1.91,10.07,3.24,13.96,3.94,3.57.65,7.23.63,10.88-.05,3.68-.69,7.54-2.73,11.48-6.08,3.07-2.81,4.93-5.93,5.54-9.26.14-.76.19-1.51.15-2.21-.1-1.47-.51-2.61-1.21-3.4Zm-2.02,3.57c.02.47-.02.98-.12,1.53-.14.75-.48,1.77-1.01,3.02-.49,1.15-1.49,2.45-2.99,3.88-3.73-2.66-5.75-4.98-5.99-6.9-.03-.25-.03-.46,0-.63.05-.27.15-.36.22-.4.08-.05.2-.07.35-.07.1,0,.22.01.35.03,1.06.19,2.01,1.3,2.82,3.32.25.55.67.9,1.24,1,.25.05.52.03.83-.06.45-.17.78-.5.96-.95,2.02-5.16,3.01-5.14,3.06-5.14,0,0,.22.2.28,1.36Zm-102.97,39.15l.04-.55c-.18-.52-.17-1.32.02-2.37.33-1.82,1-3.91,1.98-6.19.99-2.29,2.08-4.39,3.24-6.23,3.68-5.64,8.1-9.71,13.14-12.09.58-.29,1.18-.56,1.78-.81-1.16,2.54-2.4,5.11-3.7,7.67-2.14,4.19-4.33,7.97-6.51,11.25-2.16,3.25-4.14,5.55-5.86,6.84-2.67,1.87-3.68,2.04-4.05,1.97l-.09.5h0Z"/>
  <path class="cls-1" d="m180.14,55.56c-1.58-.87-2.69-2.01-3.32-3.44v4.33h-3.63v-28.85h3.63v12.61c.63-1.46,1.67-2.64,3.11-3.57,1.44-.92,3.24-1.42,5.38-1.5l.91-.04c2.25,0,4.22.5,5.89,1.48,1.68.99,2.95,2.31,3.83,3.98.88,1.66,1.32,3.48,1.32,5.46s-.45,3.87-1.36,5.5c-.91,1.64-2.22,2.93-3.94,3.89-1.72.96-3.73,1.44-6.04,1.44s-4.21-.43-5.79-1.3Zm-2.29-5.48c.66,1.2,1.63,2.13,2.91,2.8,1.28.67,2.8,1.01,4.55,1.01s3.18-.34,4.43-1.01c1.25-.67,2.2-1.61,2.86-2.8s.99-2.55.99-4.06-.33-2.87-.99-4.08c-.66-1.21-1.61-2.16-2.86-2.84-1.25-.69-2.73-1.03-4.43-1.03s-3.28.34-4.55,1.03c-1.28.69-2.25,1.63-2.91,2.84-.66,1.21-.99,2.57-.99,4.08s.33,2.86.99,4.06Z"/>
  <g>
    <path class="cls-1" d="m202.85,35.73c.23,0,.46-.03.72-.13.73-.35,1.4-.85,1.99-1.48l.2-.17c.35-.4.7-.71,1.02-.92.51-.34.79-.84.79-1.44,0-.32-.09-.63-.26-.9-.32-.57-.83-.87-1.48-.87-.32,0-.64.09-.91.26-.42.25-1.18.9-2.35,1.99-.23.23-.32.27-.34.28-.7.31-1.07.87-1.07,1.61,0,.2.03.42.11.69.28.7.84,1.09,1.59,1.09Z"/>
    <path class="cls-1" d="m217.89,47.78c-.59-.66-1.61-.82-2.46-.14-1.87,1.64-3.8,2.97-5.74,3.94-2.69,1.33-4.8,1.68-5.77.66-.1-.12-.2-.27-.27-.41-.53-1.18-.8-2.42-.8-3.69,0-1.92.63-4.6,1.88-7.98.45-1.31.49-1.58.49-1.73,0-.29-.09-.59-.25-.88-.21-.41-.64-.89-1.53-.89s-1.47.45-1.67,1.23c-.13.39-.22.67-.27.83-.03.1-.05.17-.04.16l-.11.18c-1.39,3.89-2.1,6.95-2.1,9.12,0,1.75.4,3.5,1.2,5.2.23.45.5.85.81,1.19,1.09,1.17,2.5,1.77,4.2,1.77h.53c1.61-.11,3.38-.64,5.24-1.58,2.19-1.11,4.38-2.61,6.54-4.47.38-.35.59-.81.59-1.34,0-.41-.17-.8-.5-1.16Z"/>
  </g>
  <path class="cls-1" d="m216.85,35.71h3.63v3.34c.6-1.21,1.57-2.16,2.91-2.86,1.33-.7,2.84-1.05,4.51-1.05,1.76,0,3.27.36,4.53,1.09,1.26.73,2.2,1.7,2.8,2.93.6,1.22.84,2.55.7,3.98h-3.63c.06-1.4-.42-2.56-1.42-3.48-1-.92-2.4-1.38-4.18-1.38-1.21,0-2.28.25-3.21.76-.93.51-1.66,1.19-2.16,2.04-.51.85-.76,1.77-.76,2.76v12.61h-3.71v-20.73Z"/>
  <path class="cls-1" d="m243.15,55.41c-1.7-.96-3.01-2.26-3.92-3.89-.91-1.63-1.36-3.47-1.36-5.5s.44-3.8,1.32-5.46c.88-1.66,2.15-2.99,3.81-3.98,1.66-.99,3.62-1.48,5.87-1.48,2.42,0,4.42.47,6,1.4,1.58.93,2.71,2.17,3.4,3.71v-12.61h3.67v28.85h-3.67v-4.33c-.6,1.43-1.7,2.58-3.3,3.44-1.59.87-3.53,1.3-5.81,1.3s-4.31-.48-6.02-1.44Zm-.66-5.34c.66,1.2,1.61,2.13,2.86,2.8,1.25.67,2.73,1.01,4.43,1.01s3.28-.34,4.55-1.01c1.28-.67,2.25-1.61,2.93-2.8.67-1.2,1.01-2.55,1.01-4.06s-.34-2.91-1.01-4.1c-.67-1.2-1.65-2.14-2.93-2.82-1.28-.69-2.8-1.03-4.55-1.03s-3.18.34-4.43,1.03c-1.25.69-2.2,1.63-2.86,2.84-.66,1.21-.99,2.57-.99,4.08s.33,2.86.99,4.06Z"/>
  <path class="cls-1" d="m270.51,55.93c-1.54-.62-2.77-1.49-3.69-2.62-.92-1.13-1.4-2.44-1.42-3.96h3.63c.03,1.46.7,2.59,2.02,3.4,1.32.81,2.9,1.22,4.74,1.22s3.39-.27,4.47-.82c1.09-.55,1.64-1.35,1.67-2.39,0-1.02-.46-1.79-1.38-2.33-.92-.54-2.44-.84-4.55-.93-3.32-.14-5.93-.71-7.81-1.73-1.88-1.02-2.82-2.46-2.82-4.33s.89-3.45,2.68-4.59c1.79-1.14,4.13-1.71,7.05-1.71s5.38.67,7.25,2c1.87,1.33,2.86,3.17,2.97,5.5h-3.67c-.11-1.65-.76-2.84-1.96-3.57-1.2-.73-2.78-1.09-4.76-1.09-1.68,0-3.11.31-4.29.93-1.18.62-1.77,1.48-1.77,2.58,0,2.12,2.54,3.28,7.62,3.5,2.94.14,5.16.69,6.66,1.65,1.5.96,2.25,2.31,2.25,4.04,0,2.03-.87,3.57-2.62,4.62-1.75,1.04-4.14,1.57-7.19,1.57-1.84,0-3.53-.31-5.07-.93Z"/>
</svg>