<svg xmlns="http://www.w3.org/2000/svg" width="50" height="50" viewBox="0 0 50 50" fill="none">
  <path d="M14.6132 21.0084C19.6605 24.5334 23.1587 30.1229 28.156 33.7989C28.9556 34.4031 30.5547 33.5471 29.8051 32.54C27.6563 29.72 24.5079 27.3533 21.8094 25.0873C20.0103 23.5766 17.4117 20.4042 14.863 20.5049C14.5632 20.4545 14.3633 20.807 14.6132 21.0084Z" fill="#FF81C9"/>
  <path d="M17.5901 31.8502C20.9821 28.9632 24.1246 25.6709 27.5665 22.7331C29.1627 21.3655 30.709 19.998 32.3053 18.6304C33.9015 17.3135 35.6972 16.3005 37.2436 14.9836C37.892 14.4264 37.1937 13.3627 36.4455 13.5147C32.7043 14.1225 29.1627 18.2759 26.4192 20.7577C22.9773 23.8474 19.0866 27.2917 16.5925 31.2424C16.1934 31.9009 17.191 32.2048 17.5901 31.8502Z" fill="#FF81C9"/>
  <path d="M25.364 10.5555C20.0924 9.45244 12.9806 12.6112 9.79773 16.9733C7.95762 19.4803 7.70897 22.5388 8.25603 25.5471C8.80309 28.4051 9.59878 32.0652 11.5881 34.2714C13.4282 36.2769 16.3624 38.2324 18.9485 38.9844C20.4405 39.4357 22.0319 39.4357 23.5737 39.6363C25.3143 39.8368 27.1047 40.1878 28.895 39.9371C34.0672 39.2351 38.3442 33.2184 39.4383 28.4051C42.0741 16.6725 30.4865 6.74492 19.3961 11.0068C14.1245 13.0123 8.75335 18.4274 9.39987 24.3939C10.0961 30.7115 12.7319 35.9761 18.6501 38.834C24.817 41.8424 32.7244 40.7393 37.648 35.8257C42.5715 30.912 43.3175 23.4413 39.8859 17.4747C39.4383 16.7226 38.1453 17.4246 38.5929 18.2268C44.6603 28.8062 34.7635 41.341 23.1758 38.7839C18.1031 37.6808 13.4779 33.8703 11.986 28.8062C11.3394 26.5499 10.6432 23.1906 11.3394 20.8842C12.1351 18.2769 14.8207 15.8201 16.9592 14.2658C25.2148 8.04854 37.1009 13.5137 37.9961 23.8424C38.394 28.6056 36.2554 32.9677 32.8239 36.2268C30.387 38.5332 27.9501 38.6836 24.817 38.2825C21.6341 37.8814 18.8988 37.731 16.1138 35.926C13.6271 34.3215 12.0357 32.7672 11.0908 29.9092C10.1458 27.0012 9.10147 23.7923 9.79773 20.6836C11.1405 15.0179 19.7442 10.7059 25.1153 11.5583C25.8116 11.6084 26.0603 10.7059 25.364 10.5555Z" fill="#FF81C9"/>
</svg>