<svg width="84" height="66" viewBox="0 0 84 66" fill="none" xmlns="http://www.w3.org/2000/svg">
<path d="M1.14034 26.4454C1.96313 23.735 5.25347 22.8664 7.88758 22.3736C11.8711 21.6531 15.9378 21.2321 19.9952 20.9732C28.2486 20.3679 36.7885 20.5982 44.8015 23.039C52.0935 25.2317 59.0527 29.1601 63.7935 35.0782C68.2849 40.6847 71.6761 49.177 71.2042 56.2801C71.1301 57.5783 69.2447 57.2456 68.8659 56.2729C66.2138 50.0506 65.9925 43.3859 61.9079 37.6786C57.4813 31.5227 50.5036 27.3322 43.3133 25.1143C36.4833 23.0203 29.2836 22.7246 22.1854 22.9903C18.8027 23.1352 15.383 23.3427 12.0188 23.7497C7.95212 24.1708 5.11469 24.7139 1.74104 27.0432C1.39907 27.1812 1.05713 26.7327 1.14034 26.4454Z" fill="#FF81C9"/>
<path d="M55.8034 41.7296C60.6717 47.6087 65.7868 53.2147 71.596 58.2238C70.9582 58.4378 70.2936 58.5532 69.6558 58.7672C70.8817 51.0835 72.0074 43.4251 73.133 35.7668C73.4413 33.9507 76.2485 34.8208 75.9867 36.4145C74.6973 44.0615 73.3445 51.672 72.0551 59.3191C71.9327 60.2454 70.8038 60.4256 70.1149 59.8624C64.2154 54.7182 58.8095 49.0277 54.2345 42.6531C53.5115 41.5719 55.007 40.7723 55.8034 41.7296Z" fill="#FF81C9"/>
</svg>
