<svg width="97" height="77" viewBox="0 0 97 77" fill="none" xmlns="http://www.w3.org/2000/svg">
<path d="M96.5218 30.9029C95.5899 27.6712 91.7596 26.5798 88.6911 25.9467C84.0505 25.0185 79.3098 24.4441 74.5782 24.0625C64.954 23.1927 54.987 23.3093 45.612 26.0589C37.0806 28.5274 28.9197 33.062 23.3265 39.9986C18.0276 46.5701 13.9825 56.5865 14.4594 65.0252C14.5323 66.5673 16.7358 66.207 17.1879 65.0596C20.347 57.7236 20.6744 49.8179 25.4997 43.1194C30.7287 35.8948 38.9139 31.0495 47.3269 28.5492C55.318 26.1895 63.722 25.9706 72.0016 26.4162C75.9471 26.6503 79.9351 26.9592 83.8564 27.504C88.5972 28.0784 91.9023 28.7751 95.8146 31.6013C96.2122 31.7715 96.6159 31.2454 96.5218 30.9029Z" fill="#003996"/>
<path d="M32.6147 47.9723C26.8652 54.8724 20.8301 61.4433 13.9903 67.2919C14.7332 67.5579 15.5085 67.7073 16.2514 67.9733C14.8996 58.8165 13.6646 49.6917 12.4296 40.5669C12.0885 38.4024 8.79948 39.3854 9.08867 41.2847C10.5151 50.3991 12.016 59.4712 13.4424 68.5856C13.5757 69.689 14.8927 69.9238 15.7035 69.267C22.6503 63.2593 29.026 56.5933 34.4381 49.0988C35.2941 47.8267 33.5552 46.8488 32.6147 47.9723Z" fill="#003996"/>
</svg>
