<svg width="1141" height="80" viewBox="0 0 1141 80" fill="none" xmlns="http://www.w3.org/2000/svg">
<path d="M0.137573 9.87659C-0.298954 14.1979 0.283082 18.5192 2.1747 22.6441C4.06632 26.7691 6.9765 30.6975 10.6142 34.2332C17.8897 41.4027 28.0753 46.9025 39.425 50.9292C50.7747 54.9559 62.9975 57.7059 75.3657 59.6701C87.734 61.7326 100.393 63.0093 113.198 63.6968C138.662 64.9736 164.417 63.5986 189.299 59.4737C201.668 57.4112 213.89 54.6613 225.677 51.3221C237.463 47.9829 248.958 44.1526 260.453 40.4205C271.948 36.6885 283.298 32.8582 295.23 29.7154C307.016 26.4744 319.093 23.9209 331.607 22.3495C344.121 20.7781 356.78 20.6799 369.439 21.4656C381.953 22.3495 394.321 24.412 406.399 27.0637C430.553 32.4654 453.107 40.4205 475.661 48.3757C498.215 56.3309 520.769 64.5807 544.923 70.6699C556.855 73.7144 569.369 76.1697 582.028 77.7411C594.687 79.3125 607.638 80 620.442 80C646.197 79.8036 671.953 76.3662 695.816 69.7859C707.748 66.4467 719.243 62.3218 730.011 57.6076C740.778 52.8935 751.109 47.8847 761.877 43.3669C767.261 41.108 772.645 38.9474 778.32 37.0813C781.084 36.1974 783.994 35.3135 786.905 34.4296C789.815 33.6439 792.725 32.8582 795.635 32.1707C807.421 29.3226 819.79 27.4565 832.304 26.3762C857.331 24.1173 882.795 24.8048 907.968 26.4744C920.627 27.3583 933.141 28.4387 945.8 29.6172C958.46 30.7958 970.974 32.1707 983.487 33.6439C1033.11 39.3402 1082.69 46.8931 1131 57.5L1132.78 54.2685C1084.03 43.7598 1034.56 34.9207 984.069 29.0279C971.41 27.5548 958.896 26.278 946.092 25.0995C933.432 23.9209 920.773 22.8406 907.968 22.0549C882.504 20.4835 856.603 19.8942 830.994 22.3495C818.189 23.5281 805.53 25.4923 793.307 28.4387C790.251 29.2244 787.196 30.0101 784.286 30.894C781.375 31.7779 778.32 32.76 775.41 33.6439C769.589 35.6081 764.06 37.867 758.676 40.2241C747.763 44.8401 737.577 49.9471 726.955 54.6613C716.333 59.3755 705.274 63.4022 693.633 66.6432C670.352 73.2234 645.179 76.6608 620.006 76.9554C607.347 77.0536 594.687 76.4644 582.319 74.893C569.951 73.4198 557.728 71.0627 545.796 68.1163C521.933 62.2236 499.379 54.1702 476.825 46.3133C454.126 38.4563 431.281 30.5011 406.835 25.0995C394.612 22.4477 382.099 20.4835 369.294 19.5996C356.489 18.8139 343.539 19.0103 330.879 20.5817C318.22 22.1531 305.997 24.903 294.211 28.144C282.425 31.385 270.93 35.2153 259.435 39.0456C247.939 42.8758 236.59 46.7061 224.949 50.0453C213.308 53.4827 201.231 56.2327 188.863 58.2951C164.272 62.5183 138.517 63.9914 113.198 62.8129C100.539 62.2236 87.8795 60.9469 75.5112 58.9826C63.143 57.0184 50.9202 54.3666 39.5705 50.4382C28.3663 46.5097 18.0352 41.0098 10.7597 33.9385C7.122 30.5993 4.21182 26.7691 2.32021 22.6441C0.428591 18.5192 -0.298954 14.1979 0.137573 9.87659Z" fill="#003996"/>
<path d="M1061.5 63L1084 61.5L1140.5 57.5L1131.89 54.476L1061.5 63Z" fill="#003996"/>
<path d="M1132.43 57.7193L1129.5 57.5L1140.7 57.5901L1077 26.8515L1104.4 43.2408L1129.5 57.5L1140.7 57.5901L1140.5 57.5L1132.43 57.7193Z" fill="#003996"/>
</svg>
