<svg width="100" height="80" viewBox="0 0 100 80" fill="none" xmlns="http://www.w3.org/2000/svg">
<path d="M98.5218 37.9028C97.5899 34.671 93.7596 33.5797 90.6911 32.9466C86.0505 32.0184 81.3098 31.444 76.5782 31.0624C66.954 30.1925 56.987 30.3091 47.612 33.0588C39.0806 35.5273 30.9197 40.0619 25.3265 46.9985C20.0276 53.5699 15.9825 63.5864 16.4594 72.0251C16.5323 73.5672 18.7358 73.2069 19.1879 72.0595C22.347 64.7234 22.6744 56.8178 27.4997 50.1193C32.7287 42.8947 40.9139 38.0494 49.3269 35.5491C57.318 33.1893 65.722 32.9705 74.0015 33.4161C77.9471 33.6502 81.9352 33.9591 85.8564 34.5039C90.5972 35.0783 93.9023 35.775 97.8146 38.6012C98.2122 38.7714 98.6159 38.2453 98.5218 37.9028Z" fill="#002053"/>
<path d="M34.6147 54.9723C28.8652 61.8724 22.8301 68.4433 15.9903 74.2919C16.7332 74.5579 17.5085 74.7073 18.2514 74.9733C16.8996 65.8165 15.6646 56.6917 14.4296 47.5669C14.0885 45.4024 10.7995 46.3854 11.0887 48.2847C12.5151 57.3991 14.016 66.4712 15.4424 75.5856C15.5757 76.689 16.8927 76.9238 17.7035 76.267C24.6503 70.2593 31.026 63.5933 36.4381 56.0988C37.2941 54.8267 35.5552 53.8488 34.6147 54.9723Z" fill="#002053"/>
</svg>
