<svg width="97" height="77" viewBox="0 0 97 77" fill="none" xmlns="http://www.w3.org/2000/svg">
<path d="M96.5198 30.9037C95.5879 27.6719 91.7576 26.5806 88.6892 25.9474C84.0486 25.0193 79.3078 24.4449 74.5762 24.0633C64.9521 23.1934 54.9851 23.31 45.61 26.0596C37.0787 28.5282 28.9177 33.0628 23.3245 39.9993C18.0257 46.5708 13.9805 56.5873 14.4575 65.0259C14.5304 66.5681 16.7338 66.2078 17.186 65.0603C20.345 57.7243 20.6724 49.8187 25.4978 43.1201C30.7267 35.8955 38.912 31.0502 47.3249 28.5499C55.316 26.1902 63.72 25.9713 71.9996 26.4169C75.9451 26.651 79.9332 26.96 83.8545 27.5048C88.5952 28.0792 91.9004 28.7758 95.8127 31.6021C96.2103 31.7722 96.6139 31.2461 96.5198 30.9037Z" fill="#002053"/>
<path d="M32.6133 47.9721C26.8637 54.8721 20.8286 61.443 13.9888 67.2916C14.7317 67.5577 15.507 67.707 16.25 67.973C14.8982 58.8163 13.6632 49.6915 12.4282 40.5667C12.087 38.4021 8.79802 39.3852 9.08721 41.2844C10.5136 50.3989 12.0146 59.4709 13.4409 68.5853C13.5742 69.6888 14.8913 69.9236 15.7021 69.2667C22.6488 63.2591 29.0245 56.5931 34.4366 49.0986C35.2926 47.8265 33.5537 46.8486 32.6133 47.9721Z" fill="#002053"/>
</svg>
