<svg width="51" height="46" viewBox="0 0 51 46" fill="none" xmlns="http://www.w3.org/2000/svg">
<path fill-rule="evenodd" clip-rule="evenodd" d="M34.5517 0.601422C33.8808 0.528361 32.6765 0.532729 32.0924 0.610316C31.9111 0.634381 31.4132 0.732682 30.9861 0.828729C29.4696 1.1697 28.4641 1.62661 26.977 2.65041C26.5329 2.95618 26.3851 3.07479 26.073 3.3759C26.015 3.43194 25.9497 3.4878 25.928 3.50005C25.8467 3.54599 25.3636 4.04858 25.0477 4.41597C24.0438 5.58346 23.304 6.87934 22.3526 9.13685C22.3191 9.21641 22.2386 9.42651 22.1736 9.6037C22.1087 9.78092 22.026 10.0048 21.9899 10.1013C21.9537 10.1978 21.8529 10.4843 21.7659 10.7381C21.6645 11.0336 21.5763 11.2034 21.5206 11.2105C21.4727 11.2166 21.1759 11.0663 20.8609 10.8764C19.9574 10.3318 18.5049 9.59091 17.8364 9.3338C17.7081 9.2844 17.5509 9.22241 17.4871 9.19605C17.3377 9.13423 16.4446 8.79624 15.8805 8.58805C14.6491 8.13358 11.6243 7.42018 9.95786 7.19123C9.64009 7.14759 9.18636 7.08206 8.94955 7.04562C8.35365 6.95386 8.0645 6.96814 7.91836 7.09642C7.75461 7.24011 7.72521 7.38093 7.77558 7.77948C7.82416 8.16368 8.17956 9.69524 8.24525 9.80337C8.26992 9.84399 8.28246 9.90844 8.27312 9.94669C8.25229 10.032 8.93236 12.2734 9.05011 12.5076C9.07438 12.5559 9.09062 12.6104 9.08615 12.6287C9.07281 12.6834 9.36093 13.3981 9.41043 13.4333C9.43561 13.4511 9.448 13.4992 9.438 13.5402C9.42798 13.5812 9.48245 13.7429 9.55902 13.8995C9.63558 14.0562 9.77996 14.3766 9.87978 14.6116C9.9796 14.8465 10.0803 15.0786 10.1035 15.1273C10.1267 15.176 10.1827 15.2997 10.2278 15.4024C10.273 15.5051 10.369 15.6999 10.4412 15.8355C10.5134 15.9711 10.6699 16.2709 10.7891 16.5019C11.0928 17.0908 11.9401 18.4823 12.3575 19.0777C12.5504 19.353 12.7413 19.6294 12.7816 19.6919C12.822 19.7544 13.0495 20.0669 13.2873 20.3863C13.525 20.7058 13.7807 21.0626 13.8554 21.1792C13.9301 21.2959 14.0103 21.3959 14.0336 21.4016C14.1331 21.4259 14.095 21.6153 13.9884 21.6261C13.926 21.6324 13.7321 21.6933 13.5575 21.7614C13.2357 21.8869 12.0022 22.2459 11.9427 22.2313C11.9249 22.227 11.7225 22.2599 11.493 22.3045C10.7443 22.4498 10.5497 22.4792 9.98677 22.5323C9.23258 22.6034 8.04912 22.6307 7.54784 22.5884C7.42745 22.5783 7.08841 22.5554 6.79442 22.5375C5.65545 22.4683 3.53889 21.9951 1.90836 21.4453C0.498498 20.9697 0.234658 21.0176 0.353191 21.7272C0.390433 21.9503 0.539537 22.2633 0.833409 22.7355C1.3512 23.5675 1.71042 24.1053 1.95913 24.4208C2.06195 24.5512 2.16956 24.6923 2.19827 24.7344C2.56181 25.2676 3.087 25.9323 3.5415 26.4346C3.60261 26.5021 3.76624 26.6951 3.90509 26.8632C4.04393 27.0314 4.26349 27.2703 4.39287 27.3941C4.52233 27.5179 4.6381 27.6376 4.65017 27.6601C4.67928 27.7144 5.05719 28.1098 5.15853 28.1919C5.20249 28.2275 5.40165 28.4116 5.60112 28.601C5.8006 28.7904 6.07111 29.0351 6.20229 29.1448C6.33346 29.2545 6.45023 29.3644 6.46176 29.3891C6.4916 29.4527 7.5226 30.2786 7.59391 30.296C7.62644 30.3039 7.72769 30.3759 7.81885 30.4561C8.16725 30.7622 8.26728 30.8355 8.88271 31.2362C9.55001 31.6707 10.8652 32.4651 11.1074 32.5801C11.1861 32.6173 11.3648 32.7089 11.5045 32.7835C11.8825 32.9852 11.9542 33.0196 12.3327 33.1819C12.5233 33.2636 12.7683 33.3777 12.877 33.4355C13.0913 33.5492 13.2359 33.6096 13.9485 33.883C15.5285 34.4893 16.1201 34.672 17.9755 35.1267C19.6633 35.5403 19.7693 35.5732 19.706 35.6626C19.6689 35.7149 19.5623 35.9115 19.469 36.0993C19.3111 36.4174 18.7353 37.4633 18.5089 37.8434C18.4541 37.9353 18.3105 38.2161 18.1898 38.4675C17.8043 39.2698 17.4473 39.6271 16.583 40.0754C15.8253 40.4684 14.8161 41.0999 14.6272 41.2993C14.1628 41.7896 14.1628 42.5324 14.6272 42.9974C15.0828 43.4535 15.7476 43.4506 16.5735 42.989C16.8162 42.8534 17.0398 42.7582 17.0703 42.7774C17.1009 42.7967 17.1228 42.8966 17.1189 42.9994C17.1082 43.2813 17.2252 44.1486 17.2975 44.3232C17.4111 44.5981 17.6152 44.7434 18.0485 44.8577C18.5925 45.0012 18.8758 44.91 19.2081 44.484C19.3375 44.3181 19.4593 44.1181 19.4789 44.0395C19.4985 43.9609 19.5553 43.8009 19.6052 43.6839C19.6911 43.4827 19.7036 43.4765 19.838 43.5689C19.916 43.6227 20.0101 43.7074 20.047 43.7572C20.2602 44.0443 20.8895 44.2684 21.2488 44.1852C21.5111 44.1244 21.8659 43.9316 21.8889 43.8374C21.8981 43.7996 21.9807 43.7264 22.0723 43.6746L22.2389 43.5803L22.1726 43.8635C22.0334 44.4589 22.3468 45.0332 22.93 45.2509C23.1862 45.3466 23.2913 45.3519 23.5916 45.2842C23.9255 45.2091 24.3608 44.9217 24.4412 44.7236C24.4582 44.6818 24.5304 44.5929 24.6018 44.5261C24.7304 44.4058 24.8917 44.179 24.9234 44.0738C24.9726 43.9109 25.1004 44.0582 25.2493 44.4495C25.4908 45.0836 25.5712 45.2168 25.8329 45.4152C26.1471 45.6534 26.3453 45.6916 26.809 45.6029C27.5052 45.4697 27.7957 45.0314 27.745 44.1901C27.7304 43.9471 27.7211 43.7374 27.7243 43.7241C27.7276 43.7107 27.9563 43.7595 28.2325 43.8324C28.9992 44.0349 29.4619 43.8892 29.8269 43.3304C30.2232 42.7237 29.918 41.8284 29.2156 41.5374C29.1359 41.5043 28.9148 41.41 28.7243 41.3277C28.5338 41.2454 28.2087 41.1064 28.0019 41.0189C27.7952 40.9312 27.4453 40.7813 27.2244 40.6855L26.8228 40.5115L26.8884 39.7617C26.9244 39.3493 26.9914 38.5615 27.0372 38.011C27.1896 36.1803 27.2382 35.729 27.2909 35.653C27.3196 35.6116 27.4548 35.5693 27.5914 35.5592C27.7279 35.5491 27.9747 35.5173 28.1396 35.4885C28.3046 35.4598 28.5882 35.4109 28.7698 35.3799C29.3842 35.2751 31.1573 34.8502 31.5647 34.7102C32.2917 34.4602 33.2294 34.1051 33.3756 34.0244C33.4542 33.9809 33.5395 33.9505 33.5649 33.9567C33.6192 33.9699 34.3966 33.5916 35.194 33.1639C35.8384 32.8182 37.3122 31.8318 37.7772 31.435C37.8658 31.3594 38.0466 31.2072 38.1788 31.0969C38.6092 30.738 39.1118 30.2818 39.1217 30.241C39.1271 30.2191 39.2369 30.1069 39.3657 29.9916C39.6909 29.7006 40.8122 28.4027 41.2179 27.8476C41.403 27.5944 41.6096 27.3146 41.6771 27.2258C42.4656 26.187 43.8124 23.6698 44.2594 22.3996C44.3333 22.1894 44.5233 21.6614 44.6816 21.2262C44.9621 20.4548 45.7912 17.2419 45.8309 16.7722C45.8406 16.6582 45.8825 16.3579 45.9241 16.1048C45.9658 15.8517 46.0276 15.4216 46.0614 15.1491C46.0954 14.8765 46.1641 14.4123 46.2142 14.1174L46.3053 13.5812L46.4765 13.6222C48.4218 14.0884 49.0178 14.1968 49.3684 14.1485C49.5677 14.1209 49.7379 14.1002 49.7466 14.1023C49.7554 14.1044 49.7832 14.0179 49.8084 13.91C49.8578 13.6987 49.8025 13.5223 49.6659 13.4553C49.619 13.4323 49.5465 13.3635 49.5049 13.3023C49.4632 13.2411 49.3808 13.1668 49.3218 13.137C49.1937 13.0723 48.0004 12.2681 47.464 11.8848C47.2544 11.7351 46.9862 11.5688 46.8681 11.5153C46.75 11.4619 46.6584 11.3979 46.6644 11.3731C46.679 11.3133 47.0442 10.9848 47.2364 10.8585C47.3203 10.8033 47.3938 10.7382 47.3998 10.7137C47.4058 10.6892 47.4539 10.6417 47.5067 10.6082C47.5595 10.5748 47.783 10.3903 48.0033 10.1984C48.2236 10.0065 48.4652 9.80876 48.54 9.75894C48.6149 9.70919 48.681 9.64843 48.687 9.62392C48.693 9.59941 48.7409 9.55186 48.7934 9.5183C48.846 9.48479 48.9512 9.40071 49.0273 9.33154C49.1034 9.26237 49.3481 9.04927 49.5709 8.85797C49.7938 8.66667 50.0423 8.42579 50.1231 8.32268C50.3203 8.07136 50.4633 7.66004 50.3822 7.57738C50.2592 7.45193 49.7691 7.33879 49.4851 7.37028C49.327 7.38784 48.962 7.42616 48.674 7.45553C48.1551 7.50843 47.8063 7.55671 47.4189 7.62935C46.4672 7.80785 46.0716 7.85568 45.8102 7.82371C45.5493 7.79184 45.4745 7.75392 45.2854 7.55784C45.1641 7.43205 45.0122 7.19736 44.9478 7.03619C44.8834 6.87509 44.7753 6.67274 44.7077 6.58653C44.64 6.50031 44.5139 6.31872 44.4276 6.18309C44.3413 6.04739 44.2545 5.93232 44.2348 5.92732C44.215 5.92236 44.1358 5.82394 44.0586 5.70866C43.813 5.34158 42.5035 3.99777 42.1124 3.71125C41.9973 3.62706 41.8064 3.48243 41.6882 3.38986C41.4451 3.19966 40.1626 2.38566 39.9565 2.29072C39.8822 2.25651 39.6516 2.14238 39.444 2.03712C38.9116 1.76724 38.8659 1.74626 38.6034 1.65089C38.4745 1.60408 38.1319 1.47799 37.8422 1.37075C37.1182 1.10279 35.3415 0.687363 34.5517 0.601422ZM35.2577 1.7615C33.8429 1.64338 33.2484 1.61508 32.7658 1.64281C32.4631 1.66019 32.1742 1.67217 32.1238 1.66937C32.0733 1.66661 31.9701 1.67735 31.8946 1.6933C31.819 1.70924 31.4932 1.77507 31.1706 1.83966C30.0091 2.07213 29.1309 2.42642 28.1435 3.06088C27.3656 3.56061 27.1639 3.72068 26.4605 4.39593C26.1473 4.69662 25.5846 5.35024 25.3709 5.66159C24.9832 6.22653 24.4986 6.96302 24.4544 7.05441C24.4267 7.11184 24.3792 7.20076 24.3489 7.25202C24.3187 7.30322 24.2555 7.4339 24.2087 7.54238C24.1619 7.65088 24.1083 7.75465 24.0896 7.77307C24.0709 7.79147 24.0275 7.86947 23.9932 7.94635C23.9588 8.02329 23.8756 8.18761 23.8083 8.31157C23.707 8.49814 23.3374 9.42431 22.88 10.6378C22.7015 11.1114 22.0335 13.4573 21.7092 14.7495C21.4871 15.6342 21.391 15.9073 21.0246 16.6945C20.8343 17.1034 20.2968 18.0216 20.0766 18.3139C20.0097 18.4028 19.9493 18.4887 19.9424 18.5046C19.8975 18.6095 18.951 19.6665 18.9109 19.6567C18.8835 19.65 18.8536 19.6749 18.8445 19.7121C18.8302 19.7706 18.2182 20.3301 17.9853 20.4977C17.9409 20.5296 17.8158 20.6252 17.7073 20.71C17.2553 21.0635 16.074 21.836 16.0095 21.8202C15.9811 21.8133 15.8902 21.8607 15.8074 21.9257C15.7246 21.9905 15.4898 22.1118 15.2857 22.1951C15.0815 22.2783 14.8971 22.3589 14.8758 22.3741C14.8545 22.3893 14.7262 22.4443 14.5907 22.4963C14.4551 22.5483 14.2856 22.623 14.2139 22.6623C14.0952 22.7274 13.7531 22.8404 12.8579 23.1099C12.4898 23.2206 11.4457 23.4426 10.9261 23.5206C10.7673 23.5444 9.63139 23.6513 9.58705 23.6466C9.56994 23.6448 9.52682 23.6449 9.49123 23.6469C9.12359 23.6674 8.61806 23.6732 8.46725 23.6586C8.36438 23.6486 8.2064 23.6487 8.11617 23.6588C7.93322 23.6794 7.08445 23.6151 6.14229 23.5094C5.7364 23.4638 4.92191 23.2887 3.79258 23.0041C2.34099 22.6383 2.06075 22.5821 2.04338 22.6532C2.032 22.6999 2.24221 23.0444 2.51056 23.4191C2.77886 23.7937 3.02122 24.1344 3.04908 24.1763C3.07695 24.2182 3.16172 24.3251 3.23752 24.4138C3.31325 24.5025 3.40078 24.6145 3.43192 24.6626C3.46306 24.7107 3.68661 24.9879 3.92862 25.2785C4.17066 25.5691 4.50373 25.9691 4.66874 26.1673C4.83381 26.3656 5.00051 26.5355 5.03923 26.545C5.07802 26.5544 5.10309 26.5893 5.095 26.6224C5.08691 26.6555 5.11673 26.6915 5.16124 26.7024C5.20581 26.7133 5.30432 26.8088 5.38014 26.9147C5.51349 27.1009 5.61421 27.1989 6.58202 28.0844C7.38791 28.8217 8.50042 29.7288 8.94856 30.014C9.08893 30.1033 9.245 30.2148 9.29539 30.2617C9.44677 30.4027 10.6144 31.135 11.2746 31.5032C12.3202 32.0863 13.8422 32.7885 14.7137 33.0901C14.9389 33.168 15.1758 33.2564 15.2401 33.2866C15.503 33.41 16.3041 33.6483 17.3252 33.9068C18.8396 34.2902 18.8204 34.2959 19.3834 33.3022C19.5494 33.0093 19.7219 32.7211 19.7667 32.6618C19.8115 32.6026 19.9307 32.4163 20.0316 32.2479C20.2379 31.9032 20.8015 31.0833 21.0834 30.7177C21.1859 30.5847 21.3053 30.4272 21.3488 30.3676C21.3923 30.308 21.6241 30.02 21.8639 29.7275C22.256 29.2494 22.5193 28.9558 23.0612 28.3924C23.1569 28.2929 23.2786 28.1647 23.3317 28.1075C23.3847 28.0502 23.6216 27.8259 23.8582 27.6091C24.0947 27.3922 24.2944 27.1896 24.3019 27.159C24.3094 27.1283 24.338 27.1087 24.3656 27.1154C24.3931 27.1221 24.5425 27.0078 24.6975 26.8614C24.8525 26.7149 25.0327 26.5555 25.0979 26.507C25.3987 26.2835 25.4586 26.2365 25.5733 26.1338C25.6407 26.0735 25.7481 25.9863 25.8121 25.94C26.8597 25.1814 27.4122 24.8178 28.3895 24.2442C29.4627 23.6142 29.8482 23.4052 30.7147 22.9835C31.0735 22.809 31.5117 22.602 31.6886 22.5236C31.8654 22.4452 32.0244 22.362 32.0418 22.3386C32.0592 22.3153 32.1096 22.305 32.1537 22.3157C32.1979 22.3265 32.2484 22.3156 32.2661 22.2913C32.3193 22.2182 34.6791 21.273 34.7594 21.2926C34.8154 21.3063 35.3824 21.1017 35.4187 21.0547C35.4358 21.0325 35.4719 21.0198 35.499 21.0264C35.526 21.033 35.7466 20.9725 35.9893 20.8918C36.2318 20.8111 36.5345 20.726 36.6617 20.7026C36.789 20.6791 36.944 20.6327 37.0061 20.5993C37.0682 20.5659 37.7018 20.4059 38.414 20.2438C40.0253 19.877 41.7331 19.5929 43.2265 19.443C43.9593 19.3694 44.1341 19.2986 44.2508 19.0277C44.3048 18.9022 44.3607 18.6911 44.3749 18.5585C44.4047 18.2811 44.5069 17.6738 44.6782 16.7579C44.809 16.0584 45.1896 13.5654 45.2041 13.3123C45.2091 13.2258 45.2239 13.0454 45.237 12.9114C45.2779 12.4924 45.2892 11.2642 45.2532 11.1393C45.2343 11.0737 45.2311 10.97 45.2461 10.9088C45.261 10.8476 45.2579 10.7723 45.2391 10.7414C45.2203 10.7105 45.2089 10.667 45.2138 10.6448C45.2312 10.5659 44.9872 9.52073 44.8711 9.17673C44.7298 8.75796 44.4085 8.15632 43.9077 7.37221C43.3224 6.45571 43.1216 6.1699 43.0491 6.15042C43.012 6.1404 42.9591 6.08607 42.9317 6.02965C42.7894 5.73766 41.1584 4.15534 40.9462 4.10354C40.9286 4.09923 40.7869 3.99571 40.6315 3.87346C40.476 3.75124 40.0844 3.49883 39.7613 3.31259C39.2288 3.00566 38.9282 2.85957 38.2565 2.58113C38.1329 2.5299 37.9775 2.46068 37.9111 2.4273C37.669 2.30543 35.6225 1.79197 35.2577 1.7615ZM41.3492 6.56556C40.9458 6.61871 40.6217 6.78712 40.4072 7.05506C40.0212 7.53695 39.9532 8.14413 40.2321 8.61864C40.6258 9.28872 41.3405 9.52909 42.0165 9.21879C42.5196 8.98781 42.8234 8.52869 42.829 7.99085C42.8357 7.34826 42.4461 6.82387 41.8287 6.64441C41.6439 6.59066 41.4281 6.5552 41.3492 6.56556ZM48.1072 8.60047C48.0508 8.6158 47.7976 8.65315 47.5445 8.68339C47.2914 8.71368 46.9943 8.75411 46.8844 8.77321C46.7744 8.79237 46.5287 8.81951 46.3386 8.83358C46.1483 8.84763 45.9725 8.88825 45.9479 8.92373C45.8909 9.00606 46.1977 10.2512 46.2748 10.2504C46.3065 10.25 46.5573 10.0577 46.8323 9.82305C47.1072 9.58837 47.3686 9.3705 47.4132 9.33899C47.4577 9.3075 47.4977 9.26704 47.5021 9.24915C47.5065 9.2312 47.6762 9.08467 47.8792 8.92345C48.2446 8.63343 48.3061 8.54627 48.1072 8.60047ZM11.098 8.44034C9.46479 8.13321 9.01192 8.06731 8.9195 8.1235C8.89569 8.13792 8.89914 8.21867 8.92709 8.30284C8.95503 8.38708 9.01861 8.63823 9.06837 8.86099C9.1182 9.08377 9.17276 9.28377 9.18967 9.30545C9.20659 9.32713 9.23805 9.42097 9.25957 9.51398C9.30238 9.69885 9.35112 9.8675 9.55197 10.5249C9.62515 10.7644 9.68143 10.9748 9.67711 10.9926C9.67279 11.0103 9.76777 11.2977 9.88812 11.6313C10.0085 11.9649 10.113 12.272 10.1204 12.3137C10.1277 12.3555 10.1748 12.4828 10.2249 12.5965C10.275 12.7103 10.3952 13.0094 10.4919 13.2612C10.8835 14.2803 10.9932 14.5344 11.4009 15.3672C11.9978 16.5864 13.5112 19.0581 13.9032 19.454C13.9711 19.5226 14.0216 19.5995 14.0153 19.625C14.0091 19.6504 14.0323 19.6781 14.0668 19.6865C14.1013 19.695 14.1559 19.736 14.1881 19.7778C14.2203 19.8195 14.3227 19.9542 14.4155 20.0771C14.7239 20.4852 15.1725 20.9777 15.2542 20.9976C15.3547 21.0222 16.6996 20.2049 17.0781 19.8893C17.2323 19.7606 17.3944 19.6294 17.4382 19.5976C17.6022 19.4788 18.321 18.7873 18.4479 18.6263C18.5205 18.5343 18.6481 18.3895 18.7316 18.3046C18.9028 18.1304 19.6441 17.0803 19.75 16.862C19.7881 16.7835 19.846 16.6684 19.8788 16.6062C20.4836 15.4587 20.9634 13.9923 21.0833 12.9248C21.1539 12.2962 21.0482 12.1549 20.1174 11.6336C19.135 11.0833 18.2639 10.6481 17.5839 10.368C17.265 10.2366 16.9515 10.1046 16.8874 10.0747C16.8233 10.0448 16.6139 9.96154 16.422 9.88974C16.2301 9.81794 15.9943 9.72946 15.8979 9.69315C15.6715 9.60789 12.7359 8.79085 12.2226 8.67025C12.0068 8.61954 11.5008 8.51608 11.098 8.44034ZM43.4876 20.4634C43.3265 20.4761 43.1656 20.4879 43.1301 20.4897C43.0946 20.4915 42.981 20.5056 42.8778 20.5211C42.7745 20.5367 42.539 20.5603 42.3544 20.5737C42.1698 20.5871 41.9417 20.6246 41.8476 20.6569C41.7534 20.6893 41.6773 20.707 41.6784 20.6962C41.6813 20.6681 41.4693 20.6919 41.085 20.7628C40.9012 20.7966 40.5103 20.8686 40.2162 20.9227C39.4911 21.0562 37.8381 21.4497 37.594 21.547C37.485 21.5904 37.401 21.6037 37.4071 21.5764C37.4132 21.5492 37.3913 21.5506 37.3585 21.5795C37.3256 21.6084 37.1926 21.6531 37.0629 21.6788C36.9332 21.7044 36.7078 21.77 36.5619 21.8243C36.416 21.8787 36.2707 21.9169 36.239 21.9092C36.2074 21.9014 36.1748 21.9222 36.1668 21.9553C36.1587 21.9885 36.1235 22.0086 36.0886 22.0001C36.0537 21.9916 35.8149 22.0582 35.5579 22.1481C35.3008 22.2381 35.0142 22.3303 34.9208 22.3532C34.8275 22.376 34.7335 22.4082 34.7119 22.4247C34.6903 22.4412 34.3255 22.5825 33.9013 22.7388C33.477 22.895 32.9808 23.0964 32.7987 23.1863C32.6165 23.2761 32.4376 23.3424 32.4011 23.3335C32.3646 23.3245 32.3207 23.3353 32.3036 23.3575C32.2865 23.3797 32.1276 23.4617 31.9506 23.5397C30.5498 24.1575 28.0596 25.5907 27.0496 26.3607C26.8987 26.4758 26.74 26.5939 26.697 26.6231C26.4816 26.7694 25.6481 27.4278 25.4542 27.6046C25.3328 27.7153 25.1251 27.8944 24.9928 28.0025C24.8604 28.1106 24.7241 28.2352 24.6898 28.2795C24.6554 28.3238 24.4691 28.508 24.2758 28.689C23.5244 29.3921 21.5057 31.7755 21.3319 32.1646C21.3146 32.2033 21.277 32.2491 21.2484 32.2666C21.2197 32.2839 21.1867 32.337 21.1752 32.3845C21.1636 32.4319 21.0937 32.5465 21.02 32.6391C20.7566 32.9697 20.0577 34.1412 19.9929 34.3605C19.9749 34.4214 20.4354 34.5261 20.7466 34.5319C20.8863 34.5345 21.1131 34.5469 21.2504 34.5596C22.0617 34.6348 24.2762 34.7261 25.0099 34.7148C25.7069 34.704 27.4511 34.5713 27.8811 34.4964C28.0405 34.4686 28.4097 34.4084 28.7017 34.3627C31.3135 33.9535 34.2537 32.7489 36.3979 31.2092C36.6309 31.0419 36.8579 30.8819 36.9024 30.8537C37.145 30.6996 38.1831 29.7855 38.6963 29.2742C39.6957 28.2784 40.8691 26.7649 41.4838 25.6788C41.6496 25.3858 41.8202 25.0972 41.8629 25.0374C41.9425 24.9261 42.061 24.6991 42.1733 24.4431C42.2081 24.3638 42.2805 24.2235 42.3343 24.1313C42.6364 23.6134 43.4006 21.7817 43.8023 20.6126C43.8659 20.4277 43.8764 20.4328 43.4876 20.4634ZM25.8692 35.8591C25.7592 36.2306 25.6843 36.8166 25.5787 38.1336C25.547 38.5295 25.4951 39.0338 25.4635 39.2542C25.4319 39.4747 25.4042 39.7838 25.4021 39.9413C25.3999 40.0987 25.3356 40.4994 25.2591 40.8318C25.1504 41.3039 25.0828 41.4827 24.95 41.6498C24.8565 41.7674 24.6407 42.0374 24.4704 42.2499C24.3001 42.4624 24.1566 42.6528 24.1517 42.673C24.141 42.7169 23.9359 42.9848 23.5782 43.422C23.3162 43.7422 23.1646 44.1177 23.2854 44.1472C23.4534 44.1882 23.6151 44.0663 23.9366 43.6563C24.1287 43.4113 24.3441 43.146 24.4154 43.0668C24.4866 42.9876 24.5707 42.8662 24.6024 42.7971C24.7075 42.5679 25.0938 42.3249 25.3057 42.3548C25.4626 42.377 25.5355 42.4385 25.6781 42.6691C25.7757 42.8269 25.8966 43.1095 25.9468 43.2973C25.9971 43.485 26.0752 43.707 26.1206 43.7905C26.166 43.8741 26.1983 43.9622 26.1924 43.9863C26.1865 44.0104 26.2017 44.0697 26.2262 44.1181C26.2508 44.1664 26.2928 44.2588 26.3197 44.3232C26.3467 44.3877 26.4224 44.4717 26.488 44.5099C26.5828 44.5651 26.6225 44.5503 26.6821 44.4374C26.7383 44.3307 26.7236 44.2119 26.6227 43.9582C26.4399 43.499 26.2801 42.8954 26.3016 42.7457C26.3573 42.3581 26.4246 42.2489 26.6273 42.2177C26.815 42.1887 27.3942 42.3426 27.8231 42.5356C28.1758 42.6942 28.4525 42.7775 28.6812 42.794L28.9279 42.8118L28.7753 42.6032C28.6784 42.4709 28.5217 42.3554 28.3461 42.2872C28.194 42.228 27.9401 42.1217 27.7818 42.051C27.6236 41.9804 27.4027 41.8853 27.2909 41.84C27.1791 41.7945 26.9314 41.6917 26.7404 41.6115C26.5494 41.5312 26.2982 41.426 26.1823 41.3777C25.9227 41.2694 25.7299 40.967 25.7543 40.7062C25.7644 40.5985 25.7996 40.2154 25.8326 39.8549C25.8657 39.4944 25.9061 39.0879 25.9225 38.9515C25.9389 38.8152 25.9664 38.4773 25.9837 38.2006C26.0009 37.924 26.0331 37.5441 26.0551 37.3564C26.0771 37.1687 26.0963 36.9724 26.0977 36.9201C26.0992 36.8678 26.1102 36.7125 26.1223 36.575C26.1779 35.9437 26.1574 35.722 26.0409 35.6936C25.9539 35.6723 25.9127 35.712 25.8692 35.8591ZM24.2419 35.7689C24.0116 35.7778 23.6663 35.764 23.4746 35.7382C22.9701 35.6703 22.6215 35.8097 22.3171 36.2009C22.1835 36.3724 22.0467 36.5705 22.0129 36.641C21.979 36.7115 21.8918 36.8983 21.819 37.056C21.6895 37.3366 21.4915 37.7018 20.9479 38.6623C20.7996 38.9244 20.5679 39.3417 20.4332 39.5896C20.2984 39.8375 20.1665 40.0782 20.1401 40.1244C20.0946 40.2037 20.5195 40.7276 20.6563 40.761C20.6875 40.7686 20.7403 40.8184 20.7736 40.8718C20.8069 40.9252 20.927 41.0594 21.0404 41.1702C21.8271 41.9387 22.1625 42.4104 22.2693 42.8983C22.313 43.0979 22.3408 43.2994 22.331 43.3462C22.3107 43.4439 22.8136 42.8809 22.8843 42.7268C22.91 42.6707 23.0247 42.504 23.1391 42.3564C23.3245 42.1172 23.9371 41.2609 23.9747 41.1883C23.9827 41.1727 24.043 41.0869 24.1087 40.9976C24.2636 40.7868 24.314 40.4492 24.5039 38.3498C24.5225 38.1438 24.5554 37.8358 24.5768 37.6656C24.6104 37.3995 24.6716 36.7796 24.7061 36.3569C24.7379 35.9666 24.7361 35.7587 24.7007 35.7559C24.6787 35.754 24.4723 35.7599 24.2419 35.7689ZM20.9606 35.6817C20.8835 35.7416 20.6862 36.0402 20.5845 36.2507C20.5227 36.3789 20.1176 37.0947 19.9057 37.4505C19.8236 37.5884 19.6425 37.9175 19.5034 38.1819C18.4632 40.159 18.2382 40.4227 17.12 40.9738C17.0074 41.0293 16.5885 41.2664 16.189 41.5007C15.6455 41.8195 15.4533 41.9652 15.4254 42.0797C15.392 42.2164 15.4068 42.2327 15.5636 42.2324C15.6601 42.2323 15.8386 42.1777 15.9602 42.1112C16.0817 42.0447 16.4437 41.8462 16.7645 41.67C17.4245 41.3076 17.6733 41.2289 17.8966 41.3119C18.0977 41.3866 18.2259 41.7339 18.2106 42.1622C18.2042 42.3427 18.1965 42.5617 18.1935 42.6487C18.1905 42.7357 18.18 42.9629 18.17 43.1535C18.1511 43.5129 18.2157 43.8029 18.3202 43.8284C18.4641 43.8635 18.5815 43.5535 18.5884 43.1204C18.5976 42.5406 18.7563 41.9017 18.929 41.7503C19.0398 41.6529 19.0985 41.6479 19.2831 41.7201C19.4992 41.8047 20.1025 42.2445 20.1445 42.3482C20.206 42.5003 20.7293 42.9657 20.9096 43.0287C21.1001 43.0952 21.1175 43.0893 21.1126 42.9595C21.106 42.7888 20.8791 42.452 20.6391 42.257C20.5431 42.1789 20.4378 42.0723 20.4051 42.0199C20.3723 41.9676 20.0773 41.6628 19.7493 41.3426C19.0861 40.6949 18.9504 40.4508 19.043 40.0716C19.1052 39.8167 19.1838 39.6668 20.1809 37.9006C20.207 37.8543 20.3591 37.5755 20.5188 37.2811C21.0153 36.3658 21.2376 35.9622 21.317 35.8326C21.3846 35.7222 21.3728 35.7026 21.2161 35.6643C21.1186 35.6405 21.0036 35.6484 20.9606 35.6817Z" fill="#002053"/>
</svg>
