<svg width="65" height="60" viewBox="0 0 65 60" fill="none" xmlns="http://www.w3.org/2000/svg">
<path d="M30.7835 58.4378C26.4313 52.66 20.1953 48.7 15.5832 43.117C10.9712 37.4691 7.52844 30.9123 5.5797 23.8362C4.08566 18.4479 0.707826 1.76384 11.296 4.49042C19.026 6.50289 24.2227 15.1371 25.3919 22.5378C25.6518 24.1608 28.2501 24.2906 28.6398 22.6676C30.7185 14.6177 36.7596 7.99602 44.4896 4.87993C48.1922 3.3868 52.4795 2.54286 56.5069 3.19204C64.4318 4.4255 61.1839 13.7089 58.5856 18.4479C54.0385 26.6277 48.1273 34.0933 41.3716 40.5851C36.175 45.519 30.6536 50.8423 30.004 58.3079C29.8091 60.2555 33.057 60.645 33.2519 58.8273C34.2262 48.1157 45.7238 41.6888 51.8299 33.8336C55.3376 29.3542 58.7155 24.6152 61.5087 19.6814C63.9121 15.3967 65.8609 10.2033 64.1719 5.33437C61.3787 -2.91029 47.9974 0.205786 42.0862 2.80253C33.9664 6.43797 27.6655 13.5141 25.3919 22.2132C26.4962 22.2781 27.5356 22.343 28.6398 22.343C27.3407 14.1633 22.3389 6.50289 14.7388 2.86745C7.00878 -0.767989 1.09757 4.10091 0.9027 12.0859C0.707826 20.9797 4.0207 30.328 8.56778 37.8586C10.8413 41.6238 13.5696 45.1295 16.6875 48.1806C20.715 52.0757 25.5218 55.1269 29.1595 59.4115C29.874 60.1256 31.433 59.3466 30.7835 58.4378Z" fill="#003996"/>
</svg>
