<svg width="209" height="52" viewBox="0 0 209 52" fill="none" xmlns="http://www.w3.org/2000/svg">
<path d="M116.885 3.5757C96.1428 3.5757 75.1448 2.68852 54.4829 4.55271C41.7401 5.70241 27.6091 6.98323 15.7778 11.8427C8.05489 15.0148 -1.22842 20.955 1.48067 30.406C3.27248 36.657 9.10678 39.1687 15.1459 41.1531C34.6303 47.5556 55.987 49.1588 76.4421 50.1717C97.621 51.2205 118.913 51.1573 140.108 50.6227C155.554 50.2331 171.174 49.6771 186.436 47.2031C192.781 46.1746 202.014 44.935 206.144 39.4997C211.67 32.226 203.641 20.5238 197.929 15.7884C189.036 8.41734 175.87 4.97327 164.595 2.52353C157.84 1.05592 151.027 0.634219 144.136 1.32105C137.019 2.03053 130.157 3.49159 122.967 3.5757C106.486 3.76849 90.6326 5.22369 74.2304 6.95767" stroke="#002053" stroke-width="1.93022" stroke-linecap="round"/>
</svg>
