<svg width="52" height="62" viewBox="0 0 52 62" fill="none" xmlns="http://www.w3.org/2000/svg">
<path d="M44.9798 44.267C34.3103 42.8421 23.3368 46.0037 15.2393 53.0497C15.8867 53.297 16.5308 53.4873 17.1782 53.7346C16.9337 40.843 10.3391 29.5261 3.89279 18.7715C3.22842 19.2105 2.56405 19.6495 1.90304 20.1455C7.30482 23.9377 12.8651 27.4922 18.5806 30.7519C19.2954 31.1665 20.9411 30.7837 20.7018 29.6557C18.5211 20.9902 18.7987 12.0652 21.3997 3.51672C20.6612 3.6746 19.8687 3.89279 19.1302 4.05067C23.6818 10.977 27.4611 18.4629 30.34 26.2875C30.7445 27.2915 32.2249 27.0327 32.6971 26.2624C36.5692 19.7517 41.9519 14.4651 48.6293 10.6439C47.9718 10.2259 47.3716 9.80455 46.7141 9.38657C42.6088 19.7372 40.547 30.5951 41.6652 41.7219C41.8168 43.3119 44.555 42.9216 44.4642 41.3851C43.781 30.8036 45.0468 20.107 49.007 10.2218C49.5096 8.99284 48.0395 8.4516 47.0918 8.96449C40.1345 12.9165 34.3707 18.5682 30.3468 25.4305C31.1528 25.44 31.898 25.3959 32.704 25.4054C29.7071 17.5306 25.8098 9.99452 21.1908 2.90091C20.5569 1.91047 19.1305 2.10904 18.7358 3.2174C15.9729 11.9468 15.7087 21.0994 17.9602 29.9891C18.6853 29.6036 19.3564 29.2784 20.0814 28.8929C14.366 25.6331 8.80567 22.0787 3.40389 18.2864C2.56429 17.7079 0.716218 18.5596 1.41412 19.6604C7.85031 30.2443 14.4314 41.3336 14.7232 54.0511C14.7164 54.9081 16.0551 55.1715 16.6622 54.7359C24.4865 47.9344 34.4146 44.6062 44.7132 45.5962C45.6338 45.5989 45.9105 44.4404 44.9798 44.267Z" fill="#003996"/>
<path d="M20.2387 60.4537C22.2239 60.001 23.6685 58.1832 25.3883 57.1314C27.8871 55.6425 30.6953 54.5264 33.5904 53.9081C36.1452 53.3659 38.777 53.1544 41.3745 53.3361C44.0866 53.511 46.6861 54.6985 49.3377 54.8211C50.3148 54.8192 51.0641 53.8808 50.1587 53.1519C48.2268 51.5896 44.6489 51.3541 42.1725 51.277C39.1167 51.1224 36.1445 51.41 33.1986 52.143C30.4214 52.8102 27.7817 53.8604 25.3369 55.2903C23.5565 56.2897 20.1544 58.0557 19.8213 60.199C19.8279 60.3103 20.0669 60.4639 20.2387 60.4537Z" fill="#003996"/>
</svg>
