<svg width="85" height="88" viewBox="0 0 85 88" fill="none" xmlns="http://www.w3.org/2000/svg">
<path d="M35.17 28.5953C35.871 20.736 36.4718 7.70356 44.5833 3.32626C53.8964 -1.54847 53.4959 10.0912 51.7935 15.1649C50.2913 19.8406 47.7878 24.0189 44.7836 27.9983C45.9853 28.4957 47.0868 28.9932 48.2885 29.4906C51.6933 24.9143 69.8189 8.8974 72.3224 22.3278C73.9247 31.1818 63.2096 35.4597 57.2011 39.0411C54.998 40.3344 57.101 42.4235 59.0036 42.1251C63.4099 41.2297 68.2167 40.2349 72.723 41.3292C78.0305 42.6225 84.039 48.9895 79.2322 54.2621C73.7244 60.4302 60.2053 53.2673 54.1969 51.0786C52.0939 50.2828 50.0911 53.0684 52.3943 54.1627C56.9007 56.2519 60.6059 59.0374 63.51 63.0167C66.4141 66.9961 70.3196 74.7559 64.6116 78.0389C55.3986 83.411 49.0896 67.394 45.4846 61.8229C44.383 60.1317 41.4789 61.425 41.9796 63.4147C43.0812 67.4935 43.9824 71.5724 44.4831 75.7507C44.7836 77.8399 45.5847 81.3218 43.682 82.9136C42.981 83.5105 39.0755 84.7043 38.1743 84.6048C32.3661 83.8089 33.3675 77.5414 33.6679 73.3631C33.9683 69.3837 34.5692 65.4044 35.4704 61.5245C35.871 59.5348 32.8668 58.9379 31.9655 60.5296C28.4605 66.7971 18.4464 77.6409 9.93438 73.5621C3.9259 70.6771 6.83001 63.3152 10.5352 60.0322C14.8413 56.2518 20.6495 54.5606 26.2574 54.0632C28.1601 53.8642 28.761 51.0786 26.5579 50.8797C19.3477 50.1833 4.02606 51.1782 3.62549 40.5333C3.42521 34.9622 9.73411 33.1715 14.2405 33.5695C18.4464 33.9674 22.2518 36.0565 25.4563 38.6431C26.8583 39.7374 29.7624 37.9467 28.2603 36.4545C25.8569 33.9674 23.6538 31.3808 21.7511 28.4957C20.0487 25.8097 16.3434 18.7463 20.1488 16.0602C22.8526 14.17 27.0586 15.0654 29.0614 17.5525C30.0628 18.8458 30.5635 20.8355 30.8639 22.4272C31.3646 24.6159 31.6651 26.8045 32.3661 28.9932C32.9669 30.9828 36.6721 29.988 35.9711 27.8988C34.6693 23.5215 34.7694 18.1494 31.3646 14.6675C28.4605 11.8819 23.6537 10.6881 19.9485 12.1804C7.83142 17.1546 20.0487 33.1715 25.1559 38.3447C26.0572 37.6483 27.0586 36.8524 27.9598 36.156C21.1502 30.6844 4.6269 25.9091 0.521104 37.4493C-1.1813 42.1251 1.52251 46.9003 5.22774 49.6859C11.0359 54.0632 18.9471 53.4663 25.7567 54.0632C25.8569 52.9688 25.957 51.974 26.0571 50.8797C18.7468 51.4766 10.5352 54.1627 5.72845 60.0322C2.32365 64.2105 1.22209 70.677 5.52817 74.7559C15.4422 84.3063 30.6637 70.2791 35.3703 61.9224C34.1686 61.624 33.067 61.226 31.8653 60.9276C30.2631 67.991 25.0557 88.5842 37.8738 87.9873C41.3788 87.7883 46.8865 86.3955 48.3887 82.8141C49.4902 80.128 48.4888 76.5466 48.1884 73.761C47.6877 69.8811 46.8865 66.1007 45.8851 62.3203C44.6834 62.8178 43.5819 63.3152 42.3802 63.9121C46.1856 69.7817 48.7892 77.3425 55.3986 80.8244C59.5044 83.0131 64.8119 83.1126 68.4169 80.0286C79.4325 70.7765 62.4085 55.058 54.3971 51.0786C53.7963 52.0735 53.1954 53.1678 52.5946 54.1627C60.4056 57.2467 81.4353 66.4987 84.74 52.4714C85.9417 47.1988 82.8373 42.3241 78.3309 39.7375C72.022 36.2555 64.6116 37.5488 57.8019 38.7426C58.4028 39.7375 59.0036 40.8318 59.6045 41.8266C65.1123 38.6431 71.9219 35.8576 74.826 29.7891C76.7287 26.0087 77.0291 20.6365 74.125 17.254C65.7131 7.30562 50.1912 21.2334 44.9839 27.9983C43.682 29.6895 46.9867 31.2813 48.1884 29.7891C52.7949 23.9195 63.9106 2.23192 49.6905 0.142752C35.7709 -1.94641 33.4676 19.4427 32.8668 28.4957C32.6665 29.6895 34.9697 29.6896 35.17 28.5953Z" fill="#FF81C9"/>
<path d="M39.177 38.0614C35.9088 38.9354 33.7299 42.1398 34.027 45.4413C34.3242 49.5196 38.4837 52.4327 42.5442 51.9471C46.7038 51.4616 49.873 47.5775 48.7836 43.4021C47.6942 38.9354 42.7423 37.2846 38.5828 38.6441C36.1068 39.518 37.4933 42.7224 39.8702 41.9456C42.1481 41.1687 44.624 42.334 44.7231 44.8586C44.8221 47.2862 42.5442 49.1312 40.1674 48.3544C36.1068 47.092 36.8001 41.4601 40.0683 39.9064C41.5539 39.2267 40.2664 37.673 39.177 38.0614Z" fill="#FF81C9"/>
</svg>
