<svg width="66" height="63" viewBox="0 0 66 63" fill="none" xmlns="http://www.w3.org/2000/svg">
<path d="M63.2858 0.663552C63.3532 9.5703 63.0163 18.4771 62.0055 27.3168C61.5338 31.5358 60.9947 35.6878 60.3882 39.9068C59.7144 44.2598 58.5014 48.2778 54.2561 50.4878C47.2479 54.1041 37.8811 53.9701 30.1991 54.0371C25.9537 54.1041 21.7758 54.0371 17.5304 53.9031C13.1503 53.7692 8.50062 53.0995 4.1205 53.5683C2.43583 53.7022 2.1663 55.8452 3.91835 56.247C8.56801 57.1846 13.6894 56.9167 18.4064 56.9837C23.2583 57.1176 28.1101 57.1846 32.9619 57.0506C40.7787 56.8497 50.752 56.7158 57.558 52.2959C64.4314 47.8091 64.2293 38.5675 64.7684 31.3349C65.4422 21.0888 65.3074 10.7757 64.7684 0.5966C64.701 -0.273984 63.2858 -0.140065 63.2858 0.663552Z" fill="#002053"/>
<path d="M17.3304 61.7489C13.5405 58.2965 7.72021 56.2384 3.11814 53.9146C3.18582 54.7113 3.25351 55.5744 3.32118 56.3711C8.12628 53.981 12.39 50.9934 16.8567 48.0721C18.0072 47.2754 16.7213 45.8812 15.6385 46.5451C11.1041 49.2672 6.16362 51.5245 1.4262 53.981C0.343361 54.5785 0.546406 55.9728 1.62925 56.4375C6.43435 58.5621 11.6455 61.5498 16.8567 62.4792C17.3981 62.612 17.7365 62.0809 17.3304 61.7489Z" fill="#002053"/>
</svg>
