<svg width="66" height="63" viewBox="0 0 66 63" fill="none" xmlns="http://www.w3.org/2000/svg">
<path d="M63.2857 0.663552C63.3531 9.5703 63.0162 18.4771 62.0054 27.3168C61.5337 31.5358 60.9946 35.6878 60.3881 39.9068C59.7142 44.2598 58.5013 48.2778 54.256 50.4878C47.2478 54.1041 37.881 53.9701 30.199 54.0371C25.9536 54.1041 21.7756 54.0371 17.5303 53.9031C13.1502 53.7692 8.5005 53.0995 4.12037 53.5683C2.43571 53.7022 2.16617 55.8452 3.91822 56.247C8.56789 57.1846 13.6893 56.9167 18.4063 56.9837C23.2582 57.1176 28.11 57.1846 32.9618 57.0506C40.7786 56.8497 50.7518 56.7158 57.5579 52.2959C64.4313 47.8091 64.2291 38.5675 64.7682 31.3349C65.4421 21.0888 65.3073 10.7757 64.7682 0.5966C64.7008 -0.273984 63.2857 -0.140065 63.2857 0.663552Z" fill="#003996"/>
<path d="M17.3303 61.7489C13.5403 58.2965 7.72008 56.2384 3.11802 53.9146C3.18569 54.7113 3.25338 55.5744 3.32106 56.3711C8.12616 53.981 12.3898 50.9934 16.8566 48.0721C18.0071 47.2754 16.7212 45.8812 15.6383 46.5451C11.104 49.2672 6.1635 51.5245 1.42608 53.981C0.343239 54.5785 0.546284 55.9728 1.62912 56.4375C6.43422 58.5621 11.6454 61.5498 16.8566 62.4792C17.398 62.612 17.7364 62.0809 17.3303 61.7489Z" fill="#003996"/>
</svg>
