<svg width="440" height="50" viewBox="0 0 440 50" fill="none" xmlns="http://www.w3.org/2000/svg">
<path d="M454.54 18.788C428.9 18.6528 403.451 19.7341 378.571 21.4913C377.242 21.4913 375.817 21.5588 374.488 21.5588C374.013 21.0182 373.158 20.6127 371.924 20.2072C380.755 19.9369 389.492 19.5989 398.228 19.1935C405.54 19.1935 412.852 19.1934 420.259 19.1259C421.303 19.1259 422.158 18.9231 422.253 18.5852C422.253 18.3149 421.398 18.1121 420.259 18.0445H414.846C416.271 17.7066 417.315 17.166 417.315 16.5577C417.41 16.0171 416.65 15.544 415.416 15.1385C423.298 14.5303 431.179 13.922 438.776 13.111C439.251 13.0434 439.441 12.9083 439.251 12.8407C439.061 12.7055 438.586 12.6379 438.207 12.7055C427.096 13.111 416.081 13.7193 405.065 14.1923C396.329 13.5841 387.782 12.9083 378.381 12.7055C364.707 12.4352 351.792 13.2462 338.972 14.0572C334.319 13.922 329.761 13.7868 325.203 13.7193C325.868 13.4489 326.248 13.111 326.248 12.7731C326.248 12.7055 326.153 12.6379 326.153 12.5028C330.141 12.5028 334.224 12.5028 338.308 12.5704C376.482 12.6379 412.187 10.0698 448.557 7.83959C450.931 7.772 452.546 7.16374 452.261 6.5555C451.976 5.94726 449.792 5.47418 447.513 5.60935C430.04 5.74451 413.992 6.96101 396.329 8.1775C383.794 9.05607 372.684 9.6643 360.054 10.2725C345.24 10.9484 331.471 10.9484 316.942 11.016C315.517 10.9484 314.093 10.8808 312.668 10.8808C311.244 10.9484 309.725 10.9484 308.3 11.016C296.905 11.016 186.655 10.678 175.545 10.2725C188.839 9.79946 301.178 9.32639 314.283 8.38024C315.232 8.31265 315.802 8.10992 315.707 7.83959C315.517 7.56925 314.663 7.43409 313.713 7.50167C295.575 8.10992 168.993 8.44782 150.76 8.78574C145.822 6.69068 135.282 5.47419 125.88 5.40661C122.367 5.40661 119.233 5.60935 115.91 6.01485C117.429 6.08243 118.853 6.15001 120.373 6.28517C115.91 6.35276 112.111 6.96099 108.313 7.56924C108.028 7.56924 107.648 7.50167 107.268 7.50167C98.5318 6.35277 88.276 6.6231 78.8749 6.15002C79.0648 6.42035 79.2547 6.69067 79.5396 6.961C77.8303 6.75825 76.7857 6.28519 74.8865 6.15002C75.4563 6.35277 75.9311 6.55551 76.4059 6.75826H76.3109C74.3167 6.35276 71.8478 6.15002 69.2838 6.15002C63.4912 4.93353 56.4641 4.19011 48.9622 3.8522C48.0126 3.51428 46.5882 3.31154 44.8789 3.24396C44.2142 3.17637 43.3595 3.10879 42.7898 2.90604C38.2316 1.55439 32.629 0.675826 26.3615 0C27.596 0.27033 28.8305 0.473072 29.9701 0.743402C28.1658 0.540655 26.4565 0.337913 24.3674 0.337913C24.5573 0.473078 24.8422 0.675824 25.0321 0.810989C18.8596 -0.337915 10.4081 0.135159 6.03993 1.75714C1.67174 3.44671 3.09615 5.67694 9.2686 6.82585L10.1232 7.02859C6.98954 7.29892 4.14072 7.83958 2.52638 8.78574C1.67174 9.3264 2.33646 9.93465 2.52638 10.5429C2.2415 11.4215 4.71048 12.1649 8.03411 12.2325C8.88876 12.2325 9.83836 12.2324 10.5981 12.0973C14.3965 12.4352 18.2899 12.6379 21.9933 13.0434C22.753 13.111 23.6077 13.0434 23.9875 12.8407C24.3674 12.6379 23.9875 12.3676 23.2278 12.3C20.5689 11.8945 18.005 11.489 15.4411 11.016C15.2511 11.0835 14.9662 11.1511 14.7763 11.1511C14.8713 11.0835 14.9662 11.016 15.1562 10.9484C14.9662 10.8808 14.6814 10.8808 14.4914 10.8132C14.6814 10.7456 14.8713 10.7456 15.0612 10.678C15.2511 10.678 15.4411 10.7456 15.631 10.7456C16.0108 10.6105 16.3907 10.5429 16.7705 10.4077C21.4236 10.678 25.9817 11.016 30.2549 11.6242C30.5398 11.6918 30.065 12.0297 30.5398 12.1649C30.7297 12.2325 31.0146 12.3 31.2995 12.3676C30.5398 12.3 29.6852 12.2325 28.8305 12.1649C25.5069 12.7055 24.1774 12.9759 23.3228 13.111C23.3228 13.111 23.3228 13.111 23.0379 13.1786C22.6581 13.2462 22.2782 13.3138 21.8034 13.3813C21.8034 13.3813 21.8034 13.3814 21.8034 13.4489C21.7085 13.4489 21.6135 13.5165 21.5185 13.5165L19.9992 13.4489C19.4294 13.3814 18.8596 13.5165 18.5748 13.5841C18.3848 13.5165 18.1949 13.3813 17.91 13.3138C15.0612 13.111 15.0612 13.111 12.1174 12.9758C12.1174 12.9758 12.1174 13.0434 12.2124 13.2462C12.1174 13.2462 11.1678 13.3813 10.0283 13.3138C8.88876 13.3138 8.88876 13.3138 6.22985 13.1786C6.22985 13.1786 6.22985 13.1786 7.55931 13.5841C7.55931 13.5841 7.55931 13.5841 6.41978 13.3138C6.41978 13.3138 6.41978 13.3138 6.70466 13.7868C6.70466 13.7868 6.70466 13.7868 6.22985 13.3138C6.22985 13.3138 6.22985 13.3138 5.75505 13.6517C5.75505 13.6517 5.75505 13.6517 3.47599 12.5704C3.28607 12.5704 2.90623 12.6379 1.7667 12.7731C1.7667 12.7731 1.48181 12.9083 1.29189 12.9758C1.29189 13.111 1.29189 13.111 0.342285 13.5841C0.342285 13.5841 0.342285 13.7193 0.437246 13.922C0.722128 14.0572 0.722128 14.0572 0.722128 14.4627C0.722128 14.4627 1.00701 14.5978 1.48181 14.733C1.95662 14.8006 2.05158 14.8006 3.66591 15.0709C3.47599 15.1385 3.38103 15.2061 3.28607 15.2737C2.90623 16.0171 2.90623 16.0171 4.9004 17.7742C4.9004 17.7742 6.03993 18.2473 7.84419 18.5852C9.93333 18.7204 9.93333 18.7204 12.4023 18.9231C12.4023 18.9231 12.9721 18.9907 13.8267 19.0583C14.4914 19.3286 14.6814 19.3962 15.1562 19.6665C14.6814 19.6665 14.2066 19.7341 13.8267 19.8017C12.6872 20.072 12.4973 20.4775 13.4469 20.7478C12.2124 21.8967 12.8771 22.9781 14.3965 23.9918C13.9217 24.3973 13.6368 24.8028 13.7318 25.2083C11.8325 26.222 10.693 27.3034 10.2182 28.4523L9.93333 29.466C10.4081 30.277 11.9275 31.088 14.2066 31.6962L14.8713 31.899L14.2066 32.71C17.0554 34.8726 22.753 36.6298 26.1716 38.6572L28.8305 39.7386C30.7297 40.6171 33.7685 41.2254 37.377 41.5633L41.1754 41.8336C41.9351 41.8336 42.7898 41.8336 43.5494 41.8336C39.4661 42.8474 37.1871 44.3342 37.8518 45.9562C39.0863 48.5243 48.1076 50.349 57.9835 49.9435C84.3826 49.7408 109.927 49.4705 136.991 48.254C157.028 47.3754 184.186 46.2265 203.843 46.0913C222.551 44.8748 339.827 43.3204 358.06 41.4281C373.348 39.8737 385.028 36.9001 398.513 34.5347C398.893 34.4671 398.893 34.332 398.703 34.1968C398.418 34.0616 397.848 34.0616 397.468 34.1292C376.007 36.2243 354.356 38.049 331.281 38.5897C328.622 38.6572 326.058 38.6572 323.494 38.6572C323.209 38.5896 322.924 38.5897 322.544 38.5897C320.17 38.4545 317.891 38.3869 315.517 38.3193L317.986 38.2518C319.6 38.2518 321.025 37.9138 321.12 37.5083C321.12 37.3056 320.93 37.1704 320.55 37.0353C326.533 36.5622 332.42 35.8864 338.213 35.2105C339.922 35.143 341.536 35.0078 342.961 34.7374C349.703 35.0078 356.54 35.2105 363.282 35.4809L364.992 35.616C367.271 35.6836 369.36 35.4133 370.404 34.8726C370.784 34.7375 370.974 34.5347 371.069 34.3995C386.548 33.3858 402.216 32.5748 416.745 30.7501C417.505 30.6825 417.885 30.4797 417.79 30.277C418.075 30.3446 418.455 30.3446 418.74 30.277C420.449 29.9391 422.443 29.6688 424.437 29.466C424.912 29.3984 425.102 29.2633 424.912 29.1957C424.722 29.0605 424.152 28.9929 423.772 29.0605C421.683 29.2633 419.594 29.5336 417.79 29.8715C417.6 29.9391 417.41 30.0067 417.41 30.0743C417.03 29.9391 416.366 29.8715 415.701 29.9391C400.602 30.6149 386.073 32.0341 370.879 32.4396C378.286 31.6287 385.883 31.0204 393.955 30.3446C403.641 29.5336 412.472 28.4523 422.253 27.9792C422.728 27.9792 423.108 27.844 423.013 27.7089C422.918 27.5737 422.538 27.5061 422.063 27.5061C402.121 28.2495 384.649 31.3583 364.042 31.4935C363.187 31.4935 362.428 31.4935 361.573 31.4935C367.936 30.4122 374.108 29.3308 380.375 28.2495C399.368 27.7089 418.17 26.8979 436.782 25.749C437.732 25.749 438.396 25.5462 438.396 25.2759C438.396 25.0056 437.542 24.8704 436.687 24.8704C426.052 24.6001 415.416 24.3297 404.78 24.1946L406.964 23.8566L409.149 23.7215C415.986 23.6539 422.823 23.5187 429.755 23.316C432.319 23.316 434.408 22.7753 434.503 22.0995C434.503 21.4237 432.604 20.883 430.135 20.883L431.369 20.7478C431.749 20.7478 432.034 20.6127 431.939 20.4775C431.749 20.3424 431.274 20.2748 430.895 20.3424C429.47 20.5451 428.046 20.6803 426.621 20.883C413.517 20.7479 400.507 20.883 387.402 21.1533C401.457 20.2748 415.701 19.599 430.04 19.261C429.755 19.3286 429.755 19.4638 430.04 19.599C430.325 19.6665 430.989 19.6665 431.274 19.599C431.654 19.5314 431.559 19.3286 431.274 19.261C438.966 19.1259 446.658 18.9907 454.445 19.0583C454.92 19.0583 455.299 18.9231 455.299 18.788C455.489 18.8555 455.015 18.788 454.54 18.788ZM11.7376 16.0171C12.0225 16.0846 12.2124 16.1522 12.4973 16.2874C12.4973 16.2874 12.4973 16.2874 11.7376 16.0171ZM15.7259 31.5611L15.536 31.4259L17.91 28.9253L15.7259 31.5611ZM28.6406 20.7478C28.3557 20.6127 28.0708 20.4099 27.596 20.2072C27.596 20.2072 28.0708 20.4099 28.6406 20.7478ZM58.4583 15.0033C57.9835 15.0709 57.1288 15.0033 57.6036 15.3412C53.8052 15.1385 50.0068 15.0709 46.1134 15.0033C44.689 15.0033 43.1696 15.0033 41.8402 15.1385C40.3208 14.4627 38.7064 13.8544 36.6173 13.3813C40.1309 13.7868 44.1192 13.922 47.8227 14.1248C51.906 14.3951 55.8943 14.6654 59.9777 14.8682C59.4079 14.9358 58.9331 14.9357 58.4583 15.0033ZM67.9544 9.39398L65.1056 9.12365L65.6753 9.32639C61.9718 9.19123 58.2684 8.98848 54.6599 8.78574C49.437 8.17749 43.7394 7.77199 37.9468 7.56924C39.6561 7.29891 41.1754 6.961 42.6948 6.69067C50.0068 7.3665 57.0339 8.24508 64.6307 8.51541C65.1055 8.58299 65.6753 8.65057 66.1501 8.71815C66.9098 8.9209 67.5745 9.19123 68.3342 9.46156C68.1443 9.39398 68.0493 9.39398 67.9544 9.39398Z" fill="#FFC0E4"/>
</svg>
