<svg width="682" height="419" viewBox="0 0 682 419" fill="none" xmlns="http://www.w3.org/2000/svg">
<path d="M21.9999 335C21.7607 319.073 20.6745 303.807 18.9999 288C17.3253 272.193 15.6745 255.927 13.9999 240C12.3253 224.193 10.3587 207.927 9.9999 192C9.64106 176.073 10.488 160.807 12.9999 145C15.5118 129.193 19.7799 113.729 25.9999 99C27.6745 95.4075 28.9664 91.5925 30.9999 88C31.9568 86.2038 33.043 83.6765 33.9999 82L36.9999 77L37.9999 75L39.9999 72L43.9999 67C45.1961 65.4433 46.6841 64.5568 47.9999 63C49.3157 61.4433 49.5645 59.437 50.9999 58L55.9999 54C56.7176 53.2815 57.2822 52.5988 57.9999 52L59.9999 50C62.9903 47.2458 66.6507 44.2753 69.9999 42C76.5788 37.3298 82.7034 33.2333 89.9999 30C97.2964 26.647 105.225 24.1555 113 22C120.655 19.8445 128.105 18.3173 136 17C151.789 14.4853 168.091 13.479 184 13C199.909 12.521 216.211 13 232 13C263.818 12.8803 295.182 11.3593 327 11C358.818 10.6408 391.182 11.563 423 13C431.014 13.479 438.986 13.2815 447 14L459 15L471 16C473.033 16.2395 474.966 16.7605 477 17H483L494 19L506 20L512 21L518 22C533.789 24.6345 549.928 28.0125 565 34C580.071 39.8678 593.201 48.5398 606 58C612.459 62.79 618.78 67.9705 625 73C631.22 78.0295 637.139 83.3718 643 89C648.861 94.6283 654.933 100.815 659 108C663.067 115.185 665.445 123.097 667 131C668.555 139.023 668.761 146.977 669 155C669.12 163.023 669.239 170.977 669 179C668.163 195.047 666.555 211.073 665 227C663.445 242.807 662.478 258.193 662 274C661.88 277.952 662 282.048 662 286V292V295V298V304C662.12 305.916 661.88 308.084 662 310C662.239 313.952 663.641 318.048 664 322C664.718 330.023 664.914 337.737 663 346C662.043 350.072 660.631 354.527 658 358C655.488 361.473 651.588 363.845 648 366C644.411 368.156 640.708 369.563 637 371L631 374L626 376C618.464 378.754 610.655 380.845 603 383C572.259 391.862 540.578 397.45 509 402C445.963 411.101 382.755 417.324 319 419C287.063 419.838 254.937 418.916 223 417C191.182 415.204 159.578 412.03 128 407L116 405C112.053 404.401 107.828 403.719 104 403L91.9999 401C88.0526 400.282 84.8276 398.838 80.9999 398C73.2249 396.204 65.4161 394.712 57.9999 391C54.2918 389.204 50.3491 386.635 46.9999 384C43.7703 381.366 40.5118 378.353 37.9999 375C32.9761 368.414 29.708 361.065 25.9999 354C22.2918 346.935 18.4688 340.305 14.9999 333C13.3253 329.408 11.4353 325.712 9.9999 322C8.4449 318.288 7.31567 313.832 5.9999 310C4.80375 306.168 3.83721 301.952 2.9999 298C2.16259 294.048 1.47836 290.072 0.999903 286C0.0429786 277.977 -0.358944 270.023 -9.74387e-05 262C0.358749 253.977 1.68413 245.904 2.9999 238C4.31567 230.097 6.20567 222.784 7.9999 215C9.79414 207.216 10.9664 199.664 12.9999 192C21.1338 161.105 31.3972 129.818 42.9999 100C45.8707 92.5755 48.7703 85.3048 51.9999 78C55.1099 70.6953 58.4114 63.185 61.9999 56C65.5884 48.815 70.2153 42.5863 74.9999 36C79.7845 29.5335 85.4211 22.9098 91.9999 18C98.5788 13.0903 106.105 9.15553 114 7.00003C121.895 4.84454 128.986 3.71853 137 3.00003C152.909 1.68278 169.091 1.47903 185 1.00003C248.755 -1.15546 312.484 2.73104 376 8.00003L424 12C439.909 13.437 455.091 15.3235 471 17C502.698 20.353 534.78 23.815 566 31C581.55 34.4728 597.287 39.6533 612 46C619.296 49.2333 626.182 52.5693 633 57C639.698 61.4308 645.498 66.1323 651 72L653 74L655 77L657 79C657.598 79.7185 658.402 80.2815 659 81C660.076 82.6765 661.043 84.2038 662 86C663.076 87.6765 664.043 90.2038 665 92C668.708 99.185 671.847 106.336 674 114C675.076 117.832 676.163 122.168 677 126C677.718 129.952 678.282 133.048 679 137C679.598 140.952 679.521 145.048 680 149C680.359 152.952 680.761 156.929 681 161C683.033 192.973 680.784 225.506 676 257C673.608 272.807 669.751 288.313 667 304C665.565 311.784 664.631 319.456 662 327C659.368 334.544 654.981 341.611 649 347C654.981 341.611 659.488 334.425 662 327C664.631 319.456 665.684 311.784 667 304C669.751 288.313 672.727 272.807 675 257C679.545 225.506 682.273 192.854 680 161C679.761 157.048 679.359 153.952 679 150C678.521 146.048 677.598 141.952 677 138C676.282 134.048 675.837 129.952 675 126C674.163 122.168 673.076 117.832 672 114C669.847 106.336 667.708 98.9455 664 92C663.043 90.2038 662.076 88.6765 661 87C660.043 85.3235 658.076 83.6765 657 82C656.402 81.1618 655.718 80.7185 655 80L654 78L652 75L650 73C644.498 67.252 637.698 62.311 631 58C624.301 53.689 617.296 50.1135 610 47C595.407 40.773 580.55 36.4728 565 33C534.019 26.0545 502.698 22.353 471 19C455.211 17.3235 438.789 16.3173 423 15L375 11C311.604 5.85079 248.516 1.48529 185 4.00003C169.211 4.59878 152.789 5.68279 137 7.00003C129.105 7.71853 121.536 8.84453 114 11C106.464 13.0358 100.22 16.3298 93.9999 21C87.7799 25.6703 81.6649 31.773 76.9999 38C72.3349 44.3468 68.5884 50.9348 64.9999 58C61.4114 65.0653 57.9903 72.5755 54.9999 80C51.8899 87.3048 48.8707 94.6953 45.9999 102C34.5168 131.578 25.0141 161.224 16.9999 192C14.9664 199.664 12.7941 207.336 10.9999 215C9.20567 222.784 8.31567 231.097 6.9999 239C4.48798 254.568 3.08605 270.552 4.9999 286C6.79414 301.568 12.3014 316.75 18.9999 331C22.3491 338.185 26.2918 344.935 29.9999 352C33.708 359.065 37.2153 365.893 41.9999 372C44.3922 374.994 47.1291 377.725 49.9999 380C52.9903 382.395 55.5311 384.324 58.9999 386C65.9376 389.473 73.3445 392.204 80.9999 394C84.8276 394.838 89.1722 395.282 92.9999 396L105 398C108.947 398.719 112.053 399.401 116 400L128 402C159.339 406.91 191.302 410.204 223 412C254.698 413.796 286.182 413.838 318 413C381.516 411.324 444.963 405.981 508 397C539.459 392.569 570.498 386.742 601 378C608.655 375.845 616.464 373.635 624 371L630 369L635 367C638.708 365.563 642.77 363.916 646 362C649.229 360.084 651.847 357.994 654 355C656.153 352.126 658.163 348.712 659 345C660.674 337.695 659.718 329.904 659 322C658.641 318.048 658.239 314.072 658 310C657.88 307.964 658.12 306.036 658 304L657 298V295V292V286C657 282.048 656.88 277.952 657 274C657.598 257.954 659.445 241.807 661 226C662.555 210.193 664.282 193.807 665 178C665.598 162.193 665.99 146.328 663 131C661.445 123.336 658.828 115.706 655 109C651.172 102.294 646.622 96.3888 641 91C635.378 85.6113 629.22 80.9098 623 76C616.78 70.9705 610.339 65.6703 604 61C591.321 51.5398 577.593 43.748 563 38C548.407 32.1323 533.55 28.6345 518 26L512 25L506 24L494 22L482 21L476 20C474.086 19.7605 472.033 19.2395 470 19L459 18L447 17C439.105 16.2815 430.895 16.479 423 16C391.302 14.4433 358.818 13.7605 327 14C295.182 14.2395 263.937 15 232 15C216.091 15 199.909 14.6408 184 15C168.091 15.3593 152.67 16.605 137 19C129.225 20.1975 121.655 21.8445 114 24C106.345 26.1555 98.1768 28.7668 90.9999 32C83.823 35.2333 77.4591 39.4495 70.9999 44C67.7703 46.2753 64.9903 48.3655 61.9999 51L58.9999 53C58.2822 53.5988 57.598 54.2815 56.9999 55L52.9999 59C51.3253 60.437 50.1961 62.563 48.9999 64C47.6841 65.5568 46.3157 66.4433 44.9999 68L41.9999 73L39.9999 75L37.9999 78L34.9999 83C34.043 84.6765 32.8372 86.2038 31.9999 88C30.0861 91.4728 28.6745 95.4075 26.9999 99C20.6603 113.61 16.5118 129.433 13.9999 145C11.488 160.687 10.7607 176.073 10.9999 192C11.2391 207.927 13.4449 224.193 14.9999 240C16.5549 255.807 18.4449 271.193 19.9999 287C21.5549 302.927 21.8803 319.073 21.9999 335Z" fill="#FFFBF4"/>
</svg>
