<svg width="313" height="43" viewBox="0 0 313 43" fill="none" xmlns="http://www.w3.org/2000/svg">
<g opacity="0.5">
<path d="M10.4219 9.61576C10.491 9.61576 10.5601 9.61576 10.6292 9.67363C10.7675 9.61576 10.9749 9.55788 11.1131 9.55788C10.9749 9.55788 10.8366 9.5 10.6984 9.5C10.6292 9.5 10.5601 9.55788 10.4219 9.61576Z" fill="#E9CEDB"/>
<path d="M4.83365 11.2275C4.31665 11.0997 3.79964 10.908 3.08875 10.9719C2.89488 11.0358 2.83025 11.0997 2.76562 11.0997C3.02413 11.1636 3.41188 11.2914 3.79964 11.4192C4.51052 11.6748 4.89828 11.4831 4.83365 11.2275Z" fill="#E9CEDB"/>
<path d="M2.76642 11.075C2.3056 11.0171 2.0752 10.9592 2.0752 10.9592C2.3056 11.0171 2.42081 11.075 2.53601 11.1328C2.65121 11.1328 2.65121 11.1329 2.76642 11.075C2.76642 11.1329 2.65121 11.1329 2.76642 11.075Z" fill="#E9CEDB"/>
<path d="M231.579 7.32709C242.159 7.69002 252.876 7.90777 263.524 8.05294C263.87 8.05294 264.146 7.98036 264.216 7.83519C264.216 7.69003 263.939 7.61745 263.593 7.61745C252.945 7.47228 242.366 7.25453 231.718 6.8916C231.372 6.8916 231.095 6.96418 231.026 7.10935C230.957 7.18193 231.234 7.32709 231.579 7.32709Z" fill="#E9CEDB"/>
<path d="M311.454 17.4186C311.145 17.5079 311.222 17.6866 311.454 17.8652C311.686 17.9546 312.15 17.9546 312.459 17.8652C312.691 17.7759 312.691 17.5079 312.459 17.4186C312.15 17.3292 311.686 17.3292 311.454 17.4186Z" fill="#E9CEDB"/>
<path d="M282.501 16.1576C266.554 16.0414 250.725 16.9713 235.25 18.4825C234.423 18.4825 233.537 18.5406 232.71 18.5406C232.415 18.0756 231.883 17.7269 231.116 17.3782C236.608 17.1457 242.042 16.8551 247.476 16.5064C252.024 16.5064 256.572 16.5064 261.179 16.4482C261.829 16.4482 262.36 16.2739 262.419 15.9833C262.419 15.7508 261.888 15.5764 261.179 15.5183H257.812C258.698 15.2277 259.348 14.7627 259.348 14.2397C259.407 13.7747 258.934 13.3678 258.167 13.0191C263.069 12.496 267.971 11.9729 272.696 11.2755C272.992 11.2174 273.11 11.1011 272.992 11.043C272.873 10.9268 272.578 10.8686 272.342 10.9267C265.431 11.2755 258.58 11.7986 251.729 12.2054C246.295 11.6823 240.979 11.1011 235.132 10.9267C226.627 10.6943 218.594 11.3917 210.621 12.0892C207.726 11.9729 204.891 11.8567 202.056 11.7986C202.47 11.5661 202.706 11.2755 202.706 10.9849C202.706 10.9268 202.647 10.8686 202.647 10.7524C205.128 10.7524 207.667 10.7524 210.207 10.8105C233.951 10.8686 256.159 8.66004 278.78 6.74204C280.256 6.68392 281.26 6.16082 281.083 5.63773C280.906 5.11464 279.548 4.7078 278.13 4.82404C267.262 4.94028 257.281 5.98647 246.295 7.03265C238.499 7.78822 231.588 8.3113 223.733 8.83439C214.519 9.4156 205.955 9.4156 196.918 9.47372C196.032 9.4156 195.146 9.35749 194.26 9.35749C193.374 9.41561 192.429 9.4156 191.543 9.47372C184.455 9.47372 115.883 9.18311 108.972 8.83439C117.241 8.42754 187.113 8.0207 195.264 7.207C195.855 7.14888 196.209 6.97453 196.15 6.74204C196.032 6.50956 195.5 6.39332 194.91 6.45144C183.628 6.97453 104.897 7.26513 93.5566 7.55573C90.4853 5.75398 83.9293 4.7078 78.082 4.64968C75.8966 4.64968 73.9475 4.82404 71.8803 5.17277C72.8253 5.23089 73.7113 5.28901 74.6563 5.40525C71.8803 5.46337 69.5178 5.98646 67.1552 6.50954C66.978 6.50954 66.7418 6.45144 66.5055 6.45144C61.0717 5.46338 54.6928 5.69586 48.8455 5.28902C48.9637 5.5215 49.0818 5.75398 49.259 5.98646C48.1958 5.8121 47.5461 5.40526 46.3649 5.28902C46.7192 5.46338 47.0146 5.63774 47.3099 5.8121H47.2508C46.0105 5.46338 44.4748 5.28902 42.8801 5.28902C39.2772 4.24284 34.9065 3.60349 30.2405 3.31289C29.6499 3.02228 28.7639 2.84792 27.7008 2.7898C27.2873 2.73168 26.7558 2.67356 26.4014 2.4992C23.5663 1.33678 20.0816 0.58121 16.1834 0C16.9512 0.232484 17.7191 0.406842 18.4278 0.639326C17.3056 0.464963 16.2425 0.290605 14.9431 0.290605C15.0612 0.406847 15.2384 0.581209 15.3565 0.697451C11.5174 -0.290607 6.26073 0.116237 3.54381 1.51114C0.826889 2.96417 1.71284 4.88217 5.55197 5.87023L6.08354 6.04458C4.13445 6.27707 2.36254 6.74204 1.35846 7.55573C0.826889 8.0207 1.24033 8.5438 1.35846 9.06688C1.18127 9.82246 2.71692 10.4618 4.78415 10.5199C5.31572 10.5199 5.90635 10.5199 6.37886 10.4037C8.7414 10.6943 11.163 10.8686 13.4665 11.2174C13.939 11.2755 14.4706 11.2174 14.7068 11.043C14.9431 10.8686 14.7068 10.6361 14.2343 10.578C12.5805 10.2293 10.9858 9.88057 9.3911 9.47372C9.27297 9.53184 9.09578 9.58997 8.97766 9.58997C9.03672 9.53185 9.09578 9.47372 9.21391 9.4156C9.09578 9.35748 8.91859 9.35749 8.80047 9.29937C8.91859 9.24124 9.03672 9.24124 9.15485 9.18312C9.27297 9.18312 9.3911 9.24124 9.50923 9.24124C9.74548 9.125 9.98174 9.06688 10.218 8.95064C13.1121 9.18312 15.9472 9.47372 18.605 9.99681C18.7822 10.0549 18.4869 10.3455 18.7822 10.4618C18.9003 10.5199 19.0775 10.578 19.2547 10.6361C18.7822 10.578 18.2506 10.5199 17.7191 10.4618C15.6518 10.9268 14.8249 11.1592 14.2934 11.2755C14.2934 11.2755 14.2934 11.2755 14.1162 11.3336C13.8799 11.3917 13.6437 11.4498 13.3484 11.508C13.3484 11.508 13.3484 11.508 13.3484 11.5661C13.2893 11.5661 13.2302 11.6242 13.1712 11.6242L12.2261 11.5661C11.8718 11.508 11.5174 11.6242 11.3402 11.6823C11.2221 11.6242 11.1039 11.508 10.9268 11.4498C9.15485 11.2755 9.15485 11.2755 7.32388 11.1592C7.32388 11.1592 7.32388 11.2174 7.38294 11.3917C7.32388 11.3917 6.73324 11.508 6.02448 11.4498C5.31572 11.4498 5.31572 11.4498 3.66194 11.3336C3.66194 11.3336 3.66194 11.3336 4.48883 11.6823C4.48883 11.6823 4.48883 11.6823 3.78007 11.4498C3.78007 11.4498 3.78007 11.4498 3.95726 11.8567C3.95726 11.8567 3.95726 11.8567 3.66194 11.4498C3.66194 11.4498 3.66194 11.4498 3.36662 11.7404C3.36662 11.7404 3.36662 11.7405 1.9491 10.8105C1.83097 10.8105 1.59472 10.8686 0.885953 10.9849C0.885953 10.9849 0.708762 11.1011 0.590635 11.1592C0.590635 11.2755 0.590635 11.2755 0 11.6823C0 11.6823 4.40058e-09 11.7986 0.0590635 11.9729C0.236254 12.0892 0.236254 12.0892 0.236254 12.4379C0.236254 12.4379 0.413445 12.5541 0.708762 12.6704C1.00408 12.7285 1.06314 12.7285 2.06722 12.961C1.9491 13.0191 1.89003 13.0772 1.83097 13.1354C1.59472 13.7747 1.59472 13.7747 2.83505 15.2858C2.83505 15.2858 3.54381 15.6927 4.66602 15.9833C5.96542 16.0995 5.96542 16.0995 7.50107 16.2739C7.50107 16.2739 7.85545 16.332 8.38702 16.3901C8.80046 16.6226 8.91859 16.6807 9.21391 16.9132C8.91859 16.9132 8.62327 16.9713 8.38702 17.0295C7.67826 17.2619 7.56013 17.6107 8.15077 17.8431C7.38294 18.8312 7.79639 19.7612 8.7414 20.633C8.44608 20.9817 8.26889 21.3304 8.32796 21.6791C7.14669 22.551 6.43792 23.4809 6.14261 24.469L5.96542 25.3408C6.26073 26.0382 7.20575 26.7357 8.62327 27.2588L9.03672 27.4331L8.62327 28.1306C10.3952 29.9904 13.939 31.5016 16.0653 33.2452L17.7191 34.1752C18.9003 34.9307 20.7904 35.4538 23.0348 35.7444L25.3973 35.9769C25.8698 35.9769 26.4014 35.9769 26.8739 35.9769C24.3342 36.8487 22.9166 38.1274 23.3301 39.5223C24.0979 41.7309 29.709 43.3002 35.8516 42.9514C52.2712 42.7771 68.1593 42.5446 84.9924 41.4984C97.4548 40.7428 114.347 39.7548 126.573 39.6385C138.209 38.5924 211.152 37.2556 222.492 35.6282C232.002 34.2914 239.266 31.7341 247.653 29.6999C247.89 29.6417 247.89 29.5255 247.771 29.4092C247.594 29.293 247.24 29.293 247.004 29.3511C233.655 31.1529 220.189 32.7221 205.836 33.1871C204.183 33.2452 202.588 33.2452 200.993 33.2452C200.816 33.1871 200.639 33.1871 200.403 33.1871C198.926 33.0709 197.508 33.0127 196.032 32.9546L197.567 32.8965C198.572 32.8965 199.458 32.6059 199.517 32.2572C199.517 32.0828 199.398 31.9666 199.162 31.8503C202.883 31.4435 206.545 30.8623 210.148 30.2811C211.211 30.2229 212.215 30.1067 213.101 29.8742C217.295 30.1067 221.547 30.2811 225.741 30.5135L226.804 30.6298C228.221 30.6879 229.521 30.4554 230.171 29.9905C230.407 29.8742 230.525 29.6998 230.584 29.5836C240.211 28.7118 249.957 28.0143 258.994 26.4451C259.466 26.3869 259.702 26.2126 259.643 26.0382C259.82 26.0963 260.057 26.0963 260.234 26.0382C261.297 25.7476 262.537 25.5151 263.778 25.3408C264.073 25.2827 264.191 25.1664 264.073 25.1083C263.955 24.992 263.601 24.9339 263.364 24.992C262.065 25.1664 260.765 25.3989 259.643 25.6895C259.525 25.7476 259.407 25.8057 259.407 25.8639C259.171 25.7476 258.757 25.6895 258.344 25.7476C248.953 26.3288 239.916 27.5494 230.466 27.8981C235.073 27.2006 239.798 26.6775 244.818 26.0963C250.843 25.3989 256.336 24.469 262.419 24.0621C262.715 24.0621 262.951 23.9459 262.892 23.8296C262.833 23.7134 262.596 23.6552 262.301 23.6552C249.898 24.2946 239.03 26.9682 226.213 27.0844C225.682 27.0844 225.209 27.0844 224.678 27.0844C228.635 26.1545 232.474 25.2245 236.372 24.2946C248.185 23.8296 259.879 23.1322 271.456 22.1441C272.047 22.1441 272.46 21.9697 272.46 21.7373C272.46 21.5048 271.928 21.3885 271.397 21.3885C264.782 21.156 258.167 20.9236 251.552 20.8073L252.91 20.5167L254.268 20.4005C258.521 20.3424 262.774 20.2261 267.085 20.0518C268.68 20.0518 269.979 19.5868 270.038 19.0056C270.038 18.4244 268.857 17.9594 267.321 17.9594L268.089 17.8431C268.326 17.8431 268.503 17.7269 268.444 17.6107C268.326 17.4944 268.03 17.4363 267.794 17.4944C266.908 17.6688 266.022 17.785 265.136 17.9594C256.985 17.8432 248.894 17.9594 240.743 18.1919C249.484 17.4363 258.344 16.8551 267.262 16.5645C267.085 16.6226 267.085 16.7389 267.262 16.8551C267.44 16.9132 267.853 16.9132 268.03 16.8551C268.267 16.797 268.207 16.6226 268.03 16.5645C272.814 16.4483 277.599 16.332 282.442 16.3901C282.737 16.3901 282.973 16.2739 282.973 16.1576C283.091 16.2158 282.796 16.1576 282.501 16.1576ZM7.08762 13.7747C7.26481 13.8328 7.38294 13.8909 7.56013 14.0072C7.56013 14.0072 7.56013 14.0072 7.08762 13.7747ZM9.56829 27.1425L9.45016 27.0263L10.9268 24.8758L9.56829 27.1425ZM17.6009 17.8431C17.4237 17.7269 17.2465 17.5525 16.9512 17.3782C16.9512 17.3782 17.2465 17.5525 17.6009 17.8431ZM36.1469 12.9029C35.8516 12.961 35.32 12.9029 35.6153 13.1935C33.2528 13.0191 30.8902 12.961 28.4686 12.9029C27.5827 12.9029 26.6376 12.9029 25.8108 13.0191C24.8657 12.4379 23.8617 11.9148 22.5623 11.508C24.7476 11.8567 27.2283 11.9729 29.5318 12.1473C32.0715 12.3798 34.5522 12.6123 37.0919 12.7866C36.7375 12.8447 36.4422 12.8447 36.1469 12.9029ZM42.0532 8.07882L40.2813 7.84634L40.6357 8.0207C38.3322 7.90445 36.0288 7.7301 33.7843 7.55573C30.5358 7.03264 26.992 6.68391 23.3892 6.50954C24.4523 6.27706 25.3973 5.98646 26.3423 5.75398C30.8902 6.33519 35.2609 7.09077 39.986 7.32325C40.2813 7.38137 40.6357 7.43949 40.931 7.49761C41.4035 7.67197 41.817 7.90446 42.2895 8.13694C42.1714 8.07882 42.1123 8.07882 42.0532 8.07882Z" fill="#E9CEDB"/>
</g>
</svg>
