<svg width="64" height="60" viewBox="0 0 64 60" fill="none" xmlns="http://www.w3.org/2000/svg">
<path d="M29.8889 58.4378C25.5367 52.66 19.3007 48.7 14.6887 43.117C10.0767 37.4691 6.63391 30.9123 4.68516 23.8362C3.19113 18.4479 -0.186705 1.76384 10.4015 4.49042C18.1315 6.50289 23.3282 15.1371 24.4974 22.5378C24.7572 24.1608 27.3556 24.2906 27.7453 22.6676C29.824 14.6177 35.8651 7.99602 43.5951 4.87993C47.2977 3.3868 51.585 2.54286 55.6124 3.19204C63.5373 4.4255 60.2894 13.7089 57.691 18.4479C53.144 26.6277 47.2328 34.0933 40.4771 40.5851C35.2805 45.519 29.759 50.8423 29.1094 58.3079C28.9146 60.2555 32.1625 60.645 32.3573 58.8273C33.3317 48.1157 44.8293 41.6888 50.9354 33.8336C54.4431 29.3542 57.8209 24.6152 60.6141 19.6814C63.0176 15.3967 64.9663 10.2033 63.2774 5.33437C60.4842 -2.91029 47.1028 0.205786 41.1916 2.80253C33.0719 6.43797 26.7709 13.5141 24.4974 22.2132C25.6017 22.2781 26.641 22.343 27.7453 22.343C26.4461 14.1633 21.4444 6.50289 13.8443 2.86745C6.11425 -0.767989 0.203044 4.10091 0.00816914 12.0859C-0.186705 20.9797 3.12617 30.328 7.67324 37.8586C9.94678 41.6238 12.675 45.1295 15.793 48.1806C19.8204 52.0757 24.6273 55.1269 28.265 59.4115C28.9795 60.1256 30.5385 59.3466 29.8889 58.4378Z" fill="#003996"/>
</svg>
