<svg width="40" height="34" viewBox="0 0 40 34" fill="none" xmlns="http://www.w3.org/2000/svg">
<g clip-path="url(#clip0_46_40)">
<path d="M21.116 31.0276C20.504 31.2242 19.496 31.2242 18.884 31.0276C13.664 29.4049 2 22.6356 2 11.1623C2 6.09762 6.482 2 12.008 2C15.284 2 18.182 3.44236 20 5.67147C21.818 3.44236 24.734 2 27.992 2C33.518 2 38 6.09762 38 11.1623C38 22.6356 26.336 29.4049 21.116 31.0276Z" stroke="#8EBCEE" stroke-width="4" stroke-linecap="round" stroke-linejoin="round"/>
<path d="M2.01394 10.3706C8.46719 -4.67596 17.0715 3.47425 20.4518 7.54936C28.5645 -3.73555 35.5094 3.16078 37.9678 7.54936C38.7053 12.8157 38.5 23.5 20.4518 32C6.5 23 5.5 28 2.01394 10.3706Z" fill="#8EBCEE"/>
</g>
<defs>
<clipPath id="clip0_46_40">
<rect width="40" height="34" fill="white"/>
</clipPath>
</defs>
</svg>
