<svg width="100" height="100" viewBox="0 0 100 100" fill="none" xmlns="http://www.w3.org/2000/svg">
<path d="M47.7835 78.4378C43.4313 72.66 37.1953 68.7 32.5832 63.117C27.9712 57.4691 24.5284 50.9123 22.5797 43.8362C21.0857 38.4479 17.7078 21.7638 28.296 24.4904C36.026 26.5029 41.2227 35.1371 42.3919 42.5378C42.6518 44.1608 45.2501 44.2906 45.6398 42.6676C47.7185 34.6177 53.7596 27.996 61.4896 24.8799C65.1922 23.3868 69.4795 22.5429 73.5069 23.192C81.4318 24.4255 78.1839 33.7089 75.5856 38.4479C71.0385 46.6277 65.1273 54.0933 58.3716 60.5851C53.175 65.519 47.6536 70.8423 47.004 78.3079C46.8091 80.2555 50.057 80.645 50.2519 78.8273C51.2262 68.1157 62.7238 61.6888 68.8299 53.8336C72.3376 49.3542 75.7155 44.6152 78.5087 39.6814C80.9121 35.3967 82.8609 30.2033 81.1719 25.3344C78.3787 17.0897 64.9974 20.2058 59.0862 22.8025C50.9664 26.438 44.6655 33.5141 42.3919 42.2132C43.4962 42.2781 44.5356 42.343 45.6398 42.343C44.3407 34.1633 39.3389 26.5029 31.7388 22.8675C24.0088 19.232 18.0976 24.1009 17.9027 32.0859C17.7078 40.9797 21.0207 50.328 25.5678 57.8586C27.8413 61.6238 30.5696 65.1295 33.6875 68.1806C37.715 72.0757 42.5218 75.1269 46.1595 79.4115C46.874 80.1256 48.433 79.3466 47.7835 78.4378Z" fill="#002053"/>
</svg>
