<svg width="84" height="3" viewBox="0 0 84 3" fill="none" xmlns="http://www.w3.org/2000/svg">
<path fill-rule="evenodd" clip-rule="evenodd" d="M0.61626 0.708778C0.430138 0.879707 0.388916 0.977851 0.388916 1.24999C0.388916 1.52214 0.430138 1.62028 0.61626 1.79121L0.843605 1.99999H8.74793C17.5745 1.99999 17.0245 2.03214 17.1961 1.50607C17.3072 1.16557 17.2432 0.900494 16.9949 0.672423L16.8071 0.499994H8.82539H0.843605L0.61626 0.708778ZM21.694 0.708778C21.3912 0.986921 21.3732 1.46371 21.6544 1.76385L21.8421 1.96428H26.9801H32.1179L32.2864 1.80949C32.3989 1.70628 32.4675 1.53507 32.4926 1.29492C32.5269 0.966996 32.5093 0.915853 32.2934 0.717567L32.0564 0.499994H26.9889H21.9214L21.694 0.708778ZM38.1197 1.24192C37.6714 1.47157 37.5863 2.07228 37.9492 2.44528L38.1762 2.67857H45.4222H52.6683L52.8953 2.44528C53.1958 2.13642 53.2128 1.676 52.9346 1.379L52.7469 1.17857L45.5262 1.16264C39.6297 1.14964 38.2715 1.16414 38.1197 1.24192ZM58.8603 1.25421C58.4132 1.477 58.3424 2.06142 58.7159 2.44528L58.9428 2.67857H64.0111H69.0795L69.3064 2.44528C69.6761 2.06535 69.5711 1.42207 69.1078 1.22821C68.9563 1.16478 67.6394 1.14356 63.988 1.14571C59.8014 1.14814 59.0408 1.16421 58.8603 1.25421Z" fill="#003996"/>
<path d="M72.5 1.25C72.5 0.977858 72.5412 0.879713 72.7273 0.708784L72.9547 0.500001H80.9365H82.9182L83.1059 0.672429C83.3543 0.900501 83.4183 1.16557 83.3072 1.50607C83.1356 2.03215 83.3072 2 80.859 2H72.9547L72.7273 1.79122C72.5412 1.62029 72.5 1.52214 72.5 1.25Z" fill="#003996"/>
</svg>
