<svg width="375" height="29" viewBox="0 0 375 29" fill="none" xmlns="http://www.w3.org/2000/svg">
<path d="M-22.9438 0C-23.1222 1.78712 -22.8843 3.57423 -22.1111 5.28011C-21.338 6.98599 -20.1485 8.61064 -18.6617 10.0728C-15.688 13.0378 -11.5248 15.3123 -6.88586 16.9776C-2.2469 18.6429 2.74889 19.7801 7.80416 20.5924C12.8594 21.4454 18.0337 21.9734 23.2673 22.2577C33.6753 22.7857 44.2021 22.2171 54.3721 20.5112C59.4274 19.6583 64.4232 18.521 69.2406 17.1401C74.0579 15.7591 78.7564 14.1751 83.4548 12.6317C88.1532 11.0882 92.7922 9.5042 97.669 8.20448C102.486 6.86414 107.423 5.80812 112.537 5.15826C117.652 4.5084 122.826 4.46778 128.001 4.79271C133.115 5.15826 138.171 6.0112 143.107 7.10784C152.98 9.34173 162.198 12.6317 171.416 15.9216C180.635 19.2115 189.853 22.6232 199.726 25.1415C204.603 26.4006 209.718 27.416 214.892 28.0658C220.066 28.7157 225.359 29 230.593 29C241.12 28.9188 251.647 27.4972 261.4 24.7759C266.277 23.395 270.976 21.6891 275.377 19.7395C279.778 17.7899 284 15.7185 288.401 13.8501C290.602 12.916 292.802 12.0224 295.122 11.2507C296.252 10.8852 297.441 10.5196 298.631 10.1541C299.82 9.82913 301.01 9.5042 302.199 9.21989C307.017 8.04202 312.072 7.2703 317.187 6.82353C327.416 5.88935 337.824 6.17367 348.113 6.86414C353.287 7.22969 358.402 7.67647 363.576 8.16386C368.75 8.65126 373.865 9.21988 378.98 9.82913C399.26 12.1849 419.527 15.3084 439.273 19.695L440 18.3586C420.076 14.0126 399.855 10.3571 379.218 7.92016C374.044 7.31092 368.929 6.78291 363.695 6.29552C358.521 5.80812 353.347 5.36134 348.113 5.03641C337.705 4.38655 327.119 4.14285 316.651 5.15826C311.418 5.64566 306.243 6.45798 301.248 7.67647C299.999 8.0014 298.75 8.32633 297.56 8.69187C296.371 9.05742 295.122 9.46358 293.932 9.82913C291.554 10.6415 289.294 11.5756 287.093 12.5504C282.632 14.4594 278.469 16.5714 274.128 18.521C269.786 20.4706 265.266 22.1359 260.508 23.4762C250.992 26.1975 240.703 27.619 230.414 27.7409C225.24 27.7815 220.066 27.5378 215.011 26.888C209.955 26.2787 204.96 25.3039 200.083 24.0854C190.329 21.6485 181.111 18.3179 171.892 15.0686C162.614 11.8193 153.277 8.52941 143.285 6.29552C138.29 5.19888 133.175 4.38655 127.941 4.02101C122.707 3.69608 117.414 3.77731 112.24 4.42717C107.066 5.07703 102.07 6.21428 97.2527 7.55462C92.4353 8.89496 87.7369 10.479 83.0385 12.063C78.34 13.6471 73.7011 15.2311 68.9432 16.612C64.1853 18.0336 59.249 19.1709 54.1937 20.0238C44.1426 21.7703 33.6158 22.3796 23.2673 21.8922C18.0931 21.6485 12.9189 21.1204 7.86364 20.3081C2.80837 19.4958 -2.18743 18.3992 -6.82638 16.7745C-11.4059 15.1499 -15.6285 12.8753 -18.6022 9.95098C-20.089 8.57002 -21.2785 6.98599 -22.0517 5.28011C-22.8248 3.57423 -23.1222 1.78712 -22.9438 0Z" fill="#003996"/>
</svg>
