<svg width="1400" height="30" viewBox="0 0 1400 30" fill="none" xmlns="http://www.w3.org/2000/svg">
<g clip-path="url(#clip0_156_6507)">
<path d="M0 13.5467C13.7689 9.43251 27.9066 6.32178 42.4131 4.21452C56.7966 2.10725 71.4261 0.802751 86.0555 0.301021C115.437 -0.702439 144.696 1.00344 173.832 3.71279C202.968 6.52247 231.858 10.3356 260.871 13.647C275.378 15.3529 289.884 16.7578 304.391 18.1626C311.644 18.865 318.897 19.3668 326.273 19.9688L337.215 20.7716L348.156 21.474C377.292 23.3806 406.551 24.3841 435.81 24.9861C465.068 25.5882 494.327 25.4879 523.586 24.9861C582.104 23.9827 640.499 21.173 698.893 17.7612C757.288 14.4498 815.683 10.6367 874.078 7.2249C932.473 3.91348 990.99 1.10379 1049.63 0.200675C1078.89 -0.200709 1108.27 -0.200709 1137.53 0.301021C1166.79 0.903097 1196.05 2.10725 1225.31 4.01382C1254.57 6.02074 1283.58 8.62974 1312.84 9.43251C1327.47 9.83389 1342.1 9.73355 1356.73 8.73009C1371.36 7.82697 1385.86 6.02074 1400 3.21106C1385.86 6.32178 1371.36 8.22836 1356.73 9.33216C1342.1 10.436 1327.47 10.6367 1312.84 10.436C1283.46 10.0346 1254.32 7.72663 1225.18 6.02074C1196.05 4.41521 1166.79 3.41175 1137.53 2.91002C1108.27 2.60898 1079.01 2.70933 1049.75 3.3114L1027.75 3.91348C1020.5 4.11417 1013.12 4.31486 1005.87 4.6159C998.613 4.91694 991.236 5.11763 983.983 5.41867L962.1 6.32178C932.841 7.62628 903.706 9.13147 874.447 10.9377C816.052 14.3495 757.657 18.3633 699.262 21.7751C640.867 25.0865 582.227 27.7958 523.709 28.5986C494.204 29.1003 464.945 29.1003 435.564 28.4983L424.622 28.2976L413.681 27.8962L402.74 27.4948C399.052 27.3944 395.364 27.2941 391.798 27.0934L369.793 25.9896C366.105 25.7889 362.539 25.5882 358.851 25.2872L347.91 24.5848L336.969 23.8823L326.027 22.9792C318.774 22.3771 311.398 21.7751 304.145 21.0726C289.638 19.5675 275.009 18.1626 260.502 16.256C231.489 12.7439 202.599 8.73009 173.586 5.71971C144.573 2.70933 115.314 0.702405 86.1784 1.40483C71.549 1.70587 56.9196 2.80967 42.536 4.81659C28.0295 6.72317 13.8918 9.6332 0 13.5467Z" fill="#003996"/>
</g>
<defs>
<clipPath id="clip0_156_6507">
<rect width="1400" height="30" fill="white"/>
</clipPath>
</defs>
</svg>
