<svg width="84" height="38" viewBox="0 0 84 38" fill="none" xmlns="http://www.w3.org/2000/svg">
<path d="M27.229 22.2421C27.4393 22.2421 27.6145 22.1724 27.7547 22.0329C27.8949 21.8934 27.965 21.719 28 21.5098C28 21.3006 27.8949 21.1263 27.7897 21.0217C27.6496 20.8822 27.5094 20.8124 27.2991 20.8124L23.5494 20.7078C23.7947 20.5335 24.04 20.3243 24.2853 20.0802C24.3554 20.0104 24.4255 19.9407 24.4605 19.8361C24.7409 19.5571 25.0212 19.2433 25.3016 18.9643C26.6333 17.4649 27.4393 16.1748 27.7197 15.0938L27.7547 14.9892V14.9543C27.7197 14.7451 27.6496 14.6056 27.5444 14.4661C27.4043 14.3267 27.229 14.2569 27.0188 14.2569L23.3391 14.1872C23.1288 14.1872 22.9536 14.2569 22.8134 14.3964C22.6733 14.5359 22.6032 14.7102 22.6032 14.9194C22.6032 15.1287 22.6733 15.303 22.8134 15.4425C22.9536 15.582 23.1288 15.6517 23.3391 15.6517L25.9324 15.6866C25.5469 16.384 24.9862 17.186 24.2152 18.0229C23.5494 18.7551 22.9186 19.3828 22.2527 19.9058C21.4117 20.4986 20.6757 20.7776 19.9748 20.7776C19.4492 20.7776 19.0287 20.6032 18.6782 20.2894C18.3628 20.0104 18.1175 19.6269 17.9423 19.1736C17.8021 18.7551 17.732 18.3367 17.732 17.9182C17.732 17.3255 17.8722 16.6978 18.1876 16.0353C18.2226 15.9655 18.2577 15.8958 18.2577 15.8958L18.3278 15.8261V15.7912C18.3628 15.6866 18.3979 15.582 18.3979 15.5122C18.3979 15.2333 18.2577 14.9892 18.0124 14.8846C17.9072 14.8148 17.7671 14.8148 17.6619 14.8148C17.5918 14.8148 17.5217 14.8148 17.4166 14.8497C17.2764 14.8846 17.1363 14.9892 17.0311 15.1635C16.9961 15.2681 16.926 15.3379 16.8909 15.4076C16.0849 14.6405 15.2088 14.2569 14.3327 14.2569H14.2276C13.4916 14.2569 12.8258 14.4661 12.16 14.8497C11.5292 15.2333 11.0035 15.7215 10.5479 16.3491C9.88207 17.2557 9.53163 18.2321 9.49658 19.2084C9.1111 19.6617 8.4803 20.0802 7.67428 20.5335C6.83321 20.9868 5.92206 21.2657 5.04595 21.3703C4.27497 21.475 3.57409 21.3355 3.01338 20.917C2.83816 20.7776 2.69798 20.6032 2.5578 20.3591V20.2894L2.52276 20.2545C2.45267 20.115 2.38258 19.9756 2.34753 19.8361C3.88949 18.3018 5.15108 16.6281 6.09728 14.8148C7.07852 12.9667 7.81446 11.1535 8.27003 9.37517C8.72561 7.59681 8.97092 5.9928 8.97092 4.59801V4.49341C8.97092 2.95914 8.76065 1.87818 8.30508 1.18078C7.63923 0.134691 6.72808 0.0649517 5.60666 1.00643C4.27497 2.01766 2.94329 4.94671 1.47143 9.7936C1.43638 9.82847 1.43638 9.89821 1.43638 9.96795C0.70045 12.6878 0.350006 14.9892 0.350006 16.8024C0.350006 16.9419 0.350006 17.3952 0.38505 18.0926C0.420095 18.8249 0.70045 19.7663 1.22612 20.8473L1.26116 20.917C1.47143 21.3355 1.78682 21.6842 2.10222 21.9631C2.80311 22.521 3.64418 22.8 4.55533 22.8C4.7656 22.8 4.97586 22.7651 5.18613 22.7651C6.2725 22.6257 7.32383 22.3118 8.30508 21.7888C8.93587 21.475 9.4265 21.1263 9.88207 20.7776C9.98721 20.9519 10.1274 21.1263 10.2676 21.2657C10.6881 21.6144 11.2138 21.7888 11.8095 21.7888C12.5454 21.7888 13.3865 21.475 14.2626 20.8473C14.8934 20.4289 15.5593 19.7663 16.2601 18.8946C16.4354 19.9407 16.8909 20.7776 17.6269 21.4401C18.2577 21.998 19.0287 22.277 19.9048 22.277C20.2552 22.277 20.6056 22.2421 20.9561 22.1375C21.0262 22.1724 21.0963 22.1724 21.1664 22.1724L27.229 22.2421ZM16.0499 16.6281C14.543 18.9295 13.1762 20.1499 11.9497 20.2545H11.8095C11.389 20.2545 10.9334 20.115 10.9334 19.2084C10.9334 18.511 11.2138 17.8136 11.7044 17.1162C12.0198 16.6629 12.4053 16.3142 12.8608 16.0353C13.2814 15.7912 13.737 15.6517 14.2276 15.6517C14.8233 15.6517 15.4541 15.9655 16.0499 16.6281ZM6.83321 8.78238C6.44772 10.3864 5.78188 12.0601 4.94082 13.7339C4.1348 15.2681 3.11851 16.7327 1.89196 18.0577C1.82187 17.5695 1.82187 17.0814 1.82187 16.5932C1.82187 15.0241 2.17231 12.9319 2.8732 10.3166C3.60913 7.8409 4.31002 5.92306 4.94082 4.56315C6.13233 2.05253 6.72808 1.77357 6.93835 1.77357C6.93835 1.77357 7.00843 1.77357 7.04348 1.84331C7.32383 2.29661 7.46401 3.16836 7.46401 4.35393C7.46401 5.5395 7.25375 7.10863 6.83321 8.78238Z" fill="#003996"/>
<path d="M72.4815 16.0583C72.2704 15.8152 72.0241 15.6762 71.7426 15.6415C71.4611 15.6068 71.1445 15.6415 70.8278 15.7804C70.3352 15.9888 69.8074 16.5792 69.2796 17.5169C68.7871 16.9265 68.2593 16.5792 67.6259 16.475C67.0278 16.3708 66.5 16.5098 66.0426 16.8571C65.7611 17.1002 65.5852 17.4127 65.5148 17.8295C65.2685 19.2187 66.2537 20.712 68.5056 22.4485C67.0982 23.421 65.6556 24.0114 64.213 24.185C62.9463 24.3587 61.6444 24.3239 60.3426 24.0808C58.7944 23.803 56.7537 23.2473 54.3259 22.3791C52.3555 21.6845 50.174 21.0593 47.9573 20.5037C47.5351 20.3995 47.0425 20.2953 46.5851 20.2258C44.7203 19.8785 42.7147 19.7396 40.6036 19.8091H40.5332C39.0906 19.8438 37.648 20.0174 36.311 20.2953C37.0499 18.4546 37.5073 16.9612 37.7184 15.8846C37.7536 15.6415 37.7888 15.3984 37.824 15.19C37.824 14.9817 37.7536 14.7733 37.5777 14.5996C37.4721 14.4954 37.3666 14.4607 37.2258 14.426C37.0499 14.3912 36.8036 14.3912 36.5573 14.6691C32.4406 19.1492 30.8573 19.9827 30.2239 19.8785C30.2239 19.8785 30.1536 19.8091 30.1184 19.5312C30.1184 19.2881 30.1184 19.0103 30.1888 18.6977C30.3647 17.76 30.8221 16.5098 31.6314 14.8775L31.6665 14.7038C31.7017 14.5649 31.6665 14.426 31.6314 14.2871C31.5258 14.044 31.3499 13.905 31.0684 13.8356C30.7165 13.7661 30.4351 13.905 30.2943 14.2523C29.485 15.9541 28.9573 17.378 28.7462 18.4546C28.4999 19.8091 28.7462 20.712 29.485 21.1288C29.6258 21.1983 29.8017 21.2677 29.9776 21.3024C30.3647 21.3719 30.8221 21.3024 31.3499 21.0941C32.4054 20.712 33.8832 19.566 35.8184 17.6211C35.5017 18.5588 35.1147 19.6007 34.6221 20.7815C33.848 21.0246 33.0739 21.3372 32.3702 21.6845C29.8369 22.8653 27.6202 24.8796 25.7906 27.658C25.1924 28.5609 24.6647 29.6028 24.1721 30.7489C23.6795 31.8603 23.3628 32.9021 23.1869 33.8051C23.0461 34.4997 23.0813 35.1248 23.2572 35.611C23.4332 36.132 23.8202 36.4793 24.3832 36.5835C24.4887 36.6182 24.5591 36.6182 24.6647 36.6182C25.3332 36.6182 26.248 36.2362 27.3739 35.4721C28.2887 34.8123 29.2739 33.6662 30.3647 32.1034C31.4202 30.5405 32.4758 28.7693 33.4962 26.7897C34.3406 25.1922 35.0795 23.5946 35.748 22.0318C37.3314 21.615 39.0203 21.3719 40.8147 21.3372L40.9203 21.3024C42.8555 21.2677 44.7203 21.4066 46.4444 21.7192C48.5907 22.1012 51.124 22.8305 53.974 23.8377C56.437 24.7059 58.5833 25.2964 60.3426 25.6089C61.9611 25.8868 63.65 25.8868 65.3037 25.5742C66.9926 25.2616 68.7519 24.3587 70.5463 22.8305C71.9537 21.5803 72.7982 20.1564 73.0797 18.663C73.15 18.3157 73.15 17.9684 73.15 17.6558C73.0093 16.9265 72.7982 16.4056 72.4815 16.0583ZM71.5667 17.6558C71.5667 17.8642 71.5667 18.1073 71.4963 18.3504C71.426 18.6977 71.2852 19.1492 71.0389 19.7049C70.8278 20.2258 70.3704 20.8162 69.6667 21.4414C67.9778 20.2258 67.0278 19.1839 66.9222 18.3157C66.9222 18.2115 66.9222 18.1073 66.9222 18.0379C66.9574 17.8989 66.9926 17.8642 67.0278 17.8642C67.063 17.8295 67.1333 17.8295 67.2037 17.8295C67.2389 17.8295 67.3093 17.8295 67.3796 17.8295C67.8722 17.8989 68.2945 18.4199 68.6815 19.3229C68.7871 19.566 68.9982 19.7396 69.2445 19.7743C69.35 19.8091 69.4908 19.7743 69.6315 19.7396C69.8426 19.6702 69.9834 19.5312 70.0537 19.3229C70.9685 16.996 71.426 16.996 71.4611 16.996C71.426 17.0307 71.5315 17.1349 71.5667 17.6558ZM24.5239 35.3332L24.5591 35.0901C24.4887 34.847 24.4887 34.4997 24.5591 34.0135C24.6998 33.18 25.0165 32.2423 25.4739 31.2351C25.9313 30.1932 26.4239 29.2555 26.9517 28.422C28.6054 25.852 30.611 24.0114 32.9332 22.9347C33.2147 22.7958 33.461 22.6916 33.7425 22.5527C33.2147 23.6988 32.6517 24.8449 32.0536 26.0257C31.0684 27.9011 30.0832 29.6028 29.0628 31.0962C28.0776 32.5548 27.1628 33.5967 26.3887 34.1871C25.1573 35.0206 24.6998 35.0901 24.5239 35.0901V35.3332Z" fill="#003996"/>
<path d="M38.9799 37.1261C38.3172 36.7738 37.8638 36.2806 37.5847 35.6464V37.4784H36.05V25.2182H37.5847V30.5732C37.8638 29.9391 38.2823 29.4459 38.9102 29.0583C39.5031 28.6708 40.2705 28.4594 41.1773 28.4242L41.561 28.389C42.5028 28.389 43.3399 28.6003 44.0375 29.0231C44.7351 29.4459 45.2932 30.0096 45.642 30.7142C46.0256 31.4188 46.2 32.1938 46.2 33.0394C46.2 33.9201 46.0256 34.6952 45.642 35.3998C45.2583 36.1044 44.7002 36.6329 43.9677 37.0557C43.2353 37.4784 42.3981 37.6546 41.4215 37.6546C40.4798 37.6546 39.6426 37.4784 38.9799 37.1261ZM38.0033 34.7657C38.2823 35.2589 38.7009 35.6817 39.2241 35.9635C39.7473 36.2454 40.41 36.3863 41.1425 36.3863C41.8749 36.3863 42.4679 36.2454 43.026 35.9635C43.5492 35.6817 43.9677 35.2941 44.2468 34.7657C44.5258 34.2724 44.6653 33.6735 44.6653 33.0394C44.6653 32.4052 44.5258 31.8063 44.2468 31.3131C43.9677 30.7846 43.5492 30.3971 43.026 30.1152C42.5028 29.8334 41.8749 29.6925 41.1425 29.6925C40.41 29.6925 39.7473 29.8334 39.2241 30.1152C38.7009 30.3971 38.2823 30.8199 38.0033 31.3131C37.7243 31.8415 37.5847 32.4052 37.5847 33.0394C37.6196 33.7088 37.7591 34.2724 38.0033 34.7657Z" fill="#003996"/>
<path d="M48.677 28.6728C48.7861 28.6728 48.8952 28.6728 49.0043 28.6056C49.3316 28.4713 49.6225 28.2698 49.877 28.0011L49.9497 27.9339C50.0952 27.766 50.2406 27.6316 50.3861 27.5645C50.6043 27.4301 50.7497 27.2286 50.7497 26.9935C50.7497 26.8592 50.7134 26.7248 50.6407 26.6241C50.4952 26.389 50.277 26.2546 49.9861 26.2546C49.8406 26.2546 49.6952 26.2882 49.5861 26.3554C49.4043 26.4561 49.077 26.7248 48.5679 27.1614C48.4588 27.2622 48.4225 27.2622 48.4225 27.2622C48.1316 27.3965 47.9497 27.6316 47.9497 27.9339C47.9497 28.0011 47.9497 28.1018 47.9861 28.2026C48.0952 28.5049 48.3497 28.6728 48.677 28.6728Z" fill="#003996"/>
<path d="M55.0209 34.0864C54.777 33.8065 54.3588 33.7365 53.9755 34.0164C53.174 34.7161 52.3725 35.2758 51.5709 35.6956C50.4209 36.2553 49.5497 36.3952 49.1316 35.9754C49.0967 35.9405 49.0619 35.8705 49.027 35.8005C48.8179 35.3108 48.6785 34.786 48.6785 34.2263C48.6785 33.4217 48.9573 32.2673 49.48 30.868C49.6543 30.3082 49.6891 30.2033 49.6891 30.1333C49.6891 29.9934 49.6543 29.8884 49.5846 29.7485C49.5149 29.5736 49.3058 29.3637 48.9573 29.3637C48.574 29.3637 48.33 29.5386 48.2603 29.8884C48.1906 30.0634 48.1558 30.1683 48.1558 30.2383C48.1558 30.2733 48.1209 30.3082 48.1558 30.3082L48.1209 30.3782C47.5285 32.0224 47.2497 33.3168 47.2497 34.2263C47.2497 34.9609 47.424 35.6956 47.7725 36.4302C47.877 36.6051 47.9816 36.78 48.1209 36.92C48.574 37.4097 49.1664 37.6546 49.8982 37.6546H50.1073C50.8043 37.6196 51.5361 37.3747 52.3028 36.9899C53.2088 36.5352 54.1497 35.8705 55.0558 35.1009C55.23 34.9609 55.2997 34.751 55.2997 34.5411C55.23 34.4012 55.1603 34.2263 55.0209 34.0864Z" fill="#003996"/>
<path d="M54.6 28.608H56.1293V30.0114C56.3726 29.4851 56.7897 29.0992 57.3458 28.7834C57.9019 28.5027 58.5275 28.3273 59.2574 28.3273C59.9873 28.3273 60.6477 28.4677 61.169 28.7834C61.6904 29.0992 62.1075 29.5202 62.3508 30.0114C62.5941 30.5377 62.6984 31.099 62.6288 31.6955H61.0995C61.1343 31.099 60.9258 30.6079 60.5087 30.2219C60.0916 29.836 59.5007 29.6255 58.7361 29.6255C58.2147 29.6255 57.7629 29.7307 57.3805 29.9412C56.9982 30.1517 56.6854 30.4324 56.4769 30.8184C56.2683 31.1692 56.164 31.5552 56.164 31.9762V37.3091H54.6V28.608Z" fill="#003996"/>
<path d="M65.905 37.0222C65.17 36.6007 64.645 36.0737 64.26 35.3711C63.875 34.6685 63.7 33.8956 63.7 33.0173C63.7 32.1742 63.875 31.4013 64.26 30.6987C64.645 29.996 65.17 29.4339 65.87 29.0124C66.57 28.5908 67.41 28.38 68.355 28.38C69.37 28.38 70.21 28.5908 70.875 28.9772C71.54 29.3637 72.03 29.8906 72.31 30.5581V25.2182H73.85V37.4789H72.31V35.617C72.065 36.2142 71.575 36.706 70.91 37.0925C70.245 37.4438 69.405 37.6546 68.46 37.6546C67.48 37.6195 66.64 37.4438 65.905 37.0222ZM65.625 34.7387C65.905 35.2305 66.325 35.6521 66.85 35.9332C67.375 36.2142 68.005 36.3547 68.74 36.3547C69.475 36.3547 70.14 36.2142 70.665 35.9332C71.19 35.6521 71.61 35.2657 71.89 34.7387C72.17 34.2469 72.31 33.6497 72.31 33.0173C72.31 32.3498 72.17 31.7877 71.89 31.2607C71.61 30.7689 71.19 30.3473 70.665 30.0663C70.14 29.7852 69.475 29.6447 68.74 29.6447C68.005 29.6447 67.41 29.7852 66.85 30.0663C66.325 30.3473 65.905 30.7689 65.625 31.2607C65.345 31.7877 65.205 32.3498 65.205 32.9822C65.205 33.6848 65.345 34.2469 65.625 34.7387Z" fill="#003996"/>
<path d="M77.4456 37.2645C76.7833 37.0162 76.2954 36.6261 75.8771 36.1296C75.4937 35.6331 75.2846 35.0656 75.2846 34.4273H76.8182C76.8182 35.0656 77.097 35.5267 77.6547 35.8813C78.2124 36.236 78.8746 36.4133 79.6414 36.4133C80.4431 36.4133 81.0705 36.3069 81.5236 36.0587C81.9767 35.8104 82.2207 35.4912 82.2207 35.0302C82.2207 34.6046 82.0116 34.25 81.6282 34.0372C81.2448 33.8244 80.6174 33.6825 79.7111 33.647C78.317 33.5761 77.2016 33.3279 76.4348 32.9023C75.6331 32.4767 75.2497 31.8383 75.2497 31.0581C75.2497 30.2424 75.6331 29.5686 76.3651 29.0721C77.1319 28.5756 78.1078 28.3273 79.3277 28.3273C80.5825 28.3273 81.5933 28.611 82.395 29.1785C83.1966 29.7459 83.6149 30.5261 83.6497 31.5546H82.1161C82.0813 30.8453 81.8024 30.3488 81.2796 30.0296C80.7916 29.7104 80.0945 29.5686 79.258 29.5686C78.5609 29.5686 77.9336 29.7104 77.4456 29.9587C76.9576 30.207 76.7136 30.5971 76.7136 31.0581C76.7136 31.9802 77.7941 32.4767 79.9203 32.5476C81.175 32.6186 82.0813 32.8314 82.7087 33.2569C83.336 33.6825 83.6497 34.25 83.6497 34.9947C83.6497 35.8813 83.2663 36.5197 82.5344 36.9808C81.8024 37.4418 80.7916 37.6546 79.502 37.6546C78.8049 37.6546 78.073 37.5482 77.4456 37.2645Z" fill="#003996"/>
</svg>
