<svg width="38" height="38" viewBox="0 0 38 38" fill="none" xmlns="http://www.w3.org/2000/svg">
<path d="M26.8371 4.91708C22.6278 4.46868 20.026 7.30652 19 8.73988C17.974 7.30652 15.374 4.46792 11.1629 4.9167C5.61791 5.50988 3.22315 10.5844 3.72399 15.288C4.22027 19.9514 7.23291 23.6051 13.205 26.7865C17.868 29.2713 18.4152 32.5077 18.4357 32.6419C18.455 32.7778 18.5228 32.9021 18.6264 32.992C18.7301 33.082 18.8627 33.1315 19 33.1315C19.1372 33.1315 19.2699 33.082 19.3735 32.992C19.4772 32.9021 19.5449 32.7778 19.5643 32.6419C19.5692 32.6088 20.0929 29.2926 24.7957 26.7872C30.7674 23.6051 33.782 19.9499 34.276 15.288C34.7768 10.5844 32.3821 5.50988 26.8371 4.91708ZM33.1425 15.1676C32.6838 19.4791 29.944 22.752 24.2599 25.7806C21.1413 27.4416 19.6775 29.4582 19 30.8433C18.3224 29.4582 16.8587 27.4416 13.7404 25.7806C8.05599 22.752 5.31619 19.4791 4.85753 15.1676C4.43041 11.1544 6.25935 6.58908 11.286 6.051C11.5442 6.02296 11.8037 6.00888 12.0635 6.00882C16.3236 6.00882 18.4049 9.88292 18.4957 10.0566C18.5438 10.1492 18.6165 10.2268 18.7056 10.2809C18.7948 10.3351 18.8972 10.3637 19.0015 10.3637C19.1059 10.3637 19.2082 10.3351 19.2974 10.2809C19.3866 10.2268 19.4592 10.1492 19.5073 10.0566C19.5308 10.0114 21.9081 5.53458 26.717 6.051C31.7406 6.58908 33.5696 11.1544 33.1425 15.1676Z" fill="#003996"/>
<path d="M29.9819 9.2226C29.8568 9.30742 29.7705 9.43845 29.742 9.58689C29.7135 9.73533 29.7452 9.88901 29.8299 10.0141C30.3279 10.7604 30.6731 11.598 30.8457 12.4784C30.8797 12.6227 30.9686 12.748 31.0934 12.8278C31.2183 12.9077 31.3693 12.9357 31.5145 12.9061C31.6597 12.8764 31.7877 12.7914 31.8712 12.669C31.9548 12.5466 31.9874 12.3965 31.9621 12.2504C31.7599 11.2227 31.3557 10.2454 30.7731 9.37497C30.6884 9.24991 30.5574 9.16362 30.4091 9.13505C30.2607 9.10647 30.1071 9.13796 29.9819 9.2226Z" fill="#003996"/>
<path d="M31.586 14.5186C31.5116 14.5104 31.4363 14.5169 31.3644 14.5377C31.2925 14.5586 31.2254 14.5934 31.167 14.6402C31.1085 14.687 31.0599 14.7448 31.0238 14.8104C30.9877 14.876 30.9649 14.9481 30.9567 15.0225C30.6759 17.5685 29.4021 19.6406 26.9481 21.5486C26.8287 21.6414 26.7512 21.7778 26.7324 21.9279C26.7137 22.0779 26.7553 22.2292 26.8481 22.3485C26.9409 22.4678 27.0774 22.5454 27.2274 22.5641C27.3774 22.5829 27.5287 22.5413 27.648 22.4484C30.324 20.3679 31.7771 17.9793 32.0898 15.1475C32.1064 14.9973 32.0626 14.8467 31.9681 14.7287C31.8736 14.6108 31.7362 14.5352 31.586 14.5186Z" fill="#003996"/>
</svg>
