<svg width="60" height="52" viewBox="0 0 60 52" fill="none" xmlns="http://www.w3.org/2000/svg">
<path d="M17.5405 23.329C21.2202 27.7462 24.8101 32.1633 28.6692 36.4038C29.2077 37.0222 30.3744 37.3755 31.0924 36.7571C36.2977 32.7817 40.6954 28.1879 45.093 23.4174C47.3367 21.0321 49.4907 18.5585 51.8241 16.35C54.2473 13.9647 57.3885 12.0212 59.5424 9.45927C60.6194 8.13413 59.1834 6.4556 57.6577 7.074C52.0036 9.19423 47.3367 15.2899 43.3878 19.6187C38.7209 24.8309 34.2336 30.2198 28.759 34.5486C29.6564 34.5486 30.6436 34.6369 31.5411 34.6369C27.4127 30.3965 23.0151 26.5094 18.7072 22.3573C18.1687 21.9156 16.9123 22.6223 17.5405 23.329Z" fill="#E9CEDB"/>
<path d="M34.1704 1.00071C25.5402 0.472489 16.1092 2.58541 9.79221 8.83606C3.65318 14.9106 3.65319 24.3306 5.07673 32.254C6.58925 40.4414 11.3047 46.34 19.3122 49.3332C27.2306 52.2385 36.2167 51.7983 43.8682 48.4529C51.3418 45.1074 57.036 39.473 57.9258 31.1975C58.8155 22.6579 57.125 14.9987 50.2742 9.1882C42.8896 2.93755 32.8358 1.52895 23.4938 0.824654C15.8423 0.29643 9.34735 2.05717 4.89878 8.65997C0.094326 15.879 -1.24026 28.4684 3.38626 35.9515C9.1694 45.4596 21.2695 46.6041 31.3233 47.2203C33.1917 47.3084 34.0814 44.6673 31.9461 44.4912C24.3835 44.051 16.0202 43.6988 9.88121 38.7688C3.65321 33.7506 3.11939 25.299 4.54293 17.9039C5.96647 10.5088 10.8599 3.81792 18.9562 3.46577C26.1629 3.11363 35.0601 4.43419 41.644 7.42746C48.4948 10.5088 53.922 15.9671 54.7228 23.6263C55.0786 26.9717 54.8118 30.6693 53.9221 33.9267C52.7654 38.0645 49.4735 40.9697 45.9146 43.1706C34.7932 50.1256 15.4864 49.8615 9.79221 36.0396C7.12307 29.5248 6.14441 19.6646 9.88121 13.414C14.5077 5.57866 25.3622 2.67344 33.9035 3.02559C35.1491 2.93755 35.416 1.08875 34.1704 1.00071Z" fill="#E9CEDB"/>
</svg>
