<svg width="60" height="51" viewBox="0 0 60 51" fill="none" xmlns="http://www.w3.org/2000/svg">
<path d="M17.014 22.5923C20.6936 27.0094 24.2835 31.4265 28.1427 35.667C28.6812 36.2854 29.8478 36.6388 30.5658 36.0204C35.7712 32.0449 40.1689 27.4511 44.5665 22.6806C46.8102 20.2954 48.9641 17.8218 51.2976 15.6132C53.7208 13.2279 56.8619 11.2844 59.0158 8.72248C60.0928 7.39734 58.6569 5.71882 57.1312 6.33722C51.4771 8.45744 46.8102 14.5531 42.8613 18.8819C38.1944 24.0941 33.707 29.483 28.2324 33.8118C29.1299 33.8118 30.1171 33.9001 31.0146 33.9001C26.8862 29.6597 22.4886 25.7726 18.1807 21.6205C17.6422 21.1788 16.3857 21.8855 17.014 22.5923Z" fill="#FF81C9"/>
<path d="M33.644 0.263896C25.0138 -0.264328 15.5828 1.84859 9.26584 8.09924C3.12681 14.1738 3.12683 23.5938 4.55037 31.5172C6.06288 39.7046 10.7784 45.6032 18.7858 48.5964C26.7042 51.5017 35.6903 51.0615 43.3419 47.716C50.8155 44.3706 56.5097 38.7362 57.3994 30.4607C58.2891 21.9211 56.5986 14.2619 49.7478 8.45139C42.3632 2.20073 32.3095 0.792136 22.9675 0.0878377C15.3159 -0.440386 8.82098 1.32036 4.37241 7.92316C-0.432041 15.1422 -1.76662 27.7316 2.85989 35.2147C8.64303 44.7228 20.7432 45.8672 30.7969 46.4835C32.6653 46.5715 33.5551 43.9304 31.4197 43.7544C23.8572 43.3142 15.4939 42.962 9.35484 38.0319C3.12685 33.0138 2.59302 24.5622 4.01656 17.1671C5.4401 9.77194 10.3335 3.08111 18.4299 2.72896C25.6366 2.37681 34.5337 3.69737 41.1176 6.69064C47.9684 9.77195 53.3957 15.2303 54.1964 22.8895C54.5523 26.2349 54.2854 29.9325 53.3957 33.1899C52.2391 37.3276 48.9471 40.2329 45.3883 42.4338C34.2668 49.3888 14.96 49.1246 9.26584 35.3028C6.5967 28.788 5.61805 18.9278 9.35484 12.6772C13.9814 4.84184 24.8359 1.93662 33.3771 2.28877C34.6227 2.20073 34.8896 0.351934 33.644 0.263896Z" fill="#FF81C9"/>
</svg>
