<svg width="332" height="44" viewBox="0 0 332 44" fill="none" xmlns="http://www.w3.org/2000/svg">
<g opacity="0.5">
<path d="M10.4219 9.61576C10.491 9.61576 10.5601 9.61576 10.6292 9.67363C10.7675 9.61576 10.9749 9.55788 11.1131 9.55788C10.9749 9.55788 10.8366 9.5 10.6984 9.5C10.6292 9.5 10.5601 9.55788 10.4219 9.61576Z" fill="#E9CEDB"/>
<path d="M4.83365 11.2275C4.31665 11.0997 3.79964 10.908 3.08875 10.9719C2.89488 11.0358 2.83025 11.0997 2.76562 11.0997C3.02413 11.1636 3.41188 11.2914 3.79964 11.4192C4.51052 11.6748 4.89828 11.4831 4.83365 11.2275Z" fill="#E9CEDB"/>
<path d="M2.76642 11.075C2.3056 11.0171 2.0752 10.9592 2.0752 10.9592C2.3056 11.0171 2.42081 11.075 2.53601 11.1328C2.65121 11.1328 2.65121 11.1329 2.76642 11.075C2.76642 11.1329 2.65121 11.1329 2.76642 11.075Z" fill="#E9CEDB"/>
<path d="M231.579 7.32721C242.159 7.69014 252.876 7.90789 263.524 8.05306C263.87 8.05306 264.146 7.98049 264.216 7.83532C264.216 7.69015 263.939 7.61757 263.593 7.61757C252.945 7.4724 242.366 7.25465 231.718 6.89172C231.372 6.89172 231.095 6.9643 231.026 7.10947C230.957 7.18205 231.234 7.32721 231.579 7.32721Z" fill="#E9CEDB"/>
<path d="M311.454 17.4184C311.145 17.5078 311.222 17.6864 311.454 17.8651C311.686 17.9544 312.15 17.9544 312.459 17.8651C312.691 17.7758 312.691 17.5078 312.459 17.4184C312.15 17.3291 311.686 17.3291 311.454 17.4184Z" fill="#E9CEDB"/>
<path d="M331.414 16.6576C312.706 16.5414 294.136 17.4713 275.982 18.9825C275.012 18.9825 273.973 19.0406 273.003 19.0406C272.656 18.5756 272.033 18.2269 271.132 17.8782C277.576 17.6457 283.951 17.3551 290.325 17.0064C295.661 17.0064 300.996 17.0064 306.401 16.9482C307.163 16.9482 307.786 16.7739 307.856 16.4833C307.856 16.2508 307.232 16.0764 306.401 16.0183H302.451C303.491 15.7277 304.253 15.2627 304.253 14.7397C304.322 14.2747 303.768 13.8678 302.867 13.5191C308.618 12.996 314.369 12.4729 319.912 11.7755C320.259 11.7174 320.397 11.6011 320.259 11.543C320.12 11.4268 319.774 11.3686 319.496 11.4267C311.39 11.7755 303.352 12.2986 295.314 12.7054C288.94 12.1823 282.703 11.6011 275.844 11.4267C265.866 11.1943 256.443 11.8917 247.088 12.5892C243.693 12.4729 240.367 12.3567 237.041 12.2986C237.526 12.0661 237.804 11.7755 237.804 11.4849C237.804 11.4268 237.734 11.3686 237.734 11.2524C240.644 11.2524 243.624 11.2524 246.603 11.3105C274.458 11.3686 300.511 9.16004 327.049 7.24204C328.781 7.18392 329.959 6.66082 329.751 6.13773C329.544 5.61464 327.95 5.2078 326.287 5.32404C313.538 5.44028 301.828 6.48647 288.94 7.53265C279.793 8.28822 271.686 8.8113 262.471 9.33439C251.662 9.9156 241.614 9.9156 231.013 9.97372C229.974 9.9156 228.934 9.85749 227.895 9.85749C226.856 9.91561 225.747 9.9156 224.708 9.97372C216.393 9.97372 135.947 9.68311 127.84 9.33439C137.541 8.92754 219.511 8.5207 229.073 7.707C229.766 7.64888 230.182 7.47453 230.112 7.24204C229.974 7.00956 229.35 6.89332 228.657 6.95144C215.423 7.47453 123.059 7.76513 109.755 8.05573C106.152 6.25398 98.4612 5.2078 91.6015 5.14968C89.0377 5.14968 86.7512 5.32404 84.326 5.67277C85.4347 5.73089 86.474 5.78901 87.5826 5.90525C84.326 5.96337 81.5544 6.48646 78.7828 7.00954C78.5749 7.00954 78.2978 6.95144 78.0206 6.95144C71.6459 5.96338 64.1626 6.19586 57.3029 5.78902C57.4415 6.0215 57.5801 6.25397 57.7879 6.48646C56.5407 6.3121 55.7785 5.90526 54.3927 5.78902C54.8084 5.96338 55.1549 6.13774 55.5014 6.3121H55.4321C53.977 5.96338 52.1754 5.78902 50.3046 5.78902C46.0779 4.74284 40.9504 4.10349 35.4765 3.81289C34.7836 3.52228 33.7443 3.34792 32.497 3.2898C32.012 3.23168 31.3884 3.17356 30.9727 2.9992C27.6467 1.83678 23.5586 1.08121 18.9855 0.5C19.8862 0.732484 20.787 0.906842 21.6185 1.13933C20.302 0.964963 19.0548 0.790605 17.5304 0.790605C17.669 0.906847 17.8768 1.08121 18.0154 1.19745C13.5116 0.209393 7.34475 0.616237 4.1574 2.01114C0.970061 3.46417 2.00941 5.38217 6.51327 6.37023L7.13688 6.54458C4.85031 6.77707 2.7716 7.24204 1.59367 8.05573C0.970061 8.5207 1.45509 9.0438 1.59367 9.56688C1.3858 10.3225 3.18734 10.9618 5.6125 11.0199C6.23611 11.0199 6.92901 11.0199 7.48333 10.9037C10.2549 11.1943 13.0958 11.3686 15.7981 11.7174C16.3525 11.7755 16.9761 11.7174 17.2532 11.543C17.5304 11.3686 17.2532 11.1361 16.6989 11.078C14.7588 10.7293 12.888 10.3806 11.0171 9.97372C10.8785 10.0318 10.6707 10.09 10.5321 10.09C10.6014 10.0318 10.6707 9.97372 10.8093 9.9156C10.6707 9.85748 10.4628 9.85749 10.3242 9.79937C10.4628 9.74124 10.6014 9.74124 10.74 9.68312C10.8785 9.68312 11.0171 9.74124 11.1557 9.74124C11.4329 9.625 11.71 9.56688 11.9872 9.45063C15.3824 9.68312 18.7083 9.97372 21.8264 10.4968C22.0342 10.5549 21.6878 10.8455 22.0342 10.9618C22.1728 11.0199 22.3807 11.078 22.5886 11.1361C22.0342 11.078 21.4106 11.0199 20.787 10.9618C18.3619 11.4268 17.3918 11.6592 16.7682 11.7755C16.7682 11.7755 16.7682 11.7755 16.5603 11.8336C16.2832 11.8917 16.006 11.9498 15.6596 12.008C15.6596 12.008 15.6596 12.008 15.6596 12.0661C15.5903 12.0661 15.521 12.1242 15.4517 12.1242L14.343 12.0661C13.9273 12.008 13.5116 12.1242 13.3037 12.1823C13.1651 12.1242 13.0265 12.008 12.8187 11.9498C10.74 11.7755 10.74 11.7755 8.59197 11.6592C8.59197 11.6592 8.59197 11.7174 8.66126 11.8917C8.59197 11.8917 7.89907 12.008 7.06759 11.9498C6.23611 11.9498 6.23611 11.9498 4.29598 11.8336C4.29598 11.8336 4.29598 11.8336 5.26605 12.1823C5.26605 12.1823 5.26605 12.1823 4.43456 11.9498C4.43456 11.9498 4.43456 11.9498 4.64244 12.3567C4.64244 12.3567 4.64244 12.3567 4.29598 11.9498C4.29598 11.9498 4.29598 11.9498 3.94953 12.2404C3.94953 12.2404 3.94953 12.2405 2.28657 11.3105C2.14799 11.3105 1.87083 11.3686 1.03935 11.4849C1.03935 11.4849 0.831481 11.6011 0.692901 11.6592C0.692901 11.7755 0.692901 11.7755 0 12.1823C0 12.1823 5.16251e-09 12.2986 0.0692901 12.4729C0.27716 12.5892 0.27716 12.5892 0.27716 12.9379C0.27716 12.9379 0.485031 13.0541 0.831481 13.1704C1.17793 13.2285 1.24722 13.2285 2.42515 13.461C2.28657 13.5191 2.21728 13.5772 2.14799 13.6354C1.87083 14.2747 1.87083 14.2747 3.32592 15.7858C3.32592 15.7858 4.1574 16.1927 5.47392 16.4833C6.9983 16.5995 6.9983 16.5995 8.79984 16.7739C8.79984 16.7739 9.21558 16.832 9.83919 16.8901C10.3242 17.1226 10.4628 17.1807 10.8093 17.4132C10.4628 17.4132 10.1164 17.4713 9.83919 17.5295C9.00771 17.7619 8.86913 18.1107 9.56203 18.3431C8.66126 19.3312 9.14629 20.2612 10.2549 21.133C9.90848 21.4817 9.70061 21.8304 9.7699 22.1791C8.3841 23.051 7.55262 23.9809 7.20617 24.969L6.9983 25.8408C7.34475 26.5382 8.45339 27.2357 10.1164 27.7588L10.6014 27.9331L10.1164 28.6306C12.1951 30.4904 16.3525 32.0016 18.8469 33.7452L20.787 34.6752C22.1728 35.4307 24.3901 35.9538 27.0231 36.2444L29.7947 36.4769C30.3491 36.4769 30.9727 36.4769 31.527 36.4769C28.5475 37.3487 26.8845 38.6274 27.3696 40.0223C28.2703 42.2309 34.8529 43.8002 42.0591 43.4514C61.3217 43.2771 79.9607 43.0446 99.7084 41.9984C114.329 41.2428 134.146 40.2548 148.489 40.1385C162.139 39.0924 247.712 37.7556 261.016 36.1282C272.171 34.7914 280.694 32.2341 290.533 30.1999C290.81 30.1417 290.81 30.0255 290.672 29.9092C290.464 29.793 290.048 29.793 289.771 29.8511C274.112 31.6529 258.313 33.2221 241.476 33.6871C239.536 33.7452 237.665 33.7452 235.794 33.7452C235.586 33.6871 235.378 33.6871 235.101 33.6871C233.369 33.5709 231.706 33.5127 229.974 33.4546L231.775 33.3965C232.953 33.3965 233.993 33.1059 234.062 32.7572C234.062 32.5828 233.923 32.4666 233.646 32.3503C238.011 31.9435 242.307 31.3623 246.534 30.7811C247.781 30.7229 248.959 30.6067 249.999 30.3742C254.918 30.6067 259.907 30.7811 264.827 31.0135L266.074 31.1298C267.737 31.1879 269.261 30.9554 270.023 30.4905C270.301 30.3742 270.439 30.1998 270.508 30.0836C281.803 29.2118 293.236 28.5143 303.837 26.9451C304.391 26.8869 304.668 26.7126 304.599 26.5382C304.807 26.5963 305.084 26.5963 305.292 26.5382C306.539 26.2476 307.994 26.0151 309.449 25.8408C309.796 25.7827 309.934 25.6664 309.796 25.6083C309.657 25.492 309.242 25.4339 308.964 25.492C307.44 25.6664 305.916 25.8989 304.599 26.1895C304.461 26.2476 304.322 26.3057 304.322 26.3639C304.045 26.2476 303.56 26.1895 303.075 26.2476C292.058 26.8288 281.456 28.0494 270.37 28.3981C275.774 27.7006 281.318 27.1775 287.207 26.5963C294.275 25.8989 300.719 24.969 307.856 24.5621C308.202 24.5621 308.479 24.4459 308.41 24.3296C308.341 24.2134 308.064 24.1552 307.717 24.1552C293.166 24.7946 280.417 27.4682 265.381 27.5844C264.757 27.5844 264.203 27.5844 263.579 27.5844C268.222 26.6545 272.726 25.7245 277.299 24.7946C291.157 24.3296 304.876 23.6322 318.457 22.6441C319.15 22.6441 319.635 22.4697 319.635 22.2373C319.635 22.0048 319.012 21.8885 318.388 21.8885C310.627 21.656 302.867 21.4236 295.106 21.3073L296.7 21.0167L298.294 20.9005C303.283 20.8424 308.272 20.7261 313.33 20.5518C315.201 20.5518 316.725 20.0868 316.794 19.5056C316.794 18.9244 315.408 18.4594 313.607 18.4594L314.508 18.3431C314.785 18.3431 314.993 18.2269 314.923 18.1107C314.785 17.9944 314.438 17.9363 314.161 17.9944C313.122 18.1688 312.082 18.285 311.043 18.4594C301.481 18.3432 291.988 18.4594 282.426 18.6919C292.681 17.9363 303.075 17.3551 313.538 17.0645C313.33 17.1226 313.33 17.2389 313.538 17.3551C313.745 17.4132 314.23 17.4132 314.438 17.3551C314.715 17.297 314.646 17.1226 314.438 17.0645C320.051 16.9483 325.663 16.832 331.345 16.8901C331.692 16.8901 331.969 16.7739 331.969 16.6576C332.107 16.7158 331.761 16.6576 331.414 16.6576ZM8.31481 14.2747C8.52268 14.3328 8.66126 14.3909 8.86913 14.5072C8.86913 14.5072 8.86913 14.5072 8.31481 14.2747ZM11.225 27.6425L11.0864 27.5263L12.8187 25.3758L11.225 27.6425ZM20.6484 18.3431C20.4406 18.2269 20.2327 18.0525 19.8862 17.8782C19.8862 17.8782 20.2327 18.0525 20.6484 18.3431ZM42.4055 13.4029C42.0591 13.461 41.4355 13.4029 41.7819 13.6935C39.0103 13.5191 36.2387 13.461 33.3978 13.4029C32.3585 13.4029 31.2498 13.4029 30.2798 13.5191C29.1711 12.9379 27.9932 12.4148 26.4688 12.008C29.0325 12.3567 31.9427 12.4729 34.645 12.6473C37.6245 12.8798 40.5347 13.1123 43.5142 13.2866C43.0984 13.3447 42.752 13.3447 42.4055 13.4029ZM49.3345 8.57882L47.2558 8.34634L47.6716 8.5207C44.9693 8.40445 42.2669 8.2301 39.6339 8.05573C35.823 7.53264 31.6656 7.18391 27.4389 7.00954C28.6861 6.77706 29.7947 6.48646 30.9034 6.25398C36.2387 6.83519 41.3662 7.59077 46.9094 7.82325C47.2558 7.88137 47.6716 7.93949 48.018 7.99761C48.5723 8.17197 49.0574 8.40446 49.6117 8.63694C49.4731 8.57882 49.4038 8.57882 49.3345 8.57882Z" fill="#E9CEDB"/>
</g>
</svg>
