<svg width="621" height="71" viewBox="0 0 621 71" fill="none" xmlns="http://www.w3.org/2000/svg">
<path d="M14.9743 26.3221L14.9704 26.5611L14.7819 26.7082L1.01294 37.4459L14.6491 42.5315L14.9744 42.6528V43V52.1861C14.9744 57.2376 16.544 61.8337 19.0422 65.1561C21.5411 68.4795 24.9423 70.5 28.621 70.5H30.642H42.7677L606.853 70.5C610.532 70.5 613.933 68.4795 616.432 65.1561C618.93 61.8337 620.5 57.2376 620.5 52.1861V18.8139C620.5 13.7624 618.93 9.16631 616.432 5.84387C613.933 2.5205 610.532 0.5 606.853 0.5L28.7894 0.500039C26.9879 0.500039 25.2329 1.41063 23.5865 3.02026C21.9415 4.6286 20.4456 6.89763 19.1765 9.51175C16.6374 14.7424 15.0572 21.2495 14.9743 26.3221Z" stroke="#FF81C9"/>
</svg>
