<svg width="1114" height="884" viewBox="0 0 1114 884" fill="none" xmlns="http://www.w3.org/2000/svg">
<g opacity="0.2">
<path d="M1103.62 529.419H10.4554C10.4554 617.331 0.262695 751.111 0.262695 839.023C0.262695 853.547 0.262695 868.072 0.262695 882.597C2.81088 882.851 14.2777 884.126 14.2777 883.106C15.297 878.01 20.6481 878.774 27.783 880.303C34.9179 882.342 43.8366 879.539 53.0101 876.736C62.4383 881.323 71.1021 872.404 78.7466 875.971C86.1363 876.991 91.9971 878.265 94.0357 878.01C95.8194 874.952 110.599 876.991 125.124 871.639C139.648 869.601 154.682 870.62 156.721 866.798C156.721 868.327 162.072 866.034 169.717 865.779C177.616 865.014 188.064 864.759 198.511 864.505C208.959 865.269 219.661 869.091 227.56 864.505C235.46 864.759 240.556 859.663 240.556 862.721C246.417 862.466 253.042 855.586 258.648 852.783C261.961 853.293 264.764 850.49 267.057 848.451C268.076 848.451 268.841 848.451 269.86 848.706C274.702 849.98 279.543 852.783 283.875 853.547C286.678 854.822 289.481 856.096 292.284 857.115C296.361 854.057 310.121 852.528 314.708 851.509C319.295 848.961 339.935 859.153 345.031 857.624C365.162 851.509 363.124 849.725 385.038 856.605C395.995 854.312 401.856 846.922 412.558 843.609C414.342 844.629 416.635 846.158 419.184 847.941C422.241 846.922 425.044 844.629 427.338 842.081C429.121 842.081 430.65 842.335 432.689 842.59C454.603 834.181 446.194 835.2 475.753 841.826C482.378 839.532 477.027 834.946 487.73 833.672C492.571 840.042 499.961 842.081 507.351 847.177C514.995 845.393 522.895 843.609 530.539 841.826C534.616 836.475 539.203 838.004 540.477 833.162C563.665 839.278 591.441 839.278 614.884 845.138C616.413 845.138 617.942 845.138 619.47 845.138C657.438 843.1 672.473 850.235 689.036 842.845C714.263 844.629 739.49 846.413 764.717 848.451C764.717 848.451 821.031 856.096 858.744 862.211C877.601 865.269 891.616 864.759 891.616 866.033C891.616 864.759 904.102 861.956 923.214 865.779C932.642 864.759 943.599 861.702 955.321 862.466C967.297 864.25 980.293 872.659 992.779 873.423C1005.52 874.952 1017.5 860.937 1029.22 860.173C1040.94 860.682 1052.41 869.346 1061.83 869.091C1080.69 866.543 1066.68 874.188 1093.69 880.558C1096.74 878.01 1107.7 877.755 1111.27 877.755C1111.27 866.288 1113.82 854.567 1113.82 843.1L1103.62 529.419Z" fill="white"/>
<path d="M10.4576 529.164C10.4576 608.412 1.53893 743.211 1.0293 825.772C1.0293 829.339 1.0293 833.161 1.0293 836.474C1.0293 848.45 1.0293 862.72 1.0293 874.697C1.28411 876.226 1.28421 878.009 1.28421 879.538C3.57757 879.538 14.7896 880.812 15.2992 879.793C16.5733 875.206 21.6696 875.971 28.8045 877.245C32.1172 878.009 35.9394 878.009 39.7617 877.245C44.3484 876.735 48.9351 875.206 53.7767 873.932C58.1086 875.971 62.4405 874.951 66.5176 874.187C71.1043 873.168 75.4362 871.639 79.2584 873.423C80.5325 873.677 81.5518 873.677 82.5711 873.932C88.177 874.697 92.509 875.461 94.5475 875.461C96.0764 873.423 104.74 873.932 114.678 872.149C118.246 871.639 121.813 870.874 125.381 869.6C133.535 868.581 141.944 868.326 147.55 867.817C152.136 867.562 155.704 866.797 156.978 865.268C156.978 866.033 158.507 865.778 160.545 865.523C162.839 865.268 166.151 864.759 169.974 864.504C175.835 863.994 182.969 863.739 190.614 863.485C193.417 863.485 195.965 863.485 198.768 863.485C206.668 864.249 214.567 866.288 221.447 865.523C223.74 865.268 225.779 864.759 227.817 863.485C230.875 863.485 233.423 862.72 235.462 862.211C238.774 861.191 240.558 859.917 240.813 861.701C245.145 861.446 249.477 857.879 253.809 854.821C255.592 853.802 257.121 852.528 258.65 851.763C259.924 852.018 261.199 851.508 262.473 850.999C263.237 850.489 264.256 849.979 265.021 849.47C265.785 848.96 266.55 848.196 267.314 847.686C268.333 847.686 269.098 847.941 270.117 847.941C273.43 848.96 276.488 850.234 279.545 851.508C281.074 852.018 282.603 852.528 284.132 853.037C285.661 853.802 287.19 854.566 288.719 855.076C289.993 855.585 291.267 855.84 292.541 856.35C295.854 853.802 305.792 852.273 311.652 851.508C312.927 851.254 313.946 850.999 314.965 850.999C319.297 848.96 337.134 857.369 343.759 857.369C344.269 857.369 344.779 857.369 345.288 857.114C365.419 850.999 363.126 849.215 385.295 856.095C396.252 854.056 402.113 846.667 412.815 843.099C414.599 844.118 416.892 845.647 419.44 847.431C422.498 846.412 425.301 844.119 427.595 841.57C429.378 841.57 430.907 841.825 432.946 842.08C454.86 833.671 446.451 834.69 476.01 841.316C482.635 839.022 477.284 834.435 487.987 833.161C492.828 839.532 500.218 841.57 507.608 846.667C514.997 844.883 523.406 842.845 530.796 841.316C534.873 835.964 539.46 837.493 540.734 832.652C563.922 838.767 591.697 838.767 615.141 844.628C616.415 844.628 618.199 844.628 619.727 844.628C657.695 842.59 672.73 849.725 689.293 842.335C712.991 843.864 741.276 845.902 764.974 847.941C764.974 847.941 821.289 855.331 859.002 861.446C877.858 864.249 891.873 863.994 891.873 865.014C891.873 863.74 904.359 860.936 923.47 864.759C932.899 863.485 943.856 860.427 955.577 861.191C967.554 862.975 980.55 871.129 993.036 871.894C1005.52 873.168 1017.5 859.408 1029.22 858.388C1030.49 858.388 1031.77 858.643 1033.3 858.643C1043.74 860.427 1053.43 867.052 1061.84 866.797C1063.88 866.543 1065.66 866.288 1066.93 866.288C1078.15 865.523 1069.74 872.403 1093.69 877.755C1094.96 876.735 1097.26 876.226 1099.8 875.716C1103.88 874.952 1108.98 874.697 1111.27 874.697C1111.27 863.74 1113.56 851.253 1113.56 840.296L1113.31 835.455L1103.88 529.673L10.4576 529.164Z" fill="#F0F0F0"/>
<path d="M10.4557 529.164C10.4557 603.57 2.04675 746.268 1.53711 823.733C1.53711 827.046 1.53711 831.378 1.53711 834.436C1.53711 845.648 1.53711 861.191 1.53711 872.403C1.79193 873.932 2.04678 875.716 2.04678 876.99C4.34014 876.735 15.2973 878.009 16.0618 877.245C17.5907 872.913 22.687 873.677 29.5671 874.951C32.8797 875.716 36.702 875.461 40.5242 874.951C45.111 874.697 49.6977 873.168 54.5392 871.894C58.8711 873.678 63.203 872.913 67.2801 872.149C71.8668 871.129 76.1987 869.855 80.021 871.639C81.2951 871.894 82.3145 871.894 83.3338 872.149C88.685 872.658 93.0167 873.677 95.3101 873.423C97.0938 871.384 105.503 871.894 115.441 870.11C119.008 869.6 122.576 868.836 126.143 867.562C134.552 866.543 142.706 866.543 148.312 865.778C152.644 865.523 156.212 864.759 157.741 863.23C157.995 863.74 159.269 863.739 161.308 863.485C163.601 863.23 166.914 862.72 170.736 862.465C176.597 861.956 183.732 861.956 191.377 861.701C193.925 861.701 196.728 861.701 199.531 861.701C207.43 862.466 215.329 864.759 221.955 863.485C224.248 863.23 226.287 862.72 228.325 861.701C231.383 861.701 234.186 860.937 235.97 860.682C239.027 859.662 241.066 858.643 241.321 860.172C245.653 859.662 249.985 856.35 254.317 853.292C256.1 852.273 257.629 851.254 259.413 850.234C260.687 850.234 261.961 849.979 262.98 849.215C263.745 848.96 264.764 848.45 265.529 847.941C266.293 847.431 267.057 846.922 267.822 846.412C268.841 846.412 269.606 846.667 270.625 846.667C273.938 847.686 276.995 848.96 280.053 850.234C281.582 850.744 283.111 851.253 284.64 851.763C286.169 852.528 287.698 853.292 289.227 853.802C290.501 854.311 291.775 854.566 293.049 854.821C296.616 852.273 306.554 850.999 312.16 849.979C313.434 849.725 314.454 849.47 315.473 849.47C320.06 847.686 337.642 856.095 344.267 855.84C344.777 855.84 345.287 855.84 345.796 855.585C365.672 849.725 363.633 847.686 385.803 854.821C396.76 852.782 402.621 845.393 413.323 842.08C415.107 843.099 417.4 844.628 419.948 846.412C423.006 845.393 425.809 843.099 428.102 840.551C429.886 840.551 431.415 840.806 433.454 841.061C455.368 832.652 446.959 833.671 476.518 840.296C483.143 838.003 477.792 833.416 488.494 832.142C493.336 838.513 500.726 840.551 508.115 845.647C514.995 844.119 524.424 841.825 531.304 840.296C535.381 834.945 539.967 836.474 541.242 831.632C564.43 837.748 592.205 837.748 615.648 843.354C616.923 843.354 618.706 843.354 620.235 843.354C658.203 841.316 673.237 848.45 689.801 841.061C711.97 842.59 743.312 844.373 765.481 846.412C765.481 846.412 821.796 853.802 859.509 859.408C878.366 862.211 892.381 861.701 892.381 862.975C892.381 861.701 904.867 858.898 923.978 862.465C933.407 861.191 944.364 858.134 956.085 858.643C968.062 860.172 981.057 868.581 993.543 869.091C1006.03 870.365 1018.01 856.605 1029.47 855.331C1030.75 855.331 1032.02 855.331 1033.55 855.585C1043.74 857.114 1053.68 863.739 1062.09 863.485C1064.13 863.23 1065.91 862.975 1067.19 862.975C1078.91 861.956 1070.24 868.836 1093.94 874.187C1095.22 873.423 1097.51 872.913 1100.06 872.403C1104.13 871.384 1108.98 871.384 1111.27 871.384C1111.27 861.191 1113.56 847.431 1113.56 837.238L1113.31 832.397L1104.39 528.909L10.4557 529.164Z" fill="#E1E1E1"/>
<path d="M10.4529 529.164C10.4529 598.474 2.8084 749.326 2.04395 821.695C2.04395 824.752 2.04395 829.339 2.04395 832.397C2.04395 843.099 2.04395 859.662 2.04395 870.11C2.55358 871.639 2.80837 873.168 2.80837 874.442C5.10173 873.932 15.5493 875.206 16.8234 874.697C18.6071 870.874 23.7035 871.384 30.5836 872.658C33.8962 873.423 37.7185 873.168 41.5407 872.403C46.1275 872.403 50.7142 871.129 55.5557 869.6C59.8876 871.384 64.2195 870.365 68.2966 869.855C72.8833 869.091 77.2153 868.071 81.0375 869.6C82.3116 869.855 83.3309 869.855 84.3501 870.11C89.4465 870.62 93.7784 871.384 96.3266 871.384C98.3651 869.6 106.774 870.11 116.457 868.326C120.025 867.817 123.592 867.052 127.16 866.033C135.569 865.268 143.978 865.268 149.329 864.249C153.406 863.994 156.718 863.23 158.757 861.956C159.012 862.465 160.286 862.465 162.325 862.211C164.618 861.956 167.93 861.446 171.753 861.446C177.613 861.191 184.748 860.937 192.393 860.682C194.941 860.682 197.744 860.682 200.547 860.682C208.447 861.446 216.346 863.74 222.971 862.465C225.265 862.211 227.303 861.701 229.342 860.682C232.654 860.682 235.202 859.917 236.986 859.662C240.044 858.643 242.082 857.624 242.337 858.898C246.669 858.388 251.001 854.821 255.333 852.018C257.117 850.999 258.646 849.979 260.429 849.215C261.704 849.215 262.978 848.705 263.997 848.196C264.761 847.941 265.781 847.431 266.545 846.921C267.309 846.412 268.074 845.902 268.838 845.393C269.603 845.393 270.622 845.647 271.387 845.647C274.444 846.667 277.757 848.196 280.815 849.215C282.344 849.725 283.873 850.234 285.147 850.744C286.676 851.508 288.205 852.273 289.734 852.782C291.008 853.037 292.282 853.292 293.556 853.802C297.378 851.508 307.061 849.979 312.667 849.215C313.941 848.96 314.96 848.705 315.98 848.705C320.821 846.922 338.404 855.331 344.519 855.331C345.029 855.331 345.539 855.331 346.048 855.076C365.924 849.215 363.886 847.431 386.055 854.311C397.012 852.273 402.873 844.883 413.575 841.57C415.359 842.59 417.652 844.119 420.2 845.902C423.258 844.883 426.061 842.59 428.354 840.042C430.138 840.042 431.667 840.296 433.706 840.551C455.62 832.142 447.211 833.161 476.77 840.042C483.395 837.748 478.044 833.161 488.746 831.887C493.588 838.258 500.978 840.296 508.367 845.393C514.738 843.864 525.185 841.57 531.556 840.042C535.633 834.69 540.22 836.219 541.494 831.378C564.682 837.493 592.457 837.493 615.901 843.099C617.175 843.099 619.213 843.099 620.487 843.099C658.455 840.806 673.489 847.941 690.053 840.551C710.948 841.825 745.093 843.864 765.733 845.647C765.733 845.647 822.048 852.782 859.761 858.388C878.618 861.191 892.633 860.682 892.633 861.701C892.633 860.427 905.119 857.369 924.23 860.936C933.659 859.662 944.616 856.605 956.337 857.114C968.314 858.643 981.309 866.797 993.795 867.307C1006.28 868.581 1018 854.821 1029.47 853.292C1030.74 853.292 1032.02 853.292 1033.55 853.547C1043.74 854.821 1053.68 861.446 1062.09 861.191C1064.13 860.937 1065.91 860.937 1067.18 860.682C1079.16 859.408 1070.5 866.288 1093.68 871.639C1094.96 870.874 1097.25 870.365 1099.8 870.11C1103.88 869.091 1108.72 868.836 1111.01 868.836C1111.01 859.408 1113.05 844.373 1113.05 834.945L1112.8 830.104L1104.64 529.164H10.4529Z" fill="#D2D2D2"/>
<path d="M10.4551 529.163C10.4551 593.632 3.32018 752.384 2.81055 819.401C2.81055 822.204 2.81055 827.3 2.81055 830.103C2.81055 840.041 2.81055 857.624 2.81055 867.562C3.32018 869.091 3.82988 870.619 3.82988 871.639C5.86843 870.874 16.0611 872.148 17.8449 871.639C19.6286 868.071 24.9797 868.836 31.605 869.855C34.9176 870.365 38.74 870.11 42.5622 869.6C47.149 869.6 51.7357 868.581 56.5772 867.307C60.9091 868.836 65.2411 867.817 69.3181 867.562C73.9049 866.797 78.2368 866.033 82.059 867.562C83.3331 867.817 84.3524 867.817 85.3716 868.071C89.9584 868.326 94.5451 869.091 97.3481 869.091C99.6415 867.307 107.796 867.816 117.479 866.033C121.046 865.523 124.614 865.013 128.181 863.994C136.845 863.23 145.254 863.23 150.095 862.21C153.918 862.21 157.23 861.446 159.524 860.172C159.778 860.682 161.053 860.682 163.346 860.427C165.639 860.172 168.952 859.662 172.774 859.662C178.635 859.407 185.77 859.153 193.414 859.153C195.963 859.153 198.766 859.153 201.569 859.408C209.468 860.427 217.367 862.465 223.993 861.191C226.286 860.936 228.324 860.427 230.363 859.662C233.676 859.662 236.224 858.643 237.753 858.643C240.811 857.879 242.594 856.859 243.104 857.879C247.436 857.114 251.768 853.802 255.845 850.999C257.629 850.234 259.412 849.215 260.941 848.195C262.215 848.195 263.489 847.686 264.509 847.176C265.273 846.921 266.292 846.412 267.057 845.902C267.821 845.393 268.586 845.138 269.35 844.628C270.115 844.628 271.134 844.883 271.898 844.883C274.956 845.902 278.269 847.431 281.327 848.45C282.856 848.96 284.384 849.724 285.659 849.979C287.187 850.744 288.716 851.508 290.245 852.018C291.519 852.273 292.539 852.528 294.068 852.782C297.89 850.489 307.573 849.215 313.179 848.195C314.198 847.941 315.472 847.686 316.237 847.686C321.078 846.157 338.661 854.566 344.776 854.311C345.286 854.311 345.796 854.311 346.305 854.056C366.181 848.196 364.143 846.412 386.057 853.547C397.014 851.508 402.875 844.118 413.577 840.806C415.361 841.825 417.654 843.354 420.202 845.138C423.26 844.119 426.063 841.825 428.357 839.277C430.14 839.277 431.669 839.532 433.708 839.787C455.622 831.378 447.213 832.397 476.772 839.277C483.397 836.983 478.046 832.397 488.749 831.123C493.59 837.493 500.98 839.532 508.37 844.628C514.23 843.354 525.697 840.551 531.558 839.277C535.635 833.926 540.222 835.455 541.496 830.613C564.684 836.729 592.46 836.729 615.903 842.335C616.922 842.335 619.215 842.335 620.489 842.335C658.457 840.041 673.492 847.176 690.055 839.787C709.421 841.061 746.37 843.099 765.736 844.628C765.736 844.628 822.05 851.508 859.763 856.859C878.62 859.408 892.635 858.898 892.635 859.917C892.635 858.643 905.121 855.585 924.233 859.153C933.661 857.879 944.618 854.566 956.34 855.076C968.316 856.604 981.312 864.504 993.798 865.014C1006.03 866.033 1017.75 852.527 1029.47 850.999C1030.75 850.999 1032.02 850.999 1033.29 850.999C1043.49 852.273 1053.43 858.643 1061.58 858.643C1063.62 858.388 1065.4 858.388 1066.68 858.133C1078.91 856.605 1070.24 863.485 1093.18 868.836C1094.45 868.071 1096.74 867.816 1099.29 867.307C1103.37 866.033 1107.96 865.778 1110.5 865.778C1110.5 856.859 1112.54 841.061 1112.54 832.142V827.301L1104.9 528.654L10.4551 529.163Z" fill="#C3C3C3"/>
<path d="M10.4532 529.164C10.4532 588.537 3.828 755.443 3.31836 817.364C3.31836 819.912 3.31836 825.263 3.31836 827.811C3.31836 836.984 3.31836 855.841 3.31836 865.015C4.08281 866.289 4.33769 868.072 4.33769 868.837C6.37624 867.563 16.0592 869.092 18.0978 868.837C20.1363 865.779 25.2327 866.289 31.858 867.308C35.1706 867.817 38.9929 867.563 42.8152 867.053C47.4019 867.308 51.9886 866.289 56.8301 865.015C61.162 866.289 65.494 865.524 69.571 865.269C74.4126 864.76 78.7445 863.995 82.3119 865.524C83.586 865.779 84.6053 865.779 85.6245 866.034C89.9565 866.289 94.5433 867.053 97.3463 866.798C99.8944 865.269 108.049 865.524 117.477 863.74C121.044 863.231 124.612 862.721 128.179 861.702C137.098 860.937 145.252 861.192 150.093 859.918C153.661 859.918 156.974 859.154 159.522 857.88C159.777 858.389 161.305 858.389 163.344 858.134C165.637 857.88 168.95 857.625 172.772 857.37C178.633 857.115 185.768 857.115 193.158 857.115C195.706 857.115 198.509 857.37 201.057 857.37C208.956 858.389 216.856 860.428 223.226 859.154C225.52 859.154 227.558 858.644 229.597 857.625C232.909 857.37 235.458 856.606 236.987 856.606C239.79 855.841 241.828 854.822 242.338 855.841C246.67 855.077 251.001 851.509 255.079 848.961C256.862 848.197 258.646 847.177 260.175 846.158C261.449 846.158 262.723 845.648 263.742 844.884C264.507 844.629 265.526 844.12 266.291 843.865C267.055 843.61 267.819 843.1 268.584 842.845C269.348 843.1 270.368 843.1 271.132 843.355C274.19 844.374 277.503 845.903 280.56 846.922C282.089 847.432 283.618 848.197 284.892 848.451C286.421 849.216 287.95 849.98 289.479 850.49C290.498 850.745 291.772 851 293.301 851C297.378 848.706 307.061 847.432 312.413 846.668C313.432 846.413 314.706 846.158 315.47 846.158C320.567 844.884 337.894 853.293 344.01 853.038C344.52 853.038 345.029 853.038 345.284 852.783C365.16 847.177 363.121 845.139 385.036 852.274C395.993 850.235 401.854 842.845 412.556 839.533C414.34 840.807 416.633 842.081 419.181 843.865C422.239 842.845 425.042 840.552 427.336 838.004C429.119 838.004 430.648 838.259 432.687 838.513C454.601 830.104 446.192 831.124 475.751 838.004C482.376 835.71 477.025 831.124 487.727 829.85C492.569 836.22 499.959 838.259 507.348 843.61C512.7 842.336 525.186 839.533 530.537 838.259C534.614 832.907 539.201 834.436 540.475 829.595C563.663 835.71 591.438 835.711 614.882 841.317C615.901 841.317 618.194 841.317 619.468 841.317C657.436 839.023 672.216 846.158 689.034 838.513C706.871 839.788 746.877 841.826 764.715 843.355C764.715 843.355 821.029 850.235 858.742 855.332C877.599 857.88 891.614 857.115 891.614 858.389C891.614 857.115 904.1 854.057 923.211 857.37C932.64 856.096 943.597 852.783 955.318 853.038C967.295 854.567 980.291 862.466 992.777 862.976C1005.01 863.995 1016.73 850.49 1028.2 848.706C1029.47 848.706 1030.74 848.706 1032.02 848.706C1042.21 849.725 1052.15 856.096 1060.3 856.096C1062.34 855.841 1063.87 855.841 1065.4 855.586C1078.14 853.803 1069.22 860.937 1091.9 865.779C1093.17 865.269 1095.47 864.76 1098.02 864.505C1101.84 863.231 1106.43 862.976 1108.97 862.721C1108.97 854.567 1110.76 837.494 1110.76 829.34V824.498L1103.62 528.4L10.4532 529.164Z" fill="#B4B4B4"/>
<path d="M10.4563 529.164C10.4563 583.695 4.34069 758.755 3.83105 815.324C3.83105 817.618 3.83105 823.478 3.83105 825.772C3.83105 834.181 3.83105 854.311 3.83105 862.72C4.59551 863.994 5.10514 865.778 5.10514 866.288C7.14369 864.759 16.317 866.033 18.8652 866.288C21.1586 863.74 26.255 864.249 32.6255 865.014C35.9381 865.523 39.7603 865.268 43.5826 864.504C48.1693 865.014 52.7561 863.994 57.3428 862.72C61.6747 863.994 66.0066 862.975 70.0837 862.975C74.9253 862.72 79.2572 861.956 82.8246 863.485C84.0987 863.739 85.118 863.994 86.1372 863.994C90.2143 863.994 94.5462 864.759 97.8588 864.759C100.662 863.23 108.816 863.74 117.989 861.956C121.557 861.446 125.124 860.936 128.692 860.172C137.61 859.662 146.019 859.662 150.606 858.388C153.664 858.388 157.231 857.624 160.034 856.605C160.544 857.114 161.818 856.859 163.857 856.859C166.405 856.605 169.463 856.35 173.285 856.35C179.146 856.095 186.281 856.095 193.67 856.095C196.219 856.095 199.022 856.35 201.57 856.605C209.469 857.624 217.368 859.662 223.739 858.134C226.032 858.134 228.326 857.624 230.109 856.605C233.422 856.35 236.225 855.331 237.499 855.585C240.302 854.821 242.341 853.802 242.85 854.821C247.182 854.056 251.514 850.489 255.591 847.941C257.375 847.176 259.159 846.412 260.688 845.393C261.962 845.138 263.236 844.628 264.255 844.119C265.02 843.864 266.039 843.609 266.803 843.099C267.568 842.844 268.332 842.335 269.097 842.08C269.861 842.335 270.88 842.335 271.645 842.59C274.703 843.609 278.015 845.138 281.073 846.157C282.602 846.667 283.876 847.431 285.405 847.686C286.934 848.451 288.463 849.215 289.992 849.725C291.011 849.725 292.285 849.979 293.814 850.234C297.891 847.941 307.574 846.922 312.925 845.902C313.945 845.647 314.964 845.647 315.983 845.393C321.334 844.373 338.407 852.528 344.268 852.273C344.777 852.273 345.287 852.273 345.542 852.018C365.163 846.412 363.124 844.628 385.294 851.763C396.251 849.725 402.112 842.335 412.814 839.277C414.598 840.551 416.891 841.825 419.439 843.609C422.497 842.59 425.3 840.551 427.593 838.003C429.377 838.003 430.906 838.258 432.944 838.513C454.859 830.104 446.45 831.123 476.009 838.258C482.634 835.964 477.283 831.378 487.985 830.104C492.827 836.474 500.217 838.513 507.606 843.864C512.703 842.59 525.698 839.787 530.795 838.513C534.872 833.161 539.458 834.69 540.733 829.849C563.666 835.964 591.696 835.964 615.139 841.57C616.159 841.57 618.707 841.57 619.726 841.57C657.694 839.277 672.473 846.412 689.291 838.767C705.6 839.787 748.664 841.825 764.972 843.354C764.972 843.354 821.287 849.979 859 855.076C877.857 857.624 891.872 856.86 891.872 857.879C891.872 856.605 904.358 853.547 923.469 856.605C932.897 855.076 943.854 851.763 955.576 852.018C967.553 853.292 980.548 861.191 993.035 861.701C1005.27 862.72 1016.73 849.215 1028.2 847.176C1029.47 846.922 1030.75 846.922 1032.02 847.176C1042.21 848.196 1051.9 854.056 1060.31 854.311C1062.35 854.056 1063.87 854.057 1065.4 854.057C1078.4 852.018 1069.48 859.153 1091.9 863.994C1093.18 863.485 1095.47 863.23 1098.02 862.975C1101.84 861.446 1106.43 861.191 1108.98 860.936C1108.98 853.547 1110.51 835.2 1110.51 827.81V822.969L1104.14 529.164H10.4563Z" fill="#A5A5A5"/>
<path d="M10.4536 529.164C10.4536 578.853 4.84759 761.812 4.59277 813.286C4.59277 815.579 4.59277 821.44 4.59277 823.733C4.59277 831.378 4.59277 852.782 4.59277 860.427C5.61205 861.701 6.12162 863.23 6.12162 863.74C8.16016 861.956 17.0789 863.23 19.8819 863.485C22.43 861.191 27.5264 861.701 33.8968 862.465C37.2095 862.975 41.0317 862.465 44.854 861.956C49.4407 862.72 54.0275 861.701 58.6142 860.427C62.9461 861.446 67.278 860.682 71.3551 860.682C76.1967 860.427 80.5286 860.172 84.096 861.446C85.3701 861.701 86.3893 861.956 87.4086 861.956C91.2309 861.956 95.5627 862.465 99.1302 862.465C102.188 861.191 110.087 861.446 119.006 859.662C122.574 859.153 126.141 858.898 129.708 858.134C138.882 857.624 147.291 857.879 151.623 856.35C154.426 856.605 157.993 855.84 161.051 854.821C161.561 855.331 162.835 855.076 164.873 855.076C167.422 854.821 170.479 854.566 174.047 854.566C179.908 854.311 187.042 854.311 194.432 854.566C196.98 854.821 199.783 854.821 202.331 855.076C210.231 856.35 218.13 858.388 224.501 856.605C226.794 856.605 229.087 856.095 230.871 855.331C234.439 855.076 236.987 854.056 238.261 854.566C241.064 853.802 242.848 853.037 243.867 853.802C248.199 852.782 252.531 849.47 256.608 846.921C258.392 846.412 260.175 845.393 261.704 844.373C262.978 844.118 263.998 843.609 265.017 842.844C265.781 842.59 266.801 842.335 267.565 842.08C268.329 841.825 269.094 841.57 269.858 841.316C270.623 841.57 271.642 841.57 272.406 841.825C275.464 842.844 278.777 844.373 281.58 845.393C283.109 846.157 284.383 846.667 285.912 847.176C287.441 847.941 288.97 848.705 290.499 849.215C291.518 849.215 292.792 849.47 294.321 849.47C298.653 847.176 308.336 846.157 313.432 845.393C314.451 845.138 315.471 845.138 316.49 844.883C322.096 844.119 338.914 852.273 344.775 852.018C345.284 852.018 345.794 852.018 346.049 851.763C365.67 846.157 363.631 844.373 385.546 851.508C396.503 849.47 402.364 842.335 413.066 839.022C414.85 840.296 417.143 841.57 419.691 843.354C422.749 842.335 425.552 840.296 427.845 837.748C429.629 837.748 431.158 838.003 433.197 838.258C455.111 830.104 446.702 830.868 476.261 838.003C482.886 835.709 477.535 831.123 488.237 829.849C493.079 836.219 500.469 838.258 507.858 843.609C512.445 842.59 526.46 839.277 531.047 838.258C535.124 832.907 539.711 834.435 540.985 829.594C563.918 835.71 591.948 835.71 615.392 841.316C616.156 841.316 618.959 841.316 619.978 841.316C657.946 839.022 672.726 845.902 689.543 838.513C704.323 839.532 750.445 841.57 765.224 842.844C765.224 842.844 821.539 849.215 858.998 854.057C877.854 856.35 891.869 855.585 891.869 856.605C891.869 855.331 904.355 852.018 923.466 855.331C932.895 853.802 943.852 850.489 955.573 850.744C967.55 852.018 980.546 859.917 993.032 860.172C1005.26 860.936 1016.73 847.686 1027.94 845.647C1029.22 845.393 1030.49 845.393 1031.76 845.393C1041.96 846.157 1051.64 852.018 1060.05 852.273C1062.09 852.273 1063.62 852.018 1065.15 852.018C1078.65 849.724 1069.48 856.86 1091.65 861.701C1092.92 861.191 1095.21 860.937 1097.76 860.682C1101.58 858.898 1105.92 858.643 1108.72 858.643C1108.72 851.763 1110.25 832.652 1110.25 825.772V820.93C1110.25 820.93 1104.39 529.673 1104.39 529.418L10.4536 529.164Z" fill="#969696"/>
<path d="M10.4566 529.164C10.4566 573.757 5.36029 764.87 5.10547 811.247C5.10547 813.286 5.10547 819.656 5.10547 821.44C5.10547 828.32 5.10547 850.999 5.10547 857.879C6.37956 859.153 6.88923 860.682 6.88923 860.936C8.67295 858.898 17.3367 860.172 20.6493 860.682C23.1975 858.898 28.2938 859.408 34.6643 859.917C37.9769 860.172 41.7992 859.917 45.6214 859.153C50.2082 860.172 54.7949 859.153 59.3817 858.134C63.7136 858.898 68.0455 858.134 72.1226 858.643C76.9641 858.643 81.2961 858.388 84.6087 859.662C85.8828 859.917 86.902 860.172 87.9213 860.172C91.4888 859.917 95.8206 860.682 99.6429 860.682C102.956 859.408 110.855 859.917 119.519 858.134C123.086 857.879 126.654 857.369 130.221 856.605C139.394 856.095 148.058 856.605 151.881 854.821C154.429 855.076 157.996 854.311 161.309 853.547C161.818 853.802 163.093 853.802 165.131 853.802C167.679 853.547 170.737 853.292 174.305 853.292C180.165 853.037 187.3 853.292 194.69 853.292C197.238 853.547 200.041 853.802 202.589 854.057C210.489 855.331 218.388 857.369 224.504 855.585C226.797 855.585 229.09 855.076 230.874 854.311C234.442 854.056 236.99 852.782 238.009 853.547C240.557 853.037 242.596 852.018 243.615 852.528C247.947 851.508 252.279 847.941 256.356 845.647C258.14 845.138 259.923 844.119 261.452 843.354C262.726 843.099 263.746 842.59 264.765 841.825C265.529 841.57 266.549 841.316 267.313 841.061C268.078 840.806 268.842 840.551 269.607 840.551C270.371 840.806 271.39 841.061 272.155 841.061C275.213 842.08 278.525 843.609 281.328 844.628C282.857 845.393 284.131 845.902 285.66 846.412C287.189 847.176 288.718 847.941 290.247 848.45C291.266 848.45 292.54 848.45 294.069 848.45C298.401 846.412 308.084 845.393 313.18 844.628C314.2 844.373 315.219 844.373 316.238 844.373C321.844 843.609 338.917 852.018 344.523 851.508C345.033 851.508 345.542 851.508 345.797 851.253C365.418 845.902 363.38 843.864 385.294 851.253C396.251 849.215 402.112 842.08 412.814 838.767C414.598 840.042 416.891 841.315 419.439 843.099C422.497 842.08 425.3 840.042 427.594 837.493C429.377 837.748 430.906 837.748 432.945 838.258C454.859 830.104 446.45 830.868 476.009 838.003C482.634 835.709 477.283 831.123 487.986 829.849C492.827 836.219 500.217 838.258 507.607 843.609C511.684 842.59 526.718 839.277 530.795 838.258C534.872 832.907 539.459 834.435 540.733 829.594C563.667 835.71 591.442 835.71 615.14 841.316C615.904 841.316 618.707 841.316 619.472 841.316C657.439 839.022 672.219 845.902 689.037 838.258C702.287 839.022 751.212 841.316 764.718 842.335C764.718 842.335 821.033 848.45 858.491 853.292C877.347 855.585 891.362 854.566 891.362 855.84C891.362 854.566 903.849 851.253 922.96 854.311C932.388 852.782 943.345 849.215 955.067 849.47C967.043 850.744 980.039 858.388 992.525 858.643C1004.5 859.408 1015.97 846.157 1027.18 843.864C1028.45 843.609 1029.73 843.609 1031 843.609C1041.2 844.119 1050.88 849.979 1059.29 850.234C1061.33 850.234 1062.85 849.979 1064.38 849.979C1078.14 847.431 1068.97 854.566 1090.89 859.153C1092.41 858.643 1094.45 858.643 1097 858.388C1100.57 856.605 1104.9 856.095 1107.7 856.095C1107.7 849.979 1108.98 829.594 1108.98 823.478V818.637L1103.63 529.673L10.4566 529.164Z" fill="#878787"/>
<path d="M10.4547 529.164C10.4547 568.915 6.12292 767.928 5.61328 809.208C5.61328 810.992 5.61328 817.617 5.61328 819.401C5.61328 825.517 5.61328 849.47 5.61328 855.585C6.88737 856.859 7.65179 858.388 7.65179 858.388C9.43552 855.84 17.5896 857.369 21.4119 858.134C24.2149 856.605 29.3112 857.114 35.4269 857.624C38.7395 857.879 42.5619 857.369 46.3842 856.859C50.9709 858.134 55.5575 857.114 60.1442 856.095C64.4761 856.859 68.8081 855.84 72.6304 856.605C77.4719 856.605 81.8037 856.605 85.1164 857.879C86.3905 858.134 87.4099 858.388 88.4291 858.388C91.7418 858.133 96.0736 858.643 100.151 858.643C103.718 857.624 111.617 857.879 120.026 856.095C123.594 855.84 127.161 855.331 130.729 854.821C140.157 854.566 148.566 854.821 152.388 853.037C154.682 853.547 158.249 852.528 161.817 851.763C162.581 852.018 163.855 852.018 165.639 852.018C168.187 851.763 171.245 851.763 174.812 851.763C180.673 851.763 187.808 851.763 195.198 852.018C197.746 852.273 200.549 852.528 203.097 852.782C210.997 854.057 218.896 856.095 225.012 854.311C227.305 854.311 229.598 854.056 231.382 853.292C234.949 852.782 237.498 851.763 238.517 852.528C241.065 852.018 243.104 851.254 244.123 851.508C248.455 850.234 252.787 846.921 256.864 844.373C258.647 844.118 260.431 843.099 261.96 842.08C263.234 841.825 264.253 841.061 265.273 840.551C266.037 840.296 267.056 840.296 267.821 840.042C268.585 839.787 269.35 839.787 270.114 839.532C270.879 839.787 271.898 840.041 272.662 840.296C275.72 841.57 279.033 843.099 281.836 843.864C283.365 844.628 284.639 845.138 286.168 845.647C287.697 846.412 289.226 847.176 290.755 847.686C291.774 847.686 293.048 847.686 294.322 847.686C298.909 845.648 308.592 844.628 313.178 843.864C314.198 843.609 315.217 843.609 316.236 843.609C322.097 843.099 338.915 851.253 344.266 850.744C344.776 850.744 345.286 850.489 345.54 850.489C364.907 845.138 363.123 843.354 385.037 850.489C395.994 848.45 401.855 841.315 412.557 838.003C414.341 839.277 416.635 840.551 419.183 842.335C422.241 841.316 425.044 839.277 427.337 836.729C429.121 836.984 430.65 836.984 432.688 837.493C454.603 829.339 446.194 830.358 475.752 837.238C482.378 834.945 477.026 830.358 487.729 829.084C492.57 835.455 499.96 837.493 507.35 842.844C510.917 842.08 526.971 838.513 530.538 837.493C534.615 832.142 539.202 833.671 540.476 828.829C563.41 834.945 591.185 834.945 614.883 840.551C615.647 840.551 618.705 840.551 619.215 840.551C656.928 838.258 671.962 845.138 688.78 837.493C700.757 838.258 752.485 840.551 764.461 841.57C764.461 841.57 820.776 847.686 858.234 852.018C877.091 854.311 891.106 853.292 891.106 854.311C891.106 853.037 903.592 849.725 922.703 852.528C932.132 850.999 943.089 847.431 954.81 847.431C966.787 848.45 979.782 856.095 992.268 856.35C1004.24 857.114 1015.71 844.119 1026.67 841.316C1027.94 841.061 1029.22 841.061 1030.49 841.061C1040.68 841.57 1050.37 847.176 1058.78 847.431C1060.56 847.431 1062.34 847.176 1063.87 847.176C1078.14 844.373 1068.71 851.763 1090.37 856.095C1091.9 855.84 1093.94 855.585 1096.49 855.585C1100.06 853.547 1104.13 853.292 1107.19 853.037C1107.19 847.686 1108.47 826.026 1108.47 820.675V816.089C1108.47 816.089 1103.62 529.673 1103.62 529.418L10.4547 529.164Z" fill="#787878"/>
<path d="M10.4559 529.164C10.4559 563.819 6.63372 770.986 6.37891 807.17C6.37891 808.699 6.37891 815.834 6.37891 817.363C6.37891 822.714 6.37891 847.941 6.37891 853.292C7.90781 854.311 8.67217 855.84 8.67217 855.84C10.4559 853.037 18.1005 854.566 22.4324 855.331C25.4902 854.311 30.5866 854.566 36.4474 855.076C39.76 855.331 43.5823 854.821 47.1498 854.311C51.7365 855.585 56.3231 854.821 60.9099 853.802C65.2418 854.311 69.5737 853.547 73.396 854.311C78.2375 854.566 82.5695 854.566 85.8821 855.84C87.1562 856.095 88.1754 856.35 88.9398 856.35C91.9977 855.84 96.3297 856.35 100.662 856.35C104.484 855.585 112.128 855.585 120.537 853.802C124.105 853.547 127.672 853.292 131.24 852.782C140.668 852.528 149.332 853.037 152.899 851.253C154.938 851.763 158.505 850.999 162.328 850.234C163.092 850.489 164.366 850.489 166.15 850.489C168.698 850.234 171.756 850.234 175.323 850.234C181.439 850.234 188.319 850.234 195.454 850.489C198.002 850.744 200.805 850.999 203.353 851.253C211.253 852.528 218.897 854.566 225.267 852.528C227.561 852.528 229.854 852.273 231.638 851.508C235.205 850.999 237.754 849.724 238.773 850.744C241.321 850.234 243.105 849.47 244.379 849.725C248.711 848.45 253.043 844.883 256.865 842.59C258.649 842.335 260.432 841.315 262.216 840.551C263.49 840.296 264.51 839.532 265.529 838.767C266.293 838.767 267.313 838.513 268.077 838.258C268.841 838.258 269.606 838.003 270.625 838.003C271.39 838.258 272.409 838.513 273.173 838.767C276.231 840.042 279.289 841.57 282.347 842.335C283.876 843.099 285.15 843.609 286.679 844.119C288.208 844.883 289.736 845.647 291.265 846.157C292.285 845.902 293.559 845.902 294.833 845.902C299.674 843.864 309.103 842.844 313.689 842.335C314.709 842.08 315.728 842.08 316.747 842.08C322.863 841.825 339.426 849.979 344.777 849.47C345.287 849.47 345.796 849.215 346.051 849.215C365.417 843.864 363.634 842.08 385.293 849.47C396.25 847.686 401.856 840.296 412.814 837.238C414.597 838.513 416.891 839.787 419.439 841.57C422.497 840.551 425.3 838.513 427.593 835.964C429.377 836.219 430.906 836.219 432.944 836.729C454.604 828.575 446.45 829.594 476.008 836.729C482.634 834.435 477.283 829.849 487.985 828.575C492.826 834.945 500.216 836.984 507.606 842.335C510.919 841.57 527.482 837.748 530.794 836.984C534.871 831.632 539.458 833.161 540.732 828.32C563.666 834.435 591.441 834.436 615.139 840.042C615.649 840.042 618.961 840.042 619.726 840.042C657.439 837.493 672.473 844.628 689.291 836.729C699.739 837.493 754.525 839.532 764.972 840.551C764.972 840.551 821.287 846.412 858.745 850.744C877.601 852.782 891.616 851.763 891.616 853.037C891.616 851.763 904.103 848.45 923.214 851.253C932.642 849.725 943.599 845.902 955.321 845.902C967.297 846.922 980.293 854.566 992.779 854.566C1004.76 855.076 1015.97 842.335 1027.18 839.277C1028.45 839.022 1029.73 838.767 1031 838.767C1041.19 839.022 1050.88 844.628 1059.03 845.138C1060.82 845.138 1062.6 845.138 1064.13 844.883C1078.65 841.825 1069.22 849.215 1090.37 853.547C1091.9 853.292 1093.94 853.292 1096.49 853.037C1100.06 850.999 1104.13 850.489 1106.94 850.234C1106.94 845.393 1107.96 822.969 1107.96 818.127V813.54L1103.88 529.418L10.4559 529.164Z" fill="#696969"/>
<path d="M10.4541 529.164C10.4541 558.977 7.14154 774.044 6.88672 805.131C6.88672 806.406 6.88672 813.795 6.88672 815.069C6.88672 819.656 6.88672 846.157 6.88672 850.744C8.41563 851.763 9.4349 853.292 9.4349 853.037C10.9638 849.979 18.6083 851.508 23.195 852.528C26.5076 851.763 31.3492 852.273 37.4649 852.528C40.7775 852.528 44.5997 852.273 48.1671 851.508C52.7538 853.037 57.3406 852.273 61.9273 851.253C66.2592 851.508 70.5912 850.744 74.4135 851.763C79.255 852.018 83.5868 852.528 86.8995 853.547C88.1736 853.802 89.1929 854.057 89.9573 854.057C92.7603 853.292 97.0922 854.057 101.424 854.057C105.501 853.292 113.146 853.547 121.3 851.763C124.867 851.508 128.435 851.253 132.002 850.744C141.685 850.489 150.349 850.999 153.407 849.215C155.191 849.725 158.758 848.96 162.835 848.451C163.6 848.705 164.874 848.705 166.657 848.705C169.206 848.705 172.264 848.451 175.831 848.451C181.947 848.451 188.827 848.705 195.962 848.96C198.51 849.215 201.313 849.47 203.861 849.979C211.76 851.508 219.405 853.547 225.775 851.253C228.069 851.253 230.362 850.999 232.146 850.489C235.968 849.979 238.516 848.705 239.281 849.725C241.574 849.47 243.613 848.45 244.887 848.705C249.219 847.431 253.55 843.864 257.373 841.57C259.156 841.316 260.94 840.551 262.724 839.532C263.998 839.022 265.017 838.513 266.036 837.748C266.801 837.748 267.82 837.493 268.585 837.493C269.349 837.493 270.368 837.493 271.133 837.493C271.897 837.748 272.917 838.003 273.681 838.258C276.739 839.532 279.797 841.061 282.855 841.825C284.129 842.59 285.658 843.099 286.932 843.609C288.461 844.373 289.989 845.138 291.518 845.647C292.538 845.393 293.812 845.393 295.086 845.138C299.927 843.099 309.61 842.335 313.942 841.57C314.962 841.316 315.981 841.316 317 841.316C323.371 841.316 339.679 849.47 344.775 848.705C345.285 848.705 345.795 848.451 346.049 848.451C365.416 843.099 363.377 841.316 385.291 848.705C396.249 846.922 402.109 839.532 412.812 836.474C414.595 837.748 416.889 839.022 419.437 840.806C422.495 839.787 425.298 837.748 427.591 835.2C429.375 835.455 430.904 835.455 432.942 835.964C454.602 827.81 446.448 828.829 476.007 835.964C482.632 833.671 477.281 829.084 487.983 827.81C492.825 834.181 500.214 836.219 507.604 841.57C510.407 840.806 527.989 836.984 530.792 836.219C534.87 830.868 539.456 832.397 540.73 827.555C563.664 833.671 591.439 833.671 614.882 839.277C615.392 839.277 618.705 839.277 619.469 839.277C657.182 836.729 672.216 843.609 689.034 835.964C697.953 836.474 755.797 838.767 764.715 839.532C764.715 839.532 821.03 845.138 858.488 849.215C877.345 851.253 891.36 850.234 891.36 851.253C891.36 849.979 903.846 846.412 922.957 849.215C932.386 847.431 943.343 843.864 955.064 843.864C967.041 844.883 980.036 852.273 992.523 852.273C1004.24 852.782 1015.71 840.042 1026.67 836.984C1027.94 836.729 1029.22 836.474 1030.49 836.474C1040.43 836.474 1050.11 842.08 1058.52 842.59C1060.3 842.59 1062.09 842.59 1063.62 842.335C1078.65 839.022 1068.97 846.412 1089.86 850.489C1091.39 850.234 1093.43 850.234 1095.98 850.234C1099.55 847.941 1103.37 847.431 1106.43 847.176C1106.43 843.099 1107.45 819.401 1107.45 815.324V810.737L1103.88 528.909L10.4541 529.164Z" fill="#5A5A5A"/>
<path d="M10.4573 529.164C10.4573 553.881 7.65423 777.101 7.39941 803.093C7.39941 804.112 7.39941 812.011 7.39941 813.031C7.39941 816.853 7.39941 844.628 7.39941 848.45C9.18314 849.47 10.2025 850.999 10.2025 850.489C11.7314 847.176 18.8662 848.45 23.9626 849.979C27.2752 849.725 32.3717 849.979 38.2325 850.234C41.5451 850.234 45.3674 849.725 48.9349 849.215C53.5216 850.999 58.1082 850.234 62.695 849.47C67.0269 849.724 71.3588 848.705 75.1811 849.979C80.0226 850.489 84.3545 850.999 87.6671 852.018C88.9412 852.273 89.9605 852.528 90.7249 852.528C93.0183 851.763 97.605 852.273 102.192 852.273C106.524 851.763 114.168 851.763 122.068 849.979C125.635 849.725 129.202 849.47 132.77 849.215C142.453 849.215 151.117 849.725 154.175 847.686C155.704 848.451 159.271 847.686 163.603 847.176C164.367 847.431 165.642 847.431 167.425 847.431C169.973 847.431 173.031 847.176 176.599 847.431C182.714 847.431 189.594 847.686 196.729 847.941C199.278 848.196 201.826 848.705 204.629 848.96C212.528 850.489 220.173 852.528 226.288 850.234C228.582 850.489 230.875 849.979 232.659 849.47C236.481 848.96 239.029 847.686 239.539 848.96C241.832 848.705 243.871 847.941 245.145 847.941C249.477 846.412 253.808 843.099 257.631 840.806C259.669 840.806 261.453 839.787 262.982 838.767C264.256 838.258 265.275 837.493 266.04 836.984C266.804 836.984 267.823 836.729 268.588 836.729C269.352 836.729 270.372 836.729 271.136 836.984C271.901 837.238 272.92 837.493 273.684 837.748C276.742 839.022 279.8 840.551 282.858 841.57C284.132 842.335 285.661 842.844 286.935 843.354C288.464 844.119 289.993 844.883 291.521 845.393C292.541 845.138 293.815 844.883 295.089 844.628C300.185 842.59 309.614 841.825 313.946 841.316C314.71 841.061 315.984 841.061 317.003 841.061C323.374 841.061 339.682 849.47 344.779 848.705C345.288 848.705 345.798 848.45 346.053 848.45C365.164 843.354 363.38 841.57 385.295 848.96C396.252 847.176 401.858 839.787 412.815 836.729C414.599 838.003 416.892 839.277 419.44 841.061C422.498 840.041 425.301 838.003 427.594 835.455C429.378 835.709 430.907 835.71 432.945 836.219C454.605 828.065 446.451 829.084 476.01 836.219C482.635 833.926 477.284 829.339 487.986 828.065C492.828 834.435 500.218 836.474 507.607 841.825C509.901 841.315 528.502 837.238 530.796 836.729C534.873 831.378 539.46 832.907 540.734 828.065C563.667 834.181 591.442 834.181 614.886 839.787C615.395 839.787 618.963 839.787 619.218 839.787C656.931 837.238 671.965 844.119 688.783 836.474C696.173 836.984 757.074 839.277 764.464 839.787C764.464 839.787 820.779 845.393 858.237 849.215C877.093 851.253 891.108 849.979 891.108 850.999C891.108 849.725 903.595 846.157 922.706 848.705C932.134 846.922 943.091 843.099 954.813 843.099C966.789 844.118 979.785 851.508 992.271 851.253C1003.99 851.763 1015.2 839.022 1026.16 835.71C1027.44 835.455 1028.71 835.2 1029.98 834.945C1039.92 834.945 1049.61 840.296 1058.01 840.806C1059.8 840.806 1061.58 840.806 1063.11 840.551C1078.4 836.984 1068.72 844.373 1089.36 848.45C1090.89 848.45 1092.92 848.45 1095.47 848.45C1098.78 846.157 1102.61 845.647 1105.92 845.393C1105.92 842.08 1106.68 817.108 1106.68 813.795V809.208L1103.63 529.928L10.4573 529.164Z" fill="#4B4B4B"/>
<path d="M10.4544 529.164C10.4544 549.039 8.16113 780.414 8.16113 801.054C8.16113 801.819 8.16113 810.228 8.16113 810.992C8.16113 814.05 8.16113 843.099 8.16113 846.157C9.94486 847.176 11.2188 848.705 11.2188 847.941C12.7477 844.373 19.3731 845.648 24.7243 847.176C28.2918 847.431 33.3881 847.686 38.994 847.686C42.3067 847.686 46.129 847.176 49.6964 846.412C54.2832 848.451 58.8698 847.686 63.4565 846.922C67.7884 846.922 72.1204 846.157 75.9427 847.431C81.039 848.196 85.1162 848.705 88.4288 849.725C89.7029 849.979 90.722 850.234 91.4865 850.234C93.525 849.215 97.8569 849.725 102.953 849.979C107.54 849.47 114.93 849.725 122.829 847.941C126.397 847.686 129.964 847.686 133.531 847.431C143.469 847.431 152.133 847.941 154.936 845.902C156.21 846.667 159.778 845.902 164.365 845.393C165.384 845.647 166.658 845.647 168.187 845.647C170.735 845.647 173.793 845.647 177.36 845.647C183.476 845.647 190.356 846.157 197.491 846.412C200.039 846.667 202.587 847.176 205.135 847.686C213.035 849.215 220.679 851.254 226.795 848.96C229.088 849.215 231.382 848.705 233.165 848.196C236.988 847.686 239.536 846.157 240.046 847.686C242.339 847.431 244.122 846.667 245.651 846.412C249.983 844.883 254.315 841.316 258.138 839.277C260.176 839.277 261.96 838.513 263.489 837.493C264.508 836.984 265.782 836.219 266.546 835.455C267.311 835.455 268.33 835.455 269.095 835.455C269.859 835.455 270.878 835.71 271.643 835.71C272.407 835.964 273.427 836.219 274.191 836.474C277.249 837.748 280.307 839.277 283.365 840.296C284.639 841.061 286.167 841.57 287.442 842.335C288.97 843.099 290.499 843.864 292.028 844.373C293.048 844.119 294.322 843.864 295.596 843.609C300.692 841.825 310.375 841.061 314.452 840.296C315.217 840.041 316.236 840.042 317.51 840.042C324.135 840.296 340.444 848.451 345.285 847.686C345.795 847.686 346.305 847.431 346.559 847.431C365.671 842.335 363.887 840.551 385.547 847.941C396.504 846.157 402.11 839.022 413.067 835.964C414.851 837.238 417.144 838.513 419.692 840.296C422.75 839.277 425.553 837.238 427.846 834.69C429.63 834.945 431.159 834.945 433.198 835.455C454.857 827.555 446.703 828.32 476.262 835.455C482.887 833.161 477.536 828.575 488.238 827.301C493.08 833.671 500.469 835.71 507.859 841.061C509.643 840.551 529.264 836.219 531.048 835.964C535.125 830.613 539.711 832.142 540.985 827.301C563.919 833.416 591.694 833.416 615.137 838.767C615.392 838.767 619.215 838.767 619.469 838.767C657.182 836.219 672.217 843.099 689.035 835.2C694.895 835.71 758.6 837.748 764.716 838.258C764.716 838.258 821.03 843.609 858.489 847.431C877.345 849.215 891.36 847.941 891.36 849.215C891.36 847.941 903.846 844.373 922.958 846.922C932.386 845.138 943.343 841.316 955.065 841.061C967.041 841.825 980.037 849.215 992.523 848.96C1004.24 849.215 1015.2 836.729 1026.16 833.161C1027.43 832.907 1028.71 832.652 1029.98 832.397C1039.92 832.142 1049.6 837.493 1058.01 838.003C1059.79 838.003 1061.58 838.003 1063.11 837.748C1078.91 833.926 1068.97 841.57 1089.35 845.393C1090.88 845.393 1092.92 845.393 1095.47 845.393C1098.78 842.844 1102.6 842.335 1105.66 842.08C1105.66 839.277 1106.17 813.54 1106.17 810.737V806.151L1103.88 529.164H10.4544Z" fill="#3C3C3C"/>
<path d="M10.4576 529.163C10.4576 543.943 8.67383 783.472 8.67383 798.761C8.67383 799.525 8.67383 807.934 8.67383 808.699C8.67383 810.992 8.67383 841.315 8.67383 843.609C10.7124 844.373 11.9865 845.902 11.7317 845.393C13.0058 841.315 19.3762 842.844 25.237 844.628C29.0593 845.138 34.1557 845.393 39.7617 845.393C43.0743 845.393 46.8966 844.628 50.464 844.118C55.0508 846.412 59.6375 845.647 63.9694 844.883C68.3013 844.628 72.6332 843.864 76.4555 845.393C81.5519 846.157 85.8837 846.921 88.9415 847.941C90.2156 848.196 91.2349 848.45 91.9993 848.45C93.7831 847.431 98.115 847.941 103.466 847.941C108.308 847.686 115.697 847.686 123.342 845.902C126.909 845.647 130.477 845.647 134.044 845.393C144.237 845.393 152.901 846.157 155.194 843.864C156.213 844.628 159.526 843.864 164.622 843.609C165.642 843.609 166.916 843.609 168.445 843.864C170.993 843.864 174.306 843.864 177.618 843.864C183.734 844.119 190.614 844.373 197.749 844.628C200.297 844.883 202.845 845.393 205.393 845.902C213.293 847.686 220.937 849.47 227.053 846.921C229.346 847.176 231.64 846.922 233.423 846.412C237.246 845.647 239.794 844.373 240.303 845.902C242.342 845.647 244.381 845.138 245.909 844.628C250.241 843.099 254.318 839.532 258.395 837.493C260.434 837.748 262.218 836.729 263.747 835.709C264.766 835.2 265.785 834.435 266.805 833.671C267.824 833.671 268.588 833.671 269.353 833.671C270.117 833.926 271.136 833.926 271.901 834.18C272.665 834.435 273.685 834.69 274.449 835.2C277.507 836.474 280.565 838.003 283.368 839.022C284.642 839.787 286.171 840.296 287.445 841.061C288.974 841.825 290.503 842.589 292.031 843.099C293.051 842.589 294.07 842.335 295.599 842.08C300.95 840.296 310.378 839.532 314.455 839.022C315.22 838.767 316.239 838.767 317.513 838.767C324.393 839.277 340.447 847.431 345.034 846.412C345.543 846.412 345.798 846.157 346.308 846.157C365.419 841.061 363.635 839.277 385.295 846.921C396.252 845.138 401.858 838.003 412.815 834.945C414.599 836.219 416.892 837.493 419.44 839.277C422.498 838.258 425.301 836.219 427.595 833.671C429.378 833.926 430.907 833.926 432.946 834.435C454.605 826.536 446.451 827.3 476.01 834.69C482.635 832.397 477.284 827.81 487.987 826.536C492.828 832.906 500.218 834.945 507.608 840.296C508.882 840.041 529.522 835.455 530.796 835.2C534.873 829.849 539.46 831.377 540.734 826.536C563.668 832.652 591.443 832.652 614.886 838.003C615.141 838.003 618.963 838.003 619.218 838.003C656.931 835.455 671.965 842.08 688.783 834.435C693.115 834.69 759.877 836.984 764.464 837.493C764.464 837.493 820.779 842.59 858.237 846.157C877.094 847.941 891.109 846.667 891.109 847.686C891.109 846.412 903.595 842.844 922.706 845.138C932.134 843.354 943.092 839.532 954.813 839.022C966.79 839.787 979.785 846.921 992.271 846.667C1003.99 846.921 1014.95 834.435 1025.65 830.613C1026.93 830.103 1028.2 829.849 1029.47 829.849C1039.41 829.594 1049.1 834.69 1057.5 835.2C1059.29 835.2 1060.82 835.2 1062.35 834.945C1078.4 830.868 1068.46 838.512 1088.59 842.335C1090.12 842.335 1092.16 842.59 1094.71 842.59C1098.02 840.041 1101.59 839.277 1104.9 839.022C1104.9 836.984 1105.41 809.973 1105.41 807.934V803.348C1105.41 803.348 1103.63 528.909 1103.63 528.654L10.4576 529.163Z" fill="#2D2D2D"/>
<path d="M10.4557 529.163C10.4557 539.101 9.43646 786.53 9.18164 796.722C9.18164 797.232 9.18164 806.151 9.18164 806.405C9.18164 807.934 9.18164 839.532 9.18164 841.061C11.475 841.825 12.4942 843.354 12.4942 842.59C13.7683 838.258 19.6293 839.786 25.9997 841.825C30.0768 842.844 34.9182 843.099 40.5242 842.844C44.0917 842.59 47.6592 842.08 51.2266 841.57C55.8133 844.118 60.4 843.354 64.7319 842.59C69.0638 842.335 73.3958 841.315 77.2181 843.099C82.3144 844.118 86.6463 845.138 89.4493 845.902C90.7234 846.157 91.7427 846.412 92.5072 846.412C94.0361 845.138 98.368 845.647 103.974 845.647C109.07 845.392 116.46 845.647 123.85 843.609C127.417 843.354 130.985 843.354 134.552 843.354C144.745 843.609 153.663 844.373 155.702 841.825C156.212 842.844 159.779 842.08 165.13 841.825C166.15 841.825 167.424 841.825 168.953 841.825C171.756 841.825 174.813 841.825 178.126 842.08C184.242 842.335 191.122 842.589 198.002 843.099C200.55 843.354 203.098 844.118 205.646 844.628C213.546 846.412 221.19 848.45 227.051 845.647C229.344 845.902 231.638 845.647 233.421 845.138C237.499 844.373 239.792 842.844 240.302 844.628C242.34 844.628 244.379 843.864 245.908 843.354C250.24 841.57 254.317 838.258 258.394 836.219C260.432 836.474 262.216 835.709 263.745 834.69C264.764 834.181 265.783 833.161 266.803 832.652C267.822 832.652 268.586 832.652 269.351 832.652C270.115 832.906 271.135 833.161 271.899 833.416C272.664 833.671 273.683 834.181 274.447 834.435C277.505 835.709 280.563 837.238 283.366 838.258C284.64 839.022 286.169 839.532 287.443 840.296C288.972 841.061 290.501 841.825 292.03 842.335C292.794 841.825 294.068 841.57 295.597 841.061C300.948 839.277 310.376 838.767 314.454 838.003C315.218 837.748 316.237 837.748 317.511 837.748C324.646 838.512 340.445 846.667 345.032 845.647C345.541 845.647 345.796 845.393 346.306 845.393C365.162 840.296 363.634 838.767 385.293 846.412C396.25 844.628 401.856 837.493 412.813 834.435C414.597 835.709 416.89 836.984 419.439 839.022C422.496 838.003 425.299 835.964 427.593 833.416C429.377 833.671 430.905 833.671 432.944 834.18C454.603 826.281 446.449 827.046 476.008 834.435C482.633 832.142 477.282 827.555 487.985 826.281C492.826 832.652 500.216 834.69 507.606 840.041C508.625 839.787 529.775 834.945 530.794 834.945C534.871 829.594 539.458 831.123 540.732 826.281C563.666 832.397 591.441 832.397 614.884 837.748C615.139 837.748 619.216 837.748 619.216 837.748C656.929 835.2 671.963 841.825 688.781 833.926C691.839 834.181 761.404 836.474 764.462 836.729C764.462 836.729 820.777 841.57 858.235 845.138C877.092 846.922 891.107 845.393 891.107 846.412C891.107 845.138 903.593 841.315 922.704 843.609C932.133 841.825 943.09 837.748 954.811 837.493C966.788 838.258 979.783 845.393 992.269 844.883C1003.74 845.138 1014.69 832.652 1025.65 828.829C1026.92 828.32 1028.2 828.065 1029.47 827.81C1039.41 827.3 1049.09 832.397 1057.25 832.906C1059.03 832.906 1060.56 832.906 1062.09 832.652C1078.65 828.32 1068.46 835.964 1088.34 839.532C1090.12 839.787 1092.16 839.787 1094.45 840.041C1097.76 837.238 1101.08 836.729 1104.64 836.219C1104.64 834.945 1104.9 806.915 1104.9 805.386V800.799L1103.63 528.654L10.4557 529.163Z" fill="#1E1E1E"/>
<path d="M10.4579 529.164C10.4579 534.005 9.94824 789.588 9.94824 794.684C9.94824 794.939 9.94824 804.112 9.94824 804.367C9.94824 805.132 9.94824 837.748 9.94824 838.513C12.2416 839.277 13.5158 840.806 13.5158 839.787C14.7898 835.2 20.3958 836.729 27.0211 839.022C31.0982 840.296 36.1946 840.551 41.5457 840.042C45.1132 839.787 48.6807 839.277 52.2481 838.513C56.8348 841.061 61.4215 840.551 65.7534 840.042C70.0853 839.532 74.1625 838.768 78.2396 840.806C83.3359 841.825 87.6678 843.099 90.4708 843.864C91.7449 844.119 92.7642 844.373 93.5287 844.373C94.8028 843.099 99.1347 843.354 104.995 843.609C110.347 843.609 117.482 843.609 124.871 841.825C128.439 841.57 132.261 841.825 135.574 841.825C146.021 842.08 154.685 842.845 156.723 840.296C156.978 841.316 160.546 840.551 166.152 840.296C167.171 840.296 168.445 840.296 169.974 840.296C172.777 840.296 175.835 840.296 179.147 840.551C185.263 840.806 192.143 841.316 199.023 841.571C201.571 842.08 204.12 842.59 206.668 843.099C214.567 844.883 222.212 846.922 228.073 844.119C230.621 844.374 232.659 844.119 234.443 843.609C238.52 842.845 241.068 841.316 241.068 843.099C243.107 843.099 244.89 842.59 246.674 841.825C251.006 840.042 255.083 836.474 258.905 834.69C260.944 834.945 262.728 834.181 264.257 833.162C265.276 832.397 266.295 831.633 267.314 830.868C268.334 830.868 269.098 831.123 270.117 831.123C270.882 831.378 271.901 831.633 272.666 831.887C273.43 832.142 274.195 832.652 275.214 832.907C278.272 834.436 281.329 835.964 284.132 836.729C285.407 837.493 286.935 838.258 288.21 838.768C289.738 839.532 291.267 840.296 292.796 840.806C293.561 840.296 294.835 839.787 296.364 839.532C301.97 837.748 311.398 837.239 315.22 836.729C315.985 836.474 317.004 836.474 318.278 836.474C325.413 837.493 341.212 845.393 345.798 844.373C346.308 844.373 346.563 844.119 347.073 844.119C365.929 839.277 364.4 837.494 386.06 845.138C397.017 843.354 402.623 836.219 413.58 833.162C415.364 834.436 417.657 835.71 420.205 837.748C423.263 836.729 426.066 834.69 428.359 832.142C430.143 832.397 431.672 832.397 433.711 832.907C455.37 825.007 447.216 825.772 476.775 833.162C483.4 830.868 478.049 826.281 488.751 825.007C493.593 831.378 500.983 833.416 508.372 838.768C508.882 838.768 531.051 833.671 531.561 833.671C535.638 828.32 540.225 829.849 541.499 825.007C564.432 831.123 592.207 830.868 615.651 836.474H619.983C657.696 833.671 672.73 840.551 689.548 832.652C691.077 832.652 763.7 835.2 765.229 835.2C765.229 835.2 821.544 840.042 859.002 843.099C877.858 844.628 891.873 843.099 891.873 844.373C891.873 843.099 904.359 839.277 923.471 841.571C932.899 839.532 943.856 835.71 955.578 835.2C967.554 835.71 980.55 842.845 993.036 842.335C1004.5 842.335 1015.46 830.104 1026.16 826.027C1027.44 825.517 1028.71 825.262 1029.73 825.007C1039.67 824.243 1049.1 829.339 1057.5 830.104C1059.29 830.359 1060.82 830.104 1062.35 829.849C1079.16 825.262 1068.97 832.907 1088.59 836.474C1090.38 836.729 1092.42 836.984 1094.71 836.984C1097.77 833.926 1101.33 833.416 1104.65 832.907C1104.65 832.142 1104.9 803.093 1104.9 802.328V797.742C1104.9 797.742 1104.39 528.144 1104.39 527.89L10.4579 529.164Z" fill="#0F0F0F"/>
<path d="M1103.62 529.164H10.4551V792.645V836.219C13.0033 836.984 14.2773 838.258 14.2773 837.238C15.2966 832.397 20.6478 833.926 27.7827 836.219C34.9176 839.277 43.8363 837.493 53.0097 835.964C62.438 841.825 71.3566 833.926 79.0012 838.513C86.6457 840.296 92.2517 842.335 94.2903 842.59C96.074 839.787 110.853 843.609 125.378 839.787C140.158 839.277 154.937 842.08 157.23 838.513C157.23 840.041 162.581 838.258 170.481 839.022C178.38 839.022 188.828 839.787 199.53 840.551C209.978 842.335 220.68 846.921 228.579 843.099C236.479 844.118 241.575 839.532 241.575 842.59C247.436 842.845 254.061 836.474 259.667 833.926C262.98 834.69 265.783 832.142 268.076 830.104C269.095 830.104 269.86 830.358 270.879 830.358C275.721 831.887 280.562 834.945 284.894 836.219C287.697 837.748 290.5 839.022 293.303 840.296C297.38 837.493 311.14 836.729 315.727 836.219C320.314 834.181 340.954 845.393 346.05 844.119C366.181 839.022 363.888 836.984 386.057 844.883C397.014 843.099 402.62 835.964 413.577 833.161C415.361 834.435 417.654 835.71 420.202 837.748C423.26 836.729 426.063 834.69 428.357 832.142C430.14 832.397 431.669 832.652 433.708 832.906C455.367 825.007 447.213 825.772 476.772 833.161C483.397 830.868 478.046 826.281 488.748 825.262C493.59 831.887 500.98 833.671 508.369 839.022L531.558 833.926C535.635 828.575 540.222 830.103 541.496 825.262C564.429 831.378 592.205 831.123 615.648 836.729H619.98C657.693 833.926 672.727 840.806 689.545 832.906L765.226 835.2C765.226 835.2 821.541 839.787 858.999 842.844C877.856 844.373 891.87 842.845 891.87 843.864C891.87 842.59 904.357 838.767 923.468 840.806C932.896 838.767 943.853 834.69 955.575 834.181C967.551 834.69 980.547 841.825 993.033 841.061C1005.77 841.061 1017.75 825.772 1029.47 823.478C1041.45 822.459 1052.66 829.594 1062.09 828.065C1080.95 822.969 1066.93 832.397 1094.2 835.2C1097.25 832.142 1100.57 831.378 1104.13 831.123V796.468L1103.62 529.164Z" fill="black"/>
</g>
<path d="M10.457 105.5L10.457 835.848C13.0052 836.644 14.2793 837.971 14.2793 836.909C15.2986 831.866 20.6497 833.459 27.7846 835.848C34.9195 839.033 43.8382 837.175 53.0117 835.582C62.4399 841.687 71.3586 833.459 79.0031 838.236C86.6477 840.094 92.2537 842.218 94.2922 842.484C96.0759 839.564 110.855 843.545 125.38 839.564C140.159 839.033 154.939 841.953 157.232 838.236C157.232 839.829 162.583 837.971 170.483 838.767C178.382 838.767 188.83 839.564 199.532 840.36C209.98 842.218 220.682 846.996 228.581 843.014C236.481 844.076 241.577 839.298 241.577 842.484C247.438 842.749 254.063 836.113 259.669 833.459C265.275 834.786 269.607 826.292 271.136 827.885C278.526 832.397 285.406 837.175 293.305 840.36C297.382 837.44 311.142 836.644 315.729 836.113C320.316 833.99 340.956 845.669 346.052 844.341C366.183 839.033 363.89 836.909 386.059 845.138C402.367 842.484 406.954 827.354 433.71 832.397C455.369 824.168 447.215 824.965 476.774 832.662C483.399 830.274 478.048 825.496 488.75 824.434C493.592 831.335 500.982 833.193 508.371 838.767L531.56 833.459C535.637 827.885 540.224 829.477 541.498 824.434C564.431 830.804 592.206 830.539 615.65 836.378H619.982C657.695 833.459 672.729 840.625 689.547 832.397L765.228 834.786C765.228 834.786 821.543 839.564 859.001 842.749C877.858 844.342 891.872 842.749 891.872 843.811C891.872 842.484 904.358 838.502 923.47 840.625C932.898 838.502 943.855 834.255 955.577 833.724C967.553 834.255 980.549 841.687 993.035 840.891C1005.78 840.891 1017.75 824.965 1029.47 822.576C1041.45 821.514 1052.66 828.946 1062.09 827.354C1080.95 822.045 1066.93 831.866 1094.2 834.786C1097.26 831.601 1100.57 830.804 1104.14 830.539V105.5H10.457Z" fill="#F5F5F5"/>
<path d="M1103.63 0H10.457V790.458C17.3371 790.193 27.7847 816.471 29.5684 816.205C38.9966 818.063 49.1893 811.693 59.6369 811.693C70.0844 809.039 80.5321 828.681 89.7055 827.619C98.879 825.761 107.033 828.681 112.894 825.23C118.5 817.267 122.322 827.884 122.067 824.434C123.087 816.205 127.164 818.86 132.77 822.841C138.63 827.619 145.765 825.23 152.9 822.576C160.29 832.131 167.425 819.391 173.541 826.557C179.656 829.743 184.243 832.928 185.772 833.193C187.301 828.415 199.022 834.786 210.744 828.681C222.466 827.884 234.442 832.397 236.226 826.557C236.226 828.946 240.303 826.292 246.673 827.354C253.044 827.619 261.453 828.681 269.862 830.008C278.271 832.928 286.935 840.625 293.05 834.255C299.421 835.847 303.498 828.15 303.498 833.193C308.339 833.459 313.436 823.107 318.022 818.86C322.609 820.983 325.922 807.446 327.196 809.835C333.057 817.002 338.663 824.699 344.778 829.742C348.091 824.965 359.048 823.903 362.616 822.841C366.183 819.391 383.001 837.971 386.823 835.848C402.877 827.354 401.093 824.168 418.93 837.175C431.926 832.928 435.493 809.039 457.153 817.002C474.481 803.995 467.855 805.323 491.808 817.533C497.159 813.817 492.828 806.384 501.491 804.261C505.314 815.144 511.174 818.329 517.035 827.088L535.637 818.594C538.95 809.835 542.517 812.224 543.536 804.526C561.883 814.878 584.307 814.347 602.909 823.638H606.476C636.8 819.125 648.776 830.273 662.281 817.267L722.928 821.249C722.928 821.249 768.031 828.946 798.1 833.99C813.134 836.644 824.346 833.989 824.346 835.848C824.346 833.724 834.284 827.354 849.573 830.804C857.217 827.619 865.881 820.718 875.309 819.922C884.737 820.718 895.185 832.397 905.378 831.335C915.571 831.335 925.254 806.119 934.682 802.137C944.11 800.545 953.284 812.489 960.928 809.835C975.963 801.341 964.751 817.002 986.665 821.514C990.232 813.816 994.564 815.144 998.896 813.551C1003.23 810.897 1008.07 812.489 1012.66 805.853C1017.5 805.057 1022.59 805.853 1027.69 806.915C1032.79 808.508 1038.14 813.286 1043.23 811.958C1049.1 808.242 1052.66 805.588 1057.25 803.995C1062.09 802.668 1067.95 802.403 1077.89 803.995C1090.89 788.6 1087.57 789.131 1102.86 794.174L1103.63 0Z" fill="url(#paint0_linear_108_458)"/>
<defs>
<linearGradient id="paint0_linear_108_458" x1="373.181" y1="307.963" x2="786.453" y2="1023.71" gradientUnits="userSpaceOnUse">
<stop stop-color="white"/>
<stop offset="0.1933" stop-color="#F6F6F6"/>
<stop offset="0.6367" stop-color="#E7E7E7"/>
<stop offset="1" stop-color="#E2E2E2"/>
</linearGradient>
</defs>
</svg>
