<svg width="25" height="50" viewBox="0 0 25 50" fill="none" xmlns="http://www.w3.org/2000/svg">
<path d="M7.82174 4.71502C10.9967 3.57202 14.1717 3.19102 17.4737 3.31802C17.6007 13.351 17.0927 23.13 16.2037 33.163C13.1557 32.909 10.2348 32.528 7.05975 32.274C7.05975 23.003 8.07574 13.986 7.82174 4.71502Z" fill="#FF81C9"/>
<path d="M6.93281 33.7981C10.1078 34.1791 12.9018 34.5601 15.9498 34.9411C15.6958 38.1161 15.5688 41.4181 14.8068 44.4661C14.6798 45.2281 14.1718 45.4821 13.4098 45.4821C11.7588 45.4821 9.9808 45.2281 8.4568 44.4661C7.6948 44.2121 7.18682 43.7041 7.05982 42.8151C6.80582 40.0211 6.93281 37.1001 6.93281 33.7981Z" fill="#FF81C9"/>
<path d="M5.02779 34.433C4.26579 33.925 3.63079 33.671 3.37679 33.163C3.12279 32.528 3.63079 31.766 4.26579 31.512C5.02779 31.131 5.15479 30.496 5.28179 29.734C5.53579 22.876 5.9168 16.018 6.1708 9.16004C6.1708 8.01704 6.1708 6.74704 6.1708 5.60404C6.1708 4.84204 6.2978 4.08004 6.4248 3.44504C6.6788 2.68304 7.3138 2.30204 8.0758 2.17504C9.7268 2.04804 11.3778 1.92104 13.1558 1.79404C14.4258 1.66704 15.6958 1.54004 16.8388 1.54004C18.6168 1.54004 19.2518 2.30204 19.2518 4.08004C19.1248 11.192 19.1248 18.177 18.4898 25.289C18.2358 27.575 18.2358 29.861 17.9818 32.147C18.3628 32.274 18.8708 32.401 19.2518 32.528C20.2678 32.909 20.3948 33.798 19.5058 34.433C18.9978 34.687 18.4898 34.814 17.7278 35.068C17.6008 36.338 17.4738 37.735 17.2198 39.132C16.9658 40.91 16.8388 42.688 16.4578 44.466C16.0768 46.625 15.3148 47.26 13.1558 47.133C11.5048 47.006 9.85379 46.625 8.20279 46.244C6.29779 45.736 5.2818 44.466 5.1548 42.434C5.0278 40.402 5.02779 38.497 4.90079 36.465C5.02779 35.703 5.02779 34.941 5.02779 34.433ZM7.6948 4.71504C7.9488 13.986 6.80579 23.003 6.93279 32.147C10.1078 32.401 13.0288 32.782 16.0768 33.036C16.9658 23.003 17.4738 13.224 17.3468 3.19104C14.0448 3.31804 10.8698 3.57204 7.6948 4.71504ZM6.8058 33.798C6.8058 36.973 6.6788 39.894 7.0598 42.815C7.1868 43.577 7.69478 44.085 8.45678 44.466C9.98078 45.101 11.7588 45.355 13.4098 45.482C14.1718 45.482 14.5528 45.228 14.8068 44.466C15.5688 41.291 15.5688 38.116 15.9498 34.941C12.9018 34.56 9.9808 34.179 6.8058 33.798Z" fill="#003996"/>
</svg>
