<svg width="18" height="47" viewBox="0 0 18 47" fill="none" xmlns="http://www.w3.org/2000/svg">
<path d="M4.82156 3.71502C7.99656 2.57202 11.1716 2.19102 14.4736 2.31802C14.6006 12.351 14.0926 22.13 13.2036 32.163C10.1556 31.909 7.23457 31.528 4.05957 31.274C4.05957 22.003 5.07556 12.986 4.82156 3.71502Z" fill="#E9CEDB"/>
<path d="M3.93311 32.7981C7.10811 33.1791 9.90212 33.5601 12.9501 33.9411C12.6961 37.1161 12.5691 40.4181 11.8071 43.4661C11.6801 44.2281 11.1721 44.4821 10.4101 44.4821C8.75912 44.4821 6.98111 44.2281 5.45711 43.4661C4.69511 43.2121 4.18712 42.7041 4.06012 41.8151C3.80612 39.0211 3.93311 36.1001 3.93311 32.7981Z" fill="#E9CEDB"/>
<path d="M2.02785 33.433C1.26585 32.925 0.630856 32.671 0.376856 32.163C0.122856 31.528 0.630852 30.766 1.26585 30.512C2.02785 30.131 2.15486 29.496 2.28186 28.734C2.53586 21.876 2.91686 15.018 3.17086 8.16004C3.17086 7.01704 3.17086 5.74704 3.17086 4.60404C3.17086 3.84204 3.29786 3.08004 3.42486 2.44504C3.67886 1.68304 4.31386 1.30204 5.07586 1.17504C6.72686 1.04804 8.37786 0.921039 10.1559 0.794039C11.4259 0.667039 12.6959 0.540039 13.8389 0.540039C15.6169 0.540039 16.2518 1.30204 16.2518 3.08004C16.1248 10.192 16.1249 17.177 15.4899 24.289C15.2359 26.575 15.2358 28.861 14.9818 31.147C15.3628 31.274 15.8708 31.401 16.2518 31.528C17.2678 31.909 17.3949 32.798 16.5059 33.433C15.9979 33.687 15.4898 33.814 14.7278 34.068C14.6008 35.338 14.4739 36.735 14.2199 38.132C13.9659 39.91 13.8388 41.688 13.4578 43.466C13.0768 45.625 12.3149 46.26 10.1559 46.133C8.50486 46.006 6.85385 45.625 5.20285 45.244C3.29785 44.736 2.28186 43.466 2.15486 41.434C2.02786 39.402 2.02785 37.497 1.90085 35.465C2.02785 34.703 2.02785 33.941 2.02785 33.433ZM4.69486 3.71504C4.94886 12.986 3.80585 22.003 3.93285 31.147C7.10785 31.401 10.0288 31.782 13.0768 32.036C13.9658 22.003 14.4738 12.224 14.3468 2.19104C11.0448 2.31804 7.86986 2.57204 4.69486 3.71504ZM3.80586 32.798C3.80586 35.973 3.67886 38.894 4.05986 41.815C4.18686 42.577 4.69485 43.085 5.45685 43.466C6.98085 44.101 8.75886 44.355 10.4099 44.482C11.1719 44.482 11.5528 44.228 11.8068 43.466C12.5688 40.291 12.5689 37.116 12.9499 33.941C9.90186 33.56 6.98086 33.179 3.80586 32.798Z" fill="#002053"/>
</svg>
