<svg width="25" height="50" viewBox="0 0 25 50" fill="none" xmlns="http://www.w3.org/2000/svg">
<path d="M12.3545 2.29226C15.7295 1.91726 18.7295 2.41726 21.9795 3.16726C19.8545 12.7923 16.9795 22.0423 13.7295 31.4173C10.8545 30.4173 8.10449 29.4173 5.22949 28.4173C7.22949 19.5423 10.3545 11.1673 12.3545 2.29226Z" fill="white"/>
<path d="M4.72952 29.7922C7.72952 30.9172 10.3545 31.9172 13.1045 32.9172C12.1045 35.9172 11.2295 39.0422 9.85452 41.7922C9.47952 42.4172 8.97952 42.6672 8.35452 42.4172C6.72952 41.9172 5.22952 41.2922 3.85452 40.2922C3.22952 39.7922 2.85452 39.2922 2.97952 38.4172C3.10452 35.6672 3.97952 32.9172 4.72952 29.7922Z" fill="white"/>
<path d="M2.72966 29.9172C2.10466 29.1672 1.47966 28.7922 1.47966 28.4172C1.35466 27.6672 1.97966 27.1672 2.72966 27.0422C3.60466 26.7922 3.85466 26.2922 4.10466 25.5422C5.97966 19.0422 7.85466 12.6672 9.72966 6.16723C10.1047 5.04223 10.2297 3.91723 10.6047 2.79223C10.8547 2.04223 10.9797 1.41723 11.3547 0.792229C11.7297 0.0422293 12.4797 -0.0827706 13.2297 0.0422294C14.8547 0.292229 16.4797 0.542229 18.1047 0.792229C19.3547 1.04223 20.6047 1.04223 21.7297 1.41723C23.4797 1.91723 23.8547 2.66723 23.4797 4.41723C21.7297 11.1672 20.1047 17.9172 17.8547 24.5422C17.1047 26.6672 16.4797 28.7922 15.8547 31.0422C16.2297 31.2922 16.6047 31.4172 16.9797 31.6672C17.8547 32.2922 17.7297 33.1672 16.7297 33.5422C16.1047 33.5422 15.4797 33.5422 14.7297 33.5422C14.3547 34.7922 13.8547 36.0422 13.3547 37.2922C12.7297 38.9172 12.1047 40.6672 11.4797 42.2922C10.6047 44.1672 9.72966 44.6672 7.72966 44.0422C6.10466 43.5422 4.60466 42.7922 3.10466 42.0422C1.35466 41.1672 0.729659 39.6672 1.10466 37.6672C1.47966 35.7922 1.85466 33.7922 2.22966 31.9172C2.47966 31.2922 2.60466 30.5422 2.72966 29.9172ZM12.2297 2.29223C10.2297 11.1672 7.10466 19.6672 5.10466 28.4172C7.97966 29.4172 10.7297 30.4172 13.6047 31.4172C16.8547 22.0422 19.6047 12.7922 21.8547 3.16723C18.6047 2.29223 15.6047 1.91723 12.2297 2.29223ZM4.60466 29.7922C3.85466 32.9172 3.10466 35.6672 2.72966 38.5422C2.60466 39.4172 2.97966 39.9172 3.60466 40.4172C4.97966 41.4172 6.47966 42.0422 8.10466 42.5422C8.72966 42.7922 9.35466 42.5422 9.60466 41.9172C10.9797 39.0422 11.8547 36.0422 12.8547 33.0422C10.2297 31.9172 7.60466 30.9172 4.60466 29.7922Z" fill="#002053"/>
</svg>
