<svg width="25" height="50" viewBox="0 0 25 50" fill="none" xmlns="http://www.w3.org/2000/svg">
<g id="&#208;&#159;&#209;&#128;&#208;&#184;&#209;&#137;&#208;&#181;&#208;&#191;&#208;&#186;&#208;&#176; 1">
<g id="Group">
<path id="Vector" d="M12.3546 2.29226C15.7296 1.91726 18.7296 2.41726 21.9796 3.16726C19.8546 12.7923 16.9796 22.0423 13.7296 31.4173C10.8546 30.4173 8.10461 29.4173 5.22961 28.4173C7.22961 19.5423 10.3546 11.1673 12.3546 2.29226Z" fill="white"/>
<path id="Vector_2" d="M4.72976 29.7922C7.72976 30.9172 10.3548 31.9172 13.1048 32.9172C12.1048 35.9172 11.2298 39.0422 9.85476 41.7922C9.47976 42.4172 8.97976 42.6672 8.35476 42.4172C6.72976 41.9172 5.22976 41.2922 3.85476 40.2922C3.22976 39.7922 2.85476 39.2922 2.97976 38.4172C3.10476 35.6672 3.97976 32.9172 4.72976 29.7922Z" fill="white"/>
<path id="Vector_3" d="M2.72978 29.9172C2.10478 29.1672 1.47978 28.7922 1.47978 28.4172C1.35478 27.6672 1.97978 27.1672 2.72978 27.0422C3.60478 26.7922 3.85478 26.2922 4.10478 25.5422C5.97978 19.0422 7.85478 12.6672 9.72978 6.16723C10.1048 5.04223 10.2298 3.91723 10.6048 2.79223C10.8548 2.04223 10.9798 1.41723 11.3548 0.792229C11.7298 0.0422293 12.4798 -0.0827706 13.2298 0.0422294C14.8548 0.292229 16.4798 0.542229 18.1048 0.792229C19.3548 1.04223 20.6048 1.04223 21.7298 1.41723C23.4798 1.91723 23.8548 2.66723 23.4798 4.41723C21.7298 11.1672 20.1048 17.9172 17.8548 24.5422C17.1048 26.6672 16.4798 28.7922 15.8548 31.0422C16.2298 31.2922 16.6048 31.4172 16.9798 31.6672C17.8548 32.2922 17.7298 33.1672 16.7298 33.5422C16.1048 33.5422 15.4798 33.5422 14.7298 33.5422C14.3548 34.7922 13.8548 36.0422 13.3548 37.2922C12.7298 38.9172 12.1048 40.6672 11.4798 42.2922C10.6048 44.1672 9.72978 44.6672 7.72978 44.0422C6.10478 43.5422 4.60478 42.7922 3.10478 42.0422C1.35478 41.1672 0.729781 39.6672 1.10478 37.6672C1.47978 35.7922 1.85478 33.7922 2.22978 31.9172C2.47978 31.2922 2.60478 30.5422 2.72978 29.9172ZM12.2298 2.29223C10.2298 11.1672 7.10478 19.6672 5.10478 28.4172C7.97978 29.4172 10.7298 30.4172 13.6048 31.4172C16.8548 22.0422 19.6048 12.7922 21.8548 3.16723C18.6048 2.29223 15.6048 1.91723 12.2298 2.29223ZM4.60478 29.7922C3.85478 32.9172 3.10478 35.6672 2.72978 38.5422C2.60478 39.4172 2.97978 39.9172 3.60478 40.4172C4.97978 41.4172 6.47978 42.0422 8.10478 42.5422C8.72978 42.7922 9.35478 42.5422 9.60478 41.9172C10.9798 39.0422 11.8548 36.0422 12.8548 33.0422C10.2298 31.9172 7.60479 30.9172 4.60478 29.7922Z" fill="#003996"/>
</g>
</g>
</svg>
