<svg width="25" height="50" viewBox="0 0 25 50" fill="none" xmlns="http://www.w3.org/2000/svg">
<g id="&#208;&#159;&#209;&#128;&#208;&#184;&#209;&#137;&#208;&#181;&#208;&#191;&#208;&#186;&#208;&#176; 2">
<g id="Group">
<path id="Vector" d="M7.8218 4.71502C10.9968 3.57202 14.1718 3.19102 17.4738 3.31802C17.6008 13.351 17.0928 23.13 16.2038 33.163C13.1558 32.909 10.2348 32.528 7.05981 32.274C7.05981 23.003 8.0758 13.986 7.8218 4.71502Z" fill="#003996"/>
<path id="Vector_2" d="M6.93287 33.7981C10.1079 34.1791 12.9019 34.5601 15.9499 34.9411C15.6959 38.1161 15.5689 41.4181 14.8069 44.4661C14.6799 45.2281 14.1719 45.4821 13.4099 45.4821C11.7589 45.4821 9.98086 45.2281 8.45687 44.4661C7.69487 44.2121 7.18688 43.7041 7.05988 42.8151C6.80588 40.0211 6.93287 37.1001 6.93287 33.7981Z" fill="#003996"/>
<path id="Vector_3" d="M5.02785 34.433C4.26585 33.925 3.63086 33.671 3.37686 33.163C3.12286 32.528 3.63085 31.766 4.26585 31.512C5.02785 31.131 5.15486 30.496 5.28186 29.734C5.53586 22.876 5.91686 16.018 6.17086 9.16004C6.17086 8.01704 6.17086 6.74704 6.17086 5.60404C6.17086 4.84204 6.29786 4.08004 6.42486 3.44504C6.67886 2.68304 7.31386 2.30204 8.07586 2.17504C9.72686 2.04804 11.3779 1.92104 13.1559 1.79404C14.4259 1.66704 15.6959 1.54004 16.8389 1.54004C18.6169 1.54004 19.2518 2.30204 19.2518 4.08004C19.1248 11.192 19.1249 18.177 18.4899 25.289C18.2359 27.575 18.2358 29.861 17.9818 32.147C18.3628 32.274 18.8708 32.401 19.2518 32.528C20.2678 32.909 20.3949 33.798 19.5059 34.433C18.9979 34.687 18.4898 34.814 17.7278 35.068C17.6008 36.338 17.4739 37.735 17.2199 39.132C16.9659 40.91 16.8388 42.688 16.4578 44.466C16.0768 46.625 15.3149 47.26 13.1559 47.133C11.5049 47.006 9.85385 46.625 8.20285 46.244C6.29785 45.736 5.28186 44.466 5.15486 42.434C5.02786 40.402 5.02785 38.497 4.90085 36.465C5.02785 35.703 5.02785 34.941 5.02785 34.433ZM7.69486 4.71504C7.94886 13.986 6.80585 23.003 6.93285 32.147C10.1078 32.401 13.0288 32.782 16.0768 33.036C16.9658 23.003 17.4738 13.224 17.3468 3.19104C14.0448 3.31804 10.8699 3.57204 7.69486 4.71504ZM6.80586 33.798C6.80586 36.973 6.67886 39.894 7.05986 42.815C7.18686 43.577 7.69485 44.085 8.45685 44.466C9.98085 45.101 11.7589 45.355 13.4099 45.482C14.1719 45.482 14.5528 45.228 14.8068 44.466C15.5688 41.291 15.5689 38.116 15.9499 34.941C12.9019 34.56 9.98086 34.179 6.80586 33.798Z" fill="#FF81C9"/>
</g>
</g>
</svg>
