<svg width="17" height="46" viewBox="0 0 17 46" fill="none" xmlns="http://www.w3.org/2000/svg">
<g id="Group">
<path id="Vector" d="M4.51174 3.17498C7.68674 2.03198 10.8618 1.65098 14.1637 1.77798C14.2907 11.811 13.7828 21.59 12.8938 31.623C9.84575 31.369 6.92476 30.988 3.74976 30.734C3.74976 21.463 4.76574 12.446 4.51174 3.17498Z" fill="#FF81C9"/>
<path id="Vector_2" d="M3.62281 32.2581C6.79781 32.6391 9.59182 33.0201 12.6398 33.4011C12.3858 36.5761 12.2588 39.8781 11.4968 42.9261C11.3698 43.6881 10.8618 43.9421 10.0998 43.9421C8.44882 43.9421 6.67081 43.6881 5.14681 42.9261C4.38481 42.6721 3.87682 42.1641 3.74982 41.2751C3.49582 38.4811 3.62281 35.5601 3.62281 32.2581Z" fill="#FF81C9"/>
<path id="Vector_3" d="M1.71779 32.893C0.955791 32.385 0.320797 32.131 0.0667973 31.623C-0.187203 30.988 0.320793 30.226 0.955793 29.972C1.71779 29.591 1.8448 28.956 1.9718 28.194C2.2258 21.336 2.6068 14.478 2.8608 7.62C2.8608 6.477 2.8608 5.207 2.8608 4.064C2.8608 3.302 2.9878 2.54 3.1148 1.905C3.3688 1.143 4.0038 0.762 4.7658 0.635C6.4168 0.508 8.0678 0.381 9.8458 0.254C11.1158 0.127 12.3858 0 13.5288 0C15.3068 0 15.9418 0.762 15.9418 2.54C15.8148 9.652 15.8148 16.637 15.1798 23.749C14.9258 26.035 14.9258 28.321 14.6718 30.607C15.0528 30.734 15.5608 30.861 15.9418 30.988C16.9578 31.369 17.0848 32.258 16.1958 32.893C15.6878 33.147 15.1798 33.274 14.4178 33.528C14.2908 34.798 14.1638 36.195 13.9098 37.592C13.6558 39.37 13.5288 41.148 13.1478 42.926C12.7668 45.085 12.0048 45.72 9.8458 45.593C8.1948 45.466 6.54379 45.085 4.89279 44.704C2.98779 44.196 1.9718 42.926 1.8448 40.894C1.7178 38.862 1.71779 36.957 1.59079 34.925C1.71779 34.163 1.71779 33.401 1.71779 32.893ZM4.3848 3.175C4.6388 12.446 3.49579 21.463 3.62279 30.607C6.79779 30.861 9.71879 31.242 12.7668 31.496C13.6558 21.463 14.1638 11.684 14.0368 1.651C10.7348 1.778 7.5598 2.032 4.3848 3.175ZM3.4958 32.258C3.4958 35.433 3.3688 38.354 3.7498 41.275C3.8768 42.037 4.38479 42.545 5.14679 42.926C6.67079 43.561 8.4488 43.815 10.0998 43.942C10.8618 43.942 11.2428 43.688 11.4968 42.926C12.2588 39.751 12.2588 36.576 12.6398 33.401C9.5918 33.02 6.6708 32.639 3.4958 32.258Z" fill="#003996"/>
</g>
</svg>
