<svg width="50" height="50" viewBox="0 0 50 50" fill="none" xmlns="http://www.w3.org/2000/svg">
<rect x="0.5" y="0.5" width="49" height="49" rx="24.5" fill="#FF81C9"/>
<rect x="0.5" y="0.5" width="49" height="49" rx="24.5" stroke="#FF81C9"/>
<path fill-rule="evenodd" clip-rule="evenodd" d="M30.3283 10.9931C29.893 10.9457 29.1116 10.9485 28.7327 10.9988C28.615 11.0144 28.292 11.0782 28.0149 11.1405C27.0311 11.3618 26.3787 11.6582 25.4139 12.3224C25.1258 12.5208 25.0299 12.5978 24.8274 12.7931C24.7897 12.8295 24.7474 12.8657 24.7333 12.8737C24.6805 12.9035 24.3671 13.2295 24.1622 13.4679C23.5108 14.2254 23.0309 15.0661 22.4136 16.5308C22.3919 16.5824 22.3396 16.7187 22.2975 16.8336C22.2554 16.9486 22.2017 17.0939 22.1783 17.1565C22.1548 17.2191 22.0894 17.405 22.0329 17.5696C21.9672 17.7614 21.91 17.8715 21.8738 17.8761C21.8427 17.8801 21.6502 17.7826 21.4458 17.6594C20.8597 17.306 19.9173 16.8253 19.4836 16.6585C19.4003 16.6265 19.2983 16.5863 19.2569 16.5692C19.16 16.5291 18.5805 16.3098 18.2146 16.1747C17.4157 15.8798 15.4532 15.417 14.372 15.2685C14.1659 15.2401 13.8715 15.1976 13.7179 15.174C13.3312 15.1145 13.1436 15.1237 13.0488 15.2069C12.9426 15.3002 12.9235 15.3915 12.9562 15.6501C12.9877 15.8994 13.2183 16.893 13.2609 16.9632C13.2769 16.9895 13.2851 17.0314 13.279 17.0562C13.2655 17.1115 13.7067 18.5657 13.7831 18.7177C13.7988 18.749 13.8094 18.7844 13.8065 18.7963C13.7978 18.8317 13.9848 19.2954 14.0169 19.3182C14.0332 19.3298 14.0412 19.361 14.0348 19.3876C14.0283 19.4142 14.0636 19.5191 14.1133 19.6207C14.1629 19.7224 14.2566 19.9302 14.3214 20.0827C14.3861 20.2351 14.4515 20.3857 14.4665 20.4173C14.4816 20.4489 14.5179 20.5292 14.5472 20.5958C14.5765 20.6624 14.6388 20.7888 14.6856 20.8768C14.7325 20.9647 14.834 21.1593 14.9113 21.3091C15.1084 21.6912 15.6581 22.594 15.9289 22.9803C16.0541 23.1589 16.1779 23.3382 16.2041 23.3787C16.2303 23.4193 16.3779 23.622 16.5321 23.8293C16.6864 24.0366 16.8522 24.268 16.9007 24.3437C16.9492 24.4194 17.0012 24.4843 17.0163 24.488C17.0809 24.5038 17.0561 24.6266 16.987 24.6336C16.9465 24.6377 16.8207 24.6773 16.7075 24.7214C16.4986 24.8029 15.6984 25.0358 15.6598 25.0263C15.6482 25.0235 15.5169 25.0449 15.368 25.0738C14.8823 25.168 14.756 25.1871 14.3908 25.2216C13.9015 25.2677 13.1337 25.2854 12.8084 25.258C12.7303 25.2514 12.5104 25.2366 12.3196 25.2249C11.5807 25.18 10.2075 24.8731 9.14961 24.5163C8.23491 24.2078 8.06373 24.2388 8.14063 24.6992C8.16479 24.844 8.26153 25.0471 8.45219 25.3534C8.78813 25.8932 9.02119 26.2421 9.18255 26.4468C9.24926 26.5314 9.31907 26.623 9.3377 26.6503C9.57356 26.9962 9.9143 27.4275 10.2092 27.7533C10.2488 27.7972 10.355 27.9223 10.4451 28.0314C10.5351 28.1406 10.6776 28.2955 10.7615 28.3759C10.8455 28.4562 10.9206 28.5339 10.9285 28.5484C10.9474 28.5837 11.1925 28.8402 11.2583 28.8935C11.2868 28.9166 11.416 29.036 11.5454 29.1589C11.6749 29.2818 11.8504 29.4405 11.9355 29.5117C12.0206 29.5829 12.0963 29.6542 12.1038 29.6702C12.1232 29.7115 12.7921 30.2473 12.8383 30.2586C12.8594 30.2637 12.9251 30.3104 12.9843 30.3624C13.2103 30.561 13.2752 30.6086 13.6745 30.8686C14.1074 31.1505 14.9607 31.6659 15.1179 31.7405C15.1689 31.7646 15.2848 31.824 15.3755 31.8724C15.6207 32.0033 15.6672 32.0256 15.9128 32.1309C16.0365 32.184 16.1954 32.258 16.266 32.2954C16.405 32.3692 16.4988 32.4084 16.9611 32.5858C17.9862 32.9791 18.3701 33.0977 19.5738 33.3927C20.6688 33.661 20.7376 33.6824 20.6965 33.7404C20.6725 33.7743 20.6033 33.9019 20.5428 34.0237C20.4403 34.2301 20.0668 34.9086 19.9198 35.1552C19.8843 35.2149 19.7911 35.3971 19.7128 35.5602C19.4627 36.0807 19.2311 36.3125 18.6703 36.6033C18.1788 36.8583 17.524 37.268 17.4015 37.3974C17.1002 37.7155 17.1002 38.1975 17.4014 38.4991C17.697 38.795 18.1283 38.7932 18.6642 38.4937C18.8216 38.4057 18.9667 38.3439 18.9865 38.3564C19.0064 38.3689 19.0206 38.4337 19.018 38.5004C19.0111 38.6833 19.087 39.246 19.1339 39.3593C19.2076 39.5376 19.3401 39.6319 19.6212 39.7061C19.9741 39.7992 20.1579 39.74 20.3735 39.4636C20.4574 39.356 20.5365 39.2262 20.5492 39.1752C20.5619 39.1243 20.5988 39.0204 20.6311 38.9445C20.6869 38.814 20.695 38.8099 20.7821 38.8699C20.8328 38.9048 20.8938 38.9597 20.9178 38.992C21.0561 39.1783 21.4644 39.3237 21.6975 39.2697C21.8676 39.2303 22.0979 39.1052 22.1128 39.0441C22.1188 39.0196 22.1723 38.9721 22.2317 38.9385L22.3398 38.8773L22.2968 39.061C22.2065 39.4473 22.4099 39.8199 22.7882 39.9612C22.9544 40.0232 23.0226 40.0267 23.2175 39.9828C23.4341 39.934 23.7165 39.7476 23.7687 39.619C23.7797 39.5919 23.8265 39.5343 23.8729 39.4909C23.9563 39.4129 24.0609 39.2657 24.0815 39.1975C24.1134 39.0918 24.1964 39.1873 24.293 39.4412C24.4497 39.8526 24.5018 39.939 24.6716 40.0677C24.8754 40.2223 25.0041 40.2471 25.3049 40.1895C25.7566 40.1031 25.945 39.8188 25.9122 39.2729C25.9027 39.1152 25.8966 38.9792 25.8987 38.9706C25.9008 38.9619 26.0492 38.9936 26.2284 39.0409C26.7258 39.1722 27.026 39.0777 27.2628 38.7152C27.52 38.3215 27.322 37.7407 26.8662 37.5519C26.8145 37.5304 26.6711 37.4692 26.5475 37.4158C26.4239 37.3624 26.213 37.2723 26.0788 37.2155C25.9447 37.1586 25.7177 37.0613 25.5744 36.9992L25.3138 36.8863L25.3564 36.3998C25.3797 36.1322 25.4232 35.6211 25.4529 35.264C25.5518 34.0763 25.5833 33.7835 25.6175 33.7341C25.6361 33.7073 25.7239 33.6799 25.8125 33.6733C25.9011 33.6667 26.0611 33.6461 26.1682 33.6274C26.2752 33.6088 26.4592 33.5771 26.577 33.557C26.9756 33.489 28.126 33.2133 28.3903 33.1225C28.862 32.9603 29.4704 32.7299 29.5652 32.6775C29.6162 32.6493 29.6715 32.6296 29.688 32.6336C29.7233 32.6422 30.2277 32.3967 30.745 32.1192C31.1631 31.8949 32.1192 31.255 32.4209 30.9976C32.4784 30.9485 32.5957 30.8498 32.6815 30.7782C32.9607 30.5453 33.2868 30.2494 33.2932 30.2229C33.2967 30.2087 33.368 30.1359 33.4515 30.0611C33.6625 29.8723 34.39 29.0302 34.6532 28.6701C34.7733 28.5058 34.9073 28.3243 34.9511 28.2666C35.4627 27.5927 36.3365 25.9596 36.6265 25.1355C36.6744 24.9991 36.7977 24.6566 36.9004 24.3742C37.0824 23.8737 37.6203 21.7892 37.6461 21.4845C37.6524 21.4105 37.6796 21.2157 37.7066 21.0515C37.7336 20.8873 37.7737 20.6082 37.7956 20.4314C37.8176 20.2546 37.8622 19.9534 37.8947 19.7621L37.9538 19.4142L38.0649 19.4408C39.327 19.7432 39.7137 19.8136 39.9412 19.7822C40.0705 19.7644 40.1809 19.7509 40.1866 19.7523C40.1922 19.7537 40.2103 19.6976 40.2266 19.6275C40.2587 19.4904 40.2228 19.376 40.1342 19.3325C40.1038 19.3176 40.0567 19.273 40.0297 19.2333C40.0027 19.1936 39.9492 19.1453 39.911 19.126C39.8278 19.0841 39.0536 18.5623 38.7056 18.3136C38.5696 18.2165 38.3956 18.1086 38.319 18.0739C38.2424 18.0392 38.1829 17.9977 38.1868 17.9816C38.1963 17.9428 38.4332 17.7297 38.558 17.6477C38.6124 17.612 38.6601 17.5697 38.664 17.5538C38.6678 17.5379 38.699 17.5071 38.7333 17.4854C38.7676 17.4637 38.9126 17.344 39.0555 17.2195C39.1985 17.095 39.3552 16.9667 39.4037 16.9344C39.4523 16.9021 39.4952 16.8627 39.4991 16.8468C39.503 16.8309 39.534 16.8 39.5681 16.7782C39.6022 16.7565 39.6705 16.7019 39.7199 16.6571C39.7692 16.6122 39.928 16.4739 40.0726 16.3498C40.2171 16.2257 40.3784 16.0694 40.4308 16.0025C40.5587 15.8395 40.6515 15.5726 40.5989 15.519C40.5191 15.4376 40.2012 15.3642 40.0169 15.3846C39.9143 15.396 39.6775 15.4209 39.4906 15.4399C39.154 15.4743 38.9277 15.5056 38.6764 15.5527C38.0589 15.6685 37.8022 15.6995 37.6327 15.6788C37.4633 15.6581 37.4148 15.6335 37.2921 15.5063C37.2135 15.4247 37.1149 15.2724 37.0731 15.1679C37.0314 15.0634 36.9612 14.9321 36.9173 14.8761C36.8734 14.8202 36.7916 14.7024 36.7357 14.6144C36.6796 14.5263 36.6233 14.4517 36.6105 14.4484C36.5977 14.4452 36.5463 14.3814 36.4962 14.3066C36.3369 14.0684 35.4873 13.1966 35.2335 13.0107C35.1589 12.9561 35.035 12.8622 34.9583 12.8022C34.8006 12.6788 33.9685 12.1507 33.8348 12.0891C33.7866 12.0669 33.637 11.9928 33.5023 11.9245C33.1569 11.7494 33.1273 11.7358 32.957 11.6739C32.8733 11.6436 32.651 11.5618 32.4631 11.4922C31.9934 11.3183 30.8407 11.0488 30.3283 10.9931ZM30.7863 11.7457C29.8684 11.6691 29.4827 11.6507 29.1695 11.6687C28.9732 11.68 28.7858 11.6878 28.7531 11.6859C28.7203 11.6841 28.6534 11.6911 28.6043 11.7015C28.5553 11.7118 28.3439 11.7545 28.1346 11.7964C27.3811 11.9472 26.8113 12.1771 26.1707 12.5887C25.666 12.913 25.5351 13.0168 25.0788 13.4549C24.8756 13.65 24.5105 14.074 24.3719 14.276C24.1203 14.6426 23.8059 15.1204 23.7772 15.1797C23.7592 15.2169 23.7284 15.2746 23.7088 15.3079C23.6892 15.3411 23.6482 15.4259 23.6178 15.4963C23.5875 15.5667 23.5527 15.634 23.5406 15.6459C23.5284 15.6579 23.5003 15.7085 23.478 15.7584C23.4557 15.8083 23.4017 15.9149 23.358 15.9953C23.2923 16.1164 23.0525 16.7173 22.7558 17.5045C22.64 17.8118 22.2066 19.3338 21.9961 20.1722C21.8521 20.7461 21.7897 20.9233 21.552 21.4341C21.4285 21.6994 21.0798 22.2951 20.937 22.4847C20.8935 22.5424 20.8544 22.5981 20.8499 22.6085C20.8208 22.6765 20.2067 23.3623 20.1806 23.3559C20.1629 23.3516 20.1435 23.3677 20.1376 23.3919C20.1283 23.4298 19.7313 23.7928 19.5801 23.9016C19.5513 23.9223 19.4702 23.9842 19.3998 24.0393C19.1065 24.2687 18.3401 24.7698 18.2983 24.7596C18.2798 24.7551 18.2209 24.7859 18.1671 24.828C18.1134 24.8701 17.9611 24.9487 17.8287 25.0028C17.6962 25.0568 17.5765 25.1091 17.5628 25.1189C17.549 25.1288 17.4657 25.1645 17.3778 25.1982C17.2898 25.232 17.1798 25.2805 17.1333 25.3059C17.0563 25.3482 16.8343 25.4215 16.2536 25.5963C16.0147 25.6682 15.3373 25.8122 15.0003 25.8628C14.8972 25.8782 14.1602 25.9476 14.1315 25.9445C14.1204 25.9433 14.0924 25.9435 14.0693 25.9447C13.8308 25.958 13.5028 25.9618 13.4049 25.9523C13.3382 25.9458 13.2357 25.9459 13.1772 25.9524C13.0585 25.9658 12.5078 25.9241 11.8965 25.8555C11.6332 25.8259 11.1048 25.7123 10.3721 25.5277C9.4303 25.2903 9.24848 25.2539 9.23721 25.3C9.22982 25.3303 9.3662 25.5539 9.54031 25.7969C9.71438 26.0399 9.87162 26.261 9.8897 26.2882C9.90778 26.3154 9.96278 26.3847 10.012 26.4423C10.0611 26.4998 10.1179 26.5725 10.1381 26.6037C10.1583 26.6349 10.3033 26.8147 10.4603 27.0033C10.6174 27.1918 10.8335 27.4513 10.9405 27.5799C11.0476 27.7086 11.1558 27.8188 11.1809 27.825C11.2061 27.8311 11.2223 27.8537 11.2171 27.8752C11.2118 27.8967 11.2312 27.92 11.26 27.9271C11.289 27.9342 11.3529 27.9961 11.4021 28.0648C11.4886 28.1857 11.5539 28.2492 12.1818 28.8237C12.7047 29.3021 13.4265 29.8906 13.7172 30.0757C13.8083 30.1336 13.9095 30.2059 13.9422 30.2363C14.0404 30.3278 14.798 30.8029 15.2264 31.0418C15.9047 31.4201 16.8921 31.8757 17.4576 32.0713C17.6037 32.1219 17.7574 32.1793 17.7991 32.1989C17.9697 32.2789 18.4894 32.4335 19.1519 32.6012C20.1344 32.85 20.1219 32.8537 20.4872 32.209C20.5949 32.0189 20.7068 31.832 20.7359 31.7935C20.765 31.7551 20.8423 31.6342 20.9078 31.5249C21.0416 31.3013 21.4073 30.7694 21.5902 30.5322C21.6567 30.4459 21.7341 30.3437 21.7624 30.3051C21.7906 30.2664 21.9409 30.0795 22.0965 29.8898C22.3509 29.5796 22.5217 29.3891 22.8733 29.0236C22.9354 28.959 23.0144 28.8758 23.0488 28.8387C23.0832 28.8015 23.2369 28.656 23.3904 28.5153C23.5438 28.3746 23.6734 28.2432 23.6783 28.2233C23.6831 28.2034 23.7017 28.1907 23.7196 28.195C23.7375 28.1994 23.8344 28.1252 23.935 28.0302C24.0355 27.9352 24.1524 27.8318 24.1947 27.8003C24.3899 27.6553 24.4287 27.6248 24.5032 27.5582C24.5469 27.5191 24.6166 27.4625 24.6581 27.4325C25.3378 26.9403 25.6962 26.7044 26.3303 26.3322C27.0266 25.9235 27.2767 25.7879 27.8389 25.5143C28.0716 25.4011 28.356 25.2668 28.4707 25.216C28.5854 25.1651 28.6885 25.1111 28.6998 25.0959C28.7112 25.0808 28.7438 25.0741 28.7725 25.0811C28.8011 25.0881 28.8339 25.081 28.8454 25.0653C28.8799 25.0178 30.4109 24.4046 30.463 24.4173C30.4993 24.4261 30.8672 24.2934 30.8907 24.2629C30.9019 24.2485 30.9253 24.2403 30.9428 24.2446C30.9604 24.2489 31.1035 24.2096 31.2609 24.1572C31.4183 24.1049 31.6147 24.0497 31.6972 24.0345C31.7798 24.0193 31.8803 23.9891 31.9206 23.9674C31.9609 23.9458 32.372 23.842 32.834 23.7368C33.8795 23.4989 34.9874 23.3145 35.9564 23.2173C36.4318 23.1695 36.5452 23.1236 36.6209 22.9478C36.656 22.8664 36.6922 22.7294 36.7014 22.6434C36.7208 22.4634 36.7871 22.0694 36.8982 21.4752C36.9831 21.0214 37.23 19.4039 37.2394 19.2397C37.2427 19.1836 37.2523 19.0666 37.2608 18.9797C37.2873 18.7078 37.2946 17.9109 37.2713 17.8299C37.259 17.7874 37.2569 17.7201 37.2666 17.6804C37.2763 17.6407 37.2743 17.5918 37.2621 17.5717C37.2499 17.5517 37.2425 17.5235 37.2457 17.5091C37.257 17.4579 37.0987 16.7798 37.0233 16.5566C36.9317 16.2849 36.7233 15.8946 36.3983 15.3859C36.0186 14.7913 35.8883 14.6058 35.8413 14.5932C35.8172 14.5867 35.7829 14.5514 35.7651 14.5148C35.6728 14.3254 34.6146 13.2988 34.477 13.2652C34.4655 13.2624 34.3736 13.1952 34.2728 13.1159C34.1719 13.0366 33.9178 12.8729 33.7082 12.752C33.3627 12.5529 33.1677 12.4581 32.7319 12.2775C32.6517 12.2442 32.5509 12.1993 32.5078 12.1777C32.3507 12.0986 31.023 11.7655 30.7863 11.7457ZM34.7384 14.8625C34.4767 14.897 34.2664 15.0063 34.1272 15.1801C33.8768 15.4928 33.8327 15.8867 34.0136 16.1945C34.2691 16.6293 34.7328 16.7852 35.1713 16.5839C35.4978 16.4341 35.6948 16.1362 35.6985 15.7872C35.7028 15.3703 35.45 15.0301 35.0495 14.9137C34.9296 14.8788 34.7896 14.8558 34.7384 14.8625ZM39.1229 16.1828C39.0863 16.1927 38.9221 16.2169 38.7578 16.2366C38.5936 16.2562 38.4009 16.2824 38.3296 16.2948C38.2582 16.3073 38.0988 16.3249 37.9754 16.334C37.852 16.3431 37.738 16.3695 37.722 16.3925C37.685 16.4459 37.884 17.2537 37.9341 17.2532C37.9546 17.253 38.1174 17.1282 38.2957 16.976C38.4741 16.8237 38.6437 16.6823 38.6726 16.6619C38.7015 16.6415 38.7275 16.6152 38.7303 16.6036C38.7332 16.592 38.8433 16.4969 38.975 16.3923C39.212 16.2041 39.2519 16.1476 39.1229 16.1828ZM15.1118 16.0789C14.0521 15.8796 13.7583 15.8369 13.6984 15.8733C13.6829 15.8827 13.6852 15.935 13.7033 15.9897C13.7214 16.0443 13.7627 16.2073 13.7949 16.3518C13.8273 16.4963 13.8627 16.6261 13.8736 16.6401C13.8846 16.6542 13.905 16.7151 13.919 16.7754C13.9468 16.8954 13.9784 17.0048 14.1087 17.4313C14.1562 17.5867 14.1927 17.7232 14.1899 17.7347C14.1871 17.7462 14.2487 17.9327 14.3268 18.1491C14.4049 18.3655 14.4727 18.5648 14.4775 18.5919C14.4822 18.619 14.5128 18.7016 14.5453 18.7754C14.5778 18.8492 14.6558 19.0433 14.7185 19.2066C14.9726 19.8678 15.0438 20.0326 15.3083 20.5729C15.6955 21.3639 16.6774 22.9676 16.9317 23.2244C16.9758 23.2689 17.0085 23.3188 17.0045 23.3353C17.0005 23.3518 17.0155 23.3698 17.0379 23.3753C17.0603 23.3808 17.0957 23.4074 17.1166 23.4345C17.1375 23.4615 17.2039 23.5489 17.2641 23.6287C17.4642 23.8934 17.7553 24.213 17.8083 24.2259C17.8735 24.2418 18.746 23.7116 18.9915 23.5068C19.0916 23.4233 19.1968 23.3382 19.2252 23.3176C19.3316 23.2405 19.7979 22.7919 19.8803 22.6874C19.9274 22.6277 20.0102 22.5338 20.0643 22.4787C20.1754 22.3656 20.6564 21.6844 20.7251 21.5427C20.7498 21.4918 20.7874 21.4172 20.8086 21.3768C21.201 20.6323 21.5123 19.6809 21.5901 18.9884C21.6359 18.5805 21.5674 18.4888 20.9635 18.1506C20.3261 17.7936 19.7609 17.5112 19.3197 17.3295C19.1128 17.2443 18.9095 17.1586 18.8679 17.1392C18.8263 17.1198 18.6904 17.0658 18.5659 17.0192C18.4414 16.9726 18.2884 16.9152 18.2258 16.8917C18.079 16.8364 16.1744 16.3063 15.8414 16.228C15.7014 16.1951 15.3731 16.128 15.1118 16.0789ZM36.1257 23.8793C36.0212 23.8875 35.9169 23.8952 35.8938 23.8964C35.8708 23.8975 35.7971 23.9067 35.7301 23.9167C35.6631 23.9268 35.5103 23.9422 35.3905 23.9508C35.2708 23.9595 35.1228 23.9839 35.0617 24.0048C35.0007 24.0259 34.9513 24.0373 34.952 24.0303C34.9538 24.0121 34.8163 24.0275 34.567 24.0735C34.4477 24.0955 34.1941 24.1422 34.0033 24.1773C33.5329 24.2639 32.4605 24.5192 32.3021 24.5823C32.2314 24.6105 32.1768 24.6191 32.1808 24.6014C32.1847 24.5838 32.1706 24.5846 32.1493 24.6034C32.1279 24.6222 32.0417 24.6511 31.9575 24.6678C31.8734 24.6845 31.7271 24.727 31.6324 24.7623C31.5378 24.7975 31.4435 24.8223 31.423 24.8173C31.4024 24.8123 31.3813 24.8258 31.3761 24.8472C31.3708 24.8687 31.348 24.8818 31.3254 24.8763C31.3028 24.8707 31.1478 24.914 30.981 24.9723C30.8143 25.0307 30.6283 25.0905 30.5677 25.1053C30.5072 25.1202 30.4462 25.1411 30.4322 25.1518C30.4182 25.1625 30.1815 25.2541 29.9063 25.3555C29.631 25.4569 29.3091 25.5876 29.1909 25.6459C29.0727 25.7042 28.9566 25.7471 28.9329 25.7414C28.9093 25.7356 28.8808 25.7426 28.8697 25.757C28.8586 25.7714 28.7555 25.8245 28.6407 25.8752C27.7318 26.276 26.1163 27.2059 25.461 27.7054C25.3631 27.7801 25.2601 27.8567 25.2322 27.8756C25.0925 27.9706 24.5517 28.3977 24.4259 28.5124C24.3471 28.5843 24.2124 28.7004 24.1265 28.7706C24.0407 28.8407 23.9522 28.9216 23.9299 28.9503C23.9076 28.979 23.7868 29.0986 23.6614 29.216C23.1739 29.6722 21.8641 31.2185 21.7514 31.4709C21.7402 31.496 21.7158 31.5257 21.6972 31.5371C21.6786 31.5483 21.6572 31.5828 21.6497 31.6136C21.6422 31.6443 21.5969 31.7187 21.549 31.7788C21.3781 31.9933 20.9247 32.7533 20.8827 32.8956C20.871 32.9351 21.1698 33.0031 21.3716 33.0068C21.4623 33.0084 21.6094 33.0165 21.6985 33.0248C22.2249 33.0735 23.6616 33.1328 24.1376 33.1254C24.5899 33.1184 25.7214 33.0324 26.0004 32.9837C26.1038 32.9657 26.3434 32.9267 26.5329 32.897C28.2274 32.6315 30.1349 31.85 31.5261 30.8511C31.6772 30.7425 31.8245 30.6387 31.8533 30.6204C32.0107 30.5204 32.6843 29.9274 33.0172 29.5956C33.6656 28.9496 34.4269 27.9676 34.8257 27.263C34.9333 27.0729 35.044 26.8856 35.0717 26.8469C35.1233 26.7747 35.2002 26.6274 35.2731 26.4613C35.2956 26.4098 35.3426 26.3188 35.3775 26.259C35.5735 25.923 36.0693 24.7346 36.33 23.9761C36.3712 23.8561 36.378 23.8594 36.1257 23.8793ZM24.6951 33.8678C24.6238 34.1089 24.5752 34.4891 24.5067 35.3435C24.4861 35.6004 24.4524 35.9276 24.4319 36.0706C24.4114 36.2136 24.3935 36.4142 24.3921 36.5163C24.3907 36.6185 24.3489 36.8785 24.2993 37.0941C24.2288 37.4004 24.185 37.5164 24.0988 37.6248C24.0381 37.7011 23.8981 37.8763 23.7876 38.0142C23.6771 38.152 23.584 38.2755 23.5808 38.2887C23.5739 38.3172 23.4408 38.491 23.2087 38.7746C23.0388 38.9823 22.9404 39.226 23.0188 39.2451C23.1278 39.2717 23.2327 39.1926 23.4413 38.9266C23.5659 38.7676 23.7057 38.5955 23.7519 38.5441C23.7981 38.4927 23.8527 38.414 23.8733 38.3692C23.9414 38.2204 24.1921 38.0628 24.3295 38.0822C24.4313 38.0966 24.4786 38.1365 24.5712 38.2861C24.6345 38.3885 24.7129 38.5718 24.7455 38.6937C24.7781 38.8155 24.8288 38.9595 24.8583 39.0137C24.8877 39.0679 24.9087 39.125 24.9048 39.1407C24.901 39.1563 24.9109 39.1948 24.9268 39.2262C24.9427 39.2576 24.97 39.3175 24.9875 39.3593C25.0049 39.4011 25.054 39.4556 25.0966 39.4804C25.1581 39.5162 25.1839 39.5066 25.2225 39.4334C25.259 39.3642 25.2495 39.2871 25.184 39.1225C25.0654 38.8246 24.9617 38.433 24.9757 38.3358C25.0118 38.0844 25.0555 38.0135 25.187 37.9932C25.3088 37.9744 25.6845 38.0743 25.9628 38.1995C26.1917 38.3024 26.3712 38.3565 26.5195 38.3671L26.6796 38.3787L26.5806 38.2434C26.5177 38.1575 26.4161 38.0826 26.3021 38.0383C26.2034 37.9999 26.0387 37.931 25.936 37.8851C25.8334 37.8393 25.69 37.7776 25.6175 37.7482C25.545 37.7187 25.3843 37.652 25.2603 37.5999C25.1364 37.5479 24.9735 37.4796 24.8983 37.4483C24.7298 37.378 24.6048 37.1818 24.6206 37.0126C24.6271 36.9427 24.65 36.6942 24.6714 36.4603C24.6929 36.2264 24.7191 35.9627 24.7297 35.8742C24.7404 35.7857 24.7582 35.5665 24.7694 35.387C24.7806 35.2076 24.8015 34.9611 24.8158 34.8393C24.83 34.7175 24.8425 34.5901 24.8434 34.5562C24.8443 34.5223 24.8515 34.4215 24.8594 34.3324C24.8954 33.9227 24.8821 33.7789 24.8065 33.7605C24.7501 33.7467 24.7234 33.7724 24.6951 33.8678ZM23.6394 33.8093C23.4899 33.8151 23.2659 33.8062 23.1415 33.7895C22.8142 33.7454 22.5881 33.8358 22.3906 34.0896C22.3039 34.2009 22.2151 34.3294 22.1932 34.3751C22.1712 34.4209 22.1146 34.5421 22.0674 34.6444C21.9834 34.8265 21.855 35.0634 21.5023 35.6865C21.406 35.8566 21.2557 36.1273 21.1683 36.2882C21.0809 36.449 20.9953 36.6052 20.9782 36.6351C20.9487 36.6866 21.2243 37.0265 21.3131 37.0482C21.3333 37.0531 21.3675 37.0854 21.3892 37.12C21.4108 37.1547 21.4887 37.2418 21.5623 37.3136C22.0727 37.8122 22.2903 38.1183 22.3596 38.4348C22.3879 38.5643 22.406 38.695 22.3996 38.7254C22.3864 38.7888 22.7127 38.4235 22.7586 38.3235C22.7753 38.2871 22.8497 38.179 22.9239 38.0833C23.0442 37.9281 23.4416 37.3725 23.466 37.3254C23.4712 37.3153 23.5103 37.2596 23.5529 37.2017C23.6534 37.0649 23.6861 36.8459 23.8093 35.4838C23.8214 35.3501 23.8427 35.1504 23.8567 35.0399C23.8784 34.8673 23.9181 34.4651 23.9405 34.1908C23.9612 33.9376 23.96 33.8027 23.937 33.8009C23.9227 33.7997 23.7888 33.8035 23.6394 33.8093ZM21.5105 33.7528C21.4604 33.7916 21.3324 33.9854 21.2665 34.1219C21.2264 34.2051 20.9636 34.6695 20.8261 34.9003C20.7728 34.9898 20.6554 35.2033 20.5651 35.3749C19.8902 36.6576 19.7442 36.8286 19.0187 37.1862C18.9457 37.2222 18.6739 37.376 18.4147 37.5281C18.0621 37.7349 17.9374 37.8294 17.9193 37.9037C17.8977 37.9924 17.9072 38.003 18.009 38.0028C18.0716 38.0027 18.1874 37.9673 18.2663 37.9242C18.3451 37.881 18.58 37.7522 18.7881 37.6379C19.2163 37.4028 19.3777 37.3517 19.5226 37.4056C19.6531 37.4541 19.7362 37.6793 19.7263 37.9572C19.7221 38.0744 19.7172 38.2164 19.7152 38.2729C19.7133 38.3293 19.7065 38.4767 19.7 38.6004C19.6877 38.8336 19.7296 39.0217 19.7974 39.0383C19.8908 39.0611 19.9669 38.8599 19.9714 38.5789C19.9774 38.2027 20.0804 37.7883 20.1924 37.69C20.2643 37.6268 20.3024 37.6236 20.4221 37.6704C20.5624 37.7253 20.9538 38.0107 20.981 38.0779C21.0209 38.1766 21.3605 38.4786 21.4774 38.5194C21.601 38.5626 21.6123 38.5587 21.6091 38.4746C21.6048 38.3638 21.4576 38.1453 21.3019 38.0187C21.2396 37.9681 21.1713 37.8989 21.1501 37.8649C21.1288 37.831 20.9374 37.6332 20.7246 37.4255C20.2943 37.0053 20.2063 36.8469 20.2663 36.6009C20.3067 36.4355 20.3577 36.3383 21.0047 35.1924C21.0216 35.1623 21.1202 34.9815 21.2239 34.7904C21.546 34.1966 21.6902 33.9347 21.7417 33.8506C21.7856 33.7791 21.7779 33.7663 21.6763 33.7415C21.613 33.726 21.5384 33.7311 21.5105 33.7528Z" fill="white"/>
</svg>
