<svg width="50" height="50" viewBox="0 0 50 50" fill="none" xmlns="http://www.w3.org/2000/svg">
<rect x="1" y="1" width="48" height="48" rx="24" fill="#FF8189"/>
<rect x="1" y="1" width="48" height="48" rx="24" stroke="#FF8189" stroke-width="2"/>
<path fill-rule="evenodd" clip-rule="evenodd" d="M30.3283 10.9929C29.893 10.9455 29.1116 10.9484 28.7327 10.9987C28.615 11.0143 28.292 11.0781 28.0149 11.1404C27.0311 11.3616 26.3787 11.6581 25.4139 12.3223C25.1258 12.5207 25.0299 12.5976 24.8274 12.793C24.7897 12.8293 24.7474 12.8656 24.7333 12.8735C24.6805 12.9033 24.3671 13.2294 24.1622 13.4678C23.5108 14.2252 23.0309 15.066 22.4136 16.5306C22.3919 16.5823 22.3396 16.7186 22.2975 16.8335C22.2554 16.9485 22.2017 17.0938 22.1783 17.1564C22.1548 17.219 22.0894 17.4049 22.0329 17.5695C21.9672 17.7612 21.91 17.8714 21.8738 17.876C21.8427 17.8799 21.6502 17.7824 21.4458 17.6593C20.8597 17.3059 19.9173 16.8252 19.4836 16.6584C19.4003 16.6264 19.2983 16.5861 19.2569 16.569C19.16 16.5289 18.5805 16.3097 18.2146 16.1746C17.4157 15.8797 15.4532 15.4169 14.372 15.2683C14.1659 15.24 13.8715 15.1975 13.7179 15.1739C13.3312 15.1143 13.1436 15.1236 13.0488 15.2068C12.9426 15.3001 12.9235 15.3914 12.9562 15.65C12.9877 15.8992 13.2183 16.8929 13.2609 16.9631C13.2769 16.9894 13.2851 17.0312 13.279 17.056C13.2655 17.1114 13.7067 18.5656 13.7831 18.7176C13.7988 18.7489 13.8094 18.7843 13.8065 18.7961C13.7978 18.8316 13.9848 19.2953 14.0169 19.3181C14.0332 19.3297 14.0412 19.3609 14.0348 19.3875C14.0283 19.4141 14.0636 19.519 14.1133 19.6206C14.1629 19.7222 14.2566 19.9301 14.3214 20.0826C14.3861 20.235 14.4515 20.3856 14.4665 20.4172C14.4816 20.4488 14.5179 20.5291 14.5472 20.5957C14.5765 20.6623 14.6388 20.7887 14.6856 20.8767C14.7325 20.9646 14.834 21.1591 14.9113 21.309C15.1084 21.6911 15.6581 22.5939 15.9289 22.9802C16.0541 23.1588 16.1779 23.3381 16.2041 23.3786C16.2303 23.4192 16.3779 23.6219 16.5321 23.8292C16.6864 24.0364 16.8522 24.2679 16.9007 24.3436C16.9492 24.4193 17.0012 24.4842 17.0163 24.4879C17.0809 24.5036 17.0561 24.6265 16.987 24.6335C16.9465 24.6376 16.8207 24.6771 16.7075 24.7213C16.4986 24.8027 15.6984 25.0356 15.6598 25.0262C15.6482 25.0234 15.5169 25.0447 15.368 25.0736C14.8823 25.1679 14.756 25.187 14.3908 25.2214C13.9015 25.2676 13.1337 25.2853 12.8084 25.2579C12.7303 25.2513 12.5104 25.2364 12.3196 25.2248C11.5807 25.1799 10.2075 24.873 9.14961 24.5162C8.23491 24.2077 8.06373 24.2387 8.14063 24.6991C8.16479 24.8438 8.26153 25.047 8.45219 25.3533C8.78813 25.8931 9.02119 26.242 9.18255 26.4467C9.24926 26.5313 9.31907 26.6229 9.3377 26.6502C9.57356 26.9961 9.9143 27.4273 10.2092 27.7532C10.2488 27.797 10.355 27.9222 10.4451 28.0313C10.5351 28.1404 10.6776 28.2954 10.7615 28.3758C10.8455 28.4561 10.9206 28.5337 10.9285 28.5483C10.9474 28.5836 11.1925 28.8401 11.2583 28.8933C11.2868 28.9165 11.416 29.0359 11.5454 29.1588C11.6749 29.2816 11.8504 29.4404 11.9355 29.5116C12.0206 29.5828 12.0963 29.6541 12.1038 29.67C12.1232 29.7113 12.7921 30.2471 12.8383 30.2584C12.8594 30.2636 12.9251 30.3103 12.9843 30.3623C13.2103 30.5609 13.2752 30.6085 13.6745 30.8685C14.1074 31.1504 14.9607 31.6658 15.1179 31.7403C15.1689 31.7645 15.2848 31.8239 15.3755 31.8723C15.6207 32.0032 15.6672 32.0255 15.9128 32.1308C16.0365 32.1838 16.1954 32.2578 16.266 32.2953C16.405 32.3691 16.4988 32.4083 16.9611 32.5857C17.9862 32.979 18.3701 33.0976 19.5738 33.3926C20.6688 33.6609 20.7376 33.6822 20.6965 33.7402C20.6725 33.7742 20.6033 33.9017 20.5428 34.0236C20.4403 34.23 20.0668 34.9085 19.9198 35.1551C19.8843 35.2148 19.7911 35.397 19.7128 35.56C19.4627 36.0806 19.2311 36.3124 18.6703 36.6032C18.1788 36.8582 17.524 37.2679 17.4015 37.3973C17.1002 37.7154 17.1002 38.1973 17.4014 38.499C17.697 38.7949 18.1283 38.793 18.6642 38.4936C18.8216 38.4056 18.9667 38.3438 18.9865 38.3563C19.0064 38.3688 19.0206 38.4336 19.018 38.5003C19.0111 38.6832 19.087 39.2459 19.1339 39.3592C19.2076 39.5375 19.3401 39.6318 19.6212 39.7059C19.9741 39.7991 20.1579 39.7398 20.3735 39.4635C20.4574 39.3558 20.5365 39.2261 20.5492 39.1751C20.5619 39.1241 20.5988 39.0203 20.6311 38.9444C20.6869 38.8138 20.695 38.8098 20.7821 38.8698C20.8328 38.9047 20.8938 38.9596 20.9178 38.9919C21.0561 39.1782 21.4644 39.3236 21.6975 39.2696C21.8676 39.2302 22.0979 39.1051 22.1128 39.0439C22.1188 39.0195 22.1723 38.9719 22.2317 38.9383L22.3398 38.8772L22.2968 39.0609C22.2065 39.4472 22.4099 39.8198 22.7882 39.9611C22.9544 40.0231 23.0226 40.0266 23.2175 39.9827C23.4341 39.9339 23.7165 39.7475 23.7687 39.6189C23.7797 39.5918 23.8265 39.5341 23.8729 39.4908C23.9563 39.4127 24.0609 39.2656 24.0815 39.1974C24.1134 39.0917 24.1964 39.1872 24.293 39.4411C24.4497 39.8525 24.5018 39.9389 24.6716 40.0676C24.8754 40.2222 25.0041 40.2469 25.3049 40.1894C25.7566 40.103 25.945 39.8186 25.9122 39.2728C25.9027 39.1151 25.8966 38.9791 25.8987 38.9704C25.9008 38.9618 26.0492 38.9934 26.2284 39.0408C26.7258 39.1721 27.026 39.0776 27.2628 38.715C27.52 38.3214 27.322 37.7406 26.8662 37.5517C26.8145 37.5303 26.6711 37.4691 26.5475 37.4157C26.4239 37.3623 26.213 37.2721 26.0788 37.2153C25.9447 37.1585 25.7177 37.0612 25.5744 36.9991L25.3138 36.8862L25.3564 36.3997C25.3797 36.1321 25.4232 35.621 25.4529 35.2639C25.5518 34.0761 25.5833 33.7833 25.6175 33.734C25.6361 33.7071 25.7239 33.6797 25.8125 33.6732C25.9011 33.6666 26.0611 33.646 26.1682 33.6273C26.2752 33.6087 26.4592 33.577 26.577 33.5568C26.9756 33.4889 28.126 33.2132 28.3903 33.1223C28.862 32.9601 29.4704 32.7298 29.5652 32.6774C29.6162 32.6492 29.6715 32.6294 29.688 32.6335C29.7233 32.6421 30.2277 32.3966 30.745 32.1191C31.1631 31.8948 32.1192 31.2549 32.4209 30.9975C32.4784 30.9484 32.5957 30.8497 32.6815 30.7781C32.9607 30.5452 33.2868 30.2492 33.2932 30.2228C33.2967 30.2086 33.368 30.1358 33.4515 30.061C33.6625 29.8722 34.39 29.0301 34.6532 28.67C34.7733 28.5057 34.9073 28.3242 34.9511 28.2665C35.4627 27.5926 36.3365 25.9594 36.6265 25.1353C36.6744 24.999 36.7977 24.6564 36.9004 24.3741C37.0824 23.8736 37.6203 21.7891 37.6461 21.4844C37.6524 21.4104 37.6796 21.2156 37.7066 21.0513C37.7336 20.8871 37.7737 20.6081 37.7956 20.4313C37.8176 20.2545 37.8622 19.9533 37.8947 19.7619L37.9538 19.4141L38.0649 19.4407C39.327 19.7431 39.7137 19.8135 39.9412 19.7821C40.0705 19.7642 40.1809 19.7508 40.1866 19.7522C40.1922 19.7536 40.2103 19.6974 40.2266 19.6274C40.2587 19.4903 40.2228 19.3759 40.1342 19.3324C40.1038 19.3175 40.0567 19.2728 40.0297 19.2331C40.0027 19.1935 39.9492 19.1452 39.911 19.1259C39.8278 19.0839 39.0536 18.5622 38.7056 18.3135C38.5696 18.2163 38.3956 18.1085 38.319 18.0738C38.2424 18.0391 38.1829 17.9976 38.1868 17.9815C38.1963 17.9427 38.4332 17.7295 38.558 17.6476C38.6124 17.6118 38.6601 17.5696 38.664 17.5537C38.6678 17.5378 38.699 17.507 38.7333 17.4852C38.7676 17.4635 38.9126 17.3439 39.0555 17.2194C39.1985 17.0948 39.3552 16.9666 39.4037 16.9342C39.4523 16.902 39.4952 16.8625 39.4991 16.8466C39.503 16.8307 39.534 16.7999 39.5681 16.7781C39.6022 16.7564 39.6705 16.7018 39.7199 16.6569C39.7692 16.6121 39.928 16.4738 40.0726 16.3497C40.2171 16.2256 40.3784 16.0693 40.4308 16.0024C40.5587 15.8394 40.6515 15.5725 40.5989 15.5189C40.5191 15.4375 40.2012 15.3641 40.0169 15.3845C39.9143 15.3959 39.6775 15.4208 39.4906 15.4398C39.154 15.4741 38.9277 15.5055 38.6764 15.5526C38.0589 15.6684 37.8022 15.6994 37.6327 15.6787C37.4633 15.658 37.4148 15.6334 37.2921 15.5062C37.2135 15.4246 37.1149 15.2723 37.0731 15.1678C37.0314 15.0632 36.9612 14.9319 36.9173 14.876C36.8734 14.8201 36.7916 14.7023 36.7357 14.6143C36.6796 14.5262 36.6233 14.4516 36.6105 14.4483C36.5977 14.4451 36.5463 14.3813 36.4962 14.3065C36.3369 14.0683 35.4873 13.1965 35.2335 13.0106C35.1589 12.9559 35.035 12.8621 34.9583 12.802C34.8006 12.6787 33.9685 12.1505 33.8348 12.0889C33.7866 12.0667 33.637 11.9927 33.5023 11.9244C33.1569 11.7493 33.1273 11.7357 32.957 11.6738C32.8733 11.6435 32.651 11.5617 32.4631 11.4921C31.9934 11.3182 30.8407 11.0487 30.3283 10.9929ZM30.7863 11.7456C29.8684 11.669 29.4827 11.6506 29.1695 11.6686C28.9732 11.6799 28.7858 11.6876 28.7531 11.6858C28.7203 11.684 28.6534 11.691 28.6043 11.7013C28.5553 11.7117 28.3439 11.7544 28.1346 11.7963C27.3811 11.9471 26.8113 12.177 26.1707 12.5886C25.666 12.9128 25.5351 13.0167 25.0788 13.4548C24.8756 13.6499 24.5105 14.0739 24.3719 14.2759C24.1203 14.6424 23.8059 15.1203 23.7772 15.1796C23.7592 15.2168 23.7284 15.2745 23.7088 15.3078C23.6892 15.341 23.6482 15.4258 23.6178 15.4962C23.5875 15.5666 23.5527 15.6339 23.5406 15.6458C23.5284 15.6578 23.5003 15.7084 23.478 15.7582C23.4557 15.8082 23.4017 15.9148 23.358 15.9952C23.2923 16.1162 23.0525 16.7171 22.7558 17.5044C22.64 17.8117 22.2066 19.3337 21.9961 20.1721C21.8521 20.746 21.7897 20.9232 21.552 21.434C21.4285 21.6993 21.0798 22.295 20.937 22.4846C20.8935 22.5423 20.8544 22.598 20.8499 22.6083C20.8208 22.6764 20.2067 23.3622 20.1806 23.3558C20.1629 23.3515 20.1435 23.3676 20.1376 23.3918C20.1283 23.4297 19.7313 23.7927 19.5801 23.9014C19.5513 23.9222 19.4702 23.9841 19.3998 24.0392C19.1065 24.2685 18.3401 24.7697 18.2983 24.7595C18.2798 24.755 18.2209 24.7858 18.1671 24.8279C18.1134 24.87 17.9611 24.9486 17.8287 25.0027C17.6962 25.0567 17.5765 25.109 17.5628 25.1188C17.549 25.1287 17.4657 25.1643 17.3778 25.1981C17.2898 25.2319 17.1798 25.2803 17.1333 25.3058C17.0563 25.3481 16.8343 25.4213 16.2536 25.5962C16.0147 25.668 15.3373 25.8121 15.0003 25.8627C14.8972 25.8781 14.1602 25.9475 14.1315 25.9444C14.1204 25.9432 14.0924 25.9433 14.0693 25.9446C13.8308 25.9579 13.5028 25.9616 13.4049 25.9522C13.3382 25.9457 13.2357 25.9457 13.1772 25.9523C13.0585 25.9657 12.5078 25.924 11.8965 25.8554C11.6332 25.8258 11.1048 25.7122 10.3721 25.5275C9.4303 25.2902 9.24848 25.2538 9.23721 25.2999C9.22982 25.3302 9.3662 25.5537 9.54031 25.7968C9.71438 26.0398 9.87162 26.2609 9.8897 26.2881C9.90778 26.3153 9.96278 26.3846 10.012 26.4421C10.0611 26.4997 10.1179 26.5724 10.1381 26.6036C10.1583 26.6348 10.3033 26.8146 10.4603 27.0032C10.6174 27.1917 10.8335 27.4512 10.9405 27.5798C11.0476 27.7084 11.1558 27.8187 11.1809 27.8248C11.2061 27.831 11.2223 27.8536 11.2171 27.8751C11.2118 27.8966 11.2312 27.9199 11.26 27.927C11.289 27.934 11.3529 27.996 11.4021 28.0647C11.4886 28.1855 11.5539 28.2491 12.1818 28.8236C12.7047 29.3019 13.4265 29.8905 13.7172 30.0755C13.8083 30.1335 13.9095 30.2058 13.9422 30.2362C14.0404 30.3277 14.798 30.8028 15.2264 31.0417C15.9047 31.42 16.8921 31.8756 17.4576 32.0712C17.6037 32.1218 17.7574 32.1791 17.7991 32.1987C17.9697 32.2788 18.4894 32.4334 19.1519 32.6011C20.1344 32.8498 20.1219 32.8535 20.4872 32.2089C20.5949 32.0188 20.7068 31.8318 20.7359 31.7934C20.765 31.7549 20.8423 31.6341 20.9078 31.5248C21.0416 31.3012 21.4073 30.7692 21.5902 30.532C21.6567 30.4458 21.7341 30.3436 21.7624 30.3049C21.7906 30.2663 21.9409 30.0794 22.0965 29.8897C22.3509 29.5794 22.5217 29.3889 22.8733 29.0234C22.9354 28.9589 23.0144 28.8757 23.0488 28.8386C23.0832 28.8014 23.2369 28.6559 23.3904 28.5152C23.5438 28.3745 23.6734 28.2431 23.6783 28.2232C23.6831 28.2033 23.7017 28.1905 23.7196 28.1949C23.7375 28.1993 23.8344 28.1251 23.935 28.0301C24.0355 27.9351 24.1524 27.8317 24.1947 27.8002C24.3899 27.6552 24.4287 27.6247 24.5032 27.5581C24.5469 27.519 24.6166 27.4624 24.6581 27.4323C25.3378 26.9401 25.6962 26.7043 26.3303 26.3321C27.0266 25.9234 27.2767 25.7878 27.8389 25.5142C28.0716 25.401 28.356 25.2667 28.4707 25.2158C28.5854 25.165 28.6885 25.111 28.6998 25.0958C28.7112 25.0806 28.7438 25.074 28.7725 25.081C28.8011 25.0879 28.8339 25.0808 28.8454 25.0651C28.8799 25.0177 30.4109 24.4044 30.463 24.4171C30.4993 24.426 30.8672 24.2933 30.8907 24.2628C30.9019 24.2484 30.9253 24.2402 30.9428 24.2445C30.9604 24.2487 31.1035 24.2094 31.2609 24.1571C31.4183 24.1048 31.6147 24.0495 31.6972 24.0343C31.7798 24.0191 31.8803 23.989 31.9206 23.9673C31.9609 23.9457 32.372 23.8419 32.834 23.7367C33.8795 23.4988 34.9874 23.3144 35.9564 23.2171C36.4318 23.1694 36.5452 23.1234 36.6209 22.9477C36.656 22.8663 36.6922 22.7293 36.7014 22.6433C36.7208 22.4633 36.7871 22.0693 36.8982 21.4751C36.9831 21.0212 37.23 19.4038 37.2394 19.2396C37.2427 19.1835 37.2523 19.0664 37.2608 18.9795C37.2873 18.7077 37.2946 17.9108 37.2713 17.8298C37.259 17.7873 37.2569 17.72 37.2666 17.6803C37.2763 17.6406 37.2743 17.5917 37.2621 17.5716C37.2499 17.5516 37.2425 17.5234 37.2457 17.509C37.257 17.4578 37.0987 16.7797 37.0233 16.5565C36.9317 16.2848 36.7233 15.8945 36.3983 15.3858C36.0186 14.7911 35.8883 14.6057 35.8413 14.5931C35.8172 14.5866 35.7829 14.5513 35.7651 14.5147C35.6728 14.3253 34.6146 13.2987 34.477 13.2651C34.4655 13.2623 34.3736 13.1951 34.2728 13.1158C34.1719 13.0365 33.9178 12.8727 33.7082 12.7519C33.3627 12.5528 33.1677 12.458 32.7319 12.2774C32.6517 12.2441 32.5509 12.1992 32.5078 12.1776C32.3507 12.0985 31.023 11.7654 30.7863 11.7456ZM34.7384 14.8624C34.4767 14.8969 34.2664 15.0062 34.1272 15.18C33.8768 15.4926 33.8327 15.8866 34.0136 16.1944C34.2691 16.6292 34.7328 16.7851 35.1713 16.5838C35.4978 16.4339 35.6948 16.1361 35.6985 15.7871C35.7028 15.3702 35.45 15.03 35.0495 14.9136C34.9296 14.8787 34.7896 14.8557 34.7384 14.8624ZM39.1229 16.1826C39.0863 16.1926 38.9221 16.2168 38.7578 16.2364C38.5936 16.2561 38.4009 16.2823 38.3296 16.2947C38.2582 16.3071 38.0988 16.3247 37.9754 16.3339C37.852 16.343 37.738 16.3693 37.722 16.3924C37.685 16.4458 37.884 17.2536 37.9341 17.2531C37.9546 17.2529 38.1174 17.1281 38.2957 16.9758C38.4741 16.8236 38.6437 16.6822 38.6726 16.6618C38.7015 16.6413 38.7275 16.6151 38.7303 16.6035C38.7332 16.5918 38.8433 16.4968 38.975 16.3922C39.212 16.204 39.2519 16.1475 39.1229 16.1826ZM15.1118 16.0787C14.0521 15.8795 13.7583 15.8367 13.6984 15.8732C13.6829 15.8825 13.6852 15.9349 13.7033 15.9895C13.7214 16.0442 13.7627 16.2071 13.7949 16.3517C13.8273 16.4962 13.8627 16.626 13.8736 16.64C13.8846 16.6541 13.905 16.715 13.919 16.7753C13.9468 16.8953 13.9784 17.0047 14.1087 17.4312C14.1562 17.5866 14.1927 17.7231 14.1899 17.7346C14.1871 17.7461 14.2487 17.9326 14.3268 18.149C14.4049 18.3654 14.4727 18.5647 14.4775 18.5917C14.4822 18.6189 14.5128 18.7014 14.5453 18.7752C14.5778 18.8491 14.6558 19.0431 14.7185 19.2065C14.9726 19.8677 15.0438 20.0325 15.3083 20.5728C15.6955 21.3638 16.6774 22.9674 16.9317 23.2243C16.9758 23.2688 17.0085 23.3187 17.0045 23.3352C17.0005 23.3517 17.0155 23.3697 17.0379 23.3752C17.0603 23.3806 17.0957 23.4073 17.1166 23.4343C17.1375 23.4614 17.2039 23.5488 17.2641 23.6286C17.4642 23.8933 17.7553 24.2128 17.8083 24.2258C17.8735 24.2417 18.746 23.7115 18.9915 23.5067C19.0916 23.4232 19.1968 23.3381 19.2252 23.3175C19.3316 23.2404 19.7979 22.7918 19.8803 22.6873C19.9274 22.6276 20.0102 22.5337 20.0643 22.4786C20.1754 22.3655 20.6564 21.6843 20.7251 21.5426C20.7498 21.4917 20.7874 21.417 20.8086 21.3767C21.201 20.6322 21.5123 19.6808 21.5901 18.9882C21.6359 18.5804 21.5674 18.4887 20.9635 18.1505C20.3261 17.7935 19.7609 17.5111 19.3197 17.3294C19.1128 17.2441 18.9095 17.1585 18.8679 17.1391C18.8263 17.1197 18.6904 17.0657 18.5659 17.0191C18.4414 16.9725 18.2884 16.9151 18.2258 16.8916C18.079 16.8362 16.1744 16.3062 15.8414 16.2279C15.7014 16.195 15.3731 16.1279 15.1118 16.0787ZM36.1257 23.8792C36.0212 23.8874 35.9169 23.8951 35.8938 23.8963C35.8708 23.8974 35.7971 23.9066 35.7301 23.9166C35.6631 23.9267 35.5103 23.942 35.3905 23.9507C35.2708 23.9594 35.1228 23.9837 35.0617 24.0047C35.0007 24.0258 34.9513 24.0372 34.952 24.0302C34.9538 24.012 34.8163 24.0274 34.567 24.0734C34.4477 24.0954 34.1941 24.1421 34.0033 24.1772C33.5329 24.2638 32.4605 24.5191 32.3021 24.5822C32.2314 24.6104 32.1768 24.619 32.1808 24.6013C32.1847 24.5836 32.1706 24.5845 32.1493 24.6033C32.1279 24.6221 32.0417 24.651 31.9575 24.6677C31.8734 24.6843 31.7271 24.7269 31.6324 24.7621C31.5378 24.7974 31.4435 24.8222 31.423 24.8172C31.4024 24.8121 31.3813 24.8256 31.3761 24.8471C31.3708 24.8686 31.348 24.8817 31.3254 24.8762C31.3028 24.8706 31.1478 24.9139 30.981 24.9722C30.8143 25.0306 30.6283 25.0904 30.5677 25.1052C30.5072 25.12 30.4462 25.1409 30.4322 25.1516C30.4182 25.1623 30.1815 25.254 29.9063 25.3554C29.631 25.4568 29.3091 25.5874 29.1909 25.6458C29.0727 25.7041 28.9566 25.747 28.9329 25.7412C28.9093 25.7355 28.8808 25.7425 28.8697 25.7568C28.8586 25.7712 28.7555 25.8244 28.6407 25.875C27.7318 26.2759 26.1163 27.2057 25.461 27.7053C25.3631 27.7799 25.2601 27.8566 25.2322 27.8755C25.0925 27.9705 24.5517 28.3976 24.4259 28.5123C24.3471 28.5842 24.2124 28.7003 24.1265 28.7704C24.0407 28.8406 23.9522 28.9215 23.9299 28.9502C23.9076 28.9789 23.7868 29.0985 23.6614 29.2159C23.1739 29.6721 21.8641 31.2183 21.7514 31.4708C21.7402 31.4959 21.7158 31.5256 21.6972 31.5369C21.6786 31.5482 21.6572 31.5827 21.6497 31.6135C21.6422 31.6442 21.5969 31.7186 21.549 31.7786C21.3781 31.9931 20.9247 32.7532 20.8827 32.8955C20.871 32.935 21.1698 33.0029 21.3716 33.0066C21.4623 33.0083 21.6094 33.0164 21.6985 33.0247C22.2249 33.0734 23.6616 33.1327 24.1376 33.1253C24.5899 33.1183 25.7214 33.0323 26.0004 32.9836C26.1038 32.9656 26.3434 32.9266 26.5329 32.8969C28.2274 32.6314 30.1349 31.8499 31.5261 30.8509C31.6772 30.7424 31.8245 30.6386 31.8533 30.6203C32.0107 30.5203 32.6843 29.9273 33.0172 29.5955C33.6656 28.9495 34.4269 27.9675 34.8257 27.2629C34.9333 27.0728 35.044 26.8855 35.0717 26.8467C35.1233 26.7745 35.2002 26.6272 35.2731 26.4611C35.2956 26.4097 35.3426 26.3187 35.3775 26.2589C35.5735 25.9228 36.0693 24.7345 36.33 23.976C36.3712 23.856 36.378 23.8593 36.1257 23.8792ZM24.6951 33.8677C24.6238 34.1088 24.5752 34.489 24.5067 35.3434C24.4861 35.6003 24.4524 35.9274 24.4319 36.0705C24.4114 36.2135 24.3935 36.4141 24.3921 36.5162C24.3907 36.6183 24.3489 36.8783 24.2993 37.094C24.2288 37.4003 24.185 37.5163 24.0988 37.6247C24.0381 37.701 23.8981 37.8762 23.7876 38.014C23.6771 38.1519 23.584 38.2754 23.5808 38.2886C23.5739 38.317 23.4408 38.4908 23.2087 38.7745C23.0388 38.9822 22.9404 39.2259 23.0188 39.245C23.1278 39.2716 23.2327 39.1925 23.4413 38.9265C23.5659 38.7675 23.7057 38.5954 23.7519 38.544C23.7981 38.4926 23.8527 38.4139 23.8733 38.3691C23.9414 38.2203 24.1921 38.0627 24.3295 38.0821C24.4313 38.0965 24.4786 38.1364 24.5712 38.286C24.6345 38.3883 24.7129 38.5717 24.7455 38.6935C24.7781 38.8154 24.8288 38.9594 24.8583 39.0136C24.8877 39.0678 24.9087 39.1249 24.9048 39.1406C24.901 39.1562 24.9109 39.1947 24.9268 39.2261C24.9427 39.2574 24.97 39.3174 24.9875 39.3592C25.0049 39.401 25.054 39.4555 25.0966 39.4803C25.1581 39.5161 25.1839 39.5065 25.2225 39.4333C25.259 39.364 25.2495 39.287 25.184 39.1224C25.0654 38.8244 24.9617 38.4328 24.9757 38.3357C25.0118 38.0843 25.0555 38.0134 25.187 37.9931C25.3088 37.9743 25.6845 38.0741 25.9628 38.1994C26.1917 38.3023 26.3712 38.3563 26.5195 38.367L26.6796 38.3786L26.5806 38.2432C26.5177 38.1574 26.4161 38.0825 26.3021 38.0382C26.2034 37.9998 26.0387 37.9309 25.936 37.885C25.8334 37.8391 25.69 37.7775 25.6175 37.7481C25.545 37.7186 25.3843 37.6519 25.2603 37.5998C25.1364 37.5477 24.9735 37.4795 24.8983 37.4482C24.7298 37.3779 24.6048 37.1817 24.6206 37.0125C24.6271 36.9426 24.65 36.6941 24.6714 36.4602C24.6929 36.2263 24.7191 35.9626 24.7297 35.8741C24.7404 35.7856 24.7582 35.5664 24.7694 35.3869C24.7806 35.2074 24.8015 34.9609 24.8158 34.8392C24.83 34.7174 24.8425 34.59 24.8434 34.5561C24.8443 34.5221 24.8515 34.4214 24.8594 34.3322C24.8954 33.9226 24.8821 33.7788 24.8065 33.7604C24.7501 33.7466 24.7234 33.7723 24.6951 33.8677ZM23.6394 33.8092C23.4899 33.815 23.2659 33.806 23.1415 33.7893C22.8142 33.7453 22.5881 33.8357 22.3906 34.0895C22.3039 34.2008 22.2151 34.3293 22.1932 34.375C22.1712 34.4208 22.1146 34.542 22.0674 34.6443C21.9834 34.8264 21.855 35.0633 21.5023 35.6864C21.406 35.8565 21.2557 36.1272 21.1683 36.2881C21.0809 36.4489 20.9953 36.605 20.9782 36.635C20.9487 36.6865 21.2243 37.0264 21.3131 37.048C21.3333 37.053 21.3675 37.0853 21.3892 37.1199C21.4108 37.1545 21.4887 37.2416 21.5623 37.3135C22.0727 37.8121 22.2903 38.1182 22.3596 38.4347C22.3879 38.5642 22.406 38.6949 22.3996 38.7253C22.3864 38.7887 22.7127 38.4234 22.7586 38.3234C22.7753 38.287 22.8497 38.1789 22.9239 38.0831C23.0442 37.928 23.4416 37.3723 23.466 37.3253C23.4712 37.3152 23.5103 37.2595 23.5529 37.2016C23.6534 37.0648 23.6861 36.8458 23.8093 35.4837C23.8214 35.35 23.8427 35.1502 23.8567 35.0398C23.8784 34.8672 23.9181 34.4649 23.9405 34.1907C23.9612 33.9375 23.96 33.8026 23.937 33.8008C23.9227 33.7996 23.7888 33.8034 23.6394 33.8092ZM21.5105 33.7527C21.4604 33.7915 21.3324 33.9852 21.2665 34.1218C21.2264 34.205 20.9636 34.6694 20.8261 34.9002C20.7728 34.9897 20.6554 35.2032 20.5651 35.3748C19.8902 36.6575 19.7442 36.8285 19.0187 37.1861C18.9457 37.2221 18.6739 37.3759 18.4147 37.5279C18.0621 37.7348 17.9374 37.8293 17.9193 37.9036C17.8977 37.9923 17.9072 38.0029 18.009 38.0027C18.0716 38.0026 18.1874 37.9672 18.2663 37.9241C18.3451 37.8809 18.58 37.7521 18.7881 37.6378C19.2163 37.4027 19.3777 37.3516 19.5226 37.4055C19.6531 37.454 19.7362 37.6792 19.7263 37.9571C19.7221 38.0742 19.7172 38.2163 19.7152 38.2728C19.7133 38.3292 19.7065 38.4766 19.7 38.6003C19.6877 38.8334 19.7296 39.0216 19.7974 39.0381C19.8908 39.0609 19.9669 38.8598 19.9714 38.5788C19.9774 38.2026 20.0804 37.7881 20.1924 37.6899C20.2643 37.6267 20.3024 37.6235 20.4221 37.6703C20.5624 37.7252 20.9538 38.0105 20.981 38.0778C21.0209 38.1765 21.3605 38.4784 21.4774 38.5193C21.601 38.5625 21.6123 38.5586 21.6091 38.4744C21.6048 38.3637 21.4576 38.1452 21.3019 38.0186C21.2396 37.968 21.1713 37.8988 21.1501 37.8648C21.1288 37.8308 20.9374 37.6331 20.7246 37.4254C20.2943 37.0052 20.2063 36.8468 20.2663 36.6007C20.3067 36.4354 20.3577 36.3381 21.0047 35.1922C21.0216 35.1622 21.1202 34.9813 21.2239 34.7903C21.546 34.1965 21.6902 33.9346 21.7417 33.8505C21.7856 33.7789 21.7779 33.7662 21.6763 33.7414C21.613 33.7259 21.5384 33.731 21.5105 33.7527Z" fill="white"/>
</svg>
