<svg width="20" height="22" viewBox="0 0 20 22" fill="none" xmlns="http://www.w3.org/2000/svg">
<path d="M19.5652 3.47826H14.7826V2.17391C14.7826 1.59736 14.5536 1.04441 14.1459 0.636724C13.7382 0.229037 13.1853 0 12.6087 0H7.3913C6.81475 0 6.2618 0.229037 5.85412 0.636724C5.44643 1.04441 5.21739 1.59736 5.21739 2.17391V3.47826H0.434783C0.319471 3.47826 0.208883 3.52407 0.127345 3.60561C0.0458074 3.68714 0 3.79773 0 3.91304C0 4.02835 0.0458074 4.13894 0.127345 4.22048C0.208883 4.30202 0.319471 4.34783 0.434783 4.34783H1.73913V20.4348C1.73913 20.7807 1.87655 21.1125 2.12116 21.3571C2.36578 21.6017 2.69754 21.7391 3.04348 21.7391H16.9565C17.3025 21.7391 17.6342 21.6017 17.8788 21.3571C18.1234 21.1125 18.2609 20.7807 18.2609 20.4348V4.34783H19.5652C19.6805 4.34783 19.7911 4.30202 19.8727 4.22048C19.9542 4.13894 20 4.02835 20 3.91304C20 3.79773 19.9542 3.68714 19.8727 3.60561C19.7911 3.52407 19.6805 3.47826 19.5652 3.47826ZM6.08696 2.17391C6.08696 1.82798 6.22438 1.49621 6.46899 1.2516C6.7136 1.00699 7.04537 0.869565 7.3913 0.869565H12.6087C12.9546 0.869565 13.2864 1.00699 13.531 1.2516C13.7756 1.49621 13.913 1.82798 13.913 2.17391V3.47826H6.08696V2.17391ZM17.3913 20.4348C17.3913 20.5501 17.3455 20.6607 17.264 20.7422C17.1824 20.8238 17.0718 20.8696 16.9565 20.8696H3.04348C2.92817 20.8696 2.81758 20.8238 2.73604 20.7422C2.6545 20.6607 2.6087 20.5501 2.6087 20.4348V4.34783H17.3913V20.4348ZM7.82609 9.13043V16.087C7.82609 16.2023 7.78028 16.3129 7.69874 16.3944C7.6172 16.4759 7.50662 16.5217 7.3913 16.5217C7.27599 16.5217 7.1654 16.4759 7.08387 16.3944C7.00233 16.3129 6.95652 16.2023 6.95652 16.087V9.13043C6.95652 9.01512 7.00233 8.90453 7.08387 8.823C7.1654 8.74146 7.27599 8.69565 7.3913 8.69565C7.50662 8.69565 7.6172 8.74146 7.69874 8.823C7.78028 8.90453 7.82609 9.01512 7.82609 9.13043ZM13.0435 9.13043V16.087C13.0435 16.2023 12.9977 16.3129 12.9161 16.3944C12.8346 16.4759 12.724 16.5217 12.6087 16.5217C12.4934 16.5217 12.3828 16.4759 12.3013 16.3944C12.2197 16.3129 12.1739 16.2023 12.1739 16.087V9.13043C12.1739 9.01512 12.2197 8.90453 12.3013 8.823C12.3828 8.74146 12.4934 8.69565 12.6087 8.69565C12.724 8.69565 12.8346 8.74146 12.9161 8.823C12.9977 8.90453 13.0435 9.01512 13.0435 9.13043Z" fill="#002053"/>
</svg>
