<svg width="38" height="38" viewBox="0 0 38 38" fill="none" xmlns="http://www.w3.org/2000/svg">
<path d="M13.9528 24.0761C16.4749 24.0805 18.9095 23.1523 20.7886 21.4701L23.0526 23.7341L21.9598 24.827C21.8529 24.9339 21.7929 25.0788 21.7929 25.23C21.7929 25.3811 21.8529 25.5261 21.9598 25.633L29.4393 33.111C29.9441 33.6087 30.6253 33.8867 31.3343 33.8842C32.0432 33.8817 32.7224 33.599 33.2237 33.0977C33.725 32.5964 34.0078 31.9172 34.0103 31.2082C34.0127 30.4993 33.7348 29.8181 33.237 29.3133L25.7575 21.8341C25.6506 21.7272 25.5056 21.6672 25.3545 21.6672C25.2034 21.6672 25.0584 21.7272 24.9515 21.8341L23.8586 22.9266L21.5946 20.6629C23.3755 18.673 24.3099 16.0668 24.1989 13.3986C24.0879 10.7304 22.9403 8.21081 21.0002 6.37571C19.0601 4.54061 16.4806 3.53483 13.8104 3.5723C11.1401 3.60977 8.58985 4.68753 6.70201 6.57634C5.26737 8.00978 4.29024 9.83662 3.89428 11.8256C3.49832 13.8146 3.70133 15.8764 4.47762 17.75C5.25391 19.6236 6.56859 21.2247 8.25525 22.3508C9.94192 23.4769 11.9247 24.0774 13.9528 24.0761ZM25.3528 23.0429L32.431 30.1192C32.7204 30.4094 32.8828 30.8024 32.8828 31.2121C32.8828 31.6219 32.7204 32.0149 32.431 32.305C32.1412 32.5948 31.7482 32.7575 31.3384 32.7575C30.9285 32.7575 30.5355 32.5948 30.2457 32.305L23.1689 25.2286L25.3528 23.0429ZM7.50799 7.38232C8.78262 6.10761 10.4066 5.23951 12.1747 4.88779C13.9427 4.53608 15.7753 4.71654 17.4407 5.40637C19.1062 6.09619 20.5297 7.26439 21.5312 8.76324C22.5327 10.2621 23.0672 12.0243 23.0672 13.8269C23.0672 15.6296 22.5327 17.3918 21.5312 18.8906C20.5297 20.3895 19.1062 21.5577 17.4407 22.2475C15.7753 22.9373 13.9427 23.1178 12.1747 22.7661C10.4066 22.4143 8.78262 21.5462 7.50799 20.2715C6.65815 19.4272 5.98371 18.4231 5.52347 17.3171C5.06323 16.211 4.8263 15.0249 4.8263 13.8269C4.8263 12.629 5.06323 11.4428 5.52347 10.3368C5.98371 9.23075 6.65815 8.22666 7.50799 7.38232Z" fill="#003996"/>
<path d="M17.9284 8.53927C18.7509 9.153 19.4181 9.95101 19.8764 10.8692C20.3347 11.7875 20.5714 12.8003 20.5675 13.8266C20.5675 13.9778 20.6275 14.1227 20.7344 14.2296C20.8413 14.3365 20.9863 14.3966 21.1375 14.3966C21.2887 14.3966 21.4336 14.3365 21.5405 14.2296C21.6474 14.1227 21.7075 13.9778 21.7075 13.8266C21.7121 12.6236 21.4347 11.4362 20.8974 10.3598C20.3602 9.28339 19.5781 8.3479 18.6139 7.62841C18.493 7.5377 18.341 7.49876 18.1913 7.52014C18.0416 7.54151 17.9066 7.62147 17.8159 7.74241C17.7252 7.86335 17.6863 8.01536 17.7076 8.16502C17.729 8.31467 17.809 8.4497 17.9299 8.54041L17.9284 8.53927Z" fill="#003996"/>
<path d="M13.9528 7.21202C14.6006 7.21154 15.245 7.30602 15.8654 7.49246C16.0101 7.53615 16.1662 7.52056 16.2995 7.44912C16.4327 7.37768 16.5321 7.25624 16.5758 7.11151C16.6195 6.96679 16.6039 6.81064 16.5324 6.67741C16.461 6.54418 16.3395 6.44479 16.1948 6.4011C15.4676 6.1824 14.7122 6.07153 13.9528 6.07202C13.8016 6.07202 13.6567 6.13208 13.5498 6.23897C13.4429 6.34587 13.3828 6.49085 13.3828 6.64202C13.3828 6.7932 13.4429 6.93818 13.5498 7.04507C13.6567 7.15197 13.8016 7.21202 13.9528 7.21202Z" fill="#003996"/>
</svg>
