<svg width="38" height="38" viewBox="0 0 38 38" fill="none" xmlns="http://www.w3.org/2000/svg">
<path d="M25.642 14.218C25.2984 14.2179 24.9626 14.3198 24.6769 14.5106C24.3912 14.7014 24.1685 14.9727 24.037 15.2901C23.9054 15.6075 23.871 15.9568 23.938 16.2938C24.005 16.6307 24.1705 16.9403 24.4134 17.1832C24.6564 17.4262 24.9659 17.5916 25.3029 17.6586C25.6398 17.7256 25.9891 17.6912 26.3065 17.5597C26.6239 17.4282 26.8952 17.2055 27.086 16.9198C27.2769 16.6341 27.3787 16.2982 27.3786 15.9546C27.3781 15.4942 27.195 15.0528 26.8694 14.7272C26.5439 14.4016 26.1024 14.2185 25.642 14.218ZM25.642 16.5516C25.5239 16.5517 25.4085 16.5167 25.3103 16.4512C25.212 16.3856 25.1355 16.2924 25.0902 16.1833C25.045 16.0743 25.0331 15.9542 25.0561 15.8384C25.0791 15.7226 25.1359 15.6162 25.2194 15.5326C25.3029 15.4491 25.4092 15.3922 25.525 15.3691C25.6409 15.3461 25.7609 15.3579 25.87 15.403C25.9791 15.4482 26.0724 15.5247 26.138 15.6229C26.2036 15.7211 26.2386 15.8365 26.2386 15.9546C26.2385 16.1128 26.1756 16.2646 26.0638 16.3765C25.9519 16.4884 25.8003 16.5514 25.642 16.5516Z" fill="#003996"/>
<path d="M12.358 14.218C12.0144 14.218 11.6786 14.3199 11.3929 14.5108C11.1072 14.7017 10.8846 14.973 10.7532 15.2904C10.6217 15.6078 10.5873 15.9571 10.6544 16.294C10.7214 16.631 10.8869 16.9405 11.1299 17.1834C11.3728 17.4263 11.6824 17.5917 12.0193 17.6586C12.3563 17.7256 12.7055 17.6912 13.0229 17.5596C13.3403 17.4281 13.6116 17.2054 13.8024 16.9197C13.9932 16.634 14.095 16.2982 14.0949 15.9546C14.0944 15.4941 13.9113 15.0527 13.5856 14.7271C13.26 14.4015 12.8184 14.2184 12.358 14.218ZM12.358 16.5516C12.2399 16.5516 12.1245 16.5166 12.0263 16.451C11.9281 16.3854 11.8516 16.2922 11.8064 16.1831C11.7612 16.074 11.7494 15.954 11.7724 15.8382C11.7955 15.7223 11.8523 15.616 11.9358 15.5325C12.0193 15.449 12.1257 15.3921 12.2415 15.3691C12.3573 15.3461 12.4773 15.3579 12.5864 15.4031C12.6955 15.4483 12.7887 15.5248 12.8543 15.623C12.9199 15.7211 12.9549 15.8365 12.9549 15.9546C12.9548 16.1129 12.8919 16.2647 12.78 16.3766C12.668 16.4886 12.5163 16.5515 12.358 16.5516Z" fill="#003996"/>
<path d="M6.63665 34.3417H31.3633C31.5144 34.3417 31.6594 34.2817 31.7663 34.1748C31.8732 34.0679 31.9333 33.9229 31.9333 33.7717V12.16C31.9333 12.0088 31.8732 11.8638 31.7663 11.7569C31.6594 11.65 31.5144 11.59 31.3633 11.59H26.212V10.8722C26.212 8.95943 25.4521 7.12502 24.0996 5.77251C22.7471 4.41999 20.9127 3.66016 19 3.66016C17.0872 3.66016 15.2528 4.41999 13.9003 5.77251C12.5478 7.12502 11.7879 8.95943 11.7879 10.8722V11.59H6.63665C6.48548 11.59 6.3405 11.65 6.2336 11.7569C6.1267 11.8638 6.06665 12.0088 6.06665 12.16V33.7717C6.06665 33.9229 6.1267 34.0679 6.2336 34.1748C6.3405 34.2817 6.48548 34.3417 6.63665 34.3417ZM12.9279 10.8722C12.9279 9.26178 13.5677 7.71733 14.7064 6.57861C15.8451 5.43989 17.3896 4.80016 19 4.80016C20.6104 4.80016 22.1548 5.43989 23.2935 6.57861C24.4322 7.71733 25.072 9.26178 25.072 10.8722V11.59H12.9279V10.8722ZM7.20665 12.73H30.7933V29.5089H7.20665V12.73ZM7.20665 30.65H30.7933V33.2029H7.20665V30.65Z" fill="#003996"/>
</svg>
