<svg width="159" height="158" viewBox="0 0 159 158" fill="none" xmlns="http://www.w3.org/2000/svg">
<path opacity="0.8" d="M133.772 157.025C132.752 154.987 129.185 150.655 127.911 149.126C132.243 150.4 136.575 151.419 140.142 151.419L146.258 149.381C147.532 147.087 146.513 143.01 141.161 135.875C144.984 138.678 148.296 137.149 152.373 139.952C148.296 132.053 158.999 133.582 158.999 129.25L28.2769 1.07666L26.2386 3.36993C26.2386 7.95665 26.2384 12.7983 25.474 13.8176C23.1806 16.6206 17.5748 15.6013 13.4977 16.3657L14.7718 20.188C15.791 23.2458 12.988 28.8517 12.4783 31.3999C10.9494 33.1836 10.185 28.0873 8.65606 29.8711C7.63679 31.1452 1.26628 32.4192 -0.0078125 33.9481L125.108 156.77L133.772 157.025Z" fill="#FF81C9"/>
<path opacity="0.85" d="M133.772 154.222C132.753 152.438 129.185 147.851 127.911 146.322C132.243 147.596 136.32 148.616 139.633 148.871L145.494 146.832C146.768 144.793 145.494 140.716 140.397 133.581C144.219 136.384 147.532 134.855 151.354 137.658C147.277 130.014 157.725 131.543 157.725 127.466L28.2772 0.566406L26.2389 2.60492C26.4937 6.93682 26.4935 11.7784 25.7291 12.7976C23.4357 15.6006 18.3393 14.3265 14.2623 14.8362L15.5363 18.6584C16.5556 21.7162 14.0076 27.0675 13.498 29.6157C12.2239 31.1446 11.2046 26.303 9.67572 28.0867C8.65645 29.106 2.54069 30.3801 1.2666 31.909L125.108 153.457L133.772 154.222Z" fill="#FFBEDF"/>
</svg>
