<svg width="68" height="79" viewBox="0 0 68 79" fill="none" xmlns="http://www.w3.org/2000/svg">
<g opacity="0.9">
<path opacity="0.8" d="M67.0981 20.7921L64.9646 19.2502C62.0844 18.6078 58.9909 17.9653 58.0308 17.3229C55.4706 15.524 54.4039 12.4401 52.6971 9.99879L50.6703 10.2559C48.9635 10.3844 44.5898 7.94297 42.7764 7.30051C41.1763 6.14409 44.0565 6.4011 42.563 5.24468C41.4963 4.47374 39.4695 1.64693 38.1894 0.747498L0 56.7696L2.13349 61.3952L7.68055 65.8924L10.9875 69.7471C12.8009 70.7751 13.6543 72.5741 16.5345 70.5182C16.0011 72.4456 20.2681 71.8031 19.7347 73.7305C23.3617 72.4456 26.5619 77.5852 29.3354 78.2277L67.0981 20.7921Z" fill="#FF81C9"/>
<path opacity="0.85" d="M67.0981 20.7917L65.1779 19.2499C62.4044 18.736 59.4175 18.0934 58.5641 17.5795C56.1106 15.9091 55.1505 12.9538 53.5504 10.5125L51.5236 10.7695C49.9235 10.898 45.6565 8.71356 43.9497 8.0711C42.4563 7.04317 45.2298 7.17169 43.7364 6.01527C42.7763 5.37282 39.8961 1.51815 38.7227 0.618713L1.38672 56.6408L3.73355 61.652L8.96059 65.8921L12.0541 69.6183C13.7609 70.6463 14.5076 72.3167 17.2812 70.2608C16.7478 72.1882 20.9081 71.4173 20.3747 73.2162C23.895 71.8028 26.8819 76.8138 29.5487 77.3278L67.0981 20.7917Z" fill="#FFB8DD"/>
</g>
</svg>
