<svg width="46" height="87" viewBox="0 0 46 87" fill="none" xmlns="http://www.w3.org/2000/svg">
<g opacity="0.9">
<path opacity="0.8" d="M13.9855 86.9551L16.3419 85.923C18.4841 83.6007 20.9476 81.0205 21.9115 80.5045C24.6963 79.2143 27.374 80.1174 30.0518 79.9884L31.2299 77.9242C32.1939 76.247 36.4782 73.5377 38.0849 72.2476C39.7986 71.4735 37.8706 74.0538 39.5844 73.2797C40.7625 72.7637 43.8687 72.6347 45.2611 71.9896L32.5152 0.903032L28.2309 0L21.8044 2.45129L17.3059 3.09636C15.485 4.12846 13.7713 3.87037 13.3429 7.86979C12.3789 6.19262 10.2367 10.5791 9.27277 8.90196C7.88036 13.1594 2.52497 13.0304 0.382812 15.2237L13.9855 86.9551Z" fill="#FF81C9"/>
<path opacity="0.85" d="M13.9855 86.9552L16.2348 86.052C18.2698 83.7298 20.5191 81.2785 21.4831 80.8915C24.1608 79.6013 26.6243 80.5045 29.1949 80.5045L30.2659 78.4403C31.1228 76.7632 35.1929 74.1828 36.6924 73.0217C38.299 72.2476 36.4782 74.8279 38.0849 74.0539C39.1559 73.5378 43.4402 73.2798 44.7255 72.6347L31.4441 2.45136L26.7314 1.67731L20.7333 3.99946L16.449 4.64452C14.7353 5.67663 13.1287 5.28959 12.7002 9.16C11.8434 7.48282 9.7012 11.8693 8.84434 10.1922C7.55904 14.3206 2.41787 14.1915 0.382812 16.2557L13.9855 86.9552Z" fill="#FFB8DD"/>
</g>
</svg>
