<svg width="173" height="138" viewBox="0 0 173 138" fill="none" xmlns="http://www.w3.org/2000/svg">
<path opacity="0.8" d="M22.9336 132.506C21.6595 130.977 23.1884 128.938 24.4625 126.9C24.9721 126.135 25.7366 125.116 25.9915 124.352C25.7366 124.352 25.4818 124.352 24.9721 124.352C23.1884 124.352 21.1499 124.607 19.1113 125.116C18.0921 125.371 16.818 125.371 16.0535 125.626H15.2891L11.7216 120.275V119.765C11.7216 118.491 11.9764 117.217 12.2312 115.943C12.7409 113.14 13.2505 110.592 12.2312 109.063C11.7216 108.553 8.66384 107.788 3.05785 107.024H2.54818L0 103.202L151.617 1.78418L153.4 3.56794C150.088 9.42875 150.597 11.4673 150.852 11.9769C151.107 12.4865 152.126 12.7413 153.4 12.7413C155.694 12.7413 158.752 11.9769 163.084 10.1931L164.358 12.2318C162.574 13.7607 161.3 15.2896 160.026 16.8185C160.026 17.0733 159.771 17.0734 159.771 17.3282C162.064 16.5637 164.103 16.0541 165.886 16.0541C167.415 16.0541 168.944 16.5637 169.709 17.3282L169.964 17.5829L170.728 24.463V24.7178C170.218 27.0112 168.944 29.8142 167.415 32.872C168.18 32.6172 169.199 32.3623 170.218 31.8527L171.747 31.3432L172.767 40.0069L26.5011 137.347L22.9336 132.506Z" fill="#FF81C9"/>
<path opacity="0.8" d="M170.473 30.3234C168.434 31.0879 166.396 31.5976 164.612 32.6168C166.905 28.5397 168.689 24.7173 169.453 21.6595L168.689 15.544C166.905 14.0151 162.573 14.2698 154.674 17.8373C158.241 14.5246 160.025 11.7217 163.338 8.66387C147.029 15.0343 147.284 8.66381 152.126 0L1.52832 100.653L3.05732 103.201C7.38923 103.966 12.2307 104.73 12.9951 105.749C15.2885 108.552 12.9952 113.394 12.7404 117.471L15.7982 121.803C18.856 121.548 24.7168 120.019 27.0101 121.039C28.2842 122.822 22.4234 127.664 23.6975 129.448C24.462 130.467 25.7361 131.996 26.7554 133.27L170.982 36.6939L170.473 30.3234Z" fill="#FFBEDF"/>
</svg>
