<svg width="260" height="50" viewBox="0 0 260 50" fill="none" xmlns="http://www.w3.org/2000/svg">
<path d="M259.541 18.788C244.89 18.6528 230.348 19.7341 216.131 21.4913C215.371 21.4913 214.557 21.5588 213.797 21.5588C213.526 21.0182 213.038 20.6127 212.332 20.2072C217.379 19.9369 222.371 19.5989 227.363 19.1935C231.542 19.1935 235.72 19.1934 239.952 19.1259C240.549 19.1259 241.038 18.9231 241.092 18.5852C241.092 18.3149 240.603 18.1121 239.952 18.0445H236.859C237.673 17.7066 238.27 17.166 238.27 16.5577C238.324 16.0171 237.89 15.544 237.185 15.1385C241.689 14.5303 246.193 13.922 250.534 13.111C250.805 13.0434 250.914 12.9083 250.805 12.8407C250.696 12.7055 250.425 12.6379 250.208 12.7055C243.859 13.111 237.565 13.7193 231.27 14.1923C226.278 13.5841 221.394 12.9083 216.022 12.7055C208.208 12.4352 200.828 13.2462 193.503 14.0572C190.844 13.922 188.239 13.7868 185.635 13.7193C186.015 13.4489 186.232 13.111 186.232 12.7731C186.232 12.7055 186.177 12.6379 186.177 12.5028C188.456 12.5028 190.79 12.5028 193.123 12.5704C214.937 12.6379 235.34 10.0698 256.123 7.83959C257.479 7.772 258.402 7.16374 258.239 6.5555C258.076 5.94726 256.828 5.47418 255.526 5.60935C245.541 5.74451 236.371 6.96101 226.278 8.1775C219.115 9.05607 212.766 9.6643 205.549 10.2725C197.084 10.9484 189.216 10.9484 180.914 11.016C180.1 10.9484 179.286 10.8808 178.472 10.8808C177.658 10.9484 176.79 10.9484 175.976 11.016C169.464 11.016 106.465 10.678 100.116 10.2725C107.713 9.79946 171.906 9.32639 179.394 8.38024C179.937 8.31266 180.263 8.10992 180.208 7.83959C180.1 7.56925 179.612 7.43409 179.069 7.50167C168.705 8.10992 96.3716 8.44782 85.9531 8.78574C83.1314 6.69068 77.1082 5.47419 71.7361 5.40661C69.7283 5.40661 67.9377 5.60935 66.0384 6.01485C66.9067 6.08243 67.7206 6.15001 68.5888 6.28517C66.0384 6.35276 63.8679 6.96099 61.6974 7.56924C61.5346 7.56924 61.3175 7.50167 61.1005 7.50167C56.1083 6.35277 50.2478 6.6231 44.8758 6.15002C44.9843 6.42035 45.0928 6.69067 45.2556 6.961C44.2789 6.75825 43.682 6.28519 42.5967 6.15002C42.9223 6.35277 43.1936 6.55551 43.4649 6.75826H43.4106C42.2711 6.35276 40.8603 6.15002 39.3952 6.15002C36.0851 4.93353 32.0696 4.19011 27.7828 3.8522C27.2402 3.51428 26.4262 3.31154 25.4495 3.24396C25.0696 3.17637 24.5813 3.10879 24.2557 2.90604C21.6511 1.55439 18.4495 0.675826 14.8681 0C15.5736 0.27033 16.279 0.473072 16.9302 0.743402C15.8991 0.540655 14.9224 0.337913 13.7286 0.337913C13.8371 0.473078 13.9999 0.675824 14.1085 0.810989C10.5813 -0.337915 5.75191 0.135159 3.2558 1.75714C0.759686 3.44671 1.57364 5.67694 5.10075 6.82585L5.58912 7.02859C3.79843 7.29892 2.17053 7.83958 1.24806 8.78574C0.759686 9.3264 1.13953 9.93465 1.24806 10.5429C1.08527 11.4215 2.49611 12.1649 4.39533 12.2325C4.8837 12.2325 5.42633 12.2324 5.86044 12.0973C8.03097 12.4352 10.2558 12.6379 12.372 13.0434C12.8061 13.111 13.2945 13.0434 13.5116 12.8407C13.7286 12.6379 13.5116 12.3676 13.0775 12.3C11.5581 11.8945 10.093 11.489 8.62787 11.016C8.51934 11.0835 8.35655 11.1511 8.24802 11.1511C8.30229 11.0835 8.35655 11.016 8.46508 10.9484C8.35655 10.8808 8.19376 10.8808 8.08523 10.8132C8.19376 10.7456 8.30229 10.7456 8.41081 10.678C8.51934 10.678 8.62787 10.7456 8.73639 10.7456C8.95345 10.6105 9.1705 10.5429 9.38755 10.4077C12.0465 10.678 14.6511 11.016 17.0929 11.6242C17.2557 11.6918 16.9844 12.0297 17.2557 12.1649C17.3643 12.2324 17.527 12.3 17.6898 12.3676C17.2557 12.3 16.7674 12.2324 16.279 12.1649C14.3798 12.7055 13.6201 12.9759 13.1317 13.111C13.1317 13.111 13.1317 13.111 12.9689 13.1786C12.7519 13.2462 12.5348 13.3138 12.2635 13.3813C12.2635 13.3813 12.2635 13.3813 12.2635 13.4489C12.2092 13.4489 12.155 13.5165 12.1007 13.5165L11.2325 13.4489C10.9069 13.3813 10.5813 13.5165 10.4186 13.5841C10.31 13.5165 10.2015 13.3813 10.0387 13.3138C8.41081 13.111 8.41081 13.111 6.72865 12.9758C6.72865 12.9758 6.72865 13.0434 6.78291 13.2462C6.72865 13.2462 6.18602 13.3813 5.53486 13.3138C4.8837 13.3138 4.8837 13.3138 3.36433 13.1786C3.36433 13.1786 3.36433 13.1786 4.12401 13.5841C4.12401 13.5841 4.12401 13.5841 3.47285 13.3138C3.47285 13.3138 3.47285 13.3138 3.63564 13.7868C3.63564 13.7868 3.63564 13.7868 3.36433 13.3138C3.36433 13.3138 3.36433 13.3138 3.09301 13.6517C3.09301 13.6517 3.09301 13.6517 1.79069 12.5704C1.68216 12.5704 1.46511 12.6379 0.81395 12.7731C0.81395 12.7731 0.65116 12.9083 0.542633 12.9758C0.542633 13.111 0.542633 13.111 0 13.5841C0 13.5841 4.04293e-09 13.7193 0.0542633 13.922C0.217053 14.0572 0.217053 14.0572 0.217053 14.4627C0.217053 14.4627 0.379843 14.5978 0.65116 14.733C0.922476 14.8006 0.976739 14.8006 1.89922 15.0709C1.79069 15.1385 1.73643 15.2061 1.68216 15.2737C1.46511 16.0171 1.46511 16.0171 2.60464 17.7742C2.60464 17.7742 3.2558 18.2473 4.2868 18.5852C5.48059 18.7204 5.48059 18.7204 6.89144 18.9231C6.89144 18.9231 7.21702 18.9907 7.70539 19.0583C8.08523 19.3286 8.19376 19.3962 8.46508 19.6665C8.19376 19.6665 7.92244 19.7341 7.70539 19.8017C7.05423 20.072 6.9457 20.4775 7.48834 20.7478C6.78291 21.8967 7.16276 22.9781 8.03097 23.9918C7.75965 24.3973 7.59686 24.8028 7.65113 25.2083C6.56586 26.222 5.9147 27.3034 5.64338 28.4523L5.48059 29.466C5.75191 30.277 6.62012 31.088 7.92244 31.6962L8.30229 31.899L7.92244 32.71C9.55034 34.8726 12.8061 36.6298 14.7596 38.6572L16.279 39.7386C17.3643 40.6171 19.1007 41.2254 21.1627 41.5633L23.3332 41.8336C23.7673 41.8336 24.2557 41.8336 24.6898 41.8336C22.3565 42.8474 21.0542 44.3342 21.434 45.9562C22.1394 48.5243 27.2944 50.349 32.9378 49.9435C48.023 49.7408 62.6199 49.4705 78.0849 48.254C89.5345 47.3754 105.054 46.2265 116.286 46.0913C126.976 44.8748 193.991 43.3204 204.41 41.4281C213.146 39.8737 219.821 36.9001 227.526 34.5347C227.743 34.4671 227.743 34.332 227.635 34.1968C227.472 34.0616 227.146 34.0616 226.929 34.1292C214.666 36.2243 202.294 38.049 189.108 38.5897C187.588 38.6572 186.123 38.6572 184.658 38.6572C184.495 38.5896 184.332 38.5897 184.115 38.5897C182.759 38.4545 181.456 38.3869 180.1 38.3193L181.511 38.2518C182.433 38.2518 183.247 37.9138 183.301 37.5083C183.301 37.3056 183.193 37.1704 182.976 37.0353C186.394 36.5622 189.759 35.8864 193.069 35.2105C194.046 35.143 194.968 35.0078 195.782 34.7374C199.635 35.0078 203.542 35.2105 207.394 35.4809L208.371 35.616C209.673 35.6836 210.867 35.4133 211.464 34.8726C211.681 34.7375 211.79 34.5347 211.844 34.3995C220.689 33.3858 229.642 32.5748 237.945 30.7501C238.379 30.6825 238.596 30.4797 238.541 30.277C238.704 30.3446 238.921 30.3446 239.084 30.277C240.061 29.9391 241.2 29.6688 242.34 29.466C242.611 29.3984 242.72 29.2633 242.611 29.1957C242.503 29.0605 242.177 28.9929 241.96 29.0605C240.766 29.2633 239.572 29.5336 238.541 29.8715C238.433 29.9391 238.324 30.0067 238.324 30.0743C238.107 29.9391 237.728 29.8715 237.348 29.9391C228.72 30.6149 220.418 32.0342 211.735 32.4396C215.968 31.6287 220.309 31.0204 224.921 30.3446C230.456 29.5336 235.503 28.4523 241.092 27.9792C241.363 27.9792 241.58 27.844 241.526 27.7089C241.472 27.5737 241.255 27.5061 240.983 27.5061C229.588 28.2495 219.604 31.3583 207.828 31.4935C207.34 31.4935 206.906 31.4935 206.418 31.4935C210.053 30.4122 213.58 29.3308 217.162 28.2495C228.014 27.7089 238.759 26.8979 249.394 25.749C249.937 25.749 250.317 25.5462 250.317 25.2759C250.317 25.0056 249.828 24.8704 249.34 24.8704C243.262 24.6001 237.185 24.3297 231.107 24.1946L232.355 23.8566L233.604 23.7215C237.51 23.6539 241.417 23.5187 245.379 23.316C246.844 23.316 248.038 22.7753 248.092 22.0995C248.092 21.4237 247.007 20.883 245.596 20.883L246.301 20.7478C246.518 20.7478 246.681 20.6127 246.627 20.4775C246.518 20.3424 246.247 20.2748 246.03 20.3424C245.216 20.5451 244.402 20.6803 243.588 20.883C236.1 20.7479 228.666 20.883 221.177 21.1533C229.208 20.2748 237.348 19.599 245.541 19.261C245.379 19.3286 245.379 19.4638 245.541 19.599C245.704 19.6665 246.084 19.6665 246.247 19.599C246.464 19.5314 246.41 19.3286 246.247 19.261C250.642 19.1259 255.038 18.9907 259.487 19.0583C259.758 19.0583 259.975 18.9231 259.975 18.788C260.084 18.8555 259.813 18.788 259.541 18.788ZM6.5116 16.0171C6.67439 16.0846 6.78291 16.1522 6.9457 16.2874C6.9457 16.2874 6.9457 16.2874 6.5116 16.0171ZM8.79065 31.5611L8.68213 31.4259L10.0387 28.9253L8.79065 31.5611ZM16.1705 20.7478C16.0077 20.6127 15.8449 20.4099 15.5736 20.2072C15.5736 20.2072 15.8449 20.4099 16.1705 20.7478ZM33.2091 15.0033C32.9378 15.0709 32.4495 15.0033 32.7208 15.3412C30.5502 15.1385 28.3797 15.0709 26.1549 15.0033C25.341 15.0033 24.4728 15.0033 23.7131 15.1385C22.8449 14.4627 21.9224 13.8544 20.7286 13.3813C22.7363 13.7868 25.0154 13.922 27.1317 14.1248C29.465 14.3951 31.744 14.6654 34.0774 14.8682C33.7518 14.9358 33.4805 14.9357 33.2091 15.0033ZM38.6355 9.39398L37.0076 9.12365L37.3332 9.32639C35.2169 9.19122 33.1006 8.98849 31.0386 8.78574C28.0541 8.17749 24.7983 7.77199 21.4883 7.56924C22.465 7.29891 23.3332 6.961 24.2014 6.69067C28.3797 7.3665 32.3952 8.24508 36.7363 8.51541C37.0076 8.58299 37.3332 8.65057 37.6045 8.71815C38.0386 8.9209 38.4184 9.19123 38.8525 9.46156C38.744 9.39398 38.6897 9.39398 38.6355 9.39398Z" fill="#E9CEDB"/>
</svg>
