<svg width="38" height="38" viewBox="0 0 38 38" fill="none" xmlns="http://www.w3.org/2000/svg">
<path fill-rule="evenodd" clip-rule="evenodd" d="M18.1836 3.71786C17.0275 3.83001 15.7966 4.26782 14.7565 4.93691C14.0036 5.42118 12.8857 6.56809 12.4074 7.34694C11.129 9.4287 10.9001 12.0496 11.8003 14.2977C12.4502 15.9206 13.6877 17.3362 15.1673 18.149L15.6763 18.4287L15.0931 18.5981C10.5389 19.9212 6.92706 23.6938 5.74609 28.3612C5.43845 29.5772 5.34657 30.4809 5.34509 32.307L5.34375 33.9989L5.52596 34.181L5.70809 34.3632H19H32.2919L32.474 34.181L32.6562 33.9989L32.6549 32.307C32.6535 30.6096 32.5702 29.6837 32.3234 28.6249C31.4745 24.9838 29.1461 21.8209 25.9057 19.9073C25.0606 19.4083 23.7872 18.8483 22.9547 18.6096L22.345 18.4348L22.8063 18.1694C24.613 17.1296 25.9564 15.3931 26.4989 13.3964C26.7042 12.6408 26.7792 11.0102 26.6465 10.1877C26.1691 7.22819 24.0137 4.814 21.0921 3.96627C20.6031 3.82437 19.027 3.59963 18.8516 3.64676C18.8312 3.65225 18.5306 3.68424 18.1836 3.71786ZM17.7383 4.93713C15.1723 5.46364 13.2031 7.36111 12.5658 9.92084C12.3693 10.7102 12.3883 12.2555 12.6043 13.0559C13.2574 15.4752 15.0952 17.256 17.5636 17.8616C18.2528 18.0307 19.7475 18.0306 20.4371 17.8614C22.938 17.248 24.7617 15.4528 25.4252 12.9511C25.63 12.1789 25.6145 10.5641 25.3944 9.75971C24.7056 7.2414 22.7578 5.43083 20.1995 4.93067C19.5344 4.80064 18.3887 4.80361 17.7383 4.93713ZM18.0352 19.2271C14.8181 19.4633 11.5877 21.098 9.52709 23.5326C7.42351 26.0179 6.46126 28.7909 6.45777 32.3779L6.45703 33.1757H19H31.543L31.5422 32.3779C31.5411 31.2765 31.4151 29.9329 31.2342 29.0954C30.1821 24.2244 26.3588 20.4307 21.5051 19.4416C20.9141 19.3211 19.0239 19.1214 18.8516 19.1613C18.8312 19.166 18.4638 19.1956 18.0352 19.2271Z" fill="#003996"/>
</svg>
