<svg width="190" height="50" viewBox="0 0 190 50" fill="none" xmlns="http://www.w3.org/2000/svg">
<path id="Vector" d="M39.5291 4.77435C56.7456 1.69592 77.5323 6.38048 94.9075 3.50282C115.734 -0.311749 138.187 -0.110981 158.934 0.0897859C158.894 2.09746 157.109 5.17588 158.855 6.17972C165.717 9.25814 165.678 13.3404 165.598 17.4227C165.559 19.4303 160.402 17.3557 162.107 19.4303C156.911 19.3634 148.223 20.3673 153.38 22.4418C155.086 24.5164 162.028 22.5088 163.734 25.5872C165.44 28.6656 161.909 31.6771 163.615 34.7556C165.36 34.7556 168.812 34.8225 170.557 34.8225C172.263 36.8971 168.732 40.9124 170.478 40.9124C175.674 42.987 182.617 41.9832 189.598 42.0501C189.559 44.0578 191.304 46.1323 187.813 47.1362C126.921 48.8762 64.0844 52.1554 3.27131 47.9392C-3.63116 46.8016 1.7242 42.8531 7.07957 39.9086C5.29444 40.9124 5.41345 37.834 3.62833 38.8378C3.74734 35.7594 7.43659 30.8071 14.4184 29.8702C12.6729 29.8702 10.9672 29.8033 9.22171 29.8033C7.51593 28.7325 9.34072 26.7249 9.42006 24.7172C11.1655 24.7172 12.8713 24.7841 12.911 23.7803C12.9506 22.7765 13.03 20.7019 13.0696 19.698C11.3242 19.698 7.87295 19.6311 6.1275 19.5642C7.87295 19.5642 9.57874 19.6311 9.6184 18.6273C9.65807 17.6234 9.73741 15.5488 9.77708 14.545C13.268 13.6081 18.3853 15.7496 21.9159 14.7458L22.0349 11.6673C18.6233 10.5966 13.387 11.5335 9.93576 11.4666C11.7209 10.4627 11.7606 9.45891 11.8399 7.45124C17.0762 6.51432 22.1539 9.65968 27.4299 6.7151L22.1936 6.51433C25.8035 1.49515 34.2927 5.71126 39.5291 4.77435Z" fill="#FFFBF4"/>
</svg>
