<svg width="28" height="24" viewBox="0 0 28 24" fill="none" xmlns="http://www.w3.org/2000/svg">
<path fill-rule="evenodd" clip-rule="evenodd" d="M14.4441 23.1328C14.9621 22.8586 27.125 16.2188 27.125 8.01562C27.1228 6.08933 26.3566 4.24255 24.9946 2.88045C23.6325 1.51835 21.7857 0.752171 19.8594 0.75C18.4549 0.75 17.1519 1.10051 16.0475 1.73853C15.249 2.19985 14.5542 2.81148 14 3.54961C13.4458 2.81148 12.751 2.19985 11.9525 1.73853C10.8481 1.10051 9.54507 0.75 8.14062 0.75C6.21433 0.752171 4.36755 1.51835 3.00545 2.88045C1.64335 4.24255 0.877171 6.08933 0.875 8.01562C0.875 16.2188 13.0379 22.8586 13.5559 23.1328C13.6924 23.2063 13.845 23.2447 14 23.2447C14.155 23.2447 14.3076 23.2063 14.4441 23.1328ZM3.60227 8.01716C3.60404 6.81367 4.0829 5.65995 4.93392 4.80892C5.78495 3.9579 6.93867 3.47904 8.14216 3.47727C9.76436 3.4777 11.0492 4.16183 11.8191 5.18714L14 8.09184L16.1809 5.18714C16.9508 4.16183 18.2356 3.4777 19.8578 3.47727C21.0613 3.47904 22.2151 3.9579 23.0661 4.80892C23.917 5.65984 24.3958 6.81337 24.3977 8.01669C24.3972 10.8418 22.2076 13.8462 19.182 16.4958C17.167 18.2605 15.1115 19.5805 14 20.2452C12.8885 19.5805 10.833 18.2605 8.81799 16.4958C5.79259 13.8463 3.60306 10.8421 3.60227 8.01716Z" fill="#003996"/>
</svg>
