<svg width="27" height="23" viewBox="0 0 27 23" fill="none" xmlns="http://www.w3.org/2000/svg">
<path fill-rule="evenodd" clip-rule="evenodd" d="M13.5691 22.3828C14.0871 22.1086 26.25 15.4688 26.25 7.26562C26.2478 5.33933 25.4816 3.49255 24.1196 2.13045C22.7575 0.768352 20.9107 0.00217118 18.9844 0C17.5799 0 16.2769 0.350511 15.1725 0.988532C14.374 1.44985 13.6792 2.06148 13.125 2.79961C12.5708 2.06148 11.876 1.44985 11.0775 0.988532C9.97307 0.350511 8.67007 0 7.26562 0C5.33933 0.00217118 3.49255 0.768352 2.13045 2.13045C0.768352 3.49255 0.00217118 5.33933 0 7.26562C0 15.4688 12.1629 22.1086 12.6809 22.3828C12.8174 22.4563 12.97 22.4947 13.125 22.4947C13.28 22.4947 13.4326 22.4563 13.5691 22.3828Z" fill="#003996"/>
</svg>
