<svg width="168" height="8" viewBox="0 0 168 8" fill="none" xmlns="http://www.w3.org/2000/svg">
<g clip-path="url(#clip0_86_1110)">
<path fill-rule="evenodd" clip-rule="evenodd" d="M0.950369 2.63658C0.663209 2.9003 0.599609 3.05172 0.599609 3.4716C0.599609 3.89147 0.663209 4.0429 0.950369 4.30662L1.30113 4.62874H13.4964C27.1145 4.62874 26.2659 4.67833 26.5308 3.86668C26.7021 3.34134 26.6034 2.93237 26.2202 2.58049L25.9305 2.31445H13.6159H1.30113L0.950369 2.63658ZM33.4704 2.63658C33.0031 3.06571 32.9754 3.80132 33.4092 4.2644L33.6989 4.57364H41.6259H49.5529L49.8129 4.33483C49.9865 4.17558 50.0923 3.91142 50.1311 3.54092C50.184 3.03497 50.1567 2.95606 49.8236 2.65014L49.4581 2.31445H41.6396H33.8211L33.4704 2.63658ZM58.8128 3.45915C58.1211 3.81345 57.9899 4.74027 58.5498 5.31575L58.8999 5.67568H70.0796H81.2593L81.6094 5.31575C82.0731 4.83923 82.0993 4.12886 81.67 3.67063L81.3805 3.36139L70.24 3.33681C61.1425 3.31676 59.047 3.33913 58.8128 3.45915ZM90.8126 3.4781C90.1229 3.82183 90.0135 4.72352 90.5898 5.31575L90.9399 5.67568H98.7596H106.579L106.929 5.31575C107.5 4.72958 107.338 3.73708 106.623 3.43798C106.389 3.34012 104.357 3.30739 98.724 3.3107C92.2646 3.31444 91.0911 3.33924 90.8126 3.4781Z" fill="#002053"/>
<path fill-rule="evenodd" clip-rule="evenodd" d="M111.351 2.63658C111.064 2.9003 111 3.05172 111 3.4716C111 3.89147 111.064 4.0429 111.351 4.30662L111.702 4.62874H123.897C137.515 4.62874 136.666 4.67833 136.931 3.86668C137.103 3.34134 137.004 2.93237 136.621 2.58049L136.331 2.31445H124.016H111.702L111.351 2.63658ZM143.871 2.63658C143.403 3.06571 143.376 3.80132 143.81 4.2644L144.099 4.57364H152.026H159.953L160.213 4.33483C160.387 4.17558 160.493 3.91142 160.531 3.54092C160.584 3.03497 160.557 2.95606 160.224 2.65014L159.858 2.31445H152.04H144.222L143.871 2.63658ZM169.213 3.45915C168.522 3.81345 168.39 4.74027 168.95 5.31575L169.3 5.67568H180.48H191.66L192.01 5.31575C192.474 4.83923 192.5 4.12886 192.07 3.67063L191.781 3.36139L180.64 3.33681C171.543 3.31676 169.447 3.33913 169.213 3.45915ZM201.213 3.4781C200.523 3.82183 200.414 4.72352 200.99 5.31575L201.34 5.67568H209.16H216.98L217.33 5.31575C217.9 4.72958 217.738 3.73708 217.023 3.43798C216.79 3.34012 214.758 3.30739 209.124 3.3107C202.665 3.31444 201.492 3.33924 201.213 3.4781Z" fill="#002053"/>
</g>
<defs>
<clipPath id="clip0_86_1110">
<rect width="168" height="8" fill="white"/>
</clipPath>
</defs>
</svg>
