<?xml version="1.0" encoding="utf-8"?>
<!-- Generator: Adobe Illustrator 22.0.1, SVG Export Plug-In . SVG Version: 6.00 Build 0)  -->
<svg version="1.1" id="Layer_1" xmlns="http://www.w3.org/2000/svg" xmlns:xlink="http://www.w3.org/1999/xlink" x="0px" y="0px"
	 viewBox="0 0 31 30.3" style="enable-background:new 0 0 31 30.3;" xml:space="preserve">
<style type="text/css">
	.st0{fill:#8EBCEE;}
</style>
<path class="st0" d="M12.3,3C9.9,3,7.5,4,5.8,5.7c-1.7,1.7-2.7,4-2.7,6.4c0,2.4,1,4.7,2.7,6.4c1.7,1.7,4.1,2.7,6.5,2.7
	s4.8-1,6.5-2.7c1.7-1.7,2.7-4,2.7-6.4c0-2.4-1-4.7-2.7-6.4C17.1,4,14.8,3,12.3,3z M0,12.1c0-1.9,0.5-3.8,1.4-5.5
	c0.9-1.7,2.2-3.2,3.8-4.3c1.6-1.1,3.4-1.8,5.4-2.1c1.9-0.3,3.9-0.1,5.8,0.5c1.9,0.6,3.5,1.7,4.9,3.1c1.4,1.4,2.4,3.1,2.9,4.9
	c0.6,1.8,0.7,3.8,0.3,5.7c-0.4,1.9-1.2,3.7-2.4,5.2l8.3,8.1c0.3,0.3,0.4,0.7,0.4,1.1c0,0.4-0.2,0.8-0.5,1.1
	c-0.3,0.3-0.7,0.4-1.1,0.4c-0.4,0-0.8-0.1-1.1-0.4l-8.3-8.1c-1.8,1.4-4,2.2-6.3,2.5S9,23.9,6.9,22.9c-2.1-1-3.8-2.5-5-4.5
	C0.6,16.5,0,14.3,0,12.1z"/>
</svg>
