<?xml version="1.0" standalone="no"?>
<!DOCTYPE svg PUBLIC "-//W3C//DTD SVG 1.1//EN" "http://www.w3.org/Graphics/SVG/1.1/DTD/svg11.dtd" >
<svg xmlns="http://www.w3.org/2000/svg" xmlns:xlink="http://www.w3.org/1999/xlink" version="1.1">
<metadata>
Created by FontForge 20170731 at Mon Nov 15 07:30:16 2021
 By Aleksey,,,
Copyright (c) 2009 by Jeremy Dooley. All rights reserved.
</metadata>
<defs>
<font id="AvianoSans-Thi" horiz-adv-x="462" >
  <font-face 
    font-family="Aviano Sans Thin"
    font-weight="250"
    font-stretch="normal"
    units-per-em="2048"
    panose-1="0 0 0 0 0 0 0 0 0 0"
    ascent="1536"
    descent="-512"
    x-height="1028"
    cap-height="1143"
    bbox="-158 -631 3899 1536"
    underline-thickness="102"
    underline-position="-307"
    unicode-range="U+0020-FB06"
  />
<missing-glyph horiz-adv-x="1103" 
d="M51 -117v1446h996v-1446h-996zM498 217h65v113q0 61 17 111t44.5 85.5t60.5 68t66.5 64t61 65.5t44.5 82t17 105q0 92 -50.5 155.5t-123.5 90.5t-159 27q-85 0 -171 -20.5t-126 -47.5l4 -53q58 30 137.5 50t155.5 20q119 0 193.5 -60.5t74.5 -163.5q0 -50 -17 -92.5
t-44.5 -73.5t-60.5 -61t-66.5 -64t-61 -73.5t-44.5 -98.5t-17 -131v-98zM528 -10q26 0 43 16t17 39q0 24 -18 39.5t-42 15.5q-25 0 -41 -16t-16 -39q0 -24 16.5 -39.5t40.5 -15.5z" />
    <glyph glyph-name=".notdef" horiz-adv-x="1103" 
d="M51 -117v1446h996v-1446h-996zM498 217h65v113q0 61 17 111t44.5 85.5t60.5 68t66.5 64t61 65.5t44.5 82t17 105q0 92 -50.5 155.5t-123.5 90.5t-159 27q-85 0 -171 -20.5t-126 -47.5l4 -53q58 30 137.5 50t155.5 20q119 0 193.5 -60.5t74.5 -163.5q0 -50 -17 -92.5
t-44.5 -73.5t-60.5 -61t-66.5 -64t-61 -73.5t-44.5 -98.5t-17 -131v-98zM528 -10q26 0 43 16t17 39q0 24 -18 39.5t-42 15.5q-25 0 -41 -16t-16 -39q0 -24 16.5 -39.5t40.5 -15.5z" />
    <glyph glyph-name=".null" horiz-adv-x="0" 
 />
    <glyph glyph-name="nonmarkingreturn" horiz-adv-x="682" 
 />
    <glyph glyph-name="space" unicode=" " horiz-adv-x="638" 
 />
    <glyph glyph-name="exclam" unicode="!" horiz-adv-x="389" 
d="M215 242h-41l-16 983h73zM195 -10q-25 0 -41.5 15.5t-16.5 37.5q0 26 16.5 41.5t41.5 15.5t42 -15.5t17 -37.5q0 -26 -17 -41.5t-42 -15.5z" />
    <glyph glyph-name="quotedbl" unicode="&#x22;" horiz-adv-x="579" 
d="M426 772h-68v371h68v-371zM219 772h-65v371h65v-371z" />
    <glyph glyph-name="numbersign" unicode="#" horiz-adv-x="1294" 
d="M883 317l-60 -337h-63l59 337h-444l-60 -337h-63l59 337h-213v45h221l78 445h-274v45h283l53 311h63l-55 -311h446l54 311h63l-55 -311h219v-45h-227l-76 -445h280v-45h-288zM827 362l78 445h-446l-76 -445h444z" />
    <glyph glyph-name="dollar" unicode="$" horiz-adv-x="1394" 
d="M762 -307h-47v287q-158 2 -320 24.5t-280 65.5l2 55q122 -48 289 -70t323 -22q520 0 520 264q0 89 -60.5 145.5t-156.5 80.5t-213 37.5t-233.5 28.5t-212.5 41.5t-156.5 87.5t-60.5 156q0 284 538 289v242h47v-242q340 -3 514 -78l-4 -47q-81 38 -232 57t-306 19
q-496 0 -496 -231q0 -64 37.5 -108.5t100.5 -68.5t145.5 -39.5t173 -25.5t181 -21.5t173 -32.5t145.5 -54t100.5 -91.5t37.5 -138.5q0 -75 -33 -132.5t-85.5 -92.5t-127.5 -57.5t-147 -31t-156 -9.5v-287z" />
    <glyph glyph-name="percent" unicode="%" horiz-adv-x="1998" 
d="M1919 299q0 -133 -116 -225t-283 -92q-166 0 -282 92t-116 225t116 226t282 93q167 0 283 -92.5t116 -226.5zM555 0h-78l1002 1143h75zM1520 27q143 0 234 77.5t91 194.5q0 119 -90.5 195.5t-234.5 76.5t-236 -76.5t-92 -195.5q0 -117 92.5 -194.5t235.5 -77.5zM877 846
q0 -135 -116 -227.5t-284 -92.5q-166 0 -281.5 92.5t-115.5 227.5q0 133 115.5 225t281.5 92q168 0 284 -92t116 -225zM477 573q144 0 235 77.5t91 195.5q0 119 -91 194.5t-235 75.5q-143 0 -235 -76t-92 -194q0 -117 92.5 -195t234.5 -78z" />
    <glyph glyph-name="ampersand" unicode="&#x26;" horiz-adv-x="1480" 
d="M1399 53l-189 99q-203 -172 -532 -172q-136 0 -247 31t-181.5 83t-108 118t-37.5 138q0 162 209 320q-110 107 -110 225q0 73 40 127t109 83.5t149.5 43.5t174.5 14q217 0 344 -59v-53q-55 31 -151.5 50t-204.5 19q-79 0 -146.5 -11.5t-126.5 -37t-93 -72t-34 -110.5
q0 -53 27.5 -101.5t86.5 -102t173 -122.5t265 -149t384 -195q105 113 105 252q0 12 -5 57h56q6 -27 6 -59q0 -158 -115 -279l152 -77v-60zM1163 180q-92 48 -232 117.5t-216 108.5t-178 101t-191 130q-176 -136 -176 -285q0 -134 135.5 -228.5t374.5 -94.5q294 0 483 151z
" />
    <glyph glyph-name="quotesingle" unicode="'" horiz-adv-x="372" 
d="M221 766h-69v377h69v-377z" />
    <glyph glyph-name="parenleft" unicode="(" horiz-adv-x="532" 
d="M526 -412l-18 -20q-193 160 -307.5 386.5t-114.5 465.5q0 238 114.5 464t307.5 386l18 -19q-169 -150 -271.5 -379.5t-102.5 -451.5q0 -223 102.5 -453.5t271.5 -378.5z" />
    <glyph glyph-name="parenright" unicode=")" horiz-adv-x="532" 
d="M25 -432l-19 20q169 148 272 378.5t103 453.5q0 221 -103 451t-272 380l19 19q193 -160 307 -385.5t114 -464.5t-114 -465.5t-307 -386.5z" />
    <glyph glyph-name="asterisk" unicode="*" horiz-adv-x="907" 
d="M772 666l-35 -54l-266 166l16 -309h-67l14 309l-264 -166l-35 54l281 147l-287 152l35 55l270 -170l-14 313h67l-16 -313l272 170l35 -55l-286 -152z" />
    <glyph glyph-name="plus" unicode="+" horiz-adv-x="1034" 
d="M545 133h-60v393h-393v58h393v395h60v-395h397v-58h-397v-393z" />
    <glyph glyph-name="comma" unicode="," horiz-adv-x="415" 
d="M137 -213h-39l78 315h82z" />
    <glyph glyph-name="hyphen" unicode="-" horiz-adv-x="749" 
d="M596 420h-442v55h442v-55z" />
    <glyph glyph-name="period" unicode="." horiz-adv-x="395" 
d="M197 -10q-25 0 -41.5 15.5t-16.5 37.5q0 26 16.5 41.5t41.5 15.5t42 -15.5t17 -37.5q0 -26 -17 -41.5t-42 -15.5z" />
    <glyph glyph-name="slash" unicode="/" horiz-adv-x="684" 
d="M172 0h-47l389 1143h47z" />
    <glyph glyph-name="zero" unicode="0" horiz-adv-x="1376" 
d="M1266 571q0 -142 -49.5 -257t-132 -186.5t-184.5 -109.5t-212 -38t-211.5 38t-183.5 109.5t-131 186.5t-49 257t49 257.5t130.5 187t182.5 109.5t211 38t212 -38t185 -109.5t133 -187t50 -257.5zM182 571q0 -131 43 -237t115 -171.5t161.5 -100.5t186.5 -35t187 35
t162 100.5t115.5 171.5t43.5 237t-43.5 237t-116.5 172t-163 101t-187 35t-185.5 -34.5t-160.5 -100t-115 -172t-43 -238.5z" />
    <glyph glyph-name="one" unicode="1" horiz-adv-x="575" 
d="M416 0h-70v1069l-270 -276l-35 34l305 316h70v-1143z" />
    <glyph glyph-name="two" unicode="2" horiz-adv-x="1173" 
d="M1073 0h-997v47q140 70 231 116.5t189.5 100t157.5 92t119 84t92 83.5t59 83.5t37 92t10 100.5q0 74 -21 130.5t-55.5 91t-84.5 56t-102.5 29.5t-115.5 8q-114 0 -236 -24t-204 -62l-9 47q80 35 206 61.5t243 26.5q73 0 136 -10.5t121 -36.5t98.5 -66.5t64.5 -104.5
t24 -146q0 -53 -11 -100.5t-29.5 -89.5t-53.5 -84t-71.5 -77.5t-96 -76t-115 -74.5t-140 -78.5t-159.5 -81.5t-184 -90h897v-47z" />
    <glyph glyph-name="three" unicode="3" horiz-adv-x="1216" 
d="M586 584h-142v49h142q198 0 297.5 59.5t99.5 194.5q0 127 -93 177t-308 50q-271 0 -428 -61v49q169 61 434 61q108 0 188.5 -13t144 -43.5t96 -85.5t32.5 -134q0 -127 -81.5 -196.5t-232.5 -78.5q369 -14 369 -282q0 -75 -28 -134.5t-76.5 -99.5t-116.5 -66.5t-144.5 -38
t-163.5 -11.5q-112 0 -248.5 16.5t-209.5 38.5v49q88 -26 220 -39.5t238 -13.5q218 0 340.5 70.5t122.5 222.5q0 137 -108.5 198.5t-343.5 61.5z" />
    <glyph glyph-name="four" unicode="4" horiz-adv-x="1218" 
d="M924 0h-66v270h-807v47l807 826h66v-826h229v-47h-229v-270zM858 317v758l-741 -758h741z" />
    <glyph glyph-name="five" unicode="5" horiz-adv-x="1210" 
d="M1001 1096h-686l-67 -447q60 34 168.5 53t189.5 19q263 0 392.5 -99t129.5 -268q0 -167 -151 -270.5t-428 -103.5q-108 0 -236 22t-211 61l2 56q73 -40 198.5 -67t246.5 -27q246 0 380 91t134 238q0 152 -112.5 237t-346.5 85q-119 0 -239 -31t-189 -82l82 580h743v-47z
" />
    <glyph glyph-name="six" unicode="6" horiz-adv-x="1261" 
d="M774 1126l-479 -493q62 39 155.5 63.5t198.5 24.5q103 0 196.5 -21t174.5 -63.5t129.5 -118t48.5 -174.5q0 -88 -47.5 -159t-126.5 -115t-176.5 -67t-202.5 -23q-106 0 -203.5 23t-177 66.5t-127 114.5t-47.5 160q0 151 158 313l489 506zM1130 344q0 72 -31 130t-81 95
t-115 62t-129.5 35t-128.5 10q-82 0 -165 -20.5t-157 -59t-120.5 -104.5t-46.5 -148q0 -101 72.5 -175.5t181.5 -109t235 -34.5t234 34.5t179.5 109t71.5 175.5z" />
    <glyph glyph-name="seven" unicode="7" horiz-adv-x="1073" 
d="M1069 1143l-782 -1143h-78l756 1094h-899v49h1003z" />
    <glyph glyph-name="eight" unicode="8" horiz-adv-x="1370" 
d="M872 610q166 -11 281 -98.5t115 -212.5q0 -102 -82 -175.5t-212 -108.5t-290 -35q-159 0 -289 35t-211.5 108.5t-81.5 175.5q0 123 112.5 205.5t281.5 105.5q-131 20 -214 87t-83 175q0 95 69 162.5t176.5 98t239.5 30.5t239.5 -30.5t176.5 -98t69 -162.5
q0 -106 -83 -174t-214 -88zM1202 299q0 87 -70.5 153.5t-187 100t-260.5 33.5t-260 -33.5t-186 -99.5t-70 -154t73 -151.5t187.5 -93t255.5 -29.5t256 29.5t188.5 93t73.5 151.5zM1104 870q0 83 -60.5 140.5t-152.5 82.5t-207 25t-207 -25t-152.5 -82.5t-60.5 -140.5
q0 -62 34 -109.5t93 -75t132.5 -41t160.5 -13.5t160.5 13.5t132.5 41t93 75t34 109.5z" />
    <glyph glyph-name="nine" unicode="9" horiz-adv-x="1282" 
d="M496 16l491 494q-64 -39 -159 -63.5t-203 -24.5q-105 0 -201 21t-179 63.5t-132.5 118t-49.5 174.5q0 88 48 159t129 115t180 67t207 23q109 0 208.5 -23t180.5 -66.5t129.5 -114.5t48.5 -160q0 -154 -160 -314l-499 -505zM129 799q0 -72 32 -130t83 -95t118.5 -62
t133 -35t131.5 -10q84 0 169.5 20.5t161 59t123 104.5t47.5 148q0 101 -74.5 175.5t-186 109t-240.5 34.5t-240 -34.5t-184.5 -109t-73.5 -175.5z" />
    <glyph glyph-name="colon" unicode=":" horiz-adv-x="419" 
d="M209 625q-24 0 -40.5 15.5t-16.5 37.5q0 26 16 41.5t41 15.5t42 -15.5t17 -37.5q0 -26 -17 -41.5t-42 -15.5zM209 -10q-24 0 -40.5 15.5t-16.5 37.5q0 26 16 41.5t41 15.5t42 -15.5t17 -37.5q0 -26 -17 -41.5t-42 -15.5z" />
    <glyph glyph-name="semicolon" unicode=";" horiz-adv-x="491" 
d="M190 -213h-38l77 315h82zM250 625q-24 0 -40.5 15.5t-16.5 37.5q0 26 16 41.5t41 15.5t42 -15.5t17 -37.5q0 -26 -17 -41.5t-42 -15.5z" />
    <glyph glyph-name="less" unicode="&#x3c;" horiz-adv-x="1069" 
d="M918 66l-836 399v41l836 397v-61l-760 -357l760 -356v-63z" />
    <glyph glyph-name="equal" unicode="=" horiz-adv-x="1198" 
d="M1038 762h-878v49h878v-49zM1038 326h-878v49h878v-49z" />
    <glyph glyph-name="greater" unicode="&#x3e;" horiz-adv-x="1069" 
d="M987 465l-835 -399v63l759 356l-759 357v61l835 -397v-41z" />
    <glyph glyph-name="question" unicode="?" horiz-adv-x="1257" 
d="M659 197h-65v98q0 71 28.5 130t74.5 99t101.5 74.5t111 64.5t101.5 60.5t74.5 71t28.5 88.5q0 108 -130.5 168.5t-344.5 60.5q-150 0 -300.5 -29t-250.5 -73l-4 45q75 43 234 75.5t315 32.5q102 0 195 -15.5t174 -47t129.5 -87t48.5 -128.5q0 -48 -22.5 -90t-59 -72
t-83.5 -60.5t-95.5 -55.5t-95.5 -56.5t-83.5 -64t-59 -78.5t-22.5 -99v-112zM629 -10q-25 0 -41.5 15.5t-16.5 37.5q0 26 16.5 41.5t41.5 15.5t42 -15.5t17 -37.5q0 -26 -17 -41.5t-42 -15.5z" />
    <glyph glyph-name="at" unicode="@" horiz-adv-x="1724" 
d="M1405 -139v-51q-111 -40 -260 -62t-248 -22q-121 0 -235 28.5t-214 88.5t-175 144t-118.5 203t-43.5 259q0 131 39.5 244.5t111 199t169 146.5t217 92.5t251.5 31.5q149 0 281.5 -41t236 -118t164.5 -199t61 -273q0 -180 -96 -289.5t-256 -109.5q-119 0 -192 78
q-61 -39 -131 -58.5t-129 -19.5q-54 0 -108 18t-101 52.5t-76 91t-29 125.5q0 79 28 144.5t73 108.5t103.5 72.5t117.5 42.5t117 13q115 0 189 -55.5t58 -151.5l-49 -287q-11 -64 28 -97.5t107 -33.5q129 0 205 99t76 257q0 113 -38 209.5t-103 164.5t-151.5 116.5
t-184.5 72t-201 23.5q-209 0 -373.5 -84t-257 -236.5t-92.5 -348.5q0 -112 26.5 -207t70.5 -162.5t105 -121.5t126 -87.5t136.5 -55.5t134.5 -31t122 -9q301 0 508 86zM1098 307l49 299q12 75 -45 112.5t-139 37.5q-62 0 -125.5 -20t-120 -59t-92 -105.5t-35.5 -149.5
q0 -80 39 -137.5t95 -83t120 -25.5q71 0 143.5 30t110.5 101z" />
    <glyph glyph-name="A" unicode="A" horiz-adv-x="1521" 
d="M1444 0l-254 387h-860l-254 -387h-78l762 1163l764 -1163h-80zM760 1042l-393 -598h784z" />
    <glyph glyph-name="B" unicode="B" horiz-adv-x="1591" 
d="M1057 0h-844v1143h752q62 0 112 -4.5t108 -21t97 -43.5t65.5 -76.5t26.5 -116.5q0 -108 -60 -174.5t-151 -77.5q89 -4 161.5 -37t120.5 -104.5t48 -172.5q0 -74 -25.5 -130.5t-66.5 -90.5t-99 -56t-117 -30t-128 -8zM1059 588h-776v-537h774q56 0 101 4.5t97 21.5
t86.5 44.5t58 78.5t23.5 119q0 67 -22 117t-56.5 78.5t-85 45.5t-97 22.5t-103.5 5.5zM965 1092h-682v-451h686q54 0 93.5 3t88.5 16.5t80 37t52.5 67.5t21.5 105q0 45 -12 80.5t-29.5 58.5t-48 39.5t-56 24.5t-65 12.5t-65 5.5t-64.5 1z" />
    <glyph glyph-name="C" unicode="C" horiz-adv-x="1566" 
d="M1477 150v-56q-231 -114 -582 -114q-133 0 -252 24t-218 73.5t-171.5 119t-113 165.5t-40.5 209t40.5 209t113 166t171.5 119t218 73.5t252 24.5q352 0 582 -112v-58q-207 121 -582 121q-151 0 -280.5 -35t-228.5 -101t-155.5 -171t-56.5 -236t56.5 -235t155.5 -169.5
t228.5 -99.5t280.5 -34q165 0 327 31.5t255 85.5z" />
    <glyph glyph-name="D" unicode="D" horiz-adv-x="1724" 
d="M946 0h-733v1143h733q135 0 248 -32t191 -87t132.5 -128.5t79.5 -155.5t25 -169q0 -88 -25 -170t-79.5 -155t-132.5 -127.5t-191 -86.5t-248 -32zM283 51h665q121 0 221.5 29t170.5 78t118.5 116t71 141.5t22.5 155.5q0 80 -22.5 155t-71 141.5t-118.5 116.5t-171 79
t-221 29h-665v-1041z" />
    <glyph glyph-name="E" unicode="E" horiz-adv-x="1452" 
d="M1350 0h-1137v1143h1137v-49h-1065v-465h897v-54h-897v-522h1065v-53z" />
    <glyph glyph-name="F" unicode="F" horiz-adv-x="1423" 
d="M1182 578h-897v-578h-72v1143h1137v-53h-1065v-459h897v-53z" />
    <glyph glyph-name="G" unicode="G" horiz-adv-x="1759" 
d="M1618 494h-428v51h489q0 -53 -2 -76q-10 -112 -60 -199.5t-124 -141t-173 -88t-196.5 -47.5t-205.5 -13q-178 0 -325.5 37.5t-258 111.5t-171.5 191t-61 268q0 126 43 225.5t116.5 164t177 107t217 60.5t243.5 18q180 0 363 -40.5t329 -125.5v-57q-120 81 -312 123.5
t-384 42.5q-115 0 -215.5 -15t-196 -52t-163 -94.5t-108 -148.5t-40.5 -208q0 -139 56 -246t157 -172t234 -98t294 -33q107 0 204 13.5t190.5 47t161 84t108.5 130t41 180.5z" />
    <glyph glyph-name="H" unicode="H" horiz-adv-x="1798" 
d="M1585 0h-69v594h-1233v-594h-70v1143h70v-488h1233v488h69v-1143z" />
    <glyph glyph-name="I" unicode="I" horiz-adv-x="495" 
d="M283 0h-70v1143h70v-1143z" />
    <glyph glyph-name="J" unicode="J" horiz-adv-x="495" 
d="M-88 -373l8 54q76 -15 127 -15q81 0 123.5 55.5t42.5 196.5v1225h70v-1225q0 -49 -4.5 -87.5t-19 -81.5t-39.5 -71.5t-69 -47.5t-104 -19q-57 0 -135 16z" />
    <glyph glyph-name="K" unicode="K" horiz-adv-x="1435" 
d="M1409 1143l-625 -438l639 -705h-90l-604 666l-446 -314v-352h-70v1143h70v-717l1022 717h104z" />
    <glyph glyph-name="L" unicode="L" horiz-adv-x="1304" 
d="M1266 0h-1053v1143h70v-1088h983v-55z" />
    <glyph glyph-name="M" unicode="M" horiz-adv-x="2220" 
d="M2173 0h-74l-385 1010l-604 -1030l-604 1030l-385 -1010h-74l447 1165l616 -1052l616 1052z" />
    <glyph glyph-name="N" unicode="N" horiz-adv-x="1775" 
d="M1563 -20l-1280 1038v-1018h-70v1163l1280 -1044v1024h70v-1163z" />
    <glyph glyph-name="O" unicode="O" horiz-adv-x="1812" 
d="M1714 571q0 -113 -41.5 -209t-115.5 -165.5t-175.5 -119t-222 -73.5t-254.5 -24t-255 24t-222 73.5t-174.5 119t-114.5 165.5t-41 209q0 112 41 207.5t114.5 165.5t174.5 120t222 74.5t255 24.5t254.5 -24.5t222 -73.5t175.5 -119t115.5 -166t41.5 -209zM1645 571
q0 131 -58 234.5t-159.5 167.5t-234.5 97.5t-288 33.5t-287.5 -33.5t-233.5 -97.5t-158.5 -167.5t-57.5 -234.5t57.5 -234t158.5 -167.5t233.5 -97.5t287.5 -33q156 0 288.5 33t234 97.5t159.5 167.5t58 234z" />
    <glyph glyph-name="P" unicode="P" horiz-adv-x="1409" 
d="M944 516h-661v-516h-70v1143h731q82 0 151 -16t128 -50.5t92 -97t33 -148.5q0 -85 -33.5 -148t-91.5 -98.5t-127.5 -52t-151.5 -16.5zM944 1090h-661v-521h661q71 0 128.5 14t103.5 43.5t71 81.5t25 123t-25 122.5t-71 80.5t-103.5 42.5t-128.5 13.5z" />
    <glyph glyph-name="Q" unicode="Q" horiz-adv-x="1812" 
d="M1714 571q0 -171 -93 -300t-247.5 -199t-353.5 -86l6 -4l399 -203l-34 -55l-314 163q-53 30 -77 42.5t-65.5 28.5t-84.5 24q-215 8 -382.5 76.5t-268.5 201t-101 311.5q0 112 41 207.5t114.5 165.5t174.5 120t222 74.5t255 24.5t254.5 -24.5t222 -73.5t175.5 -119
t115.5 -166t41.5 -209zM1645 571q0 131 -58 234.5t-159.5 167.5t-234.5 97.5t-288 33.5t-287.5 -33.5t-233.5 -97.5t-158.5 -167.5t-57.5 -234.5t57.5 -234t158.5 -167.5t233.5 -97.5t287.5 -33q156 0 288.5 33t234 97.5t159.5 167.5t58 234z" />
    <glyph glyph-name="R" unicode="R" horiz-adv-x="1466" 
d="M1364 0h-78l-358 485h-645v-485h-70v1143h711q64 0 121 -8.5t114 -31t97.5 -58.5t66 -95.5t25.5 -136.5q0 -69 -19 -123t-51 -89.5t-77 -60.5t-92.5 -37t-102.5 -16zM924 1092h-641v-555h641q62 0 111.5 7t96 25.5t78 49t50 79.5t18.5 115q0 81 -27.5 138t-78.5 86.5
t-110.5 42t-137.5 12.5z" />
    <glyph glyph-name="S" unicode="S" horiz-adv-x="1370" 
d="M1227 1085l-4 -47q-81 38 -232.5 57t-306.5 19q-496 0 -496 -231q0 -64 37.5 -108.5t100.5 -68.5t145.5 -39.5t173 -25.5t181 -21.5t173 -32.5t145.5 -54t100.5 -91.5t37.5 -138.5q0 -66 -24.5 -118.5t-69 -86.5t-99 -58t-123.5 -36.5t-132.5 -18t-135.5 -5.5
q-157 0 -323.5 23t-288.5 67l2 55q122 -48 289 -70t323 -22q521 0 521 264q0 89 -60.5 145.5t-157 80.5t-213 37.5t-233 28.5t-213 41.5t-157 87.5t-60.5 156q0 289 555 289q365 0 545 -78z" />
    <glyph glyph-name="T" unicode="T" horiz-adv-x="1339" 
d="M705 0h-68v1092h-617v51h1299v-51h-614v-1092z" />
    <glyph glyph-name="U" unicode="U" horiz-adv-x="1634" 
d="M1382 586v557h70v-557q0 -134 -36 -242.5t-96 -179t-143 -117.5t-172 -67.5t-188 -20.5t-188 20.5t-172 67.5t-143 117.5t-96 179t-36 242.5v557h70v-557q0 -124 32 -223t85.5 -162.5t127.5 -105.5t153 -59.5t167 -17.5t167 17.5t153 59.5t127.5 105.5t85.5 162.5t32 223
z" />
    <glyph glyph-name="V" unicode="V" horiz-adv-x="1441" 
d="M721 -20l-721 1163h76l645 -1049l645 1049h76z" />
    <glyph glyph-name="W" unicode="W" horiz-adv-x="2080" 
d="M1534 -20l-494 1038l-493 -1038l-524 1163h71l457 -1024l489 1044l490 -1044l457 1024h71z" />
    <glyph glyph-name="X" unicode="X" horiz-adv-x="1284" 
d="M1266 0h-88l-537 535l-535 -535h-88l582 578l-569 565h88l522 -522l524 522h88l-571 -565z" />
    <glyph glyph-name="Y" unicode="Y" horiz-adv-x="1357" 
d="M711 0h-66v455l-641 688h86l588 -625l586 625h90l-643 -688v-455z" />
    <glyph glyph-name="Z" unicode="Z" horiz-adv-x="1333" 
d="M1311 0h-1297l1086 1092h-1016v51h1149l-1081 -1092h1159v-51z" />
    <glyph glyph-name="bracketleft" unicode="[" horiz-adv-x="526" 
d="M494 -242h-342v1405h346v-53h-277v-1296h273v-56z" />
    <glyph glyph-name="backslash" unicode="\" horiz-adv-x="704" 
d="M121 1163h59l406 -1183h-64z" />
    <glyph glyph-name="bracketright" unicode="]" horiz-adv-x="526" 
d="M375 -242h-342v56h272v1296h-276v53h346v-1405z" />
    <glyph glyph-name="asciicircum" unicode="^" horiz-adv-x="1048" 
d="M936 461h-74l-338 596l-338 -596h-73l411 702z" />
    <glyph glyph-name="underscore" unicode="_" horiz-adv-x="1038" 
d="M1038 -137h-1038v45h1038v-45z" />
    <glyph glyph-name="grave" unicode="`" horiz-adv-x="403" 
d="M524 1341h-35l-208 195h73z" />
    <glyph glyph-name="a" unicode="a" horiz-adv-x="1380" 
d="M1307 0l-213 324h-807l-213 -324h-72l688 1044l688 -1044h-71zM690 936l-368 -559h737z" />
    <glyph glyph-name="b" unicode="b" horiz-adv-x="1441" 
d="M954 0h-755v1028h678q364 0 364 -248q0 -49 -14.5 -88t-34 -61t-46.5 -37.5t-45.5 -21.5t-37.5 -9q44 -6 77 -13.5t75 -26.5t68.5 -46t45.5 -75t19 -111q0 -291 -394 -291zM954 524h-690v-471h690q70 0 124 9.5t102.5 34t75 72.5t26.5 118t-26.5 118.5t-75.5 73.5
t-103 35t-123 10zM877 975h-613v-397h613q46 0 82.5 3.5t79.5 15.5t71 32.5t47 58.5t19 90q0 39 -11 70t-27 51.5t-42.5 35t-50.5 22t-57 12t-56.5 5.5t-54.5 1z" />
    <glyph glyph-name="c" unicode="c" horiz-adv-x="1447" 
d="M1358 158v-54q-109 -61 -254.5 -92.5t-292.5 -31.5q-206 0 -367.5 61.5t-255.5 183t-94 285.5t93 286t255 185t369 63q310 0 547 -126v-54q-117 66 -260.5 99.5t-284.5 33.5q-187 0 -332.5 -56.5t-231 -168t-85.5 -262.5t86 -261.5t232.5 -166t334.5 -55.5
q142 0 286.5 32.5t254.5 98.5z" />
    <glyph glyph-name="d" unicode="d" horiz-adv-x="1560" 
d="M793 0h-594v1028h594q166 0 298.5 -44t212 -117.5t121 -163.5t41.5 -189q0 -79 -25 -152.5t-79.5 -139.5t-132 -115.5t-190 -78t-246.5 -28.5zM264 53h529q151 0 269.5 38.5t190 104t108 146.5t36.5 172q0 90 -36.5 171t-108 146.5t-190 104.5t-269.5 39h-529v-922z" />
    <glyph glyph-name="e" unicode="e" horiz-adv-x="1318" 
d="M1223 0h-1024v1028h1024v-51h-959v-416h805v-51h-805v-459h959v-51z" />
    <glyph glyph-name="f" unicode="f" horiz-adv-x="1271" 
d="M1049 516h-785v-516h-65v1028h1003v-49h-938v-414h785v-49z" />
    <glyph glyph-name="g" unicode="g" horiz-adv-x="1576" 
d="M1442 438h-385v47h450v-41q0 -200 -189.5 -332t-502.5 -132q-205 0 -365 59t-257 183t-97 298q0 89 26 163.5t69 127.5t103.5 94.5t125.5 67t138.5 42t139 23t131.5 6.5q324 0 568 -149v-64q-106 77 -258 121.5t-310 44.5q-89 0 -174.5 -12.5t-176.5 -46t-158 -85.5
t-110.5 -138t-43.5 -195q0 -121 50.5 -216t139.5 -155t205.5 -91t253.5 -31q118 0 226 24t199.5 71t146.5 129t55 187z" />
    <glyph glyph-name="h" unicode="h" horiz-adv-x="1632" 
d="M1434 0h-66v504h-1104v-504h-65v1028h65v-469h1104v469h66v-1028z" />
    <glyph glyph-name="i" unicode="i" 
d="M264 0h-65v1028h65v-1028z" />
    <glyph glyph-name="j" unicode="j" 
d="M-96 -373l2 49q83 -14 135 -14q96 0 127 50t31 175v1141h65v-1141q0 -55 -3 -91t-15.5 -74.5t-35.5 -60.5t-64.5 -36t-100.5 -14q-47 0 -141 16z" />
    <glyph glyph-name="k" unicode="k" horiz-adv-x="1284" 
d="M1251 1028l-565 -407l584 -621h-84l-553 582l-369 -265v-317h-65v1028h65v-639l887 639h100z" />
    <glyph glyph-name="l" unicode="l" horiz-adv-x="1179" 
d="M1141 0h-942v1028h65v-977h877v-51z" />
    <glyph glyph-name="m" unicode="m" horiz-adv-x="2039" 
d="M1987 0h-62l-323 903l-582 -923l-582 923l-323 -903h-62l371 1044l596 -950l596 950z" />
    <glyph glyph-name="n" unicode="n" horiz-adv-x="1619" 
d="M1421 -20l-1159 938v-918h-63v1044l1159 -940v924h63v-1048z" />
    <glyph glyph-name="o" unicode="o" horiz-adv-x="1656" 
d="M1563 510q0 -161 -94.5 -282t-260 -184.5t-379.5 -63.5q-215 0 -381 63.5t-260 184.5t-94 282t94 283t260.5 186.5t380.5 64.5q213 0 379.5 -64.5t260.5 -186.5t94 -283zM1493 510q0 148 -87.5 259.5t-237.5 169.5t-339 58q-191 0 -341 -58t-237 -169.5t-87 -259.5
q0 -146 87 -257t237 -168.5t341 -57.5q189 0 339 57.5t237.5 168.5t87.5 257z" />
    <glyph glyph-name="p" unicode="p" horiz-adv-x="1292" 
d="M872 453h-608v-453h-65v1028h673q162 0 262.5 -71.5t100.5 -215.5q0 -143 -101 -215.5t-262 -72.5zM872 973h-608v-465h608q297 0 297 233q0 232 -297 232z" />
    <glyph glyph-name="q" unicode="q" horiz-adv-x="1656" 
d="M1563 510q0 -218 -167 -357.5t-442 -166.5l293 -179l-30 -47l-218 131q-78 47 -115 65t-71 24q-211 3 -373 67t-254 184t-92 279q0 161 94 283t260.5 186.5t380.5 64.5q213 0 379.5 -64.5t260.5 -186.5t94 -283zM1493 510q0 148 -87.5 259.5t-237.5 169.5t-339 58
q-191 0 -341 -58t-237 -169.5t-87 -259.5q0 -146 87 -257t237 -168.5t341 -57.5q189 0 339 57.5t237.5 168.5t87.5 257z" />
    <glyph glyph-name="r" unicode="r" horiz-adv-x="1329" 
d="M1231 0h-76l-305 420h-586v-420h-65v1028h653q160 0 261 -78t101 -223q0 -143 -77.5 -217t-212.5 -88zM852 975h-588v-502h588q87 0 147.5 20t92 57t44.5 79.5t13 97.5q0 48 -13.5 89t-44.5 78.5t-92 59t-147 21.5z" />
    <glyph glyph-name="s" unicode="s" horiz-adv-x="1212" 
d="M1083 975l-8 -47q-147 69 -473 69q-41 0 -75 -1t-80 -6t-82 -13t-73.5 -23.5t-62.5 -36t-41 -52t-16 -70.5q0 -56 32.5 -95t87.5 -59.5t126.5 -33.5t150.5 -21.5t158 -18t150.5 -28.5t126.5 -48.5t87.5 -82.5t32.5 -125t-32.5 -126.5t-83 -87.5t-122 -53.5t-140 -28
t-146.5 -7.5q-117 0 -261 16.5t-253 48.5l2 49q110 -34 252.5 -50.5t259.5 -16.5q69 0 130 6t125.5 23t110.5 43.5t75.5 72t29.5 104.5q0 80 -52.5 130t-137 72t-186.5 34.5t-204 25.5t-186.5 36.5t-137 77t-52.5 136.5q0 256 493 256q303 0 475 -69z" />
    <glyph glyph-name="t" unicode="t" horiz-adv-x="1216" 
d="M641 0h-66v975h-550v53h1167v-53h-551v-975z" />
    <glyph glyph-name="u" unicode="u" horiz-adv-x="1499" 
d="M1257 487v541h66v-541q0 -136 -42 -236t-121 -158t-181.5 -85.5t-233.5 -27.5q-569 0 -569 507v541h66v-541q0 -456 506 -456q509 0 509 456z" />
    <glyph glyph-name="v" unicode="v" horiz-adv-x="1351" 
d="M676 -20l-674 1048h78l596 -938l596 938h78z" />
    <glyph glyph-name="w" unicode="w" horiz-adv-x="1949" 
d="M1417 -20l-442 929l-443 -929l-509 1048h71l438 -913l443 929l442 -929l438 913h72z" />
    <glyph glyph-name="x" unicode="x" horiz-adv-x="1218" 
d="M1200 0h-82l-510 483l-508 -483h-82l549 522l-532 506h82l491 -469l494 469h82l-531 -506z" />
    <glyph glyph-name="y" unicode="y" horiz-adv-x="1251" 
d="M659 0h-65v465l-584 563h82l533 -510l534 510h80l-580 -563v-465z" />
    <glyph glyph-name="z" unicode="z" horiz-adv-x="1196" 
d="M1155 0h-1126l972 975h-927v53h1056l-970 -977h995v-51z" />
    <glyph glyph-name="braceleft" unicode="{" horiz-adv-x="534" 
d="M465 -305h-90q-37 0 -64 15.5t-42.5 40t-24.5 64t-12 78.5t-3 91v112q0 51 -2 87t-7 79t-17 71.5t-30.5 54t-48.5 38t-69 12.5h-14v51h14q47 0 80 19.5t51 48.5t28 77.5t12.5 90.5t2.5 104v113q0 52 3 91t12 78.5t24.5 64t42.5 40t64 15.5h90v-49h-76q-29 0 -47.5 -18
t-27.5 -55t-12 -76.5t-3 -98.5v-98q0 -52 -2 -91.5t-9.5 -87t-20 -82t-36 -65t-55.5 -47.5q32 -18 55.5 -48.5t36 -65t20 -81.5t9.5 -86.5t2 -91.5v-96q0 -60 3 -99.5t12 -76t27.5 -54.5t47.5 -18h76v-51z" />
    <glyph glyph-name="bar" unicode="|" horiz-adv-x="370" 
d="M219 1143v-1428h-65v1428h65z" />
    <glyph glyph-name="braceright" unicode="}" horiz-adv-x="532" 
d="M158 -305h-90v51h75q29 0 47.5 18t27.5 54.5t12 76t3 99.5v96q0 52 2 91.5t9.5 86.5t20 81.5t36 65t55.5 48.5q-32 17 -55.5 47.5t-36 65t-20 82t-9.5 87t-2 91.5v98q0 59 -3 98.5t-12 76.5t-27.5 55t-47.5 18h-75v49h90q37 0 64 -15.5t42 -40t24 -64t12 -78t3 -91.5
v-113q0 -62 2.5 -104t12.5 -90.5t28 -77.5t51 -48.5t80 -19.5h15v-51h-15q-39 0 -69 -12.5t-48.5 -38t-30.5 -54t-17 -71.5t-7 -79t-2 -87v-112q0 -53 -3 -91.5t-12 -78t-24 -64t-42 -40t-64 -15.5z" />
    <glyph glyph-name="asciitilde" unicode="~" horiz-adv-x="1173" 
d="M967 623l45 -15q-24 -86 -88 -132t-142 -46q-48 0 -93 16.5t-80 40t-69 47t-73 40t-78 16.5q-56 0 -107 -34t-77 -105l-45 14q23 85 85 131.5t144 46.5q47 0 92 -16.5t80.5 -40t69.5 -47t73.5 -40t79.5 -16.5q60 0 111 35.5t72 104.5z" />
    <glyph glyph-name="uni007F" horiz-adv-x="0" 
 />
    <glyph glyph-name="nonbreakingspace" unicode="&#xa0;" horiz-adv-x="638" 
 />
    <glyph glyph-name="exclamdown" unicode="&#xa1;" horiz-adv-x="413" 
d="M274 965q0 -26 -19.5 -45t-47.5 -19t-46 18.5t-18 47.5q0 25 18.5 43t45.5 18q29 0 48 -17t19 -46zM172 715h70l8 -953h-86z" />
    <glyph glyph-name="cent" unicode="&#xa2;" horiz-adv-x="1243" 
d="M674 -92h-64v180q-230 15 -370 126.5t-140 295.5t140.5 297.5t369.5 128.5v184h64v-182h2q241 0 432 -98v-58q-88 51 -202.5 78t-221.5 27q-229 0 -371.5 -100t-142.5 -275q0 -176 142.5 -275.5t371.5 -99.5q109 0 224 26.5t200 76.5v-58q-87 -46 -201 -71t-225 -25h-8
v-178z" />
    <glyph glyph-name="sterling" unicode="&#xa3;" horiz-adv-x="1308" 
d="M887 457h-461q6 -35 6 -72q0 -239 -260 -336h1026v-49h-1116v49q14 7 58 28t66.5 33t58.5 40t55 56.5t34 75t15 101.5q0 18 -9 74h-231v49h221q-11 39 -36 101t-40.5 116t-15.5 111q0 151 111 240t329 89q93 0 217 -15.5t226 -41.5v-51q-96 28 -225 44.5t-220 16.5
q-100 0 -175 -22.5t-118 -62.5t-63.5 -89t-20.5 -106q0 -70 45 -185.5t52 -144.5h471v-49z" />
    <glyph glyph-name="currency" unicode="&#xa4;" horiz-adv-x="1183" 
d="M1020 119l-49 -45l-88 92q-132 -96 -291 -96t-291 96l-88 -92l-49 45l88 88q-61 76 -88 147t-27 158t27 158t88 147l-88 88l49 45l88 -92q132 96 291 96t291 -96l88 92l49 -45l-88 -88q61 -76 88 -147t27 -158t-27 -158t-88 -147zM985 512q0 163 -110 276t-283 113
t-283 -113t-110 -276t110 -276t283 -113t283 113t110 276z" />
    <glyph glyph-name="yen" unicode="&#xa5;" horiz-adv-x="1488" 
d="M778 0h-65v244h-455v51h455v113h-455v49h453l-639 686h86l587 -625l586 625h90l-641 -686h430v-49h-432v-113h432v-51h-432v-244z" />
    <glyph glyph-name="brokenbar" unicode="&#xa6;" horiz-adv-x="413" 
d="M240 266v-583h-66v583h66zM240 608h-66v555h66v-555z" />
    <glyph glyph-name="section" unicode="&#xa7;" horiz-adv-x="1327" 
d="M111 -295l2 53q117 -46 265 -67t279 -21q49 0 96.5 3.5t107.5 12t109.5 26t92.5 42.5t67.5 65t24.5 91q0 75 -55.5 127t-145 79t-197 46.5t-215 39.5t-197 48t-145 81t-55.5 130q0 157 213 223q-213 70 -213 215q0 69 44.5 121t122.5 82.5t174.5 45.5t211.5 15
q119 0 254 -12t201 -33l-4 -47q-86 22 -223.5 34.5t-231.5 12.5q-54 0 -111 -4.5t-126 -19t-121.5 -36.5t-88.5 -62t-36 -91q0 -64 55.5 -108t145 -67t197 -41.5t215 -40.5t197 -54.5t145 -93t55.5 -146.5q0 -149 -150 -221q150 -78 150 -217q0 -61 -26.5 -110t-73 -80
t-102.5 -53.5t-124 -33.5t-126.5 -15.5t-121.5 -4.5q-137 0 -283 20.5t-253 65.5zM1155 352q0 48 -22 86t-65.5 64t-93.5 45t-120 34t-131 25.5t-139.5 25t-134.5 27.5q-66 -15 -116.5 -38t-86 -63.5t-35.5 -90.5q0 -62 53 -105t146 -67t191 -41t216.5 -41t194.5 -53
q143 66 143 192z" />
    <glyph glyph-name="dieresis" unicode="&#xa8;" horiz-adv-x="679" 
d="M524 1436q0 -21 -14.5 -35.5t-38.5 -14.5t-37.5 14.5t-13.5 35.5t13.5 37t37.5 16q25 0 39 -15.5t14 -37.5zM260 1436q0 -21 -13.5 -35.5t-37.5 -14.5q-25 0 -39 15t-14 35q0 21 14.5 37t38.5 16t37.5 -15.5t13.5 -37.5z" />
    <glyph glyph-name="copyright" unicode="&#xa9;" horiz-adv-x="1417" 
d="M1040 340v-59q-130 -95 -303 -95q-79 0 -155.5 23t-139.5 65t-102 109.5t-39 148.5q0 82 39 150.5t102.5 111.5t141 67t157.5 24q174 0 299 -94v-62q-54 49 -134.5 74.5t-168.5 25.5q-167 0 -266.5 -86t-99.5 -208q0 -123 98.5 -209t263.5 -86q89 0 171 26t136 74z
M1305 541q0 -136 -46.5 -244.5t-128 -176.5t-189 -104t-232.5 -36t-232.5 36t-189 104t-128 176.5t-46.5 244.5q0 110 31 201.5t86 156.5t130 110.5t163 67t186 21.5q125 0 232.5 -35t189 -103t128 -175.5t46.5 -243.5zM1251 539q0 124 -42.5 223t-117 161t-172 95
t-210.5 33q-115 0 -213 -32.5t-172 -95t-116 -161.5t-42 -223t43 -223t117.5 -161t172 -95t210.5 -33t210.5 33t172 95t117 161t42.5 223z" />
    <glyph glyph-name="ordfeminine" unicode="&#xaa;" horiz-adv-x="1046" 
d="M956 487h-69l-150 230h-428l-147 -230h-72l434 676zM702 768l-178 283l-178 -283h356z" />
    <glyph glyph-name="guillemotleft" unicode="&#xab;" horiz-adv-x="886" 
d="M721 133h-39l-260 356l260 357h39l-213 -357zM418 133h-39l-260 356l260 357h39l-213 -357z" />
    <glyph glyph-name="logicalnot" unicode="&#xac;" horiz-adv-x="1021" 
d="M862 193h-51v249h-631v56h682v-305z" />
    <glyph glyph-name="uni00AD" unicode="&#xad;" horiz-adv-x="749" 
d="M596 420h-442v55h442v-55z" />
    <glyph glyph-name="registered" unicode="&#xae;" horiz-adv-x="1417" 
d="M1305 541q0 -136 -46.5 -244.5t-128 -176.5t-189 -104t-232.5 -36t-232.5 36t-189 104t-128 176.5t-46.5 244.5q0 110 31 201.5t86 156.5t130 110.5t163 67t186 21.5q125 0 232.5 -35t189 -103t128 -175.5t46.5 -243.5zM1251 539q0 124 -42.5 223t-117 161t-172 95
t-210.5 33q-115 0 -213 -32.5t-172 -95t-116 -161.5t-42 -223t43 -223t117.5 -161t172 -95t210.5 -33t210.5 33t172 95t117 161t42.5 223zM1083 209h-65l-193 268h-372v-268h-58v676h432q109 0 176.5 -54.5t67.5 -148.5q0 -91 -49 -140.5t-137 -60.5zM823 838h-370v-314h370
q105 0 146 43t41 115q0 64 -42 110t-145 46z" />
    <glyph glyph-name="macron" unicode="&#xaf;" horiz-adv-x="675" 
d="M553 1350h-430v45h430v-45z" />
    <glyph glyph-name="degree" unicode="&#xb0;" horiz-adv-x="718" 
d="M360 694q-103 0 -174 69t-71 167q0 95 71.5 164t173.5 69q100 0 172 -69t72 -164q0 -98 -72 -167t-172 -69zM360 752q75 0 131 53t56 125q0 70 -56.5 122t-130.5 52q-76 0 -131 -51.5t-55 -122.5q0 -72 55 -125t131 -53z" />
    <glyph glyph-name="plusminus" unicode="&#xb1;" horiz-adv-x="1140" 
d="M127 -20v51h887v-51h-887zM598 133h-59v393h-394v58h394v395h59v-395h397v-58h-397v-393z" />
    <glyph glyph-name="twosuperior" unicode="&#xb2;" horiz-adv-x="765" 
d="M702 385h-653v51q106 55 174 92.5t138.5 81t111.5 77t75.5 72t49 76.5t14.5 80q0 94 -68 144.5t-175 50.5q-72 0 -147 -23t-124 -61l-6 55q51 36 127 58t156 22q143 0 224 -70.5t81 -177.5q0 -33 -9 -64.5t-22.5 -58.5t-38.5 -55t-47.5 -49.5t-58.5 -47.5t-63.5 -43.5
t-71 -42t-71.5 -39t-74.5 -39.5t-71.5 -38h550v-51z" />
    <glyph glyph-name="threesuperior" unicode="&#xb3;" horiz-adv-x="778" 
d="M373 750h-99v51h99q106 0 170.5 45.5t64.5 109.5q0 68 -61.5 112t-179.5 44q-73 0 -149 -17t-128 -51v54q106 65 277 65q136 0 222.5 -54.5t86.5 -152.5q0 -65 -52 -116.5t-135 -61.5q91 -8 156.5 -59.5t65.5 -132.5q0 -64 -29 -112.5t-79.5 -76t-112 -40.5t-134.5 -13
q-70 0 -159.5 15t-135.5 36v54q57 -25 139.5 -40.5t155.5 -15.5q143 0 215 50t72 141q0 70 -67.5 118t-202.5 48z" />
    <glyph glyph-name="acute" unicode="&#xb4;" horiz-adv-x="438" 
d="M168 1325h-45l158 209h84z" />
    <glyph glyph-name="mu" unicode="&#xb5;" horiz-adv-x="1470" 
d="M160 -383v1411h67v-590q7 -86 39 -155t80.5 -114.5t112.5 -76t132 -44t142 -13.5q78 0 149.5 15t138 49t115 85t78 129t29.5 174v537h66v-1044h-66v286q-66 -142 -206 -214t-306 -72q-110 0 -206 28.5t-175.5 92t-122.5 155.5v-639h-67z" />
    <glyph glyph-name="paragraph" unicode="&#xb6;" horiz-adv-x="1019" 
d="M854 1143v-1370h-66v1325h-153v-1325h-66v532q-244 0 -366.5 114t-122.5 331q0 214 103 303.5t321 89.5h350z" />
    <glyph glyph-name="periodcentered" unicode="&#xb7;" horiz-adv-x="423" 
d="M211 410q-24 0 -40.5 15.5t-16.5 37.5q0 26 16 41.5t41 15.5t42 -15.5t17 -37.5q0 -26 -17 -41.5t-42 -15.5z" />
    <glyph glyph-name="cedilla" unicode="&#xb8;" horiz-adv-x="452" 
d="M145 -311l19 28q66 -24 123 -24q60 0 94.5 26t34.5 76q0 51 -35.5 75t-87.5 24q-10 0 -23 -1.5t-18 -1.5l74 123h55l-51 -75q76 -6 110.5 -43.5t34.5 -92.5q0 -66 -47 -109.5t-131 -43.5q-93 0 -152 39z" />
    <glyph glyph-name="onesuperior" unicode="&#xb9;" horiz-adv-x="380" 
d="M285 365h-68v694l-158 -164l-39 37l199 205h66v-772z" />
    <glyph glyph-name="ordmasculine" unicode="&#xba;" horiz-adv-x="1103" 
d="M997 827q0 -149 -126.5 -239t-317.5 -90q-192 0 -319.5 90t-127.5 239q0 152 127.5 244t319.5 92q191 0 317.5 -92t126.5 -244zM928 827q0 128 -107 205.5t-268 77.5q-162 0 -269.5 -77.5t-107.5 -205.5q0 -126 107.5 -202t269.5 -76q161 0 268 76t107 202z" />
    <glyph glyph-name="guillemotright" unicode="&#xbb;" horiz-adv-x="886" 
d="M205 133h-39l213 356l-213 357h39l260 -357zM508 133h-39l213 356l-213 357h39l260 -357z" />
    <glyph glyph-name="onequarter" unicode="&#xbc;" horiz-adv-x="1734" 
d="M340 387h-68v680l-161 -168l-37 37l202 207h64v-756zM1499 0h-65v170h-523v51l523 533h65v-533h148v-51h-148v-170zM1434 221v463l-453 -463h453zM551 0h-70l391 1143h70z" />
    <glyph glyph-name="onehalf" unicode="&#xbd;" horiz-adv-x="1984" 
d="M360 395h-61v697l-195 -172l-34 34l229 211h61v-770zM1884 0h-754v47q117 52 191 86t152 72.5t123 67t87.5 61t63.5 63t33 65t12 73.5q0 200 -279 200q-85 0 -175.5 -15t-151.5 -40l-6 47q61 23 155 40t183 17q159 0 248 -62.5t89 -182.5q0 -36 -10 -69t-25.5 -62
t-45 -58.5t-58 -53t-74.5 -51t-85 -48.5t-100 -49.5t-108 -49t-120 -51.5h655v-47zM596 0h-64l431 1143h63z" />
    <glyph glyph-name="threequarters" unicode="&#xbe;" horiz-adv-x="2062" 
d="M1835 0h-61v172h-523v47l523 535h61v-535h147v-47h-147v-172zM1774 219v467l-459 -467h459zM889 0h-66l396 1143h65zM442 762h-104v49h100q121 0 182.5 36.5t61.5 119.5q0 76 -59.5 107.5t-190.5 31.5q-184 0 -282 -39v49q113 39 290 39q69 0 120.5 -8.5t94.5 -28
t65.5 -57t22.5 -90.5q0 -163 -192 -180q229 -13 229 -185q0 -63 -29 -110t-80 -73t-111.5 -38t-131.5 -12q-75 0 -166 12t-139 27v49q118 -37 299 -37q295 0 295 180q0 82 -66.5 120t-208.5 38z" />
    <glyph glyph-name="questiondown" unicode="&#xbf;" horiz-adv-x="1255" 
d="M598 836h66v-99q0 -71 -28.5 -130t-74.5 -99t-101.5 -74.5t-111.5 -64t-102 -60t-74.5 -71t-28.5 -88.5q0 -108 130.5 -169t344.5 -61q150 0 300 29t251 74l5 -46q-75 -43 -234 -75.5t-315 -32.5q-102 0 -195 15.5t-174 47t-129.5 87t-48.5 128.5q0 55 28.5 101t74.5 80
t101.5 65.5t111 64t101.5 68.5t74.5 86.5t28.5 110.5v113zM629 1042q24 0 40.5 -15.5t16.5 -37.5q0 -26 -16 -41.5t-41 -15.5t-42.5 15.5t-17.5 37.5q0 26 17.5 41.5t42.5 15.5z" />
    <glyph glyph-name="Agrave" unicode="&#xc0;" horiz-adv-x="1521" 
d="M1444 0l-254 387h-860l-254 -387h-78l762 1163l764 -1163h-80zM760 1042l-393 -598h784zM881 1319h-35l-209 194h74z" />
    <glyph glyph-name="Aacute" unicode="&#xc1;" horiz-adv-x="1521" 
d="M1444 0l-254 387h-860l-254 -387h-78l762 1163l764 -1163h-80zM760 1042l-393 -598h784zM729 1309h-45l158 209h84z" />
    <glyph glyph-name="Acircumflex" unicode="&#xc2;" horiz-adv-x="1521" 
d="M1444 0l-254 387h-860l-254 -387h-78l762 1163l764 -1163h-80zM760 1042l-393 -598h784zM1012 1282h-47l-203 145l-203 -145h-47l250 229z" />
    <glyph glyph-name="Atilde" unicode="&#xc3;" horiz-adv-x="1521" 
d="M1444 0l-254 387h-860l-254 -387h-78l762 1163l764 -1163h-80zM760 1042l-393 -598h784zM956 1436h27q-8 -55 -37.5 -89t-77.5 -34q-39 0 -95.5 36.5t-88.5 36.5q-59 0 -76 -63h-26q10 56 38.5 89.5t75.5 33.5q39 0 97 -37t90 -37q56 0 73 64z" />
    <glyph glyph-name="Adieresis" unicode="&#xc4;" horiz-adv-x="1521" 
d="M1444 0l-254 387h-860l-254 -387h-78l762 1163l764 -1163h-80zM760 1042l-393 -598h784zM940 1419q0 -21 -14.5 -35t-38.5 -14t-37.5 14t-13.5 35t13.5 37.5t37.5 16.5q25 0 39 -16t14 -38zM676 1419q0 -21 -13.5 -35t-37.5 -14q-25 0 -39.5 14.5t-14.5 34.5
q0 21 15 37.5t39 16.5q23 0 37 -16t14 -38z" />
    <glyph glyph-name="Aring" unicode="&#xc5;" horiz-adv-x="1521" 
d="M1444 0l-254 387h-860l-254 -387h-78l762 1163l764 -1163h-80zM760 1042l-393 -598h784zM760 1210q-90 0 -137.5 43t-47.5 111t47.5 111t137.5 43q89 0 136.5 -43t47.5 -111t-47.5 -111t-136.5 -43zM760 1251q56 0 88.5 34.5t32.5 78.5t-32.5 78.5t-88.5 34.5
t-88.5 -34.5t-32.5 -78.5t32.5 -78.5t88.5 -34.5z" />
    <glyph glyph-name="AE" unicode="&#xc6;" horiz-adv-x="2387" 
d="M2286 0h-1137v387h-717l-414 -387h-84l1215 1141v2h1137v-49h-1065v-467h897v-49h-899v-529h1067v-49zM494 444h655v613z" />
    <glyph glyph-name="Ccedilla" unicode="&#xc7;" horiz-adv-x="1566" 
d="M662 -332l18 29q69 -25 123 -25q60 0 94.5 26.5t34.5 76.5q0 51 -35.5 74.5t-87.5 23.5q-10 0 -23 -1t-18 -1l66 111q-156 7 -289 48.5t-232.5 114.5t-156 182.5t-56.5 243.5q0 113 40.5 209t113 166t171.5 119t218 73.5t252 24.5q352 0 582 -112v-58q-207 121 -582 121
q-151 0 -280.5 -35t-228.5 -101t-155.5 -171t-56.5 -236t56.5 -235t155.5 -169.5t228.5 -99.5t280.5 -34q165 0 327 31.5t255 85.5v-56q-231 -114 -582 -114h-8l-41 -62q76 -6 110.5 -43t34.5 -92q0 -66 -47 -110t-131 -44q-92 0 -151 39z" />
    <glyph glyph-name="Egrave" unicode="&#xc8;" horiz-adv-x="1452" 
d="M1350 0h-1137v1143h1137v-49h-1065v-465h897v-54h-897v-522h1065v-53zM883 1319h-35l-209 194h74z" />
    <glyph glyph-name="Eacute" unicode="&#xc9;" horiz-adv-x="1452" 
d="M1350 0h-1137v1143h1137v-49h-1065v-465h897v-54h-897v-522h1065v-53zM772 1309h-45l158 209h84z" />
    <glyph glyph-name="Ecircumflex" unicode="&#xca;" horiz-adv-x="1452" 
d="M1350 0h-1137v1143h1137v-49h-1065v-465h897v-54h-897v-522h1065v-53zM1014 1282h-47l-203 145l-203 -145h-47l250 229z" />
    <glyph glyph-name="Edieresis" unicode="&#xcb;" horiz-adv-x="1452" 
d="M1350 0h-1137v1143h1137v-49h-1065v-465h897v-54h-897v-522h1065v-53zM1004 1419q0 -21 -15 -35t-39 -14t-37.5 14t-13.5 35t13.5 37.5t37.5 16.5q25 0 39.5 -16t14.5 -38zM739 1419q0 -21 -13.5 -35t-37.5 -14q-25 0 -39 14.5t-14 34.5q0 21 14.5 37.5t38.5 16.5
t37.5 -16t13.5 -38z" />
    <glyph glyph-name="Igrave" unicode="&#xcc;" horiz-adv-x="495" 
d="M283 0h-70v1143h70v-1143zM369 1319h-35l-209 194h74z" />
    <glyph glyph-name="Iacute" unicode="&#xcd;" horiz-adv-x="495" 
d="M283 0h-70v1143h70v-1143zM258 1309h-45l158 209h84z" />
    <glyph glyph-name="Icircumflex" unicode="&#xce;" horiz-adv-x="495" 
d="M283 0h-70v1143h70v-1143zM500 1282h-47l-203 145l-203 -145h-47l250 229z" />
    <glyph glyph-name="Idieresis" unicode="&#xcf;" horiz-adv-x="495" 
d="M283 0h-70v1143h70v-1143zM428 1419q0 -21 -14.5 -35t-38.5 -14t-37.5 14t-13.5 35t13.5 37.5t37.5 16.5q25 0 39 -16t14 -38zM164 1419q0 -21 -13.5 -35t-37.5 -14q-25 0 -39.5 14.5t-14.5 34.5q0 21 15 37.5t39 16.5q23 0 37 -16t14 -38z" />
    <glyph glyph-name="Eth" unicode="&#xd0;" horiz-adv-x="1724" 
d="M946 0h-733v541h-162v45h162v557h733q135 0 248 -32t191 -87t132.5 -128.5t79.5 -155.5t25 -169q0 -88 -25 -170t-79.5 -155t-132.5 -127.5t-191 -86.5t-248 -32zM283 51h665q121 0 221.5 29t170.5 78t118.5 116t71 141.5t22.5 155.5q0 80 -22.5 155t-71 141.5
t-118.5 116.5t-171 79t-221 29h-665v-506h383v-45h-383v-490z" />
    <glyph glyph-name="Ntilde" unicode="&#xd1;" horiz-adv-x="1775" 
d="M1563 -20l-1280 1038v-1018h-70v1163l1280 -1044v1024h70v-1163zM1073 1434h27q-8 -55 -37.5 -89t-77.5 -34q-39 0 -95.5 36.5t-88.5 36.5q-59 0 -76 -63h-27q10 56 39 89.5t76 33.5q39 0 96.5 -37t89.5 -37q57 0 74 64z" />
    <glyph glyph-name="Ograve" unicode="&#xd2;" horiz-adv-x="1812" 
d="M1714 571q0 -113 -41.5 -209t-115.5 -165.5t-175.5 -119t-222 -73.5t-254.5 -24t-255 24t-222 73.5t-174.5 119t-114.5 165.5t-41 209q0 112 41 207.5t114.5 165.5t174.5 120t222 74.5t255 24.5t254.5 -24.5t222 -73.5t175.5 -119t115.5 -166t41.5 -209zM1645 571
q0 131 -58 234.5t-159.5 167.5t-234.5 97.5t-288 33.5t-287.5 -33.5t-233.5 -97.5t-158.5 -167.5t-57.5 -234.5t57.5 -234t158.5 -167.5t233.5 -97.5t287.5 -33q156 0 288.5 33t234 97.5t159.5 167.5t58 234zM1051 1317h-35l-209 194h74z" />
    <glyph glyph-name="Oacute" unicode="&#xd3;" horiz-adv-x="1812" 
d="M1714 571q0 -113 -41.5 -209t-115.5 -165.5t-175.5 -119t-222 -73.5t-254.5 -24t-255 24t-222 73.5t-174.5 119t-114.5 165.5t-41 209q0 112 41 207.5t114.5 165.5t174.5 120t222 74.5t255 24.5t254.5 -24.5t222 -73.5t175.5 -119t115.5 -166t41.5 -209zM1645 571
q0 131 -58 234.5t-159.5 167.5t-234.5 97.5t-288 33.5t-287.5 -33.5t-233.5 -97.5t-158.5 -167.5t-57.5 -234.5t57.5 -234t158.5 -167.5t233.5 -97.5t287.5 -33q156 0 288.5 33t234 97.5t159.5 167.5t58 234zM940 1307h-45l158 209h84z" />
    <glyph glyph-name="Ocircumflex" unicode="&#xd4;" horiz-adv-x="1812" 
d="M1714 571q0 -113 -41.5 -209t-115.5 -165.5t-175.5 -119t-222 -73.5t-254.5 -24t-255 24t-222 73.5t-174.5 119t-114.5 165.5t-41 209q0 112 41 207.5t114.5 165.5t174.5 120t222 74.5t255 24.5t254.5 -24.5t222 -73.5t175.5 -119t115.5 -166t41.5 -209zM1645 571
q0 131 -58 234.5t-159.5 167.5t-234.5 97.5t-288 33.5t-287.5 -33.5t-233.5 -97.5t-158.5 -167.5t-57.5 -234.5t57.5 -234t158.5 -167.5t233.5 -97.5t287.5 -33q156 0 288.5 33t234 97.5t159.5 167.5t58 234zM1182 1280h-47l-203 145l-203 -145h-47l250 229z" />
    <glyph glyph-name="Otilde" unicode="&#xd5;" horiz-adv-x="1812" 
d="M1714 571q0 -113 -41.5 -209t-115.5 -165.5t-175.5 -119t-222 -73.5t-254.5 -24t-255 24t-222 73.5t-174.5 119t-114.5 165.5t-41 209q0 112 41 207.5t114.5 165.5t174.5 120t222 74.5t255 24.5t254.5 -24.5t222 -73.5t175.5 -119t115.5 -166t41.5 -209zM1645 571
q0 131 -58 234.5t-159.5 167.5t-234.5 97.5t-288 33.5t-287.5 -33.5t-233.5 -97.5t-158.5 -167.5t-57.5 -234.5t57.5 -234t158.5 -167.5t233.5 -97.5t287.5 -33q156 0 288.5 33t234 97.5t159.5 167.5t58 234zM1090 1440h26q-8 -55 -37.5 -89t-77.5 -34q-39 0 -95.5 37
t-88.5 37q-59 0 -76 -64h-26q10 56 38.5 89.5t75.5 33.5q39 0 97 -37t90 -37q57 0 74 64z" />
    <glyph glyph-name="Odieresis" unicode="&#xd6;" horiz-adv-x="1812" 
d="M1714 571q0 -113 -41.5 -209t-115.5 -165.5t-175.5 -119t-222 -73.5t-254.5 -24t-255 24t-222 73.5t-174.5 119t-114.5 165.5t-41 209q0 112 41 207.5t114.5 165.5t174.5 120t222 74.5t255 24.5t254.5 -24.5t222 -73.5t175.5 -119t115.5 -166t41.5 -209zM1645 571
q0 131 -58 234.5t-159.5 167.5t-234.5 97.5t-288 33.5t-287.5 -33.5t-233.5 -97.5t-158.5 -167.5t-57.5 -234.5t57.5 -234t158.5 -167.5t233.5 -97.5t287.5 -33q156 0 288.5 33t234 97.5t159.5 167.5t58 234zM1110 1417q0 -21 -14.5 -35t-38.5 -14t-37.5 14t-13.5 35
t13.5 37t37.5 16q25 0 39 -15.5t14 -37.5zM846 1417q0 -21 -13.5 -35t-37.5 -14q-25 0 -39.5 14.5t-14.5 34.5q0 21 15 37t39 16t37.5 -15.5t13.5 -37.5z" />
    <glyph glyph-name="multiply" unicode="&#xd7;" horiz-adv-x="1132" 
d="M977 61l-408 410l-411 -412l-45 43l413 412l-413 410l45 43l409 -412l410 410l43 -43l-408 -408l408 -412z" />
    <glyph glyph-name="Oslash" unicode="&#xd8;" horiz-adv-x="1859" 
d="M580 -217h-66l111 229q-241 58 -384 201.5t-143 357.5q0 139 65.5 252.5t179 187t264 113t323.5 39.5q112 0 239 -20l111 227h68l-117 -240q243 -58 387.5 -201.5t144.5 -357.5q0 -113 -42.5 -209t-118.5 -165.5t-180.5 -119t-229 -73.5t-262.5 -24q-116 0 -246 20z
M1694 571q0 200 -132 330.5t-354 179.5l-499 -1032q105 -18 221 -18q128 0 241.5 21.5t209.5 65.5t165.5 107t108.5 151.5t39 194.5zM168 571q0 -200 129.5 -330.5t349.5 -179.5l500 1033q-105 18 -217 18q-160 0 -297.5 -34.5t-241.5 -100.5t-163.5 -170.5t-59.5 -235.5z
" />
    <glyph glyph-name="Ugrave" unicode="&#xd9;" horiz-adv-x="1634" 
d="M1382 586v557h70v-557q0 -134 -36 -242.5t-96 -179t-143 -117.5t-172 -67.5t-188 -20.5t-188 20.5t-172 67.5t-143 117.5t-96 179t-36 242.5v557h70v-557q0 -124 32 -223t85.5 -162.5t127.5 -105.5t153 -59.5t167 -17.5t167 17.5t153 59.5t127.5 105.5t85.5 162.5t32 223
zM940 1319h-35l-209 194h74z" />
    <glyph glyph-name="Uacute" unicode="&#xda;" horiz-adv-x="1634" 
d="M1382 586v557h70v-557q0 -134 -36 -242.5t-96 -179t-143 -117.5t-172 -67.5t-188 -20.5t-188 20.5t-172 67.5t-143 117.5t-96 179t-36 242.5v557h70v-557q0 -124 32 -223t85.5 -162.5t127.5 -105.5t153 -59.5t167 -17.5t167 17.5t153 59.5t127.5 105.5t85.5 162.5t32 223
zM829 1309h-45l158 209h84z" />
    <glyph glyph-name="Ucircumflex" unicode="&#xdb;" horiz-adv-x="1634" 
d="M1382 586v557h70v-557q0 -134 -36 -242.5t-96 -179t-143 -117.5t-172 -67.5t-188 -20.5t-188 20.5t-172 67.5t-143 117.5t-96 179t-36 242.5v557h70v-557q0 -124 32 -223t85.5 -162.5t127.5 -105.5t153 -59.5t167 -17.5t167 17.5t153 59.5t127.5 105.5t85.5 162.5t32 223
zM1071 1282h-47l-203 145l-203 -145h-47l250 229z" />
    <glyph glyph-name="Udieresis" unicode="&#xdc;" horiz-adv-x="1634" 
d="M1382 586v557h70v-557q0 -134 -36 -242.5t-96 -179t-143 -117.5t-172 -67.5t-188 -20.5t-188 20.5t-172 67.5t-143 117.5t-96 179t-36 242.5v557h70v-557q0 -124 32 -223t85.5 -162.5t127.5 -105.5t153 -59.5t167 -17.5t167 17.5t153 59.5t127.5 105.5t85.5 162.5t32 223
zM999 1419q0 -21 -14.5 -35t-38.5 -14t-37.5 14t-13.5 35t13.5 37.5t37.5 16.5q25 0 39 -16t14 -38zM735 1419q0 -21 -13.5 -35t-37.5 -14q-25 0 -39 14.5t-14 34.5q0 21 14.5 37.5t38.5 16.5t37.5 -16t13.5 -38z" />
    <glyph glyph-name="Yacute" unicode="&#xdd;" horiz-adv-x="1357" 
d="M711 0h-66v455l-641 688h86l588 -625l586 625h90l-643 -688v-455zM688 1307h-45l158 209h84z" />
    <glyph glyph-name="Thorn" unicode="&#xde;" horiz-adv-x="1284" 
d="M870 344h-594v-344h-63v1143h63v-275h594q94 0 165 -22t111.5 -59.5t60.5 -82.5t20 -96q0 -52 -20 -97.5t-60.5 -84t-111.5 -60.5t-165 -22zM870 817h-594v-424h594q133 0 210 64t77 149q0 84 -77 147.5t-210 63.5z" />
    <glyph glyph-name="germandbls" unicode="&#xdf;" horiz-adv-x="1427" 
d="M942 0h-389v45h385q47 0 89 6t88 24.5t79 47.5t54.5 79t21.5 115q0 63 -20 111.5t-51.5 78.5t-75.5 49t-87.5 26.5t-91.5 7.5h-391v49h311q46 0 82 3.5t79 17.5t71 38t47.5 68t19.5 104q0 47 -12 83.5t-29 60t-46.5 40.5t-53.5 25.5t-61.5 13t-59.5 5t-57 0.5h-275
q-37 0 -60.5 -1t-60.5 -5.5t-61 -13.5t-52 -26.5t-44.5 -42t-27.5 -62t-11 -85.5v-862h-66v862q0 281 383 281h277q54 0 103 -6t102 -24t91 -47t62.5 -79t24.5 -115q0 -96 -49 -161t-129 -86q121 -5 202.5 -96.5t81.5 -225.5q0 -53 -14.5 -97t-38 -75t-56.5 -54.5t-68 -38
t-75 -23.5t-73.5 -12t-67.5 -3z" />
    <glyph glyph-name="agrave" unicode="&#xe0;" horiz-adv-x="1380" 
d="M1307 0l-213 324h-807l-213 -324h-72l688 1044l688 -1044h-71zM690 936l-368 -559h737zM811 1184h-35l-209 194h74z" />
    <glyph glyph-name="aacute" unicode="&#xe1;" horiz-adv-x="1380" 
d="M1307 0l-213 324h-807l-213 -324h-72l688 1044l688 -1044h-71zM690 936l-368 -559h737zM700 1174h-45l158 208h84z" />
    <glyph glyph-name="acircumflex" unicode="&#xe2;" horiz-adv-x="1380" 
d="M1307 0l-213 324h-807l-213 -324h-72l688 1044l688 -1044h-71zM690 936l-368 -559h737zM942 1147h-47l-203 145l-203 -145h-47l250 229z" />
    <glyph glyph-name="atilde" unicode="&#xe3;" horiz-adv-x="1380" 
d="M1307 0l-213 324h-807l-213 -324h-72l688 1044l688 -1044h-71zM690 936l-368 -559h737zM887 1300h26q-8 -55 -37 -88.5t-77 -33.5q-39 0 -96 36.5t-89 36.5q-58 0 -75 -63h-27q10 56 39 89.5t76 33.5q39 0 96.5 -37t89.5 -37q57 0 74 63z" />
    <glyph glyph-name="adieresis" unicode="&#xe4;" horiz-adv-x="1380" 
d="M1307 0l-213 324h-807l-213 -324h-72l688 1044l688 -1044h-71zM690 936l-368 -559h737zM870 1284q0 -21 -14.5 -35t-38.5 -14t-37.5 14t-13.5 35t13.5 37t37.5 16q25 0 39 -15.5t14 -37.5zM606 1284q0 -21 -13.5 -35t-37.5 -14q-25 0 -39 14.5t-14 34.5q0 21 14.5 37
t38.5 16t37.5 -15.5t13.5 -37.5z" />
    <glyph glyph-name="aring" unicode="&#xe5;" horiz-adv-x="1380" 
d="M1307 0l-213 324h-807l-213 -324h-72l688 1044l688 -1044h-71zM690 936l-368 -559h737zM690 1075q-90 0 -137 43t-47 111t47 110.5t137 42.5q89 0 136.5 -42.5t47.5 -110.5t-47.5 -111t-136.5 -43zM690 1116q56 0 88.5 34.5t32.5 78.5t-32.5 78t-88.5 34t-88.5 -34
t-32.5 -78t32.5 -78.5t88.5 -34.5z" />
    <glyph glyph-name="ae" unicode="&#xe6;" horiz-adv-x="2150" 
d="M2056 0h-1020v340h-643l-362 -340h-84l1089 1024h1020v-49h-950v-410h799v-51h-801v-463h952v-51zM455 397h581v545z" />
    <glyph glyph-name="ccedilla" unicode="&#xe7;" horiz-adv-x="1447" 
d="M614 -297l19 29q69 -25 123 -25q60 0 94.5 26.5t34.5 76.5q0 51 -35.5 74.5t-87.5 23.5q-10 0 -23 -1t-18 -1l43 74q-194 7 -344.5 70.5t-238 182.5t-87.5 277q0 164 93 286t255 185t369 63q310 0 547 -126v-54q-117 66 -260.5 99.5t-284.5 33.5q-187 0 -332.5 -56.5
t-231 -168t-85.5 -262.5q0 -148 82.5 -257.5t223.5 -166t323 -59.5l2 2h55l-2 -2q137 3 272 35.5t238 95.5v-54q-105 -60 -249 -91t-292 -33l-18 -27q76 -6 110.5 -43t34.5 -92q0 -66 -47 -110t-131 -44q-93 0 -152 39z" />
    <glyph glyph-name="egrave" unicode="&#xe8;" horiz-adv-x="1318" 
d="M1223 0h-1024v1028h1024v-51h-959v-416h805v-51h-805v-459h959v-51zM758 1184h-35l-209 194h74z" />
    <glyph glyph-name="eacute" unicode="&#xe9;" horiz-adv-x="1318" 
d="M1223 0h-1024v1028h1024v-51h-959v-416h805v-51h-805v-459h959v-51zM709 1174h-45l157 208h84z" />
    <glyph glyph-name="ecircumflex" unicode="&#xea;" horiz-adv-x="1318" 
d="M1223 0h-1024v1028h1024v-51h-959v-416h805v-51h-805v-459h959v-51zM950 1147h-47l-203 145l-202 -145h-47l249 229z" />
    <glyph glyph-name="edieresis" unicode="&#xeb;" horiz-adv-x="1318" 
d="M1223 0h-1024v1028h1024v-51h-959v-416h805v-51h-805v-459h959v-51zM879 1284q0 -21 -15 -35t-39 -14t-37.5 14t-13.5 35t13.5 37t37.5 16q25 0 39.5 -15.5t14.5 -37.5zM614 1284q0 -21 -13.5 -35t-37.5 -14q-25 0 -39 14.5t-14 34.5q0 21 14.5 37t38.5 16t37.5 -15.5
t13.5 -37.5z" />
    <glyph glyph-name="igrave" unicode="&#xec;" 
d="M264 0h-65v1028h65v-1028zM354 1204h-35l-208 195h73z" />
    <glyph glyph-name="iacute" unicode="&#xed;" 
d="M264 0h-65v1028h65v-1028zM244 1194h-45l157 209h84z" />
    <glyph glyph-name="icircumflex" unicode="&#xee;" 
d="M264 0h-65v1028h65v-1028zM485 1167h-47l-202 146l-203 -146h-47l250 230z" />
    <glyph glyph-name="idieresis" unicode="&#xef;" 
d="M264 0h-65v1028h65v-1028zM414 1305q0 -21 -15 -35.5t-39 -14.5t-37.5 14.5t-13.5 35.5t13.5 37t37.5 16q25 0 39.5 -15.5t14.5 -37.5zM150 1305q0 -21 -14 -35.5t-38 -14.5q-25 0 -39 15t-14 35q0 21 14.5 37t38.5 16t38 -16t14 -37z" />
    <glyph glyph-name="eth" unicode="&#xf0;" horiz-adv-x="1560" 
d="M793 0h-594v483h-154v56h154v489h594q166 0 298.5 -44t212 -117.5t121 -163.5t41.5 -189q0 -79 -25 -152.5t-79.5 -139.5t-132 -115.5t-190 -78t-246.5 -28.5zM264 47h529q151 0 270.5 39.5t191.5 106t109 148.5t37 173q0 90 -37 171.5t-109 148.5t-191.5 107t-270.5 40
h-529v-442h305v-56h-305v-436z" />
    <glyph glyph-name="ntilde" unicode="&#xf1;" horiz-adv-x="1619" 
d="M1421 -20l-1159 938v-918h-63v1044l1159 -940v924h63v-1048zM995 1329h27q-8 -55 -37.5 -89t-77.5 -34q-39 0 -95.5 37t-88.5 37q-59 0 -76 -63h-26q10 56 38.5 89t75.5 33q39 0 97 -36.5t90 -36.5q56 0 73 63z" />
    <glyph glyph-name="ograve" unicode="&#xf2;" horiz-adv-x="1656" 
d="M1563 510q0 -161 -94.5 -282t-260 -184.5t-379.5 -63.5q-215 0 -381 63.5t-260 184.5t-94 282t94 283t260.5 186.5t380.5 64.5q213 0 379.5 -64.5t260.5 -186.5t94 -283zM1493 510q0 148 -87.5 259.5t-237.5 169.5t-339 58q-191 0 -341 -58t-237 -169.5t-87 -259.5
q0 -146 87 -257t237 -168.5t341 -57.5q189 0 339 57.5t237.5 168.5t87.5 257zM965 1122h-35l-209 195h74z" />
    <glyph glyph-name="oacute" unicode="&#xf3;" horiz-adv-x="1656" 
d="M1563 510q0 -161 -94.5 -282t-260 -184.5t-379.5 -63.5q-215 0 -381 63.5t-260 184.5t-94 282t94 283t260.5 186.5t380.5 64.5q213 0 379.5 -64.5t260.5 -186.5t94 -283zM1493 510q0 148 -87.5 259.5t-237.5 169.5t-339 58q-191 0 -341 -58t-237 -169.5t-87 -259.5
q0 -146 87 -257t237 -168.5t341 -57.5q189 0 339 57.5t237.5 168.5t87.5 257zM854 1214h-45l158 209h84z" />
    <glyph glyph-name="ocircumflex" unicode="&#xf4;" horiz-adv-x="1656" 
d="M1563 510q0 -161 -94.5 -282t-260 -184.5t-379.5 -63.5q-215 0 -381 63.5t-260 184.5t-94 282t94 283t260.5 186.5t380.5 64.5q213 0 379.5 -64.5t260.5 -186.5t94 -283zM1493 510q0 148 -87.5 259.5t-237.5 169.5t-339 58q-191 0 -341 -58t-237 -169.5t-87 -259.5
q0 -146 87 -257t237 -168.5t341 -57.5q189 0 339 57.5t237.5 168.5t87.5 257zM1096 1188h-47l-203 145l-203 -145h-47l250 229z" />
    <glyph glyph-name="otilde" unicode="&#xf5;" horiz-adv-x="1656" 
d="M1563 510q0 -161 -94.5 -282t-260 -184.5t-379.5 -63.5q-215 0 -381 63.5t-260 184.5t-94 282t94 283t260.5 186.5t380.5 64.5q213 0 379.5 -64.5t260.5 -186.5t94 -283zM1493 510q0 148 -87.5 259.5t-237.5 169.5t-339 58q-191 0 -341 -58t-237 -169.5t-87 -259.5
q0 -146 87 -257t237 -168.5t341 -57.5q189 0 339 57.5t237.5 168.5t87.5 257zM1010 1264h26q-8 -55 -37 -89t-77 -34q-39 0 -96 36.5t-89 36.5q-58 0 -75 -63h-27q10 56 39 89.5t76 33.5q39 0 96.5 -37t89.5 -37q57 0 74 64z" />
    <glyph glyph-name="odieresis" unicode="&#xf6;" horiz-adv-x="1656" 
d="M1563 510q0 -161 -94.5 -282t-260 -184.5t-379.5 -63.5q-215 0 -381 63.5t-260 184.5t-94 282t94 283t260.5 186.5t380.5 64.5q213 0 379.5 -64.5t260.5 -186.5t94 -283zM1493 510q0 148 -87.5 259.5t-237.5 169.5t-339 58q-191 0 -341 -58t-237 -169.5t-87 -259.5
q0 -146 87 -257t237 -168.5t341 -57.5q189 0 339 57.5t237.5 168.5t87.5 257zM1024 1325q0 -21 -14.5 -35t-38.5 -14t-37.5 14t-13.5 35t13.5 37t37.5 16q25 0 39 -15.5t14 -37.5zM760 1325q0 -21 -13.5 -35t-37.5 -14q-25 0 -39.5 14.5t-14.5 34.5q0 21 15 37t39 16
t37.5 -15.5t13.5 -37.5z" />
    <glyph glyph-name="divide" unicode="&#xf7;" horiz-adv-x="1380" 
d="M745 934q0 -23 -17 -42.5t-40 -19.5q-26 0 -43.5 19.5t-17.5 44.5q0 24 17.5 41.5t43.5 17.5q24 0 40.5 -17.5t16.5 -43.5zM1221 481h-1061v51h1061v-51zM690 35q-29 0 -46 17t-17 42q0 26 17.5 43t45.5 17q22 0 40 -17.5t18 -40.5q0 -24 -18 -42.5t-40 -18.5z" />
    <glyph glyph-name="oslash" unicode="&#xf8;" horiz-adv-x="1656" 
d="M555 -143h-68l76 151q-218 52 -343.5 182.5t-125.5 319.5q0 161 94 283t260.5 186.5t380.5 64.5q128 0 242 -24l72 143h67l-80 -159q201 -57 317 -185.5t116 -308.5q0 -161 -94.5 -282t-260 -184.5t-379.5 -63.5q-103 0 -204 16zM164 510q0 -170 114.5 -290t307.5 -167
l463 922q-107 22 -220 22q-191 0 -341 -58t-237 -169.5t-87 -259.5zM1493 510q0 162 -103.5 278t-281.5 170l-461 -917q80 -14 182 -14q189 0 339 57.5t237.5 168.5t87.5 257z" />
    <glyph glyph-name="ugrave" unicode="&#xf9;" horiz-adv-x="1499" 
d="M1257 487v541h66v-541q0 -136 -42 -236t-121 -158t-181.5 -85.5t-233.5 -27.5q-569 0 -569 507v541h66v-541q0 -456 506 -456q509 0 509 456zM864 1184h-35l-208 194h73z" />
    <glyph glyph-name="uacute" unicode="&#xfa;" horiz-adv-x="1499" 
d="M1257 487v541h66v-541q0 -136 -42 -236t-121 -158t-181.5 -85.5t-233.5 -27.5q-569 0 -569 507v541h66v-541q0 -456 506 -456q509 0 509 456zM754 1174h-45l157 208h84z" />
    <glyph glyph-name="ucircumflex" unicode="&#xfb;" horiz-adv-x="1499" 
d="M1257 487v541h66v-541q0 -136 -42 -236t-121 -158t-181.5 -85.5t-233.5 -27.5q-569 0 -569 507v541h66v-541q0 -456 506 -456q509 0 509 456zM995 1147h-47l-203 145l-202 -145h-47l249 229z" />
    <glyph glyph-name="udieresis" unicode="&#xfc;" horiz-adv-x="1499" 
d="M1257 487v541h66v-541q0 -136 -42 -236t-121 -158t-181.5 -85.5t-233.5 -27.5q-569 0 -569 507v541h66v-541q0 -456 506 -456q509 0 509 456zM924 1284q0 -21 -15 -35t-39 -14t-37.5 14t-13.5 35t13.5 37t37.5 16q25 0 39.5 -15.5t14.5 -37.5zM659 1284q0 -21 -13.5 -35
t-37.5 -14q-25 0 -39 14.5t-14 34.5q0 21 14.5 37t38.5 16t37.5 -15.5t13.5 -37.5z" />
    <glyph glyph-name="yacute" unicode="&#xfd;" horiz-adv-x="1251" 
d="M659 0h-65v465l-584 563h82l533 -510l534 510h80l-580 -563v-465zM633 1174h-45l157 208h84z" />
    <glyph glyph-name="thorn" unicode="&#xfe;" horiz-adv-x="1282" 
d="M885 240h-619v-240h-67v1028h67v-219h619q162 0 250 -84t88 -199q0 -117 -89.5 -201.5t-248.5 -84.5zM885 760h-619v-469h619q130 0 201 64t71 171q0 103 -71.5 168.5t-200.5 65.5z" />
    <glyph glyph-name="ydieresis" unicode="&#xff;" horiz-adv-x="1251" 
d="M659 0h-65v465l-584 563h82l533 -510l534 510h80l-580 -563v-465zM803 1284q0 -21 -14.5 -35t-38.5 -14t-38 14t-14 35t13.5 37t38.5 16t39 -15.5t14 -37.5zM539 1284q0 -21 -14 -35t-38 -14q-25 0 -39 14.5t-14 34.5q0 21 14.5 37t38.5 16t38 -16t14 -37z" />
    <glyph glyph-name="Amacron" unicode="&#x100;" horiz-adv-x="1521" 
d="M1444 0l-254 387h-860l-254 -387h-78l762 1163l764 -1163h-80zM760 1042l-393 -598h784zM975 1333h-430v45h430v-45z" />
    <glyph glyph-name="amacron" unicode="&#x101;" horiz-adv-x="1380" 
d="M1307 0l-213 324h-807l-213 -324h-72l688 1044l688 -1044h-71zM690 936l-368 -559h737zM905 1198h-430v45h430v-45z" />
    <glyph glyph-name="Abreve" unicode="&#x102;" horiz-adv-x="1521" 
d="M1444 0l-254 387h-860l-254 -387h-78l762 1163l764 -1163h-80zM760 1042l-393 -598h784zM922 1432h43q0 -78 -54.5 -124t-142.5 -46t-142.5 46t-54.5 124h43q0 -49 44 -81t110 -32q65 0 109.5 32t44.5 81z" />
    <glyph glyph-name="abreve" unicode="&#x103;" horiz-adv-x="1380" 
d="M1307 0l-213 324h-807l-213 -324h-72l688 1044l688 -1044h-71zM690 936l-368 -559h737zM844 1296h43q0 -78 -54.5 -124t-142.5 -46t-142 46t-54 124h43q0 -49 43.5 -80.5t109.5 -31.5q65 0 109.5 31.5t44.5 80.5z" />
    <glyph glyph-name="Aogonek" unicode="&#x104;" horiz-adv-x="1521" 
d="M1444 0l-254 387h-860l-254 -387h-78l762 1163l764 -1163q-66 -19 -103 -53.5t-37 -77.5q0 -38 29 -66t86 -28q62 0 111 35l16 -21q-54 -68 -158 -68q-66 0 -107.5 34t-41.5 91q0 98 125 154zM760 1042l-393 -598h784z" />
    <glyph glyph-name="aogonek" unicode="&#x105;" horiz-adv-x="1380" 
d="M1460 -190l17 -21q-54 -68 -158 -68q-67 0 -108.5 34t-41.5 91q0 51 36 90.5t100 63.5l-226 344h-780l-225 -344h-72l688 1044l688 -1044q-68 -19 -105.5 -53.5t-37.5 -77.5q0 -38 29 -66t86 -28q61 0 110 35zM690 936l-354 -537h706z" />
    <glyph glyph-name="Cacute" unicode="&#x106;" horiz-adv-x="1566" 
d="M1477 150v-56q-231 -114 -582 -114q-133 0 -252 24t-218 73.5t-171.5 119t-113 165.5t-40.5 209t40.5 209t113 166t171.5 119t218 73.5t252 24.5q352 0 582 -112v-58q-207 121 -582 121q-151 0 -280.5 -35t-228.5 -101t-155.5 -171t-56.5 -236t56.5 -235t155.5 -169.5
t228.5 -99.5t280.5 -34q165 0 327 31.5t255 85.5zM805 1309h-45l158 209h83z" />
    <glyph glyph-name="cacute" unicode="&#x107;" horiz-adv-x="1447" 
d="M1358 158v-54q-109 -61 -254.5 -92.5t-292.5 -31.5q-206 0 -367.5 61.5t-255.5 183t-94 285.5t93 286t255 185t369 63q310 0 547 -126v-54q-117 66 -260.5 99.5t-284.5 33.5q-187 0 -332.5 -56.5t-231 -168t-85.5 -262.5t86 -261.5t232.5 -166t334.5 -55.5
q142 0 286.5 32.5t254.5 98.5zM819 1194h-45l158 209h84z" />
    <glyph glyph-name="Ccircumflex" unicode="&#x108;" horiz-adv-x="1566" 
d="M1477 150v-56q-231 -114 -582 -114q-133 0 -252 24t-218 73.5t-171.5 119t-113 165.5t-40.5 209t40.5 209t113 166t171.5 119t218 73.5t252 24.5q352 0 582 -112v-58q-207 121 -582 121q-151 0 -280.5 -35t-228.5 -101t-155.5 -171t-56.5 -236t56.5 -235t155.5 -169.5
t228.5 -99.5t280.5 -34q165 0 327 31.5t255 85.5zM1128 1282h-47l-202 145l-203 -145h-47l250 229z" />
    <glyph glyph-name="ccircumflex" unicode="&#x109;" horiz-adv-x="1447" 
d="M1358 158v-54q-109 -61 -254.5 -92.5t-292.5 -31.5q-206 0 -367.5 61.5t-255.5 183t-94 285.5t93 286t255 185t369 63q310 0 547 -126v-54q-117 66 -260.5 99.5t-284.5 33.5q-187 0 -332.5 -56.5t-231 -168t-85.5 -262.5t86 -261.5t232.5 -166t334.5 -55.5
q142 0 286.5 32.5t254.5 98.5zM1061 1167h-47l-203 146l-203 -146h-47l250 230z" />
    <glyph glyph-name="Cdotaccent" unicode="&#x10a;" horiz-adv-x="1566" 
d="M1477 150v-56q-231 -114 -582 -114q-133 0 -252 24t-218 73.5t-171.5 119t-113 165.5t-40.5 209t40.5 209t113 166t171.5 119t218 73.5t252 24.5q352 0 582 -112v-58q-207 121 -582 121q-151 0 -280.5 -35t-228.5 -101t-155.5 -171t-56.5 -236t56.5 -235t155.5 -169.5
t228.5 -99.5t280.5 -34q165 0 327 31.5t255 85.5zM858 1339q-21 0 -37 14.5t-16 32.5q0 22 15.5 37t37.5 15q19 0 34 -16t15 -36q0 -19 -15 -33t-34 -14z" />
    <glyph glyph-name="cdotaccent" unicode="&#x10b;" horiz-adv-x="1447" 
d="M1358 158v-54q-109 -61 -254.5 -92.5t-292.5 -31.5q-206 0 -367.5 61.5t-255.5 183t-94 285.5t93 286t255 185t369 63q310 0 547 -126v-54q-117 66 -260.5 99.5t-284.5 33.5q-187 0 -332.5 -56.5t-231 -168t-85.5 -262.5t86 -261.5t232.5 -166t334.5 -55.5
q142 0 286.5 32.5t254.5 98.5zM791 1225q-21 0 -37.5 14.5t-16.5 32.5q0 21 16 36t38 15q19 0 34 -15.5t15 -35.5q0 -19 -15 -33t-34 -14z" />
    <glyph glyph-name="Ccaron" unicode="&#x10c;" horiz-adv-x="1566" 
d="M1477 150v-56q-231 -114 -582 -114q-133 0 -252 24t-218 73.5t-171.5 119t-113 165.5t-40.5 209t40.5 209t113 166t171.5 119t218 73.5t252 24.5q352 0 582 -112v-58q-207 121 -582 121q-151 0 -280.5 -35t-228.5 -101t-155.5 -171t-56.5 -236t56.5 -235t155.5 -169.5
t228.5 -99.5t280.5 -34q165 0 327 31.5t255 85.5zM1118 1520h47l-270 -252l-270 252h47l223 -168z" />
    <glyph glyph-name="ccaron" unicode="&#x10d;" horiz-adv-x="1447" 
d="M1358 158v-54q-109 -61 -254.5 -92.5t-292.5 -31.5q-206 0 -367.5 61.5t-255.5 183t-94 285.5t93 286t255 185t369 63q310 0 547 -126v-54q-117 66 -260.5 99.5t-284.5 33.5q-187 0 -332.5 -56.5t-231 -168t-85.5 -262.5t86 -261.5t232.5 -166t334.5 -55.5
q142 0 286.5 32.5t254.5 98.5zM1030 1405h47l-270 -252l-270 252h47l223 -168z" />
    <glyph glyph-name="Dcaron" unicode="&#x10e;" horiz-adv-x="1724" 
d="M946 0h-733v1143h733q135 0 248 -32t191 -87t132.5 -128.5t79.5 -155.5t25 -169q0 -88 -25 -170t-79.5 -155t-132.5 -127.5t-191 -86.5t-248 -32zM283 51h665q121 0 221.5 29t170.5 78t118.5 116t71 141.5t22.5 155.5q0 80 -22.5 155t-71 141.5t-118.5 116.5t-171 79
t-221 29h-665v-1041zM1116 1530h47l-270 -252l-270 252h47l223 -168z" />
    <glyph glyph-name="dcaron" unicode="&#x10f;" horiz-adv-x="1562" 
d="M793 0h-594v1028h594q166 0 298.5 -44t212 -117.5t121 -163.5t41.5 -189q0 -79 -25 -152.5t-79.5 -139.5t-132 -115.5t-190 -78t-246.5 -28.5zM264 53h529q151 0 269.5 38.5t190 104t108 146.5t36.5 172q0 90 -36.5 171t-108 146.5t-190 104.5t-269.5 39h-529v-922z
M1030 1411h47l-270 -252l-270 252h47l223 -168z" />
    <glyph glyph-name="Dcroat" unicode="&#x110;" horiz-adv-x="1724" 
d="M946 0h-733v541h-162v45h162v557h733q135 0 248 -32t191 -87t132.5 -128.5t79.5 -155.5t25 -169q0 -88 -25 -170t-79.5 -155t-132.5 -127.5t-191 -86.5t-248 -32zM283 51h665q121 0 221.5 29t170.5 78t118.5 116t71 141.5t22.5 155.5q0 80 -22.5 155t-71 141.5
t-118.5 116.5t-171 79t-221 29h-665v-506h383v-45h-383v-490z" />
    <glyph glyph-name="dcroat" unicode="&#x111;" horiz-adv-x="1560" 
d="M793 0h-594v483h-154v56h154v489h594q166 0 298.5 -44t212 -117.5t121 -163.5t41.5 -189q0 -79 -25 -152.5t-79.5 -139.5t-132 -115.5t-190 -78t-246.5 -28.5zM264 47h529q151 0 270.5 39.5t191.5 106t109 148.5t37 173q0 90 -37 171.5t-109 148.5t-191.5 107t-270.5 40
h-529v-442h305v-56h-305v-436z" />
    <glyph glyph-name="Emacron" unicode="&#x112;" horiz-adv-x="1452" 
d="M1350 0h-1137v1143h1137v-49h-1065v-465h897v-54h-897v-522h1065v-53zM1038 1333h-430v45h430v-45z" />
    <glyph glyph-name="emacron" unicode="&#x113;" horiz-adv-x="1318" 
d="M1223 0h-1024v1028h1024v-51h-959v-416h805v-51h-805v-459h959v-51zM913 1198h-430v45h430v-45z" />
    <glyph glyph-name="Ebreve" unicode="&#x114;" horiz-adv-x="1452" 
d="M1350 0h-1137v1143h1137v-49h-1065v-465h897v-54h-897v-522h1065v-53zM965 1432h43q0 -78 -54.5 -124t-142.5 -46t-142.5 46t-54.5 124h43q0 -49 44 -81t110 -32q65 0 109.5 32t44.5 81z" />
    <glyph glyph-name="ebreve" unicode="&#x115;" horiz-adv-x="1318" 
d="M1223 0h-1024v1028h1024v-51h-959v-416h805v-51h-805v-459h959v-51zM860 1296h43q0 -78 -54 -124t-142 -46t-142.5 46t-54.5 124h43q0 -49 44 -80.5t110 -31.5q65 0 109 31.5t44 80.5z" />
    <glyph glyph-name="Edotaccent" unicode="&#x116;" horiz-adv-x="1452" 
d="M1350 0h-1137v1143h1137v-49h-1065v-465h897v-54h-897v-522h1065v-53zM805 1339q-21 0 -37 14.5t-16 32.5q0 22 15.5 37t37.5 15q19 0 34 -16t15 -36q0 -19 -15 -33t-34 -14z" />
    <glyph glyph-name="edotaccent" unicode="&#x117;" horiz-adv-x="1318" 
d="M1223 0h-1024v1028h1024v-51h-959v-416h805v-51h-805v-459h959v-51zM700 1204q-21 0 -37 14.5t-16 32.5q0 22 15.5 37t37.5 15q19 0 34.5 -16t15.5 -36q0 -19 -15.5 -33t-34.5 -14z" />
    <glyph glyph-name="Eogonek" unicode="&#x118;" horiz-adv-x="1452" 
d="M1458 -195l17 -20q-54 -68 -156 -68q-69 0 -110.5 34.5t-41.5 92.5q0 102 125 156h-1079v1143h1137v-49h-1065v-465h897v-54h-897v-522h1065v-53q-47 -19 -85 -59t-38 -82q0 -38 28.5 -66.5t81.5 -28.5q64 0 121 41z" />
    <glyph glyph-name="eogonek" unicode="&#x119;" horiz-adv-x="1318" 
d="M1319 -188l16 -21q-53 -67 -155 -67q-69 0 -110.5 34t-41.5 92q0 96 111 150h-940v1028h1024v-51h-959v-416h805v-51h-805v-459h959v-51h-27q-43 -20 -76 -58t-33 -77q0 -37 29 -65.5t82 -28.5q64 0 121 41z" />
    <glyph glyph-name="Ecaron" unicode="&#x11a;" horiz-adv-x="1452" 
d="M1350 0h-1137v1143h1137v-49h-1065v-465h897v-54h-897v-522h1065v-53zM1018 1520h47l-270 -252l-271 252h47l224 -168z" />
    <glyph glyph-name="ecaron" unicode="&#x11b;" horiz-adv-x="1318" 
d="M1223 0h-1024v1028h1024v-51h-959v-416h805v-51h-805v-459h959v-51zM920 1384h47l-271 -251l-270 251h47l223 -167z" />
    <glyph glyph-name="Gcircumflex" unicode="&#x11c;" horiz-adv-x="1759" 
d="M1618 494h-428v51h489q0 -53 -2 -76q-10 -112 -60 -199.5t-124 -141t-173 -88t-196.5 -47.5t-205.5 -13q-178 0 -325.5 37.5t-258 111.5t-171.5 191t-61 268q0 126 43 225.5t116.5 164t177 107t217 60.5t243.5 18q180 0 363 -40.5t329 -125.5v-57q-120 81 -312 123.5
t-384 42.5q-115 0 -215.5 -15t-196 -52t-163 -94.5t-108 -148.5t-40.5 -208q0 -139 56 -246t157 -172t234 -98t294 -33q107 0 204 13.5t190.5 47t161 84t108.5 130t41 180.5zM1157 1282h-47l-203 145l-202 -145h-48l250 229z" />
    <glyph glyph-name="gcircumflex" unicode="&#x11d;" horiz-adv-x="1576" 
d="M1442 438h-385v47h450v-41q0 -200 -189.5 -332t-502.5 -132q-205 0 -365 59t-257 183t-97 298q0 89 26 163.5t69 127.5t103.5 94.5t125.5 67t138.5 42t139 23t131.5 6.5q324 0 568 -149v-64q-106 77 -258 121.5t-310 44.5q-89 0 -174.5 -12.5t-176.5 -46t-158 -85.5
t-110.5 -138t-43.5 -195q0 -121 50.5 -216t139.5 -155t205.5 -91t253.5 -31q118 0 226 24t199.5 71t146.5 129t55 187zM1010 1180h-47l-203 145l-203 -145h-47l250 229z" />
    <glyph glyph-name="Gbreve" unicode="&#x11e;" horiz-adv-x="1759" 
d="M1618 494h-428v51h489q0 -53 -2 -76q-10 -112 -60 -199.5t-124 -141t-173 -88t-196.5 -47.5t-205.5 -13q-178 0 -325.5 37.5t-258 111.5t-171.5 191t-61 268q0 126 43 225.5t116.5 164t177 107t217 60.5t243.5 18q180 0 363 -40.5t329 -125.5v-57q-120 81 -312 123.5
t-384 42.5q-115 0 -215.5 -15t-196 -52t-163 -94.5t-108 -148.5t-40.5 -208q0 -139 56 -246t157 -172t234 -98t294 -33q107 0 204 13.5t190.5 47t161 84t108.5 130t41 180.5zM1059 1432h43q0 -78 -54.5 -124t-142.5 -46t-142 46t-54 124h43q0 -49 43.5 -81t109.5 -32
q65 0 109.5 32t44.5 81z" />
    <glyph glyph-name="gbreve" unicode="&#x11f;" horiz-adv-x="1576" 
d="M1442 438h-385v47h450v-41q0 -200 -189.5 -332t-502.5 -132q-205 0 -365 59t-257 183t-97 298q0 89 26 163.5t69 127.5t103.5 94.5t125.5 67t138.5 42t139 23t131.5 6.5q324 0 568 -149v-64q-106 77 -258 121.5t-310 44.5q-89 0 -174.5 -12.5t-176.5 -46t-158 -85.5
t-110.5 -138t-43.5 -195q0 -121 50.5 -216t139.5 -155t205.5 -91t253.5 -31q118 0 226 24t199.5 71t146.5 129t55 187zM973 1325h43q0 -78 -54.5 -124t-142.5 -46t-142 46t-54 124h43q0 -49 43.5 -81t109.5 -32q65 0 109.5 32t44.5 81z" />
    <glyph glyph-name="Gdotaccent" unicode="&#x120;" horiz-adv-x="1759" 
d="M1618 494h-428v51h489q0 -53 -2 -76q-10 -112 -60 -199.5t-124 -141t-173 -88t-196.5 -47.5t-205.5 -13q-178 0 -325.5 37.5t-258 111.5t-171.5 191t-61 268q0 126 43 225.5t116.5 164t177 107t217 60.5t243.5 18q180 0 363 -40.5t329 -125.5v-57q-120 81 -312 123.5
t-384 42.5q-115 0 -215.5 -15t-196 -52t-163 -94.5t-108 -148.5t-40.5 -208q0 -139 56 -246t157 -172t234 -98t294 -33q107 0 204 13.5t190.5 47t161 84t108.5 130t41 180.5zM907 1339q-21 0 -37 14.5t-16 32.5q0 22 15.5 37t37.5 15q19 0 34 -16t15 -36q0 -19 -15 -33
t-34 -14z" />
    <glyph glyph-name="gdotaccent" unicode="&#x121;" horiz-adv-x="1576" 
d="M1442 438h-385v47h450v-41q0 -200 -189.5 -332t-502.5 -132q-205 0 -365 59t-257 183t-97 298q0 89 26 163.5t69 127.5t103.5 94.5t125.5 67t138.5 42t139 23t131.5 6.5q324 0 568 -149v-64q-106 77 -258 121.5t-310 44.5q-89 0 -174.5 -12.5t-176.5 -46t-158 -85.5
t-110.5 -138t-43.5 -195q0 -121 50.5 -216t139.5 -155t205.5 -91t253.5 -31q118 0 226 24t199.5 71t146.5 129t55 187zM793 1241q-21 0 -37.5 14.5t-16.5 32.5q0 21 16 36t38 15q19 0 34 -15.5t15 -35.5q0 -19 -15 -33t-34 -14z" />
    <glyph glyph-name="Gcommaaccent" unicode="&#x122;" horiz-adv-x="1759" 
d="M1618 494h-428v51h489q0 -53 -2 -76q-10 -112 -60 -199.5t-124 -141t-173 -88t-196.5 -47.5t-205.5 -13q-178 0 -325.5 37.5t-258 111.5t-171.5 191t-61 268q0 126 43 225.5t116.5 164t177 107t217 60.5t243.5 18q180 0 363 -40.5t329 -125.5v-57q-120 81 -312 123.5
t-384 42.5q-115 0 -215.5 -15t-196 -52t-163 -94.5t-108 -148.5t-40.5 -208q0 -139 56 -246t157 -172t234 -98t294 -33q107 0 204 13.5t190.5 47t161 84t108.5 130t41 180.5zM866 -446h-39l80 294h78z" />
    <glyph glyph-name="gcommaaccent" unicode="&#x123;" horiz-adv-x="1576" 
d="M864 1210h-39l76 308h80zM1442 438h-385v47h450v-41q0 -200 -189.5 -332t-502.5 -132q-205 0 -365 59t-257 183t-97 298q0 89 26 163.5t69 127.5t103.5 94.5t125.5 67t138.5 42t139 23t131.5 6.5q324 0 568 -149v-64q-106 77 -258 121.5t-310 44.5q-89 0 -174.5 -12.5
t-176.5 -46t-158 -85.5t-110.5 -138t-43.5 -195q0 -121 50.5 -216t139.5 -155t205.5 -91t253.5 -31q118 0 226 24t199.5 71t146.5 129t55 187z" />
    <glyph glyph-name="Hcircumflex" unicode="&#x124;" horiz-adv-x="1798" 
d="M1585 0h-69v594h-1233v-594h-70v1143h70v-488h1233v488h69v-1143zM1151 1280h-47l-203 145l-203 -145h-47l250 229z" />
    <glyph glyph-name="hcircumflex" unicode="&#x125;" horiz-adv-x="1632" 
d="M1434 0h-66v504h-1104v-504h-65v1028h65v-469h1104v469h66v-1028zM1067 1139h-47l-203 145l-203 -145h-47l250 229z" />
    <glyph glyph-name="Hbar" unicode="&#x126;" horiz-adv-x="1798" 
d="M1585 0h-69v594h-1233v-594h-70v973h-152v53h152v117h70v-117h1233v117h69v-117h150v-53h-150v-973zM283 655h1233v318h-1233v-318z" />
    <glyph glyph-name="hbar" unicode="&#x127;" horiz-adv-x="1632" 
d="M1434 -49h-66v520h-1102v-520h-67v727h-84v57h84v244h67v-244h1102v244h66v-244h84v-57h-84v-727zM266 530h1102v148h-1102v-148z" />
    <glyph glyph-name="Itilde" unicode="&#x128;" horiz-adv-x="495" 
d="M283 0h-70v1143h70v-1143zM444 1436h27q-8 -55 -37.5 -89t-77.5 -34q-39 0 -95.5 36.5t-88.5 36.5q-59 0 -76 -63h-26q10 56 38.5 89.5t75.5 33.5q39 0 97 -37t90 -37q56 0 73 64z" />
    <glyph glyph-name="itilde" unicode="&#x129;" 
d="M264 0h-65v1028h65v-1028zM408 1329h26q-8 -55 -37.5 -89t-77.5 -34q-39 0 -95.5 37t-88.5 37q-59 0 -76 -63h-26q10 56 38.5 89t75.5 33q39 0 97 -36.5t90 -36.5q57 0 74 63z" />
    <glyph glyph-name="Imacron" unicode="&#x12a;" horiz-adv-x="495" 
d="M283 0h-70v1143h70v-1143zM463 1333h-430v45h430v-45z" />
    <glyph glyph-name="imacron" unicode="&#x12b;" 
d="M264 0h-65v1028h65v-1028zM449 1219h-431v45h431v-45z" />
    <glyph glyph-name="Ibreve" unicode="&#x12c;" horiz-adv-x="495" 
d="M283 0h-70v1143h70v-1143zM410 1432h43q0 -78 -54.5 -124t-142.5 -46t-142.5 46t-54.5 124h43q0 -49 44 -81t110 -32q65 0 109.5 32t44.5 81z" />
    <glyph glyph-name="ibreve" unicode="&#x12d;" 
d="M264 0h-65v1028h65v-1028zM387 1317h43q0 -78 -54.5 -124t-142.5 -46t-142 46t-54 124h43q0 -49 43.5 -81t109.5 -32q65 0 109.5 32t44.5 81z" />
    <glyph glyph-name="Iogonek" unicode="&#x12e;" horiz-adv-x="495" 
d="M358 -195l17 -20q-54 -68 -158 -68q-66 0 -107.5 34t-41.5 91q0 104 145 158v1143h70v-1143q-59 -17 -94 -54t-35 -81q0 -38 23.5 -66t70.5 -28q62 0 110 34z" />
    <glyph glyph-name="iogonek" unicode="&#x12f;" 
d="M346 -193l16 -20q-54 -68 -157 -68q-67 0 -108.5 34t-41.5 91q0 105 144 156v1028h65v-1028q-66 -17 -104.5 -53.5t-38.5 -79.5q0 -38 29 -66t86 -28q62 0 110 34z" />
    <glyph glyph-name="Idotaccent" unicode="&#x130;" horiz-adv-x="495" 
d="M283 0h-70v1143h70v-1143zM250 1339q-21 0 -37 14.5t-16 32.5q0 22 15.5 37t37.5 15q19 0 34 -16t15 -36q0 -19 -15 -33t-34 -14z" />
    <glyph glyph-name="dotlessi" unicode="&#x131;" 
d="M264 0h-65v1028h65v-1028z" />
    <glyph glyph-name="IJ" unicode="&#x132;" horiz-adv-x="983" 
d="M283 0h-70v1143h70v-1143zM399 -373l9 54q76 -15 127 -15q81 0 123 55.5t42 196.5v1225h70v-1225q0 -49 -4.5 -87.5t-19 -81.5t-39 -71.5t-68.5 -47.5t-104 -19q-58 0 -136 16z" />
    <glyph glyph-name="ij" unicode="&#x133;" horiz-adv-x="1040" 
d="M264 0h-65v1028h65v-1028zM481 -373l2 49q83 -14 135 -14q96 0 127 50t31 175v1141h66v-1141q0 -55 -3 -91t-15.5 -74.5t-35.5 -60.5t-64.5 -36t-100.5 -14q-48 0 -142 16z" />
    <glyph glyph-name="Jcircumflex" unicode="&#x134;" horiz-adv-x="495" 
d="M-88 -373l8 54q76 -15 127 -15q81 0 123.5 55.5t42.5 196.5v1225h70v-1225q0 -49 -4.5 -87.5t-19 -81.5t-39.5 -71.5t-69 -47.5t-104 -19q-57 0 -135 16zM496 1282h-47l-203 145l-203 -145h-47l250 229z" />
    <glyph glyph-name="jcircumflex" unicode="&#x135;" 
d="M-96 -373l2 49q83 -14 135 -14q96 0 127 50t31 175v1141h65v-1141q0 -55 -3 -91t-15.5 -74.5t-35.5 -60.5t-64.5 -36t-100.5 -14q-47 0 -141 16zM481 1180h-47l-203 145l-202 -145h-47l249 229z" />
    <glyph glyph-name="Kcommaaccent" unicode="&#x136;" horiz-adv-x="1435" 
d="M1409 1143l-625 -438l639 -705h-90l-604 666l-446 -314v-352h-70v1143h70v-717l1022 717h104zM680 -446h-39l80 294h78z" />
    <glyph glyph-name="kcommaaccent" unicode="&#x137;" horiz-adv-x="1284" 
d="M1251 1028l-565 -407l584 -621h-84l-553 582l-369 -265v-317h-65v1028h65v-639l887 639h100zM618 -446h-38l79 294h78z" />
    <glyph glyph-name="Lacute" unicode="&#x139;" horiz-adv-x="1304" 
d="M1266 0h-1053v1143h70v-1088h983v-55zM276 1325h-45l158 209h84z" />
    <glyph glyph-name="lacute" unicode="&#x13a;" horiz-adv-x="1179" 
d="M1141 0h-942v1028h65v-977h877v-51zM246 1202h-45l157 209h84z" />
    <glyph glyph-name="Lcommaaccent" unicode="&#x13b;" horiz-adv-x="1304" 
d="M1266 0h-1053v1143h70v-1088h983v-55zM664 -446h-39l80 294h77z" />
    <glyph glyph-name="lcommaaccent" unicode="&#x13c;" horiz-adv-x="1179" 
d="M1141 0h-942v1028h65v-977h877v-51zM539 -446h-39l80 294h77z" />
    <glyph glyph-name="Lcaron" unicode="&#x13d;" horiz-adv-x="1304" 
d="M1266 0h-1053v1143h70v-1088h983v-55zM584 827h-39l78 316h82z" />
    <glyph glyph-name="lcaron" unicode="&#x13e;" horiz-adv-x="1179" 
d="M1141 0h-942v1028h65v-977h877v-51zM778 711h-39l78 315h82z" />
    <glyph glyph-name="Ldot" unicode="&#x13f;" horiz-adv-x="1304" 
d="M1266 0h-1053v1143h70v-1088h983v-55zM815 485q-24 0 -40.5 16t-16.5 38q0 26 16 41.5t41 15.5t42 -15.5t17 -37.5q0 -26 -17 -42t-42 -16z" />
    <glyph glyph-name="ldot" unicode="&#x140;" horiz-adv-x="1179" 
d="M1141 0h-942v1028h65v-977h877v-51zM723 461q-24 0 -40.5 15.5t-16.5 37.5q0 26 16 41.5t41 15.5t42 -15.5t17 -37.5q0 -26 -17 -41.5t-42 -15.5z" />
    <glyph glyph-name="Lslash" unicode="&#x141;" horiz-adv-x="1306" 
d="M33 299v66l182 165v613h70v-549l264 240v-68l-264 -240v-471h983v-55h-1053v463z" />
    <glyph glyph-name="lslash" unicode="&#x142;" horiz-adv-x="1187" 
d="M25 299v57l182 183v489h65v-424l271 270v-59l-271 -270v-494h877v-51h-942v479z" />
    <glyph glyph-name="Nacute" unicode="&#x143;" horiz-adv-x="1775" 
d="M1563 -20l-1280 1038v-1018h-70v1163l1280 -1044v1024h70v-1163zM887 1307h-45l157 209h84z" />
    <glyph glyph-name="nacute" unicode="&#x144;" horiz-adv-x="1619" 
d="M1421 -20l-1159 938v-918h-63v1044l1159 -940v924h63v-1048zM784 1202h-45l158 209h84z" />
    <glyph glyph-name="Ncommaaccent" unicode="&#x145;" horiz-adv-x="1775" 
d="M1563 -20l-1280 1038v-1018h-70v1163l1280 -1044v1024h70v-1163zM858 -446h-39l80 294h78z" />
    <glyph glyph-name="ncommaaccent" unicode="&#x146;" horiz-adv-x="1619" 
d="M1421 -20l-1159 938v-918h-63v1044l1159 -940v924h63v-1048zM723 -446h-39l80 294h78z" />
    <glyph glyph-name="Ncaron" unicode="&#x147;" horiz-adv-x="1775" 
d="M1563 -20l-1280 1038v-1018h-70v1163l1280 -1044v1024h70v-1163zM1120 1518h47l-270 -252l-270 252h47l223 -168z" />
    <glyph glyph-name="ncaron" unicode="&#x148;" horiz-adv-x="1619" 
d="M1421 -20l-1159 938v-918h-63v1044l1159 -940v924h63v-1048zM1092 1411h47l-271 -252l-270 252h47l223 -168z" />
    <glyph glyph-name="napostrophe" unicode="&#x149;" horiz-adv-x="1619" 
d="M1421 -20l-1159 938v-918h-63v1044l1159 -940v924h63v-1048zM780 -410h-39l80 295h78z" />
    <glyph glyph-name="Eng" unicode="&#x14a;" horiz-adv-x="1775" 
d="M1192 -373l8 54q76 -15 127 -15q81 0 123.5 55.5t42.5 196.5v100l-1210 1000v-1018h-70v1163l1280 -1065v1045h70v-1225q0 -49 -4.5 -87.5t-19 -81.5t-39.5 -71.5t-69 -47.5t-104 -19q-57 0 -135 16z" />
    <glyph glyph-name="eng" unicode="&#x14b;" horiz-adv-x="1619" 
d="M1055 -373l8 43q71 -14 127 -14q96 0 131 58t35 204v94l-1094 897v-909h-63v1044l1157 -952v936h65v-1120q0 -49 -4 -86.5t-18 -79t-38 -68.5t-67.5 -45t-103.5 -18q-57 0 -135 16z" />
    <glyph glyph-name="Omacron" unicode="&#x14c;" horiz-adv-x="1812" 
d="M1714 571q0 -113 -41.5 -209t-115.5 -165.5t-175.5 -119t-222 -73.5t-254.5 -24t-255 24t-222 73.5t-174.5 119t-114.5 165.5t-41 209q0 112 41 207.5t114.5 165.5t174.5 120t222 74.5t255 24.5t254.5 -24.5t222 -73.5t175.5 -119t115.5 -166t41.5 -209zM1645 571
q0 131 -58 234.5t-159.5 167.5t-234.5 97.5t-288 33.5t-287.5 -33.5t-233.5 -97.5t-158.5 -167.5t-57.5 -234.5t57.5 -234t158.5 -167.5t233.5 -97.5t287.5 -33q156 0 288.5 33t234 97.5t159.5 167.5t58 234zM1145 1331h-430v45h430v-45z" />
    <glyph glyph-name="omacron" unicode="&#x14d;" horiz-adv-x="1656" 
d="M1563 510q0 -161 -94.5 -282t-260 -184.5t-379.5 -63.5q-215 0 -381 63.5t-260 184.5t-94 282t94 283t260.5 186.5t380.5 64.5q213 0 379.5 -64.5t260.5 -186.5t94 -283zM1493 510q0 148 -87.5 259.5t-237.5 169.5t-339 58q-191 0 -341 -58t-237 -169.5t-87 -259.5
q0 -146 87 -257t237 -168.5t341 -57.5q189 0 339 57.5t237.5 168.5t87.5 257zM1059 1198h-430v45h430v-45z" />
    <glyph glyph-name="Obreve" unicode="&#x14e;" horiz-adv-x="1812" 
d="M1714 571q0 -113 -41.5 -209t-115.5 -165.5t-175.5 -119t-222 -73.5t-254.5 -24t-255 24t-222 73.5t-174.5 119t-114.5 165.5t-41 209q0 112 41 207.5t114.5 165.5t174.5 120t222 74.5t255 24.5t254.5 -24.5t222 -73.5t175.5 -119t115.5 -166t41.5 -209zM1645 571
q0 131 -58 234.5t-159.5 167.5t-234.5 97.5t-288 33.5t-287.5 -33.5t-233.5 -97.5t-158.5 -167.5t-57.5 -234.5t57.5 -234t158.5 -167.5t233.5 -97.5t287.5 -33q156 0 288.5 33t234 97.5t159.5 167.5t58 234zM1092 1430h43q0 -78 -54.5 -124t-142.5 -46t-142.5 46t-54.5 124
h43q0 -49 44 -81t110 -32q65 0 109.5 32t44.5 81z" />
    <glyph glyph-name="obreve" unicode="&#x14f;" horiz-adv-x="1656" 
d="M1563 510q0 -161 -94.5 -282t-260 -184.5t-379.5 -63.5q-215 0 -381 63.5t-260 184.5t-94 282t94 283t260.5 186.5t380.5 64.5q213 0 379.5 -64.5t260.5 -186.5t94 -283zM1493 510q0 148 -87.5 259.5t-237.5 169.5t-339 58q-191 0 -341 -58t-237 -169.5t-87 -259.5
q0 -146 87 -257t237 -168.5t341 -57.5q189 0 339 57.5t237.5 168.5t87.5 257zM1006 1337h43q0 -78 -54.5 -124t-142.5 -46t-142.5 46t-54.5 124h43q0 -49 44 -80.5t110 -31.5q65 0 109.5 31.5t44.5 80.5z" />
    <glyph glyph-name="Ohungarumlaut" unicode="&#x150;" horiz-adv-x="1812" 
d="M1714 571q0 -113 -41.5 -209t-115.5 -165.5t-175.5 -119t-222 -73.5t-254.5 -24t-255 24t-222 73.5t-174.5 119t-114.5 165.5t-41 209q0 112 41 207.5t114.5 165.5t174.5 120t222 74.5t255 24.5t254.5 -24.5t222 -73.5t175.5 -119t115.5 -166t41.5 -209zM1645 571
q0 131 -58 234.5t-159.5 167.5t-234.5 97.5t-288 33.5t-287.5 -33.5t-233.5 -97.5t-158.5 -167.5t-57.5 -234.5t57.5 -234t158.5 -167.5t233.5 -97.5t287.5 -33q156 0 288.5 33t234 97.5t159.5 167.5t58 234zM1061 1276h-47l184 231h94zM799 1276h-45l184 231h94z" />
    <glyph glyph-name="ohungarumlaut" unicode="&#x151;" horiz-adv-x="1656" 
d="M1563 510q0 -161 -94.5 -282t-260 -184.5t-379.5 -63.5q-215 0 -381 63.5t-260 184.5t-94 282t94 283t260.5 186.5t380.5 64.5q213 0 379.5 -64.5t260.5 -186.5t94 -283zM1493 510q0 148 -87.5 259.5t-237.5 169.5t-339 58q-191 0 -341 -58t-237 -169.5t-87 -259.5
q0 -146 87 -257t237 -168.5t341 -57.5q189 0 339 57.5t237.5 168.5t87.5 257zM932 1149h-47l184 231h94zM670 1149h-45l184 231h94z" />
    <glyph glyph-name="OE" unicode="&#x152;" horiz-adv-x="2459" 
d="M1534 571q0 -186 -93.5 -319t-256.5 -203h1177v-49h-1335q-113 -20 -209 -20q-120 0 -227 24t-196.5 73.5t-154.5 119t-101 165.5t-36 209q0 139 56 252.5t153 187t226.5 113t279.5 39.5q96 0 209 -20h1335v-49h-1179q151 -65 244 -184t106 -283h686v-49h-684v-7z
M1464 571q0 131 -50.5 235.5t-139 170.5t-205 100.5t-252.5 34.5t-252 -34.5t-204.5 -100.5t-138.5 -170t-50 -236q0 -131 50.5 -235.5t139 -170t204.5 -100t251 -34.5q136 0 252.5 34.5t205 100t139 170t50.5 235.5z" />
    <glyph glyph-name="oe" unicode="&#x153;" horiz-adv-x="2318" 
d="M2222 0h-1024v16q-163 -57 -354 -57q-211 0 -380.5 66t-269.5 192.5t-100 292.5t100 294.5t270 196.5t380 68q194 0 354 -59v18h1024v-51h-958v-416h804v-51h-804v-459h958v-51zM844 4q197 0 354 68v882q-169 70 -354 70q-189 0 -343 -62t-245.5 -180t-91.5 -272
q0 -114 53.5 -210t145.5 -160t216 -100t265 -36z" />
    <glyph glyph-name="Racute" unicode="&#x154;" horiz-adv-x="1466" 
d="M1364 0h-78l-358 485h-645v-485h-70v1143h711q64 0 121 -8.5t114 -31t97.5 -58.5t66 -95.5t25.5 -136.5q0 -69 -19 -123t-51 -89.5t-77 -60.5t-92.5 -37t-102.5 -16zM924 1092h-641v-555h641q62 0 111.5 7t96 25.5t78 49t50 79.5t18.5 115q0 81 -27.5 138t-78.5 86.5
t-110.5 42t-137.5 12.5zM725 1313h-45l158 209h84z" />
    <glyph glyph-name="racute" unicode="&#x155;" horiz-adv-x="1329" 
d="M1231 0h-76l-305 420h-586v-420h-65v1028h653q160 0 261 -78t101 -223q0 -143 -77.5 -217t-212.5 -88zM852 975h-588v-502h588q87 0 147.5 20t92 57t44.5 79.5t13 97.5q0 48 -13.5 89t-44.5 78.5t-92 59t-147 21.5zM688 1190h-45l158 209h84z" />
    <glyph glyph-name="Rcommaaccent" unicode="&#x156;" horiz-adv-x="1466" 
d="M1364 0h-78l-358 485h-645v-485h-70v1143h711q64 0 121 -8.5t114 -31t97.5 -58.5t66 -95.5t25.5 -136.5q0 -69 -19 -123t-51 -89.5t-77 -60.5t-92.5 -37t-102.5 -16zM924 1092h-641v-555h641q62 0 111.5 7t96 25.5t78 49t50 79.5t18.5 115q0 81 -27.5 138t-78.5 86.5
t-110.5 42t-137.5 12.5zM727 -446h-39l80 294h78z" />
    <glyph glyph-name="rcommaaccent" unicode="&#x157;" horiz-adv-x="1329" 
d="M1231 0h-76l-305 420h-586v-420h-65v1028h653q160 0 261 -78t101 -223q0 -143 -77.5 -217t-212.5 -88zM852 975h-588v-502h588q87 0 147.5 20t92 57t44.5 79.5t13 97.5q0 48 -13.5 89t-44.5 78.5t-92 59t-147 21.5zM643 -446h-39l80 294h78z" />
    <glyph glyph-name="Rcaron" unicode="&#x158;" horiz-adv-x="1466" 
d="M1364 0h-78l-358 485h-645v-485h-70v1143h711q64 0 121 -8.5t114 -31t97.5 -58.5t66 -95.5t25.5 -136.5q0 -69 -19 -123t-51 -89.5t-77 -60.5t-92.5 -37t-102.5 -16zM924 1092h-641v-555h641q62 0 111.5 7t96 25.5t78 49t50 79.5t18.5 115q0 81 -27.5 138t-78.5 86.5
t-110.5 42t-137.5 12.5zM936 1524h47l-270 -252l-271 252h47l224 -168z" />
    <glyph glyph-name="rcaron" unicode="&#x159;" horiz-adv-x="1329" 
d="M1231 0h-76l-305 420h-586v-420h-65v1028h653q160 0 261 -78t101 -223q0 -143 -77.5 -217t-212.5 -88zM852 975h-588v-502h588q87 0 147.5 20t92 57t44.5 79.5t13 97.5q0 48 -13.5 89t-44.5 78.5t-92 59t-147 21.5zM899 1401h47l-270 -252l-270 252h47l223 -168z" />
    <glyph glyph-name="Sacute" unicode="&#x15a;" horiz-adv-x="1370" 
d="M1227 1085l-4 -47q-81 38 -232.5 57t-306.5 19q-496 0 -496 -231q0 -64 37.5 -108.5t100.5 -68.5t145.5 -39.5t173 -25.5t181 -21.5t173 -32.5t145.5 -54t100.5 -91.5t37.5 -138.5q0 -66 -24.5 -118.5t-69 -86.5t-99 -58t-123.5 -36.5t-132.5 -18t-135.5 -5.5
q-157 0 -323.5 23t-288.5 67l2 55q122 -48 289 -70t323 -22q521 0 521 264q0 89 -60.5 145.5t-157 80.5t-213 37.5t-233 28.5t-213 41.5t-157 87.5t-60.5 156q0 289 555 289q365 0 545 -78zM713 1307h-45l157 209h84z" />
    <glyph glyph-name="sacute" unicode="&#x15b;" horiz-adv-x="1212" 
d="M1083 975l-8 -47q-147 69 -473 69q-41 0 -75 -1t-80 -6t-82 -13t-73.5 -23.5t-62.5 -36t-41 -52t-16 -70.5q0 -56 32.5 -95t87.5 -59.5t126.5 -33.5t150.5 -21.5t158 -18t150.5 -28.5t126.5 -48.5t87.5 -82.5t32.5 -125t-32.5 -126.5t-83 -87.5t-122 -53.5t-140 -28
t-146.5 -7.5q-117 0 -261 16.5t-253 48.5l2 49q110 -34 252.5 -50.5t259.5 -16.5q69 0 130 6t125.5 23t110.5 43.5t75.5 72t29.5 104.5q0 80 -52.5 130t-137 72t-186.5 34.5t-204 25.5t-186.5 36.5t-137 77t-52.5 136.5q0 256 493 256q303 0 475 -69zM631 1174h-45l157 208
h84z" />
    <glyph glyph-name="Scircumflex" unicode="&#x15c;" horiz-adv-x="1370" 
d="M1227 1085l-4 -47q-81 38 -232.5 57t-306.5 19q-496 0 -496 -231q0 -64 37.5 -108.5t100.5 -68.5t145.5 -39.5t173 -25.5t181 -21.5t173 -32.5t145.5 -54t100.5 -91.5t37.5 -138.5q0 -66 -24.5 -118.5t-69 -86.5t-99 -58t-123.5 -36.5t-132.5 -18t-135.5 -5.5
q-157 0 -323.5 23t-288.5 67l2 55q122 -48 289 -70t323 -22q521 0 521 264q0 89 -60.5 145.5t-157 80.5t-213 37.5t-233 28.5t-213 41.5t-157 87.5t-60.5 156q0 289 555 289q365 0 545 -78zM954 1280h-47l-202 145l-203 -145h-47l250 229z" />
    <glyph glyph-name="scircumflex" unicode="&#x15d;" horiz-adv-x="1212" 
d="M1083 975l-8 -47q-147 69 -473 69q-41 0 -75 -1t-80 -6t-82 -13t-73.5 -23.5t-62.5 -36t-41 -52t-16 -70.5q0 -56 32.5 -95t87.5 -59.5t126.5 -33.5t150.5 -21.5t158 -18t150.5 -28.5t126.5 -48.5t87.5 -82.5t32.5 -125t-32.5 -126.5t-83 -87.5t-122 -53.5t-140 -28
t-146.5 -7.5q-117 0 -261 16.5t-253 48.5l2 49q110 -34 252.5 -50.5t259.5 -16.5q69 0 130 6t125.5 23t110.5 43.5t75.5 72t29.5 104.5q0 80 -52.5 130t-137 72t-186.5 34.5t-204 25.5t-186.5 36.5t-137 77t-52.5 136.5q0 256 493 256q303 0 475 -69zM872 1147h-47l-202 145
l-203 -145h-47l250 229z" />
    <glyph glyph-name="Scedilla" unicode="&#x15e;" horiz-adv-x="1370" 
d="M471 -326l18 29q69 -25 123 -25q60 0 94.5 26.5t34.5 76.5q0 51 -35.5 74.5t-87.5 23.5q-10 0 -22.5 -1t-17.5 -1l61 103q-331 11 -553 90l2 55q122 -48 289 -70t323 -22q521 0 521 264q0 89 -60.5 145.5t-157 80.5t-213 37.5t-233 28.5t-213 41.5t-157 87.5t-60.5 156
q0 289 555 289q365 0 545 -78l-4 -47q-81 38 -232.5 57t-306.5 19q-496 0 -496 -231q0 -64 37.5 -108.5t100.5 -68.5t145.5 -39.5t173 -25.5t181 -21.5t173 -32.5t145.5 -54t100.5 -91.5t37.5 -138.5q0 -66 -24.5 -118.5t-69 -86.5t-99 -58t-123.5 -36.5t-132.5 -18
t-135.5 -5.5h-6l-37 -56q76 -6 111 -43t35 -92q0 -66 -47 -110t-131 -44q-93 0 -152 39z" />
    <glyph glyph-name="scedilla" unicode="&#x15f;" horiz-adv-x="1212" 
d="M424 -311l18 28q66 -24 123 -24q60 0 94.5 26t34.5 76q0 51 -35.5 75t-87.5 24q-10 0 -23 -1.5t-18 -1.5l54 89q-119 2 -256 18t-242 47l2 49q110 -34 252.5 -50.5t259.5 -16.5q69 0 130 6t125.5 23t110.5 43.5t75.5 72t29.5 104.5q0 80 -52.5 130t-137 72t-186.5 34.5
t-204 25.5t-186.5 36.5t-137 77t-52.5 136.5q0 256 493 256q303 0 475 -69l-8 -47q-147 69 -473 69q-41 0 -75 -1t-80 -6t-82 -13t-73.5 -23.5t-62.5 -36t-41 -52t-16 -70.5q0 -56 32.5 -95t87.5 -59.5t126.5 -33.5t150.5 -21.5t158 -18t150.5 -28.5t126.5 -48.5t87.5 -82.5
t32.5 -125q0 -84 -43 -145t-117.5 -93.5t-154 -47.5t-174.5 -17l-27 -41q76 -6 111 -43.5t35 -92.5q0 -66 -47 -109.5t-132 -43.5q-92 0 -151 39z" />
    <glyph glyph-name="Scaron" unicode="&#x160;" horiz-adv-x="1370" 
d="M1227 1085l-4 -47q-81 38 -232.5 57t-306.5 19q-496 0 -496 -231q0 -64 37.5 -108.5t100.5 -68.5t145.5 -39.5t173 -25.5t181 -21.5t173 -32.5t145.5 -54t100.5 -91.5t37.5 -138.5q0 -66 -24.5 -118.5t-69 -86.5t-99 -58t-123.5 -36.5t-132.5 -18t-135.5 -5.5
q-157 0 -323.5 23t-288.5 67l2 55q122 -48 289 -70t323 -22q521 0 521 264q0 89 -60.5 145.5t-157 80.5t-213 37.5t-233 28.5t-213 41.5t-157 87.5t-60.5 156q0 289 555 289q365 0 545 -78zM924 1518h47l-271 -252l-270 252h47l223 -168z" />
    <glyph glyph-name="scaron" unicode="&#x161;" horiz-adv-x="1212" 
d="M1083 975l-8 -47q-147 69 -473 69q-41 0 -75 -1t-80 -6t-82 -13t-73.5 -23.5t-62.5 -36t-41 -52t-16 -70.5q0 -56 32.5 -95t87.5 -59.5t126.5 -33.5t150.5 -21.5t158 -18t150.5 -28.5t126.5 -48.5t87.5 -82.5t32.5 -125t-32.5 -126.5t-83 -87.5t-122 -53.5t-140 -28
t-146.5 -7.5q-117 0 -261 16.5t-253 48.5l2 49q110 -34 252.5 -50.5t259.5 -16.5q69 0 130 6t125.5 23t110.5 43.5t75.5 72t29.5 104.5q0 80 -52.5 130t-137 72t-186.5 34.5t-204 25.5t-186.5 36.5t-137 77t-52.5 136.5q0 256 493 256q303 0 475 -69zM842 1384h47l-271 -251
l-270 251h47l223 -167z" />
    <glyph glyph-name="Tcommaaccent" unicode="&#x162;" horiz-adv-x="1339" 
d="M705 0h-68v1092h-617v51h1299v-51h-614v-1092zM649 -446h-39l80 294h78z" />
    <glyph glyph-name="tcommaaccent" unicode="&#x163;" horiz-adv-x="1216" 
d="M641 0h-66v975h-550v53h1167v-53h-551v-975zM567 -446h-39l80 294h78z" />
    <glyph glyph-name="Tcaron" unicode="&#x164;" horiz-adv-x="1339" 
d="M705 0h-68v1092h-617v51h1299v-51h-614v-1092zM911 1522h47l-270 -252l-270 252h47l223 -168z" />
    <glyph glyph-name="tcaron" unicode="&#x165;" horiz-adv-x="1216" 
d="M641 0h-66v975h-550v53h1167v-53h-551v-975zM827 1376h47l-270 -252l-270 252h47l223 -168z" />
    <glyph glyph-name="Tbar" unicode="&#x166;" horiz-adv-x="1396" 
d="M733 0h-67v530h-283v52h283v510h-637v51h1339v-51h-635v-510h285v-52h-285v-530z" />
    <glyph glyph-name="tbar" unicode="&#x167;" horiz-adv-x="1216" 
d="M641 0h-66v647h-182v45h182v283h-550v53h1167v-53h-551v-283h182v-45h-182v-647z" />
    <glyph glyph-name="Utilde" unicode="&#x168;" horiz-adv-x="1634" 
d="M1382 586v557h70v-557q0 -134 -36 -242.5t-96 -179t-143 -117.5t-172 -67.5t-188 -20.5t-188 20.5t-172 67.5t-143 117.5t-96 179t-36 242.5v557h70v-557q0 -124 32 -223t85.5 -162.5t127.5 -105.5t153 -59.5t167 -17.5t167 17.5t153 59.5t127.5 105.5t85.5 162.5t32 223
zM995 1436h27q-8 -55 -37.5 -89t-77.5 -34q-39 0 -95.5 36.5t-88.5 36.5q-59 0 -76 -63h-26q10 56 38.5 89.5t75.5 33.5q39 0 97 -37t90 -37q56 0 73 64z" />
    <glyph glyph-name="utilde" unicode="&#x169;" horiz-adv-x="1499" 
d="M1257 487v541h66v-541q0 -136 -42 -236t-121 -158t-181.5 -85.5t-233.5 -27.5q-569 0 -569 507v541h66v-541q0 -456 506 -456q509 0 509 456zM940 1300h27q-8 -55 -37.5 -88.5t-77.5 -33.5q-39 0 -95.5 36.5t-88.5 36.5q-59 0 -76 -63h-27q10 56 39 89.5t76 33.5
q39 0 96.5 -37t89.5 -37q57 0 74 63z" />
    <glyph glyph-name="Umacron" unicode="&#x16a;" horiz-adv-x="1634" 
d="M1382 586v557h70v-557q0 -134 -36 -242.5t-96 -179t-143 -117.5t-172 -67.5t-188 -20.5t-188 20.5t-172 67.5t-143 117.5t-96 179t-36 242.5v557h70v-557q0 -124 32 -223t85.5 -162.5t127.5 -105.5t153 -59.5t167 -17.5t167 17.5t153 59.5t127.5 105.5t85.5 162.5t32 223
zM1034 1333h-430v45h430v-45z" />
    <glyph glyph-name="umacron" unicode="&#x16b;" horiz-adv-x="1499" 
d="M1257 487v541h66v-541q0 -136 -42 -236t-121 -158t-181.5 -85.5t-233.5 -27.5q-569 0 -569 507v541h66v-541q0 -456 506 -456q509 0 509 456zM958 1198h-430v45h430v-45z" />
    <glyph glyph-name="Ubreve" unicode="&#x16c;" horiz-adv-x="1634" 
d="M1382 586v557h70v-557q0 -134 -36 -242.5t-96 -179t-143 -117.5t-172 -67.5t-188 -20.5t-188 20.5t-172 67.5t-143 117.5t-96 179t-36 242.5v557h70v-557q0 -124 32 -223t85.5 -162.5t127.5 -105.5t153 -59.5t167 -17.5t167 17.5t153 59.5t127.5 105.5t85.5 162.5t32 223
zM981 1432h43q0 -78 -54.5 -124t-142.5 -46t-142 46t-54 124h43q0 -49 43.5 -81t109.5 -32q65 0 109.5 32t44.5 81z" />
    <glyph glyph-name="ubreve" unicode="&#x16d;" horiz-adv-x="1499" 
d="M1257 487v541h66v-541q0 -136 -42 -236t-121 -158t-181.5 -85.5t-233.5 -27.5q-569 0 -569 507v541h66v-541q0 -456 506 -456q509 0 509 456zM905 1296h43q0 -78 -54 -124t-142 -46t-142.5 46t-54.5 124h43q0 -49 44 -80.5t110 -31.5q65 0 109 31.5t44 80.5z" />
    <glyph glyph-name="Uring" unicode="&#x16e;" horiz-adv-x="1634" 
d="M1382 586v557h70v-557q0 -134 -36 -242.5t-96 -179t-143 -117.5t-172 -67.5t-188 -20.5t-188 20.5t-172 67.5t-143 117.5t-96 179t-36 242.5v557h70v-557q0 -124 32 -223t85.5 -162.5t127.5 -105.5t153 -59.5t167 -17.5t167 17.5t153 59.5t127.5 105.5t85.5 162.5t32 223
zM819 1210q-90 0 -137 43t-47 111t47 111t137 43q89 0 137 -43t48 -111t-48 -111t-137 -43zM819 1251q56 0 88.5 34.5t32.5 78.5t-32.5 78.5t-88.5 34.5t-88.5 -34.5t-32.5 -78.5t32.5 -78.5t88.5 -34.5z" />
    <glyph glyph-name="uring" unicode="&#x16f;" horiz-adv-x="1499" 
d="M1257 487v541h66v-541q0 -136 -42 -236t-121 -158t-181.5 -85.5t-233.5 -27.5q-569 0 -569 507v541h66v-541q0 -456 506 -456q509 0 509 456zM743 1075q-90 0 -137 43t-47 111t47 110.5t137 42.5q89 0 137 -43t48 -110q0 -68 -48 -111t-137 -43zM743 1116q56 0 88.5 34.5
t32.5 78.5t-32.5 78t-88.5 34t-88 -34t-32 -78t32 -78.5t88 -34.5z" />
    <glyph glyph-name="Uhungarumlaut" unicode="&#x170;" horiz-adv-x="1634" 
d="M1382 586v557h70v-557q0 -134 -36 -242.5t-96 -179t-143 -117.5t-172 -67.5t-188 -20.5t-188 20.5t-172 67.5t-143 117.5t-96 179t-36 242.5v557h70v-557q0 -124 32 -223t85.5 -162.5t127.5 -105.5t153 -59.5t167 -17.5t167 17.5t153 59.5t127.5 105.5t85.5 162.5t32 223
zM950 1278h-47l184 231h95zM688 1278h-45l184 231h95z" />
    <glyph glyph-name="uhungarumlaut" unicode="&#x171;" horiz-adv-x="1499" 
d="M1257 487v541h66v-541q0 -136 -42 -236t-121 -158t-181.5 -85.5t-233.5 -27.5q-569 0 -569 507v541h66v-541q0 -456 506 -456q509 0 509 456zM874 1143h-47l185 231h94zM612 1143h-45l185 231h94z" />
    <glyph glyph-name="Uogonek" unicode="&#x172;" horiz-adv-x="1634" 
d="M993 -217l17 -21q-53 -67 -156 -67q-69 0 -110.5 34.5t-41.5 92.5q0 82 91 137q-96 2 -182.5 24.5t-166 70.5t-137 118.5t-91.5 176.5t-34 237v557h70v-557q0 -124 32 -223t85.5 -162.5t127.5 -105.5t153 -59.5t167 -17.5t167 17.5t153 59.5t127.5 105.5t85.5 162.5
t32 223v557h70v-557q0 -109 -23 -201t-65.5 -158.5t-98 -117.5t-124.5 -82.5t-141.5 -48t-151.5 -19.5q-37 -24 -61.5 -57t-24.5 -66q0 -38 28.5 -66t81.5 -28q64 0 121 41z" />
    <glyph glyph-name="uogonek" unicode="&#x173;" horiz-adv-x="1499" 
d="M1257 487v541h66v-541q0 -136 -42 -236t-121 -158t-181.5 -85.5t-233.5 -27.5q-569 0 -569 507v541h66v-541q0 -456 506 -456q509 0 509 456zM899 -217l16 -21q-53 -67 -155 -67q-69 0 -110.5 34.5t-41.5 92.5q0 101 125 155h58q-47 -19 -85 -59t-38 -82q0 -38 28.5 -66
t81.5 -28q64 0 121 41z" />
    <glyph glyph-name="Wcircumflex" unicode="&#x174;" horiz-adv-x="2080" 
d="M1534 -20l-494 1038l-493 -1038l-524 1163h71l457 -1024l489 1044l490 -1044l457 1024h71zM1292 1286h-47l-203 146l-202 -146h-47l249 230z" />
    <glyph glyph-name="wcircumflex" unicode="&#x175;" horiz-adv-x="1949" 
d="M1417 -20l-442 929l-443 -929l-509 1048h71l438 -913l443 929l442 -929l438 913h72zM1227 1147h-47l-203 145l-203 -145h-47l250 229z" />
    <glyph glyph-name="Ycircumflex" unicode="&#x176;" horiz-adv-x="1357" 
d="M711 0h-66v455l-641 688h86l588 -625l586 625h90l-643 -688v-455zM930 1280h-47l-203 145l-203 -145h-47l250 229z" />
    <glyph glyph-name="ycircumflex" unicode="&#x177;" horiz-adv-x="1251" 
d="M659 0h-65v465l-584 563h82l533 -510l534 510h80l-580 -563v-465zM874 1147h-47l-202 145l-203 -145h-47l250 229z" />
    <glyph glyph-name="Ydieresis" unicode="&#x178;" horiz-adv-x="1357" 
d="M711 0h-66v455l-641 688h86l588 -625l586 625h90l-643 -688v-455zM858 1417q0 -21 -14.5 -35t-38.5 -14t-37.5 14t-13.5 35t13.5 37t37.5 16q25 0 39 -15.5t14 -37.5zM594 1417q0 -21 -13.5 -35t-37.5 -14q-25 0 -39.5 14.5t-14.5 34.5q0 21 15 37t39 16t37.5 -15.5
t13.5 -37.5z" />
    <glyph glyph-name="Zacute" unicode="&#x179;" horiz-adv-x="1333" 
d="M1311 0h-1297l1086 1092h-1016v51h1149l-1081 -1092h1159v-51zM659 1307h-45l158 209h84z" />
    <glyph glyph-name="zacute" unicode="&#x17a;" horiz-adv-x="1196" 
d="M1155 0h-1126l972 975h-927v53h1056l-970 -977h995v-51zM610 1174h-45l158 208h84z" />
    <glyph glyph-name="Zdotaccent" unicode="&#x17b;" horiz-adv-x="1333" 
d="M1311 0h-1297l1086 1092h-1016v51h1149l-1081 -1092h1159v-51zM651 1337q-21 0 -37 14.5t-16 32.5q0 22 15.5 37t37.5 15q19 0 34 -16t15 -36q0 -19 -15 -33t-34 -14z" />
    <glyph glyph-name="zdotaccent" unicode="&#x17c;" horiz-adv-x="1196" 
d="M1155 0h-1126l972 975h-927v53h1056l-970 -977h995v-51zM602 1204q-21 0 -37 14.5t-16 32.5q0 22 15.5 37t37.5 15q19 0 34 -16t15 -36q0 -19 -15 -33t-34 -14z" />
    <glyph glyph-name="Zcaron" unicode="&#x17d;" horiz-adv-x="1333" 
d="M1311 0h-1297l1086 1092h-1016v51h1149l-1081 -1092h1159v-51zM911 1518h47l-270 -252l-270 252h47l223 -168z" />
    <glyph glyph-name="zcaron" unicode="&#x17e;" horiz-adv-x="1196" 
d="M1155 0h-1126l972 975h-927v53h1056l-970 -977h995v-51zM821 1384h47l-270 -251l-270 251h47l223 -167z" />
    <glyph glyph-name="florin" unicode="&#x192;" horiz-adv-x="1155" 
d="M389 213l111 436h-142l13 58h141l10 38q27 101 64 177.5t75.5 121t84 72.5t84 37.5t79.5 9.5q61 0 108.5 -19.5t47.5 -60.5q0 -23 -16.5 -37t-47.5 -14t-43 16t-12 34.5t-15 34.5t-50 16q-41 0 -77.5 -18.5t-65 -54.5t-50 -71.5t-41 -87.5t-29 -82.5t-22.5 -75.5l-10 -36
h155l-12 -58h-156l-110 -436q-77 -305 -192.5 -449.5t-301.5 -144.5q-127 0 -127 70q0 29 19 41t43 12t41 -14t23.5 -31t14.5 -31t17 -14q139 0 226.5 130t162.5 431z" />
    <glyph glyph-name="AEacute" unicode="&#x1fc;" horiz-adv-x="2387" 
d="M2286 0h-1137v387h-717l-414 -387h-84l1215 1141v2h1137v-49h-1065v-467h897v-49h-899v-529h1067v-49zM494 444h655v613zM1229 1313h-45l157 209h84z" />
    <glyph glyph-name="aeacute" unicode="&#x1fd;" horiz-adv-x="2150" 
d="M2056 0h-1020v340h-643l-362 -340h-84l1089 1024h1020v-49h-950v-410h799v-51h-801v-463h952v-51zM455 397h581v545zM1112 1143h-45l158 209h84z" />
    <glyph glyph-name="Oslashacute" unicode="&#x1fe;" horiz-adv-x="1859" 
d="M580 -217h-66l111 229q-241 58 -384 201.5t-143 357.5q0 139 65.5 252.5t179 187t264 113t323.5 39.5q112 0 239 -20l111 227h68l-117 -240q243 -58 387.5 -201.5t144.5 -357.5q0 -113 -42.5 -209t-118.5 -165.5t-180.5 -119t-229 -73.5t-262.5 -24q-116 0 -246 20z
M1694 571q0 200 -132 330.5t-354 179.5l-499 -1032q105 -18 221 -18q128 0 241.5 21.5t209.5 65.5t165.5 107t108.5 151.5t39 194.5zM168 571q0 -200 129.5 -330.5t349.5 -179.5l500 1033q-105 18 -217 18q-160 0 -297.5 -34.5t-241.5 -100.5t-163.5 -170.5t-59.5 -235.5z
M934 1274h-45l158 209h83z" />
    <glyph glyph-name="oslashacute" unicode="&#x1ff;" horiz-adv-x="1656" 
d="M555 -143h-68l76 151q-218 52 -343.5 182.5t-125.5 319.5q0 161 94 283t260.5 186.5t380.5 64.5q128 0 242 -24l72 143h67l-80 -159q201 -57 317 -185.5t116 -308.5q0 -161 -94.5 -282t-260 -184.5t-379.5 -63.5q-103 0 -204 16zM164 510q0 -170 114.5 -290t307.5 -167
l463 922q-107 22 -220 22q-191 0 -341 -58t-237 -169.5t-87 -259.5zM1493 510q0 162 -103.5 278t-281.5 170l-461 -917q80 -14 182 -14q189 0 339 57.5t237.5 168.5t87.5 257zM840 1161h-45l157 209h84z" />
    <glyph glyph-name="Scommaaccent" unicode="&#x218;" horiz-adv-x="1370" 
d="M1227 1085l-4 -47q-81 38 -232.5 57t-306.5 19q-496 0 -496 -231q0 -64 37.5 -108.5t100.5 -68.5t145.5 -39.5t173 -25.5t181 -21.5t173 -32.5t145.5 -54t100.5 -91.5t37.5 -138.5q0 -66 -24.5 -118.5t-69 -86.5t-99 -58t-123.5 -36.5t-132.5 -18t-135.5 -5.5
q-157 0 -323.5 23t-288.5 67l2 55q122 -48 289 -70t323 -22q521 0 521 264q0 89 -60.5 145.5t-157 80.5t-213 37.5t-233 28.5t-213 41.5t-157 87.5t-60.5 156q0 289 555 289q365 0 545 -78z" />
    <glyph glyph-name="scommaaccent" unicode="&#x219;" horiz-adv-x="1212" 
d="M1083 975l-8 -47q-147 69 -473 69q-41 0 -75 -1t-80 -6t-82 -13t-73.5 -23.5t-62.5 -36t-41 -52t-16 -70.5q0 -56 32.5 -95t87.5 -59.5t126.5 -33.5t150.5 -21.5t158 -18t150.5 -28.5t126.5 -48.5t87.5 -82.5t32.5 -125t-32.5 -126.5t-83 -87.5t-122 -53.5t-140 -28
t-146.5 -7.5q-117 0 -261 16.5t-253 48.5l2 49q110 -34 252.5 -50.5t259.5 -16.5q69 0 130 6t125.5 23t110.5 43.5t75.5 72t29.5 104.5q0 80 -52.5 130t-137 72t-186.5 34.5t-204 25.5t-186.5 36.5t-137 77t-52.5 136.5q0 256 493 256q303 0 475 -69zM565 -446h-39l80 294
h78z" />
    <glyph glyph-name="dotlessj" unicode="&#x237;" 
d="M-96 -373l2 49q83 -14 135 -14q96 0 127 50t31 175v1141h65v-1141q0 -55 -3 -91t-15.5 -74.5t-35.5 -60.5t-64.5 -36t-100.5 -14q-47 0 -141 16z" />
    <glyph glyph-name="apostrophemod" unicode="&#x2bc;" horiz-adv-x="708" 
d="M575 420h-442v55h442v-55z" />
    <glyph glyph-name="circumflex" unicode="&#x2c6;" horiz-adv-x="548" 
d="M524 1303h-47l-203 145l-202 -145h-47l249 229z" />
    <glyph glyph-name="caron" unicode="&#x2c7;" horiz-adv-x="593" 
d="M518 1534h47l-270 -252l-270 252h47l223 -168z" />
    <glyph glyph-name="breve" unicode="&#x2d8;" horiz-adv-x="708" 
d="M506 1448h43q0 -78 -54.5 -124t-142.5 -46t-142 46t-54 124h43q0 -49 43.5 -81t109.5 -32q65 0 109.5 32t44.5 81z" />
    <glyph glyph-name="dotaccent" unicode="&#x2d9;" horiz-adv-x="274" 
d="M139 1364q-21 0 -37 14.5t-16 32.5q0 22 15.5 36.5t37.5 14.5q19 0 34 -15.5t15 -35.5q0 -19 -15 -33t-34 -14z" />
    <glyph glyph-name="ring" unicode="&#x2da;" horiz-adv-x="471" 
d="M236 1223q-90 0 -137.5 42.5t-47.5 110.5t47.5 111t137.5 43q89 0 136.5 -43t47.5 -111t-47.5 -110.5t-136.5 -42.5zM236 1264q56 0 88 34t32 78t-32 78.5t-88 34.5t-88.5 -34.5t-32.5 -78.5t32.5 -78t88.5 -34z" />
    <glyph glyph-name="ogonek" unicode="&#x2db;" horiz-adv-x="479" 
d="M420 -168l16 -20q-54 -68 -155 -68q-69 0 -110.5 34.5t-41.5 92.5q0 102 125 156h57q-47 -19 -85 -59.5t-38 -82.5q0 -37 29 -65.5t82 -28.5q64 0 121 41z" />
    <glyph glyph-name="tilde" unicode="&#x2dc;" horiz-adv-x="729" 
d="M555 1452h27q-8 -55 -37.5 -89t-77.5 -34q-39 0 -95.5 37t-88.5 37q-59 0 -76 -64h-27q10 56 39 89.5t76 33.5q39 0 96.5 -36.5t89.5 -36.5q57 0 74 63z" />
    <glyph glyph-name="hungarumlaut" unicode="&#x2dd;" horiz-adv-x="667" 
d="M309 1300h-47l184 232h95zM47 1300h-45l184 232h95z" />
    <glyph glyph-name="uni0401" unicode="&#x401;" horiz-adv-x="1452" 
d="M1350 0h-1137v1143h1137v-49h-1065v-465h897v-54h-897v-522h1065v-53zM983 1419q0 -21 -14.5 -35t-38.5 -14t-37.5 14t-13.5 35t13.5 37.5t37.5 16.5q25 0 39 -16t14 -38zM719 1419q0 -21 -13.5 -35t-37.5 -14q-25 0 -39.5 14.5t-14.5 34.5q0 21 15 37.5t39 16.5
t37.5 -16t13.5 -38z" />
    <glyph glyph-name="uni0402" unicode="&#x402;" horiz-adv-x="1622" 
d="M715 0v51h409q56 0 101 4.5t97 21.5t87 44.5t58.5 78.5t23.5 119q0 67 -22.5 117t-56.5 78.5t-84.5 45.5t-97.5 22.5t-104 5.5h-673v-588h-70v1092h-369v51h828v-51h-389v-451h673q227 0 331 -82t104 -244q0 -74 -25.5 -130.5t-66.5 -90.5t-99.5 -56t-117.5 -30t-128 -8
h-409z" />
    <glyph glyph-name="uni0403" unicode="&#x403;" horiz-adv-x="1413" 
d="M637 1309h-45l158 209h84zM279 0h-66v1143h1155v-53h-1089v-1090z" />
    <glyph glyph-name="uni0404" unicode="&#x404;" horiz-adv-x="1574" 
d="M1477 150v-56q-231 -114 -582 -114q-133 0 -252 24t-218 73.5t-171.5 119t-113 165.5t-40.5 209t40.5 209t113 166t171.5 119t218 73.5t252 24.5q352 0 582 -112v-58q-207 121 -582 121q-194 0 -349.5 -54.5t-256 -168.5t-113.5 -273h934v-53h-936q1 -130 58 -232.5
t156 -167.5t228 -98.5t279 -33.5q165 0 327 31.5t255 85.5z" />
    <glyph glyph-name="uni0405" unicode="&#x405;" horiz-adv-x="1370" 
d="M1227 1085l-4 -47q-81 38 -232.5 57t-306.5 19q-496 0 -496 -231q0 -64 37.5 -108.5t100.5 -68.5t145.5 -39.5t173 -25.5t181 -21.5t173 -32.5t145.5 -54t100.5 -91.5t37.5 -138.5q0 -66 -24.5 -118.5t-69 -86.5t-99 -58t-123.5 -36.5t-132.5 -18t-135.5 -5.5
q-157 0 -323.5 23t-288.5 67l2 55q122 -48 289 -70t323 -22q521 0 521 264q0 89 -60.5 145.5t-157 80.5t-213 37.5t-233 28.5t-213 41.5t-157 87.5t-60.5 156q0 289 555 289q365 0 545 -78z" />
    <glyph glyph-name="uni0406" unicode="&#x406;" horiz-adv-x="495" 
d="M283 0h-70v1143h70v-1143z" />
    <glyph glyph-name="uni0407" unicode="&#x407;" horiz-adv-x="495" 
d="M283 0h-70v1143h70v-1143zM430 1419q0 -21 -14.5 -35t-38.5 -14t-37.5 14t-13.5 35t13.5 37.5t37.5 16.5q25 0 39 -16t14 -38zM166 1419q0 -21 -13.5 -35t-37.5 -14q-25 0 -39.5 14.5t-14.5 34.5q0 21 15 37.5t39 16.5q23 0 37 -16t14 -38z" />
    <glyph glyph-name="uni0408" unicode="&#x408;" horiz-adv-x="495" 
d="M-88 -373l8 54q76 -15 127 -15q81 0 123.5 55.5t42.5 196.5v1225h70v-1225q0 -49 -4.5 -87.5t-19 -81.5t-39.5 -71.5t-69 -47.5t-104 -19q-57 0 -135 16z" />
    <glyph glyph-name="uni0409" unicode="&#x409;" horiz-adv-x="2764" 
d="M31 -4l2 53q71 -14 114 -14q84 0 111 48t27 173v887h1310v-488h674q434 0 434 -340q0 -74 -25.5 -130.5t-66.5 -90.5t-99 -56t-117 -30t-128 -8h-741v1081h-1172v-825q0 -54 -4 -91t-16 -74.5t-34.5 -60t-60.5 -36.5t-92 -14q-51 0 -116 16zM2269 594h-674v-533h672
q58 0 101.5 3.5t96.5 19t87.5 42t58 76t23.5 117.5q0 275 -365 275z" />
    <glyph glyph-name="uni040A" unicode="&#x40a;" horiz-adv-x="2693" 
d="M2198 655q434 0 434 -340q0 -74 -25.5 -130.5t-66.5 -90.5t-99.5 -56t-117.5 -30t-128 -8h-741v594h-1171v-594h-70v1143h70v-488h1171v488h70v-488h674zM2198 594h-674v-533h671q58 0 101.5 3.5t96.5 19t87.5 42t58 76t23.5 117.5q0 275 -364 275z" />
    <glyph glyph-name="uni040B" unicode="&#x40b;" horiz-adv-x="1742" 
d="M1663 0h-70v319q0 67 -22 117t-56.5 78.5t-85 45.5t-97 22.5t-103.5 5.5h-776v-588h-70v1092h-369v51h828v-51h-389v-451h776q227 0 330.5 -82t103.5 -244v-315z" />
    <glyph glyph-name="uni040C" unicode="&#x40c;" horiz-adv-x="1433" 
d="M1409 1143l-625 -438l639 -705h-90l-604 666l-446 -314v-352h-70v1143h70v-717l1022 717h104zM657 1309h-45l158 209h84z" />
    <glyph glyph-name="uni040E" unicode="&#x40e;" horiz-adv-x="1234" 
d="M297 119l348 413l-606 611h82l563 -565l477 565h80l-907 -1075q-77 -91 -176 -91q-50 0 -119 19l2 49q76 -16 119 -16q38 0 69 23t68 67zM791 1448h43q0 -78 -54.5 -124t-142.5 -46t-142.5 46t-54.5 124h43q0 -49 44 -81t110 -32q65 0 109.5 32t44.5 81z" />
    <glyph glyph-name="uni040F" unicode="&#x40f;" horiz-adv-x="1798" 
d="M1516 1143h69v-1143h-651v-168h-70v168h-651v1143h70v-1082h1233v1082z" />
    <glyph glyph-name="uni0410" unicode="&#x410;" horiz-adv-x="1523" 
d="M1454 0l-242 367h-901l-241 -367h-72l764 1161l764 -1161h-72zM762 1051l-416 -631h832z" />
    <glyph glyph-name="uni0411" unicode="&#x411;" horiz-adv-x="1564" 
d="M1053 586h-774v-533h774q63 0 113 6t100 23.5t83 46t53.5 76.5t20.5 112t-20.5 112.5t-54.5 78t-83.5 47.5t-100 24.5t-111.5 6.5zM1368 1143v-53h-1089v-449h778q67 0 125.5 -8.5t116.5 -31.5t99 -58t66 -91.5t25 -129.5q0 -322 -436 -322h-840v1143h1155z" />
    <glyph glyph-name="uni0412" unicode="&#x412;" horiz-adv-x="1587" 
d="M1053 0h-840v1143h754q403 0 403 -275q0 -55 -16.5 -99t-38.5 -68t-53 -42t-51 -24t-42 -10q49 -6 86 -14t84 -29t77 -51.5t51.5 -84t21.5 -124.5q0 -322 -436 -322zM1053 586h-774v-533h774q63 0 113 6t100 23.5t83 46t53.5 76.5t20.5 112t-20.5 112.5t-54.5 78
t-83.5 47.5t-100 24.5t-111.5 6.5zM967 1090h-688v-449h688q53 0 93.5 3.5t89 17t80.5 36.5t53.5 66t21.5 102q0 45 -12.5 80t-31 58.5t-48.5 40t-57 25t-64.5 13.5t-63.5 6t-61 1z" />
    <glyph glyph-name="uni0413" unicode="&#x413;" horiz-adv-x="1413" 
d="M279 0h-66v1143h1155v-53h-1089v-1090z" />
    <glyph glyph-name="uni0414" unicode="&#x414;" horiz-adv-x="1712" 
d="M53 53h131q31 61 51 142t28 183t10.5 179t2.5 195v391h1213v-1090h115v-239h-66v186h-1419v-186h-66v239zM248 53h1175v1037h-1081v-246q0 -127 -0.5 -183t-5 -165t-14 -172t-28 -139t-46.5 -132z" />
    <glyph glyph-name="uni0415" unicode="&#x415;" horiz-adv-x="1449" 
d="M1350 0h-1137v1143h1137v-51h-1071v-469h901v-54h-901v-518h1071v-51z" />
    <glyph glyph-name="uni0416" unicode="&#x416;" horiz-adv-x="1726" 
d="M897 0h-66v522l-86 72l-700 -594h-82l735 633l-606 510h82l657 -549v549h66v-549l655 549h84l-608 -510l737 -633h-82l-702 594l-84 -72v-522z" />
    <glyph glyph-name="uni0417" unicode="&#x417;" horiz-adv-x="1456" 
d="M776 582h-223v51h225q224 0 335.5 56t111.5 185q0 130 -137.5 185t-428.5 55q-138 0 -293 -24t-270 -74v47q118 47 270.5 72.5t301.5 25.5q148 0 258.5 -14.5t195 -47t127.5 -89.5t43 -138q0 -112 -71.5 -178.5t-171.5 -83.5q54 -6 105 -24t97.5 -48.5t74.5 -81
t28 -112.5q0 -96 -56 -169t-155 -115t-222 -62.5t-270 -20.5q-131 0 -300.5 28t-254.5 67v49q107 -49 265.5 -73.5t289.5 -24.5q140 0 253.5 18t200 54.5t134 97.5t47.5 143q0 131 -121.5 188.5t-388.5 57.5z" />
    <glyph glyph-name="uni0418" unicode="&#x418;" horiz-adv-x="1785" 
d="M1509 1032l-1296 -1055v1166h63v-1041l1297 1059v-1161h-64v1032z" />
    <glyph glyph-name="uni0419" unicode="&#x419;" horiz-adv-x="1785" 
d="M213 -23l1296 1055v-1032h64v1161l-1297 -1059v1041h-63v-1166zM1026 1440h43q0 -86 -60 -136.5t-155 -50.5q-97 0 -157 50.5t-60 136.5h45q0 -55 49 -91t123 -36q73 0 122.5 36t49.5 91z" />
    <glyph glyph-name="uni041A" unicode="&#x41a;" horiz-adv-x="1404" 
d="M1378 1143l-633 -453l654 -690h-84l-623 651l-413 -295v-356h-66v1143h66v-715l997 715h102z" />
    <glyph glyph-name="uni041B" unicode="&#x41b;" horiz-adv-x="1804" 
d="M4 -4l2 49q76 -16 127 -16q94 0 124 56.5t30 197.5v860h1304v-1143h-65v1087h-1174v-804q0 -61 -3 -100t-15.5 -82t-36 -67.5t-65 -40.5t-101.5 -16q-55 0 -127 19z" />
    <glyph glyph-name="uni041C" unicode="&#x41c;" horiz-adv-x="2258" 
d="M2206 0h-62l-362 1016h-2l-652 -1039l-651 1039l-364 -1016h-60l410 1161l665 -1067l668 1067z" />
    <glyph glyph-name="uni041D" unicode="&#x41d;" horiz-adv-x="1798" 
d="M1585 0h-65v563h-1241v-563h-66v1143h66v-525h1241v525h65v-1143z" />
    <glyph glyph-name="uni041E" unicode="&#x41e;" horiz-adv-x="1828" 
d="M1731 567q0 -179 -104.5 -314t-289 -205.5t-422.5 -70.5q-239 0 -423.5 70.5t-289 205.5t-104.5 314q0 178 104 313.5t289.5 208t423.5 72.5q237 0 422 -72.5t289.5 -208t104.5 -313.5zM1661 567q0 166 -98.5 291.5t-266.5 190.5t-381 65q-214 0 -383 -65t-266.5 -190.5
t-97.5 -291.5q0 -165 97.5 -290t266.5 -189.5t383 -64.5q213 0 381 64.5t266.5 189.5t98.5 290z" />
    <glyph glyph-name="uni041F" unicode="&#x41f;" horiz-adv-x="1798" 
d="M1585 0h-65v1090h-1241v-1090h-66v1143h1372v-1143z" />
    <glyph glyph-name="uni0420" unicode="&#x420;" horiz-adv-x="1421" 
d="M961 508h-682v-508h-66v1143h748q85 0 156 -18.5t126 -55.5t86 -99t31 -143q0 -159 -111 -239t-288 -80zM963 1087h-684v-524h684q78 0 137.5 15t96 40t59.5 60t31.5 71t8.5 78q0 260 -333 260z" />
    <glyph glyph-name="uni0421" unicode="&#x421;" horiz-adv-x="1599" 
d="M1505 170v-53q-122 -68 -285 -104t-327 -36q-170 0 -315.5 40t-252 114.5t-167 186.5t-60.5 249q0 136 60 248.5t166 188t252 116.5t317 41q340 0 612 -143v-51q-132 73 -293 110t-317 37q-155 0 -288 -37t-230.5 -105.5t-153 -172.5t-55.5 -232q0 -170 96.5 -294.5
t261 -187t375.5 -62.5q158 0 319 36.5t285 110.5z" />
    <glyph glyph-name="uni0422" unicode="&#x422;" horiz-adv-x="1343" 
d="M705 0h-66v1090h-616v53h1298v-53h-616v-1090z" />
    <glyph glyph-name="uni0423" unicode="&#x423;" horiz-adv-x="1234" 
d="M297 119l348 413l-606 611h82l563 -565l477 565h80l-907 -1075q-77 -91 -176 -91q-50 0 -119 19l2 49q76 -16 119 -16q38 0 69 23t68 67z" />
    <glyph glyph-name="uni0424" unicode="&#x424;" horiz-adv-x="1763" 
d="M913 0h-65v102q-119 -34 -232 -34q-220 0 -362.5 136t-142.5 369q0 115 43.5 212t115 159t160 96.5t180.5 34.5q112 0 238 -35v103h65v-103q126 35 240 35q92 0 180.5 -34.5t160 -96.5t115.5 -159t44 -212q0 -233 -143 -369t-363 -136q-119 0 -234 32v-100zM1149 1020
q-99 0 -236 -37v-829q109 -33 236 -33q116 0 214 50.5t161 154.5t63 243q0 104 -37 191t-98.5 143t-140 86.5t-162.5 30.5zM614 121q125 0 234 33v831q-140 35 -234 35q-84 0 -162.5 -30.5t-140 -86.5t-98.5 -143t-37 -191q0 -139 63 -243t161 -154.5t214 -50.5z" />
    <glyph glyph-name="uni0425" unicode="&#x425;" horiz-adv-x="1337" 
d="M1325 0h-90l-567 539l-568 -539h-88l611 580l-592 563h88l549 -525l549 525h90l-592 -563z" />
    <glyph glyph-name="uni0426" unicode="&#x426;" horiz-adv-x="1759" 
d="M1636 0h-1423v1143h66v-1090h1173v1090h66v-1090h184v-239h-66v186z" />
    <glyph glyph-name="uni0427" unicode="&#x427;" horiz-adv-x="1437" 
d="M78 1143h65v-316q0 -54 15 -98t50 -83.5t103.5 -62t165.5 -22.5h682v582h66v-1143h-66v508h-680q-85 0 -156.5 19t-127 56.5t-86.5 100t-31 143.5v316z" />
    <glyph glyph-name="uni0428" unicode="&#x428;" horiz-adv-x="1890" 
d="M977 1143v-1090h635v1090h65v-1143h-700v-2h-66v2h-698v1143h66v-1090h632v1090h66z" />
    <glyph glyph-name="uni0429" unicode="&#x429;" horiz-adv-x="1918" 
d="M977 1143v-1090h635v1090h65v-1088h185v-241h-66v186h-819v-2h-66v2h-698v1143h66v-1090h632v1090h66z" />
    <glyph glyph-name="uni042A" unicode="&#x42a;" horiz-adv-x="1615" 
d="M346 1143v-502h780q66 0 124.5 -8.5t116 -31.5t98.5 -58t66 -91.5t25 -129.5q0 -322 -436 -322h-839v1090h-252v53h317zM1120 586h-774v-533h774q63 0 113.5 6t100 23.5t83 46t54 76.5t20.5 112t-21 112.5t-54.5 78t-83 47.5t-100.5 24.5t-112 6.5z" />
    <glyph glyph-name="uni042B" unicode="&#x42b;" horiz-adv-x="1927" 
d="M1053 586h-774v-533h774q63 0 113 6t100 23.5t83 46t53.5 76.5t20.5 112t-20.5 112.5t-54.5 78t-83.5 47.5t-100 24.5t-111.5 6.5zM279 1143v-502h778q67 0 125.5 -8.5t116.5 -31.5t99 -58t66 -91.5t25 -129.5q0 -322 -436 -322h-840v1143h66zM1714 0h-65v1143h65v-1143z
" />
    <glyph glyph-name="uni042C" unicode="&#x42c;" horiz-adv-x="1548" 
d="M1053 586h-774v-533h774q63 0 113 6t100 23.5t83 46t53.5 76.5t20.5 112t-20.5 112.5t-54.5 78t-83.5 47.5t-100 24.5t-111.5 6.5zM279 1143v-502h778q67 0 125.5 -8.5t116.5 -31.5t99 -58t66 -91.5t25 -129.5q0 -322 -436 -322h-840v1143h66z" />
    <glyph glyph-name="uni042D" unicode="&#x42d;" horiz-adv-x="1609" 
d="M102 117v53q124 -74 285.5 -110.5t319.5 -36.5q206 0 368 60t259.5 180t103.5 284h-879v51h879q-9 160 -106.5 278t-257.5 178t-363 60q-156 0 -317 -37t-292 -110v51q272 143 611 143q172 0 318 -41t252 -116.5t166 -187.5t60 -249t-60.5 -249t-167.5 -186.5
t-252.5 -114.5t-315.5 -40q-163 0 -327 36t-284 104z" />
    <glyph glyph-name="uni042E" unicode="&#x42e;" horiz-adv-x="2164" 
d="M279 0h-66v1143h66v-549h155q8 170 114 299.5t288.5 198.5t414.5 69q237 0 422 -72.5t289 -208t104 -313.5q0 -179 -104.5 -314t-288.5 -205.5t-422 -70.5q-233 0 -415 68t-288 196.5t-114 299.5h-155v-541zM1997 567q0 166 -98.5 291.5t-266.5 190.5t-381 65
q-214 0 -383 -65t-266.5 -190.5t-97.5 -291.5q0 -165 97.5 -290t266.5 -189.5t383 -64.5q213 0 381 64.5t266.5 189.5t98.5 290z" />
    <glyph glyph-name="uni042F" unicode="&#x42f;" horiz-adv-x="1456" 
d="M176 0h-76l344 473q-149 15 -237 96t-88 242q0 160 113 246t286 86h725v-1143h-65v471h-660zM1178 1090h-660q-97 0 -166 -24.5t-104 -66.5t-50.5 -88t-15.5 -100q0 -62 15 -110.5t51 -90t104 -64t166 -22.5h660v566z" />
    <glyph glyph-name="uni0430" unicode="&#x430;" horiz-adv-x="1380" 
d="M1307 0l-213 324h-807l-213 -324h-72l688 1044l688 -1044h-71zM690 936l-368 -559h737z" />
    <glyph glyph-name="uni0431" unicode="&#x431;" horiz-adv-x="1423" 
d="M954 524h-690v-471h690q70 0 124 9.5t102.5 34t75 72.5t26.5 118t-26.5 118.5t-75.5 73.5t-103 35t-123 10zM1239 1028v-53h-975v-397h694q59 0 112 -8t105 -28t89.5 -51.5t60.5 -82.5t23 -117q0 -291 -394 -291h-755v1028h1040z" />
    <glyph glyph-name="uni0432" unicode="&#x432;" horiz-adv-x="1441" 
d="M954 0h-755v1028h678q364 0 364 -248q0 -49 -14.5 -88t-34 -61t-46.5 -37.5t-45.5 -21.5t-37.5 -9q44 -6 77 -13.5t75 -26.5t68.5 -46t45.5 -75t19 -111q0 -291 -394 -291zM954 524h-690v-471h690q70 0 124 9.5t102.5 34t75 72.5t26.5 118t-26.5 118.5t-75.5 73.5
t-103 35t-123 10zM877 975h-613v-397h613q46 0 82.5 3.5t79.5 15.5t71 32.5t47 58.5t19 90q0 39 -11 70t-27 51.5t-42.5 35t-50.5 22t-57 12t-56.5 5.5t-54.5 1z" />
    <glyph glyph-name="uni0433" unicode="&#x433;" horiz-adv-x="1284" 
d="M264 0h-65v1028h1040v-53h-975v-975z" />
    <glyph glyph-name="uni0434" unicode="&#x434;" horiz-adv-x="1558" 
d="M57 53h119q37 76 57 193.5t23.5 209.5t3.5 236v336h1090v-975h106v-221h-65v168h-1268v-168h-66v221zM240 53h1044v922h-958v-219q0 -132 -1.5 -202.5t-9 -176.5t-26 -184t-49.5 -140z" />
    <glyph glyph-name="uni0435" unicode="&#x435;" horiz-adv-x="1318" 
d="M1223 0h-1024v1028h1024v-51h-959v-416h805v-51h-805v-459h959v-51z" />
    <glyph glyph-name="uni0436" unicode="&#x436;" horiz-adv-x="1572" 
d="M819 0h-65v465l-78 65l-621 -530h-82l656 569l-541 459h82l584 -489v489h65v-489l584 489h82l-543 -459l657 -569h-81l-621 530l-78 -65v-465z" />
    <glyph glyph-name="uni0437" unicode="&#x437;" horiz-adv-x="1325" 
d="M707 520h-203v51h203q199 0 298 49t99 164t-123 164t-381 49q-124 0 -263.5 -22t-242.5 -66v49q104 41 241.5 63.5t270.5 22.5q132 0 231 -12.5t176.5 -41.5t117.5 -80.5t40 -125.5q0 -101 -64 -160t-153 -75q49 -5 95 -21t87 -44.5t66 -73.5t25 -101q0 -88 -51 -153
t-141 -102.5t-200 -55.5t-241 -18q-120 0 -272 24.5t-228 58.5v50q95 -43 238 -64.5t262 -21.5q125 0 225.5 15.5t178 48t119.5 86.5t42 126q0 116 -108 166.5t-344 50.5z" />
    <glyph glyph-name="uni0438" unicode="&#x438;" horiz-adv-x="1619" 
d="M1358 918l-1159 -938v1048h63v-924l1159 940v-1044h-63v918z" />
    <glyph glyph-name="uni0439" unicode="&#x439;" horiz-adv-x="1619" 
d="M199 -20l1159 938v-918h63v1044l-1159 -940v924h-63v-1048zM930 1296h43q0 -78 -54.5 -124t-142.5 -46t-142 46t-54 124h43q0 -49 43.5 -80.5t109.5 -31.5q65 0 109.5 31.5t44.5 80.5z" />
    <glyph glyph-name="uni043A" unicode="&#x43a;" horiz-adv-x="1284" 
d="M1251 1028l-565 -407l584 -621h-84l-553 582l-369 -265v-317h-65v1028h65v-639l887 639h100z" />
    <glyph glyph-name="uni043B" unicode="&#x43b;" horiz-adv-x="1640" 
d="M14 -4l2 49q71 -14 115 -14q84 0 110.5 49.5t26.5 175.5v772h1174v-1028h-66v973h-1042v-717q0 -45 -2.5 -76.5t-9.5 -65.5t-21 -56.5t-35.5 -41t-55.5 -27.5t-79 -9q-52 0 -117 16z" />
    <glyph glyph-name="uni043C" unicode="&#x43c;" horiz-adv-x="2039" 
d="M1987 0h-62l-323 903l-582 -923l-582 923l-323 -903h-62l371 1044l596 -950l596 950z" />
    <glyph glyph-name="uni043D" unicode="&#x43d;" horiz-adv-x="1632" 
d="M1434 0h-66v504h-1104v-504h-65v1028h65v-469h1104v469h66v-1028z" />
    <glyph glyph-name="uni043E" unicode="&#x43e;" horiz-adv-x="1656" 
d="M1563 510q0 -161 -94.5 -282t-260 -184.5t-379.5 -63.5q-215 0 -381 63.5t-260 184.5t-94 282t94 283t260.5 186.5t380.5 64.5q213 0 379.5 -64.5t260.5 -186.5t94 -283zM1493 510q0 148 -87.5 259.5t-237.5 169.5t-339 58q-191 0 -341 -58t-237 -169.5t-87 -259.5
q0 -146 87 -257t237 -168.5t341 -57.5q189 0 339 57.5t237.5 168.5t87.5 257z" />
    <glyph glyph-name="uni043F" unicode="&#x43f;" horiz-adv-x="1632" 
d="M1434 0h-66v975h-1104v-975h-65v1028h1235v-1028z" />
    <glyph glyph-name="uni0440" unicode="&#x440;" horiz-adv-x="1292" 
d="M872 453h-608v-453h-65v1028h673q162 0 262.5 -71.5t100.5 -215.5q0 -143 -101 -215.5t-262 -72.5zM872 973h-608v-465h608q297 0 297 233q0 232 -297 232z" />
    <glyph glyph-name="uni0441" unicode="&#x441;" horiz-adv-x="1447" 
d="M1358 158v-54q-109 -61 -254.5 -92.5t-292.5 -31.5q-206 0 -367.5 61.5t-255.5 183t-94 285.5t93 286t255 185t369 63q310 0 547 -126v-54q-117 66 -260.5 99.5t-284.5 33.5q-187 0 -332.5 -56.5t-231 -168t-85.5 -262.5t86 -261.5t232.5 -166t334.5 -55.5
q142 0 286.5 32.5t254.5 98.5z" />
    <glyph glyph-name="uni0442" unicode="&#x442;" horiz-adv-x="1216" 
d="M641 0h-66v975h-550v53h1167v-53h-551v-975z" />
    <glyph glyph-name="uni0443" unicode="&#x443;" horiz-adv-x="1132" 
d="M276 113l310 366l-543 549h82l500 -504l426 504h82l-818 -962q-77 -86 -163 -86q-46 0 -109 16l2 49q71 -14 107 -14q24 0 47.5 13t38.5 27.5t38 41.5z" />
    <glyph glyph-name="uni0444" unicode="&#x444;" horiz-adv-x="1601" 
d="M834 0h-66v92q-108 -31 -209 -31q-128 0 -230.5 53t-163.5 157.5t-61 244.5q0 104 39.5 191.5t104.5 143t144.5 86t162.5 30.5q99 0 213 -31v92h66v-92q114 31 213 31q83 0 162.5 -30.5t144 -86t104 -143t39.5 -191.5q0 -140 -61 -244.5t-163.5 -157.5t-230.5 -53
q-100 0 -208 31v-92zM559 115q114 0 209 28v740q-110 30 -209 30q-158 0 -273.5 -109t-115.5 -292q0 -93 32.5 -169.5t87 -125.5t124 -75.5t145.5 -26.5zM1042 913q-96 0 -208 -32v-738q95 -28 208 -28q76 0 146 26.5t124.5 75.5t87 125.5t32.5 169.5t-33 170t-87.5 127
t-124.5 77t-145 27z" />
    <glyph glyph-name="uni0445" unicode="&#x445;" horiz-adv-x="1218" 
d="M1200 0h-82l-510 483l-508 -483h-82l549 522l-532 506h82l491 -469l494 469h82l-531 -506z" />
    <glyph glyph-name="uni0446" unicode="&#x446;" horiz-adv-x="1599" 
d="M1475 0h-1276v1028h65v-975h1043v975h65v-975h168v-221h-65v168z" />
    <glyph glyph-name="uni0447" unicode="&#x447;" horiz-adv-x="1310" 
d="M76 1028h65v-287q0 -47 13.5 -86t44.5 -74t92 -55t147 -20h609v522h65v-1028h-65v453h-609q-161 0 -261.5 72.5t-100.5 215.5v287z" />
    <glyph glyph-name="uni0448" unicode="&#x448;" horiz-adv-x="1716" 
d="M891 1028v-975h561v975h66v-1028h-1319v1028h65v-975h561v975h66z" />
    <glyph glyph-name="uni0449" unicode="&#x449;" horiz-adv-x="1744" 
d="M891 1028v-975h561v975h66v-973h168v-223h-66v168h-1421v1028h65v-975h561v975h66z" />
    <glyph glyph-name="uni044A" unicode="&#x44a;" horiz-adv-x="1470" 
d="M328 1028v-450h694q59 0 112 -8t105 -28t89 -51.5t60 -82.5t23 -117q0 -291 -393 -291h-756v975h-225v53h291zM1018 524h-690v-471h690q70 0 124 9.5t102.5 34t75 72.5t26.5 118t-26.5 118.5t-75.5 73.5t-103 35t-123 10z" />
    <glyph glyph-name="uni044B" unicode="&#x44b;" horiz-adv-x="1753" 
d="M954 524h-690v-471h690q70 0 124 9.5t102.5 34t75 72.5t26.5 118t-26.5 118.5t-75.5 73.5t-103 35t-123 10zM264 1028v-450h694q59 0 112 -8t105 -28t89.5 -51.5t60.5 -82.5t23 -117q0 -291 -394 -291h-755v1028h65zM1554 0h-65v1028h65v-1028z" />
    <glyph glyph-name="uni044C" unicode="&#x44c;" horiz-adv-x="1406" 
d="M954 524h-690v-471h690q70 0 124 9.5t102.5 34t75 72.5t26.5 118t-26.5 118.5t-75.5 73.5t-103 35t-123 10zM264 1028v-450h694q59 0 112 -8t105 -28t89.5 -51.5t60.5 -82.5t23 -117q0 -291 -394 -291h-755v1028h65z" />
    <glyph glyph-name="uni044D" unicode="&#x44d;" horiz-adv-x="1456" 
d="M98 104v54q110 -66 254.5 -98.5t286.5 -32.5q281 0 461.5 122.5t189.5 339.5h-782v52h782q-9 141 -95.5 245.5t-229 157.5t-322.5 53q-141 0 -284.5 -33.5t-260.5 -99.5v54q237 126 547 126q207 0 369 -63t255 -185t93 -286t-94 -285.5t-255.5 -183t-367.5 -61.5
q-147 0 -292.5 31.5t-254.5 92.5z" />
    <glyph glyph-name="uni044E" unicode="&#x44e;" horiz-adv-x="1966" 
d="M264 0h-65v1028h65v-491h139q12 231 215 369t521 138q213 0 379 -64.5t260 -186.5t94 -283t-94 -282t-259.5 -184.5t-379.5 -63.5q-319 0 -521.5 135.5t-214.5 367.5h-139v-483zM1802 510q0 148 -87.5 259.5t-237 169.5t-338.5 58q-191 0 -341.5 -58t-237.5 -169.5
t-87 -259.5q0 -146 87 -257t237.5 -168.5t341.5 -57.5q189 0 338.5 57.5t237 168.5t87.5 257z" />
    <glyph glyph-name="uni044F" unicode="&#x44f;" horiz-adv-x="1329" 
d="M174 0h-76l308 422q-135 14 -213 88t-78 217q0 145 101 223t261 78h653v-1028h-65v420h-588zM1065 975h-588q-86 0 -147 -21.5t-92 -59t-44.5 -78.5t-13.5 -89q0 -55 13 -97.5t44.5 -79.5t92 -57t147.5 -20h588v502z" />
    <glyph glyph-name="uni0451" unicode="&#x451;" horiz-adv-x="1318" 
d="M1223 0h-1024v1028h1024v-51h-959v-416h805v-51h-805v-459h959v-51zM879 1284q0 -21 -15 -35t-39 -14t-37.5 14t-13.5 35t13.5 37t37.5 16q25 0 39.5 -15.5t14.5 -37.5zM614 1284q0 -21 -13.5 -35t-37.5 -14q-25 0 -39 14.5t-14 34.5q0 21 14.5 37t38.5 16t37.5 -15.5
t13.5 -37.5z" />
    <glyph glyph-name="uni0452" unicode="&#x452;" horiz-adv-x="1632" 
d="M1554 0h-69v319q0 67 -22.5 117t-56.5 78.5t-84.5 45.5t-97.5 22.5t-104 5.5h-674v-588h-69v1092h-369v51h828v-51h-390v-451h674q227 0 330.5 -82t103.5 -244v-315z" />
    <glyph glyph-name="uni0453" unicode="&#x453;" horiz-adv-x="1284" 
d="M264 0h-65v1028h1040v-53h-975v-975zM692 1174h-45l158 208h84z" />
    <glyph glyph-name="uni0454" unicode="&#x454;" horiz-adv-x="1456" 
d="M1358 158v-54q-109 -61 -254.5 -92.5t-292.5 -31.5q-206 0 -367.5 61.5t-255.5 183t-94 285.5t93 286t255 185t369 63q310 0 547 -126v-54q-117 66 -260.5 99.5t-284.5 33.5q-180 0 -323 -53t-230 -157.5t-96 -245.5h801v-52h-801q6 -145 93 -251t231.5 -158.5
t328.5 -52.5q142 0 286.5 32.5t254.5 98.5z" />
    <glyph glyph-name="uni0455" unicode="&#x455;" horiz-adv-x="1212" 
d="M1083 975l-8 -47q-147 69 -473 69q-41 0 -75 -1t-80 -6t-82 -13t-73.5 -23.5t-62.5 -36t-41 -52t-16 -70.5q0 -56 32.5 -95t87.5 -59.5t126.5 -33.5t150.5 -21.5t158 -18t150.5 -28.5t126.5 -48.5t87.5 -82.5t32.5 -125t-32.5 -126.5t-83 -87.5t-122 -53.5t-140 -28
t-146.5 -7.5q-117 0 -261 16.5t-253 48.5l2 49q110 -34 252.5 -50.5t259.5 -16.5q69 0 130 6t125.5 23t110.5 43.5t75.5 72t29.5 104.5q0 80 -52.5 130t-137 72t-186.5 34.5t-204 25.5t-186.5 36.5t-137 77t-52.5 136.5q0 256 493 256q303 0 475 -69z" />
    <glyph glyph-name="uni0456" unicode="&#x456;" 
d="M264 0h-65v1028h65v-1028zM236 1339q-21 0 -37.5 14.5t-16.5 32.5q0 22 16 37t38 15q19 0 34 -16t15 -36q0 -19 -15 -33t-34 -14z" />
    <glyph glyph-name="uni0457" unicode="&#x457;" 
d="M264 0h-65v1028h65v-1028zM418 1284q0 -21 -14.5 -35t-38.5 -14t-38 14t-14 35t13.5 37t38.5 16t39 -15.5t14 -37.5zM154 1284q0 -21 -14 -35t-38 -14q-25 0 -39 14.5t-14 34.5q0 21 14.5 37t38.5 16t38 -16t14 -37z" />
    <glyph glyph-name="uni0458" unicode="&#x458;" 
d="M-96 -373l2 49q83 -14 135 -14q96 0 127 50t31 175v1141h65v-1141q0 -55 -3 -91t-15.5 -74.5t-35.5 -60.5t-64.5 -36t-100.5 -14q-47 0 -141 16zM236 1339q-21 0 -37.5 14.5t-16.5 32.5q0 22 16 37t38 15q19 0 34 -16t15 -36q0 -19 -15 -33t-34 -14z" />
    <glyph glyph-name="uni0459" unicode="&#x459;" horiz-adv-x="1945" 
d="M14 -4l2 49q71 -14 115 -14q84 0 110.5 49.5t26.5 175.5v772h969v-471h264q76 0 140.5 -12.5t123 -41t92 -82.5t33.5 -130q0 -291 -393 -291h-326v973h-837v-717q0 -45 -2.5 -76.5t-9.5 -65.5t-21 -56.5t-35.5 -41t-55.5 -27.5t-79 -9q-52 0 -117 16zM1497 504h-260v-451
h260q70 0 124 9.5t102.5 34t75 72.5t26.5 118q0 217 -328 217z" />
    <glyph glyph-name="uni045A" unicode="&#x45a;" horiz-adv-x="2142" 
d="M1368 0v504h-1104v-504h-65v1028h65v-471h1104v471h66v-471h264q76 0 140.5 -12.5t123 -41t92 -82.5t33.5 -130q0 -291 -393 -291h-326zM1694 504h-260v-451h260q70 0 124 9.5t102.5 34t74.5 72.5t26 118q0 64 -26.5 108.5t-75 67t-102.5 32t-123 9.5z" />
    <glyph glyph-name="uni045B" unicode="&#x45b;" horiz-adv-x="1462" 
d="M762 1028v-53h-359v-397h592q59 0 112 -8t105 -28t89 -51.5t60 -82.5t23 -117v-291h-65v287q0 70 -26.5 118.5t-75.5 73.5t-103 35t-123 10h-588v-524h-65v975h-318v53h742z" />
    <glyph glyph-name="uni045C" unicode="&#x45c;" horiz-adv-x="1284" 
d="M1251 1028l-565 -407l584 -621h-84l-553 582l-369 -265v-317h-65v1028h65v-639l887 639h100zM692 1174h-45l158 208h84z" />
    <glyph glyph-name="uni045E" unicode="&#x45e;" horiz-adv-x="1132" 
d="M276 113l310 366l-543 549h82l500 -504l426 504h82l-818 -962q-77 -86 -163 -86q-46 0 -109 16l2 49q71 -14 107 -14q24 0 47.5 13t38.5 27.5t38 41.5zM768 1296h43q0 -78 -54.5 -124t-142.5 -46t-142 46t-54 124h43q0 -49 43.5 -80.5t109.5 -31.5q65 0 109.5 31.5
t44.5 80.5z" />
    <glyph glyph-name="uni045F" unicode="&#x45f;" horiz-adv-x="1632" 
d="M1434 0h-586v-168h-66v168h-583v1028h65v-973h1104v973h66v-1028z" />
    <glyph glyph-name="uni0490" unicode="&#x490;" horiz-adv-x="1415" 
d="M283 1092v-1092h-70v1143h1092v119h69v-170h-1091z" />
    <glyph glyph-name="uni0491" unicode="&#x491;" horiz-adv-x="1284" 
d="M264 0h-65v1028h975v135h65v-188h-975v-975z" />
    <glyph glyph-name="Wgrave" unicode="&#x1e80;" horiz-adv-x="2080" 
d="M1534 -20l-494 1038l-493 -1038l-524 1163h71l457 -1024l489 1044l490 -1044l457 1024h71zM1161 1323h-35l-208 195h73z" />
    <glyph glyph-name="wgrave" unicode="&#x1e81;" horiz-adv-x="1949" 
d="M1417 -20l-442 929l-443 -929l-509 1048h71l438 -913l443 929l442 -929l438 913h72zM1096 1184h-35l-209 194h74z" />
    <glyph glyph-name="Wacute" unicode="&#x1e82;" horiz-adv-x="2080" 
d="M1534 -20l-494 1038l-493 -1038l-524 1163h71l457 -1024l489 1044l490 -1044l457 1024h71zM1051 1313h-45l157 209h84z" />
    <glyph glyph-name="wacute" unicode="&#x1e83;" horiz-adv-x="1949" 
d="M1417 -20l-442 929l-443 -929l-509 1048h71l438 -913l443 929l442 -929l438 913h72zM985 1174h-45l158 208h84z" />
    <glyph glyph-name="Wdieresis" unicode="&#x1e84;" horiz-adv-x="2080" 
d="M1534 -20l-494 1038l-493 -1038l-524 1163h71l457 -1024l489 1044l490 -1044l457 1024h71zM1221 1423q0 -21 -15 -35t-39 -14t-37.5 14t-13.5 35t13.5 37.5t37.5 16.5q25 0 39.5 -16t14.5 -38zM956 1423q0 -21 -13.5 -35t-37.5 -14q-25 0 -39 14.5t-14 34.5
q0 21 14.5 37.5t38.5 16.5q23 0 37 -16t14 -38z" />
    <glyph glyph-name="wdieresis" unicode="&#x1e85;" horiz-adv-x="1949" 
d="M1417 -20l-442 929l-443 -929l-509 1048h71l438 -913l443 929l442 -929l438 913h72zM1155 1284q0 -21 -14.5 -35t-38.5 -14t-37.5 14t-13.5 35t13.5 37t37.5 16q25 0 39 -15.5t14 -37.5zM891 1284q0 -21 -13.5 -35t-37.5 -14q-25 0 -39.5 14.5t-14.5 34.5q0 21 15 37
t39 16t37.5 -15.5t13.5 -37.5z" />
    <glyph glyph-name="Ygrave" unicode="&#x1ef2;" horiz-adv-x="1357" 
d="M711 0h-66v455l-641 688h86l588 -625l586 625h90l-643 -688v-455zM799 1317h-35l-209 194h74z" />
    <glyph glyph-name="ygrave" unicode="&#x1ef3;" horiz-adv-x="1251" 
d="M659 0h-65v465l-584 563h82l533 -510l534 510h80l-580 -563v-465zM743 1122h-34l-209 195h73z" />
    <glyph glyph-name="endash" unicode="&#x2013;" horiz-adv-x="1245" 
d="M1092 420h-938v53h938v-53z" />
    <glyph glyph-name="emdash" unicode="&#x2014;" horiz-adv-x="2125" 
d="M154 420v59h1818v-59h-1818z" />
    <glyph glyph-name="quoteleft" unicode="&#x2018;" horiz-adv-x="382" 
d="M240 1141h39l-78 -316h-82z" />
    <glyph glyph-name="quoteright" unicode="&#x2019;" horiz-adv-x="368" 
d="M166 827h-39l78 316h82z" />
    <glyph glyph-name="quotesinglbase" unicode="&#x201a;" horiz-adv-x="415" 
d="M137 -213h-39l78 315h82z" />
    <glyph glyph-name="quotedblleft" unicode="&#x201c;" horiz-adv-x="665" 
d="M524 1143h39l-78 -316h-82zM240 1143h39l-78 -316h-82z" />
    <glyph glyph-name="quotedblright" unicode="&#x201d;" horiz-adv-x="653" 
d="M451 827h-39l77 316h82zM166 827h-39l78 316h82z" />
    <glyph glyph-name="quotedblbase" unicode="&#x201e;" horiz-adv-x="684" 
d="M406 -213h-39l77 315h82zM137 -213h-39l78 315h82z" />
    <glyph glyph-name="dagger" unicode="&#x2020;" horiz-adv-x="999" 
d="M518 -322h-37l-24 732l24 284l-356 -22l-43 35l43 38l356 -18l-24 363l43 45l43 -45l-25 -363l356 18l44 -38l-44 -35l-356 22l25 -284z" />
    <glyph glyph-name="daggerdbl" unicode="&#x2021;" horiz-adv-x="1007" 
d="M549 -211l-43 -47l-45 47l24 363l-356 -19l-43 39l43 35l356 -21l-24 254l24 254l-356 -20l-43 35l43 39l356 -17l-24 361l43 47l45 -45l-27 -363l357 17l43 -39l-43 -35l-357 20l27 -254l-27 -254l357 21l43 -35l-43 -39l-357 19z" />
    <glyph glyph-name="bullet" unicode="&#x2022;" horiz-adv-x="882" 
d="M440 231q-112 0 -188 77.5t-76 187.5q0 111 75.5 188.5t188.5 77.5q109 0 188 -78t79 -186q0 -110 -79 -188.5t-188 -78.5z" />
    <glyph glyph-name="ellipsis" unicode="&#x2026;" horiz-adv-x="1120" 
d="M197 -10q-25 0 -41.5 15.5t-16.5 37.5q0 26 16.5 41.5t41.5 15.5t42 -15.5t17 -37.5q0 -26 -17 -41.5t-42 -15.5zM559 -10q-24 0 -40.5 15.5t-16.5 37.5q0 26 16 41.5t41 15.5t42 -15.5t17 -37.5q0 -26 -17 -41.5t-42 -15.5zM922 -10q-25 0 -41.5 15.5t-16.5 37.5
q0 26 16.5 41.5t41.5 15.5t42 -15.5t17 -37.5q0 -26 -17 -41.5t-42 -15.5z" />
    <glyph glyph-name="perthousand" unicode="&#x2030;" horiz-adv-x="2998" 
d="M1921 311q0 -140 -127 -235.5t-313 -95.5q-182 0 -309.5 96t-127.5 235t127.5 235.5t309.5 96.5q186 0 313 -96t127 -236zM510 -2h-82l1102 1186h80zM1481 29q160 0 261 80.5t101 201.5q0 124 -101 203.5t-261 79.5q-158 0 -261.5 -80t-103.5 -203q0 -121 103.5 -201.5
t261.5 -80.5zM958 831q0 -140 -127 -235.5t-313 -95.5q-183 0 -310.5 96t-127.5 235t127.5 235.5t310.5 96.5q186 0 313 -96t127 -236zM518 549q160 0 261.5 80.5t101.5 201.5q0 124 -101.5 203.5t-261.5 79.5t-263 -80t-103 -203q0 -121 103.5 -201.5t262.5 -80.5z
M2920 311q0 -139 -126.5 -235t-309.5 -96q-185 0 -312.5 96t-127.5 235t127.5 235.5t312.5 96.5q183 0 309.5 -96.5t126.5 -235.5zM2484 29q157 0 259 80.5t102 201.5q0 124 -101 203.5t-260 79.5q-161 0 -263.5 -80t-102.5 -203q0 -121 103 -201.5t263 -80.5z" />
    <glyph glyph-name="guilsinglleft" unicode="&#x2039;" horiz-adv-x="581" 
d="M418 154h-39l-260 356l260 356h39l-213 -356z" />
    <glyph glyph-name="guilsinglright" unicode="&#x203a;" horiz-adv-x="581" 
d="M203 154h-39l213 356l-213 356h39l260 -356z" />
    <glyph glyph-name="fraction" unicode="&#x2044;" horiz-adv-x="409" 
d="M29 -55h-68l420 1251h65z" />
    <glyph glyph-name="zerosuperior" unicode="&#x2070;" horiz-adv-x="888" 
d="M821 741q0 -97 -32.5 -175t-86.5 -125.5t-120 -72t-138 -24.5t-137.5 24.5t-119.5 72t-86.5 125.5t-32.5 175q0 98 32 176t85.5 126t119.5 73t137 25q72 0 138 -25t120.5 -73t87.5 -126.5t33 -175.5zM139 741q0 -85 26 -153t69 -109t97 -62.5t113 -21.5t112.5 21.5
t97.5 62.5t70 109t26 153t-26 153.5t-70 110t-98.5 63.5t-113.5 22q-124 0 -213.5 -90.5t-89.5 -258.5z" />
    <glyph glyph-name="foursuperior" unicode="&#x2074;" horiz-adv-x="796" 
d="M612 401h-65v166h-512v54l512 524h65v-524h144v-54h-144v-166zM547 621v452l-443 -452h443z" />
    <glyph glyph-name="fivesuperior" unicode="&#x2075;" horiz-adv-x="780" 
d="M649 1092h-434l-41 -261q38 19 104 30t115 11q167 0 252.5 -72.5t85.5 -187.5q0 -119 -100.5 -193.5t-274.5 -74.5q-70 0 -155.5 15t-141.5 40l2 54q57 -26 136.5 -42t154.5 -16q143 0 228.5 60.5t85.5 156.5q0 94 -74 152.5t-211 58.5q-72 0 -149 -17t-130 -48l56 387
h491v-53z" />
    <glyph glyph-name="sixsuperior" unicode="&#x2076;" horiz-adv-x="831" 
d="M537 1143l-328 -312q37 22 102.5 39t108.5 17q69 0 133 -16t119 -47t88 -84.5t33 -121.5t-32.5 -122.5t-86.5 -86.5t-118.5 -48.5t-133.5 -16.5q-70 0 -134.5 16t-120 47.5t-89 86t-33.5 124.5q0 136 119 246l330 318zM727 618q0 59 -29.5 103.5t-77 68t-97.5 35
t-101 11.5q-52 0 -104 -13t-99 -38t-76.5 -68.5t-29.5 -98.5q0 -72 47 -124t115 -74.5t147 -22.5t146 22.5t113 74.5t46 124z" />
    <glyph glyph-name="sevensuperior" unicode="&#x2077;" horiz-adv-x="671" 
d="M670 1143l-506 -776h-80l475 723h-512v53h623z" />
    <glyph glyph-name="eightsuperior" unicode="&#x2078;" horiz-adv-x="886" 
d="M584 788q101 -8 170 -62t69 -136q0 -107 -109.5 -165t-271.5 -58t-270.5 58t-108.5 165q0 81 67.5 132.5t170.5 65.5q-78 15 -127 58.5t-49 116.5q0 94 92 147t225 53t225.5 -53t92.5 -147q0 -73 -49 -116.5t-127 -58.5zM754 590q0 81 -88 126.5t-224 45.5
q-135 0 -222 -45.5t-87 -126.5t88 -126.5t221 -45.5t222.5 45.5t89.5 126.5zM692 963q0 70 -73 109.5t-177 39.5t-176.5 -39.5t-72.5 -109.5q0 -80 69.5 -115t179.5 -35q71 0 124 13t89.5 47.5t36.5 89.5z" />
    <glyph glyph-name="ninesuperior" unicode="&#x2079;" horiz-adv-x="847" 
d="M295 408l328 290q-37 -21 -102 -36t-109 -15q-69 0 -133.5 15t-119 44.5t-87.5 80t-33 114.5q0 66 32.5 117.5t86.5 82t118.5 46.5t133.5 16q70 0 134.5 -15.5t120 -45.5t88.5 -82t33 -119q0 -41 -14 -81t-33 -70t-52.5 -66t-58.5 -57.5t-66 -56.5t-60 -52l-164 -149z
M104 901q0 -55 29.5 -97t77.5 -63.5t98 -32t101 -10.5q52 0 104 12t99 35.5t76.5 64t29.5 91.5q0 100 -92.5 154.5t-216.5 54.5q-79 0 -146.5 -21.5t-113.5 -70.5t-46 -117z" />
    <glyph glyph-name="zeroinferior" unicode="&#x2080;" horiz-adv-x="892" 
d="M823 8q0 -97 -32.5 -175t-86.5 -125.5t-120 -72t-138 -24.5t-137.5 24.5t-119.5 72t-86.5 125.5t-32.5 175q0 98 32 176t85.5 126t119.5 73t137 25q72 0 138 -25t120.5 -73t87.5 -126.5t33 -175.5zM141 8q0 -85 26 -153t69 -109t97 -62.5t113 -21.5t112.5 21.5t97.5 62.5
t70 109t26 153t-26 153.5t-70.5 110t-98.5 63t-113 21.5q-124 0 -213.5 -90t-89.5 -258z" />
    <glyph glyph-name="oneinferior" unicode="&#x2081;" horiz-adv-x="382" 
d="M287 -369h-68v695l-158 -164l-38 37l198 204h66v-772z" />
    <glyph glyph-name="twoinferior" unicode="&#x2082;" horiz-adv-x="759" 
d="M698 -369h-653v52q106 55 174 92.5t138.5 81t111.5 77t75.5 72t49 76.5t14.5 80q0 94 -68 144t-175 50q-72 0 -147 -23t-124 -61l-6 56q51 36 127 58t156 22q143 0 224 -70.5t81 -177.5q0 -36 -9.5 -70t-31 -66t-43.5 -58t-60 -55t-66.5 -49.5t-77.5 -48.5t-78 -44
t-83.5 -44t-79.5 -42h551v-52z" />
    <glyph glyph-name="threeinferior" unicode="&#x2083;" horiz-adv-x="778" 
d="M373 16h-99v52h99q106 0 170.5 45.5t64.5 109.5q0 68 -61.5 112t-179.5 44q-73 0 -149 -17t-128 -51v54q106 65 277 65q136 0 222.5 -54.5t86.5 -152.5q0 -65 -52 -116.5t-135 -61.5q91 -8 156.5 -59.5t65.5 -132.5q0 -64 -29 -112.5t-79.5 -76t-112 -40.5t-134.5 -13
q-70 0 -159.5 15t-135.5 36v53q57 -25 139 -40t156 -15q143 0 215 49.5t72 140.5q0 70 -67.5 118t-202.5 48z" />
    <glyph glyph-name="fourinferior" unicode="&#x2084;" horiz-adv-x="796" 
d="M612 -369h-65v166h-512v53l512 525h65v-525h144v-53h-144v-166zM547 -150v453l-443 -453h443z" />
    <glyph glyph-name="fiveinferior" unicode="&#x2085;" horiz-adv-x="780" 
d="M649 358h-434l-41 -260q38 19 104 30t115 11q167 0 252.5 -72.5t85.5 -187.5q0 -119 -100.5 -193.5t-274.5 -74.5q-70 0 -155.5 15t-141.5 40l2 53q124 -57 291 -57q143 0 228.5 60.5t85.5 156.5q0 94 -74 152.5t-211 58.5q-72 0 -149 -17t-130 -48l56 387h491v-54z" />
    <glyph glyph-name="sixinferior" unicode="&#x2086;" horiz-adv-x="837" 
d="M543 410l-328 -312q37 22 102.5 39t108.5 17q69 0 133 -16t119 -47t88 -84.5t33 -121.5t-32.5 -122.5t-86.5 -86.5t-118.5 -48.5t-133.5 -16.5q-70 0 -134.5 16t-120 47.5t-89 86t-33.5 124.5q0 136 119 246l330 318zM733 -115q0 59 -29.5 103.5t-77 68t-97.5 34.5
t-101 11q-52 0 -104 -12.5t-99 -37.5t-76.5 -68.5t-29.5 -98.5q0 -72 47 -124t115 -74.5t147 -22.5t146 22.5t113 74.5t46 124z" />
    <glyph glyph-name="seveninferior" unicode="&#x2087;" horiz-adv-x="669" 
d="M668 408l-506 -777h-80l475 723h-512v54h623z" />
    <glyph glyph-name="eightinferior" unicode="&#x2088;" horiz-adv-x="886" 
d="M584 33q101 -8 170 -62.5t69 -136.5q0 -107 -109.5 -165t-271.5 -58t-270.5 58t-108.5 165q0 81 67.5 133t170.5 66q-79 15 -127.5 58t-48.5 116q0 94 92 147.5t225 53.5t225.5 -53.5t92.5 -147.5q0 -73 -49 -116t-127 -58zM754 -166q0 81 -88 126.5t-224 45.5
q-135 0 -222 -45.5t-87 -126.5t88 -126.5t221 -45.5t222.5 45.5t89.5 126.5zM692 207q0 70 -73 109.5t-177 39.5t-176.5 -39.5t-72.5 -109.5q0 -80 69.5 -115t179.5 -35q71 0 124 13t89.5 47.5t36.5 89.5z" />
    <glyph glyph-name="nineinferior" unicode="&#x2089;" horiz-adv-x="847" 
d="M295 -348l328 291q-37 -21 -102.5 -36.5t-108.5 -15.5q-69 0 -133.5 15t-119 44.5t-87.5 80t-33 114.5q0 66 32.5 117.5t86.5 82.5t118.5 47t133.5 16q70 0 134.5 -15.5t119.5 -46t88.5 -82.5t33.5 -119q0 -41 -14 -81t-33 -70t-52.5 -66t-58.5 -57.5t-66 -56.5t-60 -52
l-164 -149zM104 145q0 -55 29.5 -96.5t77.5 -63.5t98 -32t101 -10q52 0 104 12t99 35t76.5 63.5t29.5 91.5q0 100 -92.5 154.5t-216.5 54.5q-79 0 -146.5 -21.5t-113.5 -70.5t-46 -117z" />
    <glyph glyph-name="Euro" unicode="&#x20ac;" horiz-adv-x="1925" 
d="M1155 606v-45h-676q0 -104 39 -190h637v-45h-614q82 -144 257 -218.5t402 -74.5q165 0 327 31.5t255 85.5v-56q-231 -114 -582 -114q-258 0 -454.5 89.5t-282.5 256.5h-367v45h346q-36 89 -36 190h-310v45h310q10 176 119.5 304t283.5 190.5t391 62.5q352 0 582 -112v-58
q-207 121 -582 121q-146 0 -272.5 -32.5t-224.5 -95t-157.5 -160t-66.5 -220.5h676z" />
    <glyph glyph-name="uni2116" unicode="&#x2116;" horiz-adv-x="2904" 
d="M2824 793q0 -169 -158.5 -268t-410.5 -99q-166 0 -295 43.5t-203 127.5t-74 196q0 169 159.5 269.5t412.5 100.5q252 0 410.5 -100.5t158.5 -269.5zM2755 793q0 149 -142 236t-358 87q-143 0 -255.5 -37.5t-179.5 -111.5t-67 -174q0 -147 142 -233.5t360 -86.5
q140 0 253 37.5t180 111t67 171.5zM2578 231h-647v56h647v-56zM1518 -20l-1280 1038v-1018h-70v1163l1280 -1044v1024h70v-1163z" />
    <glyph glyph-name="trademark" unicode="&#x2122;" horiz-adv-x="1540" 
d="M389 686h-63v404h-234v53h531v-53h-234v-404zM1411 686h-63l-142 328l-215 -352l-233 354l-129 -330h-64l174 463l248 -369l236 373z" />
    <glyph glyph-name="onethird" unicode="&#x2153;" horiz-adv-x="1759" 
d="M338 387h-66v680l-163 -168l-37 37l202 207h64v-756zM549 0h-70l387 1143h70zM1325 373h-106v51h100q120 0 181 37t61 119q0 76 -59.5 106.5t-188.5 30.5q-189 0 -281 -41v51q106 41 289 41q69 0 120 -8t94.5 -28t66 -58t22.5 -94q0 -82 -50.5 -126.5t-137.5 -50.5
q42 -2 78.5 -11.5t70.5 -29.5t54 -57.5t20 -87.5q0 -63 -29 -109t-79.5 -72t-110.5 -38t-131 -12q-76 0 -166.5 12t-138.5 27v51q122 -39 299 -39q292 0 292 180q0 156 -270 156z" />
    <glyph glyph-name="twothirds" unicode="&#x2154;" horiz-adv-x="2045" 
d="M766 387h-664v51q87 43 144 72t119.5 63t100 58t77 53t60.5 53.5t39 53t25 57.5t7 63q0 193 -242 193q-71 0 -150.5 -15.5t-134.5 -39.5l-4 51q54 22 135 38.5t156 16.5q147 0 227 -61.5t80 -182.5q0 -44 -15 -85.5t-37.5 -75t-65 -69.5t-80.5 -63t-101.5 -61.5t-112 -58
t-126.5 -60.5h563v-51zM858 0h-70l390 1143h69zM1624 375h-106v49h102q238 0 238 154q0 76 -58.5 107.5t-187.5 31.5q-180 0 -283 -41v53q110 39 293 39q54 0 97 -5t83 -17.5t66.5 -33t42.5 -53.5t16 -77q0 -84 -50.5 -128.5t-139.5 -50.5q223 -13 223 -186
q0 -63 -29.5 -109t-80.5 -72t-110.5 -38t-129.5 -12q-79 0 -169.5 12t-135.5 29v51q128 -41 299 -41q137 0 213.5 44.5t76.5 137.5q0 79 -65 117.5t-205 38.5z" />
    <glyph glyph-name="oneeighth" unicode="&#x215b;" horiz-adv-x="1837" 
d="M338 387h-66v682l-163 -170l-35 35l202 207h62v-754zM1497 401q104 -8 175 -62.5t71 -135.5q0 -71 -54.5 -121t-139.5 -73t-191 -23q-165 0 -275 56t-110 161q0 79 70 131.5t176 66.5q-79 13 -131 57.5t-52 112.5q0 64 46 109.5t117.5 66.5t158.5 21q138 0 230.5 -51
t92.5 -146q0 -67 -52.5 -112t-131.5 -58zM1679 201q0 80 -91.5 128t-229.5 48q-137 0 -228.5 -48t-91.5 -128q0 -53 45 -91.5t116 -56.5t159 -18q137 0 229 43.5t92 122.5zM1616 569q0 75 -74 112.5t-184 37.5q-109 0 -183.5 -37.5t-74.5 -112.5q0 -73 74 -110t184 -37
q72 0 128 14.5t93 48.5t37 84zM547 0h-66l391 1143h66z" />
    <glyph glyph-name="threeeighths" unicode="&#x215c;" horiz-adv-x="2164" 
d="M1835 401q105 -8 176.5 -62.5t71.5 -135.5q0 -71 -55 -121t-140.5 -73t-191.5 -23t-190.5 23t-138.5 73t-54 121q0 79 69.5 131.5t173.5 66.5q-79 13 -130.5 57t-51.5 113q0 95 93 146t229 51q88 0 159.5 -21t117.5 -66.5t46 -109.5q0 -67 -52.5 -112t-131.5 -58z
M2017 201q0 80 -91.5 128t-229.5 48q-137 0 -228.5 -48t-91.5 -128q0 -53 45 -91.5t116 -56.5t159 -18q138 0 229.5 43t91.5 123zM1956 569q0 51 -37.5 85.5t-94.5 49.5t-128 15q-110 0 -184 -37.5t-74 -112.5q0 -50 37 -84t93 -48.5t128 -14.5q112 0 186 37t74 110zM901 0
h-65l391 1143h67zM438 770h-104v49h100q121 0 182.5 36.5t61.5 119.5q0 76 -59.5 107.5t-190.5 31.5q-185 0 -283 -39v49q113 39 291 39q69 0 120.5 -8.5t94.5 -28t65.5 -57t22.5 -90.5q0 -163 -192 -180q229 -13 229 -185q0 -63 -29 -110t-80 -73t-111.5 -38t-131.5 -12
q-75 0 -166 12t-139 27v49q118 -37 299 -37q295 0 295 180q0 82 -66.5 120t-208.5 38z" />
    <glyph glyph-name="fiveeighths" unicode="&#x215d;" horiz-adv-x="2148" 
d="M700 1092h-444l-41 -269q39 20 107 31.5t120 11.5q172 0 258 -65t86 -178q0 -114 -102 -182t-281 -68q-73 0 -159.5 14t-141.5 39l2 51q54 -26 135 -40.5t160 -14.5q148 0 235 55t87 146q0 194 -291 194q-76 0 -153.5 -17t-129.5 -50l56 391h497v-49zM1819 401
q104 -8 175.5 -62.5t71.5 -135.5q0 -71 -54.5 -121t-140 -73t-192.5 -23q-106 0 -190.5 23t-138.5 73t-54 121q0 79 69.5 131.5t174.5 66.5q-78 13 -130 57.5t-52 112.5q0 64 46 109.5t117 66.5t158 21q138 0 231 -51t93 -146q0 -68 -52 -112.5t-132 -57.5zM2001 201
q0 80 -91.5 128t-230.5 48q-137 0 -228 -48t-91 -128q0 -79 91.5 -122.5t227.5 -43.5q138 0 230 43t92 123zM1939 569q0 75 -74 112.5t-186 37.5q-110 0 -183 -37.5t-73 -112.5q0 -50 36.5 -84t92.5 -48.5t127 -14.5q113 0 186.5 36.5t73.5 110.5zM866 0h-65l389 1143h67z
" />
    <glyph glyph-name="seveneighths" unicode="&#x215e;" horiz-adv-x="1972" 
d="M1640 401q103 -8 175.5 -62.5t72.5 -135.5q0 -71 -54.5 -121t-139.5 -73t-191 -23q-107 0 -192.5 23t-140 73t-54.5 121q0 79 71 131.5t177 66.5q-79 13 -131.5 57.5t-52.5 112.5q0 64 46 109.5t117.5 66.5t159.5 21q87 0 158.5 -21t117.5 -66.5t46 -109.5
q0 -68 -52 -112.5t-133 -57.5zM1825 201q0 80 -93 128t-229 48q-137 0 -229 -48t-92 -128t91.5 -123t229.5 -43q137 0 229.5 43.5t92.5 122.5zM1759 569q0 75 -73.5 112.5t-182.5 37.5q-110 0 -184 -37.5t-74 -112.5q0 -50 37 -84t93 -48.5t128 -14.5q71 0 127 14.5
t92.5 48.5t36.5 84zM754 1141l-514 -754h-74l485 705h-569v49h672zM690 0h-65l401 1143h66z" />
    <glyph glyph-name="minus" unicode="&#x2212;" horiz-adv-x="761" 
d="M602 420h-442v55h442v-55z" />
    <glyph glyph-name="approxequal" unicode="&#x2248;" horiz-adv-x="1185" 
d="M967 690l45 -14q-24 -86 -88 -132t-142 -46q-58 0 -114.5 25t-94 54.5t-87.5 54.5t-97 25q-56 0 -107 -34t-77 -105l-45 14q23 86 85 132.5t144 46.5q47 0 92 -16.5t80.5 -40t69.5 -47t73.5 -40t79.5 -16.5q61 0 112 35t71 104zM983 387l45 -14q-24 -87 -87.5 -132.5
t-141.5 -45.5q-58 0 -114.5 25t-94 54.5t-87.5 54.5t-97 25q-56 0 -107.5 -34t-77.5 -105l-45 14q23 85 85.5 132t144.5 47q47 0 92 -16.5t80.5 -40t69.5 -47t73.5 -40t79.5 -16.5q60 0 111 35t71 104z" />
    <glyph glyph-name="notequal" unicode="&#x2260;" horiz-adv-x="1130" 
d="M383 0h-47l110 326h-321v49h338l131 387h-469v49h485l115 332h47l-113 -332h345v-49h-361l-133 -387h494v-49h-510z" />
    <glyph glyph-name="lessequal" unicode="&#x2264;" horiz-adv-x="1138" 
d="M123 -20v55h903v-55h-903zM979 188l-836 400v41l836 397v-61l-760 -357l760 -356v-64z" />
    <glyph glyph-name="greaterequal" unicode="&#x2265;" horiz-adv-x="1138" 
d="M995 588l-835 -400v64l760 356l-760 357v61l835 -397v-41zM1016 35v-55h-903v55h903z" />
    <glyph glyph-name="ll" unicode="&#xf6c0;" horiz-adv-x="1486" 
d="M1202 0h-1003v1028h65v-985h938v-43zM901 1028v-618h572v-43h-637v661h65z" />
    <glyph glyph-name="commaaccent" unicode="&#xf6c3;" horiz-adv-x="202" 
d="M14 -446h-39l80 294h78z" />
    <glyph glyph-name="zerooldstyle" unicode="&#xf730;" horiz-adv-x="1372" 
d="M113 514q0 127 49 229.5t130.5 166.5t182.5 98t211 34t211.5 -34t183 -98t130.5 -166.5t49 -229.5t-49 -230t-130.5 -168t-183 -99.5t-211.5 -34.5t-211 34.5t-182.5 99.5t-130.5 168t-49 230zM178 516q0 -116 43.5 -211.5t115.5 -154.5t162 -91t187 -32t187 32t162 91
t115.5 154.5t43.5 211.5t-43.5 210.5t-116 152.5t-162 89t-186.5 31t-186.5 -31t-162 -89t-116 -152.5t-43.5 -210.5z" />
    <glyph glyph-name="oneoldstyle" unicode="&#xf731;" horiz-adv-x="583" 
d="M424 0h-68v958l-274 -270l-33 35l307 305h68v-1028z" />
    <glyph glyph-name="twooldstyle" unicode="&#xf732;" horiz-adv-x="1116" 
d="M1010 0h-926v47q55 32 146.5 82.5t149.5 83t137 80t129.5 84t106 84.5t87 91t52.5 94.5t21 103.5q0 118 -96.5 183.5t-273.5 65.5q-111 0 -215.5 -24.5t-175.5 -59.5v50q169 79 391 79q199 0 317.5 -78.5t118.5 -217.5q0 -59 -23 -116t-59.5 -104.5t-93 -97t-112 -88
t-129.5 -82.5t-132 -75t-132.5 -71.5t-119.5 -66.5h832v-47z" />
    <glyph glyph-name="threeoldstyle" unicode="&#xf733;" horiz-adv-x="1216" 
d="M586 465h-142v49h142q198 0 297.5 59.5t99.5 194.5q0 127 -93 177t-308 50q-271 0 -428 -61v49q169 61 434 61q108 0 188.5 -13t144 -43.5t96 -85.5t32.5 -134q0 -127 -81 -196t-233 -78q369 -14 369 -283q0 -75 -28 -134.5t-76.5 -99.5t-116.5 -66.5t-144.5 -38
t-163.5 -11.5q-112 0 -248.5 16.5t-209.5 38.5v49q88 -26 220 -39.5t238 -13.5q218 0 340.5 70.5t122.5 222.5q0 137 -108.5 198.5t-343.5 61.5z" />
    <glyph glyph-name="fouroldstyle" unicode="&#xf734;" horiz-adv-x="1183" 
d="M899 -209h-65v244h-807v53l807 940h65v-940h229v-53h-229v-244zM834 88v858l-736 -858h736z" />
    <glyph glyph-name="fiveoldstyle" unicode="&#xf735;" horiz-adv-x="1208" 
d="M999 981h-690l-63 -451q67 37 172 57.5t209 20.5q239 0 369 -105t130 -274q0 -176 -140.5 -285.5t-395.5 -109.5q-121 0 -259.5 29t-230.5 80l2 55q77 -51 215 -83t273 -32q227 0 349 94t122 254q0 152 -114 240t-335 88q-131 0 -249 -31t-189 -86l82 586h743v-47z" />
    <glyph glyph-name="sixoldstyle" unicode="&#xf736;" horiz-adv-x="1275" 
d="M782 1126l-491 -493q64 39 159 63.5t203 24.5q105 0 200.5 -21t178.5 -63.5t132.5 -118t49.5 -174.5q0 -117 -83.5 -201.5t-208.5 -123.5t-271 -39q-109 0 -208.5 23t-180.5 66.5t-129.5 114.5t-48.5 160q0 153 160 313l499 506zM1149 344q0 72 -32 130t-83 95t-118.5 62
t-133 35t-131.5 10q-84 0 -169.5 -20.5t-161 -59t-123 -104.5t-47.5 -148q0 -101 74.5 -175.5t186 -109t240.5 -34.5t240 34.5t184.5 109t73.5 175.5z" />
    <glyph glyph-name="sevenoldstyle" unicode="&#xf737;" horiz-adv-x="1073" 
d="M1069 1028l-782 -1143h-78l756 1094h-899v49h1003z" />
    <glyph glyph-name="eightoldstyle" unicode="&#xf738;" horiz-adv-x="1370" 
d="M872 610q166 -11 281 -98.5t115 -212.5q0 -102 -82 -175.5t-212 -108.5t-290 -35q-159 0 -289 35t-211.5 108.5t-81.5 175.5q0 123 112.5 205.5t281.5 105.5q-131 20 -214 87t-83 175q0 95 69 162.5t176.5 98t239.5 30.5t239.5 -30.5t176.5 -98t69 -162.5
q0 -106 -83 -174t-214 -88zM1202 299q0 87 -70.5 153.5t-187 100t-260.5 33.5t-260 -33.5t-186 -99.5t-70 -154t73 -151.5t187.5 -93t255.5 -29.5t256 29.5t188.5 93t73.5 151.5zM1104 870q0 83 -60.5 140.5t-152.5 82.5t-207 25t-207 -25t-152.5 -82.5t-60.5 -140.5
q0 -62 34 -109.5t93 -75t132.5 -41t160.5 -13.5t160.5 13.5t132.5 41t93 75t34 109.5z" />
    <glyph glyph-name="nineoldstyle" unicode="&#xf739;" horiz-adv-x="1284" 
d="M496 -102l491 493q-64 -39 -159 -63.5t-203 -24.5q-105 0 -201 21t-179 63.5t-132.5 118t-49.5 174.5q0 88 48 159t129 115t180 67t207 23q109 0 208.5 -23t180.5 -66.5t129.5 -114.5t48.5 -160q0 -153 -160 -313l-499 -506zM129 680q0 -72 32 -130t83 -95t118.5 -62
t133 -35t131.5 -10q84 0 169.5 20.5t161 59t123 104.5t47.5 148q0 101 -74.5 175.5t-186 109t-240.5 34.5t-240 -34.5t-184.5 -109t-73.5 -175.5z" />
    <glyph glyph-name="fi" unicode="&#xfb01;" horiz-adv-x="1742" 
d="M1049 516h-785v-516h-65v1028h1003v-49h-938v-414h785v-49zM1544 0h-65v1028h65v-1028z" />
    <glyph glyph-name="fl" unicode="&#xfb02;" horiz-adv-x="2459" 
d="M1049 516h-785v-516h-65v1028h1003v-49h-938v-414h785v-49zM2421 0h-942v1028h65v-977h877v-51z" />
    <glyph glyph-name="s_t" unicode="&#xfb06;" horiz-adv-x="2377" 
d="M1083 975l-8 -47q-147 69 -473 69q-41 0 -75 -1t-80 -6t-82 -13t-73.5 -23.5t-62.5 -36t-41 -52t-16 -70.5q0 -56 32.5 -95t87.5 -59.5t126.5 -33.5t150.5 -21.5t158 -18t150.5 -28.5t126.5 -48.5t87.5 -82.5t32.5 -125t-32.5 -126.5t-83 -87.5t-122 -53.5t-140 -28
t-146.5 -7.5q-117 0 -261 16.5t-253 48.5l2 49q110 -34 252.5 -50.5t259.5 -16.5q69 0 130 6t125.5 23t110.5 43.5t75.5 72t29.5 104.5q0 80 -52.5 130t-137 72t-186.5 34.5t-204 25.5t-186.5 36.5t-137 77t-52.5 136.5q0 256 493 256q303 0 475 -69zM1802 0h-65v975h-551
v53h1167v-53h-551v-975z" />
    <glyph glyph-name="undercommaaccent" horiz-adv-x="202" 
d="M16 -631h-59l80 295h98z" />
    <glyph glyph-name="AE.short" horiz-adv-x="1767" 
d="M1681 0h-886v416h-453l-276 -424h-72l743 1151h944v-45h-817v-475h649v-45h-651v-533h819v-45zM795 463v657l-424 -657h424z" />
    <glyph glyph-name="A.alt" horiz-adv-x="1484" 
d="M1405 0l-242 373h-846l-239 -373h-78l700 1094l-36 49h84l737 -1143h-80zM741 1032l-385 -598h770z" />
    <glyph glyph-name="OO" horiz-adv-x="2887" 
d="M2789 571q0 -113 -41.5 -209t-115.5 -165.5t-175.5 -119t-222 -73.5t-254.5 -24q-324 0 -538 129q-214 -129 -537 -129q-134 0 -255 24t-222 73.5t-174.5 119t-114.5 165.5t-41 209q0 112 41 207.5t114.5 165.5t174.5 120t222 74.5t255 24.5q321 0 539 -131
q215 131 536 131q134 0 254.5 -24.5t222 -73.5t175.5 -119t115.5 -166t41.5 -209zM905 39q291 0 484 106q-215 162 -215 426q0 262 215 424q-195 109 -484 109q-155 0 -287.5 -33.5t-233.5 -97.5t-158.5 -167.5t-57.5 -234.5t57.5 -234t158.5 -167.5t233.5 -97.5t287.5 -33z
M2720 571q0 131 -58 234.5t-159.5 167.5t-234.5 97.5t-288 33.5q-288 0 -483 -109q217 -158 217 -424q0 -265 -217 -426q190 -106 483 -106q156 0 288.5 33t234 97.5t159.5 167.5t58 234zM1645 571q0 247 -203 390q-199 -142 -199 -390q0 -249 199 -391q203 143 203 391z
" />
    <glyph glyph-name="ampersand.alt" horiz-adv-x="1302" 
d="M616 631h666v-45h-238v-531q-71 -30 -200.5 -52.5t-231.5 -22.5q-151 0 -263.5 33.5t-181.5 110.5t-69 191q0 68 32.5 123t86.5 90t117.5 55t132.5 25q-142 17 -227.5 97t-85.5 180q0 125 123 201.5t335 76.5q228 0 396 -82v-51q-167 88 -396 88q-201 0 -297 -66.5
t-96 -166.5q0 -103 107.5 -178.5t289.5 -75.5zM612 25q205 0 367 55v506h-363q-223 0 -337.5 -79t-114.5 -192q0 -290 448 -290z" />
    <glyph glyph-name="K.alt" horiz-adv-x="1306" 
d="M1327 0h-86l-577 705l-381 -326v-379h-70v1143h70v-678l800 678h93l-459 -393z" />
    <glyph glyph-name="k.alt" horiz-adv-x="1265" 
d="M1294 0h-84l-546 670l-398 -344v-326h-67v1028h67v-622l729 622h88l-376 -319z" />
    <glyph glyph-name="orn.001" horiz-adv-x="3147" 
d="M2943 184l-459 215l-284 467l176 -415l-193 90l-168 377l88 -338l-106 47q-81 -23 -153.5 -70t-118.5 -97t-81 -101.5t-50 -82t-17 -40.5q-3 11 -18 41t-51.5 82.5t-83 102t-119.5 97t-154 70.5l-107 -47l89 338l-168 -377l-193 -90l176 415l-284 -467l-459 -215l696 824
l283 84l125 -183h118l54 82l-92 60q45 -7 71.5 -3t63 -3t78.5 -33l-115 203q45 10 74 10q46 0 81.5 -18.5t58.5 -47.5t39 -72t24.5 -84.5t13.5 -93.5h63l123 181l283 -84zM1577 565q4 8 11 21.5t37 48.5t67 63t102.5 54t142.5 32q-79 -4 -145.5 -18t-104.5 -31t-64.5 -33
t-36.5 -27l-9 -11q-3 4 -10 11t-35.5 26t-65.5 34t-103.5 30t-145.5 19q77 -6 142 -31t103.5 -56t66 -61t37.5 -50zM1462 1212l103 -165q-22 30 -61.5 49.5t-78.5 19.5q-58 0 -88 -41q30 129 125 137zM1608 1120l34 39l-98 17z" />
    <glyph glyph-name="orn.002" horiz-adv-x="4104" 
d="M3391 807l-151 -66l-213 127q-53 -7 -105 -17t-139 -37t-163.5 -63.5t-166 -100t-160 -142t-133 -195t-96.5 -254.5q-31 142 -93.5 262t-136.5 200t-165.5 143.5t-171.5 99t-165 60t-136 33t-94 11.5l-238 -127l-153 66l784 276l217 -215h176q45 93 45 136q0 29 -20 40
q16 9 39 9q39 0 80 -17q27 -11 53 -37l-135 172q39 13 90 13q35 0 64.5 -6.5t61 -27t52.5 -54t35 -92t14 -136.5h125l217 228zM3899 1096l-178 -176l-1112 176h1290zM1495 1083l-1114 -176l-176 176h1290zM3641 911l-166 -114l-866 299zM1495 1083l-860 -292l-164 116z
M2839 868q-122 0 -230.5 -12.5t-184.5 -32.5t-140 -44.5t-103.5 -48.5t-67 -44t-38.5 -32l-11 -13q-3 4 -10 12t-35.5 30.5t-64 43.5t-99 46.5t-138.5 44.5t-185 33.5t-234 16.5q120 -2 226.5 -18t182 -40t138.5 -52t102.5 -55.5t67 -50t38.5 -36.5l11 -14q8 10 24.5 27
t81 61t145 78.5t221 65t303.5 34.5zM1942 1169l122 -149q-39 39 -110 39q-97 0 -117 -64q3 43 14.5 76.5t25 51t28.5 29t24 14.5t13 3zM2077 1083l24 37l-100 13z" />
    <glyph glyph-name="orn.003" horiz-adv-x="2648" 
d="M2443 -33l-307 262l-154 639l99 -596l-180 156l-70 518l27 -481l-109 90q-82 -23 -155 -80t-119.5 -119.5t-82 -128.5t-50.5 -105.5t-17 -51.5q-4 15 -18.5 52t-51 104.5t-83 129.5t-119.5 119t-154 80l-108 -90l28 481l-71 -518l-181 -156l101 596l-154 -639l-309 -262
l403 1118l248 56l182 -230h138l53 82l-92 60q18 -3 35.5 -3t35.5 1.5t27 1.5q49 0 106 -35l-110 196q81 4 137.5 -16.5t88 -65t47 -96t22.5 -125.5h84l184 230l246 -56zM1686 735q-79 -4 -145.5 -18t-104.5 -30.5t-65 -32t-37 -26.5l-9 -10q-3 4 -10 11t-35.5 25t-65.5 33
t-104 29.5t-147 18.5q77 -6 142.5 -27t104 -47t66.5 -51t38 -42l11 -17q4 7 11.5 18t37 40.5t67 53t103 45t142.5 27.5zM1214 1212l99 -165q-22 30 -61 49.5t-78 19.5q-59 0 -89 -41q31 134 129 137zM1348 1108l34 39l-98 16z" />
    <glyph glyph-name="orn.004" horiz-adv-x="2953" 
d="M2748 -49l-393 295l-239 651l190 -614l-190 145l-138 518l97 -489l-189 145q-114 -90 -176.5 -159.5t-112 -163t-108.5 -256.5q-74 235 -162.5 363.5t-259.5 213.5l-188 -145l96 489l-137 -518l-191 -145l191 614l-240 -651l-393 -295l567 1239l279 -39l143 -240h100
q0 13 22.5 62t22.5 76q0 34 -20 43q24 16 58 10t63.5 -21t54.5 -35l-139 179q41 12 94 12q231 0 233 -324h76l144 240l278 39zM1481 551q4 7 12 18.5t39.5 41.5t71 54t109.5 46t151 26q-84 -3 -154.5 -16.5t-111 -30.5t-68.5 -33.5t-38 -27.5l-11 -11q-3 4 -10.5 11.5
t-38 26.5t-69.5 34.5t-110 29.5t-155 17q81 -4 150.5 -25t110.5 -47.5t70.5 -52.5t40.5 -44zM1348 1221l127 -156q-43 43 -115 43q-92 0 -121 -70q4 44 16 79t26 54t29.5 31t24.5 15.5t13 3.5zM1489 1130l24 39l-104 13z" />
    <glyph glyph-name="orn.005" horiz-adv-x="2953" 
d="M2748 -49l-393 295l-239 651l190 -614l-190 145l-138 518l97 -489l-189 145q-114 -90 -176.5 -159.5t-112 -163t-108.5 -256.5q-74 235 -162.5 363.5t-259.5 213.5l-188 -145l96 489l-137 -518l-191 -145l191 614l-240 -651l-393 -295l567 1239l279 -39l143 -240h106
l78 121l-92 60q46 -6 70.5 -1.5t58.5 -2t76 -31.5l-111 196q71 4 122.5 -12t82.5 -44t51.5 -76t29.5 -94.5t15 -113.5h78l144 240l278 39zM1481 551q4 7 12 18.5t39.5 41.5t71 54t109.5 46t151 26q-84 -3 -154.5 -16.5t-111 -30.5t-68.5 -33.5t-38 -27.5l-11 -11
q-3 4 -10.5 11.5t-38 26.5t-69.5 34.5t-110 29.5t-155 17q81 -4 150.5 -25t110.5 -47.5t70.5 -52.5t40.5 -44zM1366 1249l96 -166q-22 30 -61 50t-78 20q-58 0 -88 -41q35 135 131 137zM1497 1145l35 39l-98 16z" />
    <glyph glyph-name="orn.006" horiz-adv-x="2648" 
d="M2443 -33l-309 262l-154 639l101 -596l-180 156l-72 518l29 -481l-111 94q-107 -20 -233.5 -139t-190.5 -254q-64 135 -190.5 254t-231.5 139l-110 -94l26 481l-69 -518l-181 -156l99 596l-154 -639l-307 -262l403 1118l246 56l184 -230h572l182 230l248 -56zM1686 735
q-80 -4 -146.5 -18t-105 -30.5t-65.5 -32t-37 -26.5l-9 -10q-3 4 -10 11t-35.5 25t-65.5 33t-103.5 29.5t-145.5 18.5q77 -6 142 -27t103.5 -47t66 -51t37.5 -42l11 -17q4 7 11.5 18t37.5 40.5t67.5 53t103.5 45t143 27.5z" />
    <glyph glyph-name="orn.007" horiz-adv-x="2027" 
d="M1913 -29l-201 74l-463 746l-26 12l391 -627l-217 74l-445 723l-26 18l374 -608l-221 70l-145 237l-29 15l150 -230l35 -164l346 -166l-310 -59l-245 156l-103 -146l113 -26l24 -115l-49 82l-112 26l-62 -65l-47 -129l14 145l64 70l-41 14l-59 -16l-64 -90l41 119l92 32
l51 -24l19 200q-1 0 -4 1.5t-4 1.5l-262 -97l86 -67l-21 -119l-12 96l-92 72l-80 -37l-97 -98l74 125l86 39l-33 32l-61 6l-96 -53l84 90l96 -6l39 -45l135 160l-238 155l-49 273l72 207h-119q31 12 63.5 34.5t57.5 22.5q14 0 59 -10l-147 147q60 25 117 25t81 -10
q81 -34 146 -234l2 -6l37 266l518 -162zM283 1243l127 -117q-39 27 -95 27q-39 0 -69.5 -18t-40.5 -54q0 73 15.5 114t62.5 48zM422 1182l29 39h-97z" />
    <glyph glyph-name="orn.008" horiz-adv-x="2201" 
d="M2415 41l-310 262l-153 565l100 -522l-180 156l-72 444l29 -407l-109 90q-82 -23 -155 -70.5t-119.5 -97.5t-82 -101.5t-50.5 -82.5t-17 -41q-3 11 -18 41t-51.5 82.5t-83 102t-119.5 97t-154 70.5l-108 -90l29 407l-72 -444l-180 -156l100 522l-154 -565l-309 -262
l404 1044l247 56l183 -230h137l53 82l-92 60q18 -3 35.5 -3t35.5 1.5t27 1.5q50 0 107 -35l-111 196q81 4 137.5 -16.5t88 -65t47 -96t22.5 -125.5h84l182 230l248 -56zM1638 795h-2q-74 -5 -136.5 -18.5t-98.5 -29.5t-61.5 -31.5t-34.5 -25.5l-9 -10q-3 4 -10 11t-35.5 25
t-65.5 33t-104 29.5t-147 18.5q77 -6 142.5 -28t104 -48t66.5 -51.5t39 -42.5l10 -17q3 6 10 17t35.5 39.5t63.5 51.5t97.5 46t135.5 31zM1186 1212l98 -165q-22 30 -61 49.5t-78 19.5q-58 0 -88 -41q31 134 129 137zM1319 1108l35 39l-99 16z" />
    <glyph glyph-name="orn.009" horiz-adv-x="2932" 
d="M2781 928l-217 -154h-1028l-29 -16h906l-215 -154h-916l-31 -16h797l-217 -154h-414l-174 -49l162 -92l287 12l-338 -258l-518 170l-379 -65l65 -82l-65 -111l22 102l-67 84l-95 25l-131 -68l117 105l100 -25l-20 43l-59 29l-117 -21l117 60l96 -39l22 -57l215 186
l-104 252l127 153l-133 15q23 5 62.5 29t68.5 24q28 0 80 -25l-150 189q54 14 103 14q93 0 151 -47q39 -32 67.5 -100t57.5 -215l295 256h1499zM592 1016l131 -156q-21 21 -59.5 35t-71.5 14q-37 0 -70 -18t-41 -51q10 171 111 176zM745 928l35 37l-110 14z" />
    <glyph glyph-name="A.med" horiz-adv-x="1521" 
d="M1444 0l-174 264h-1022l-172 -264h-78l762 1163l764 -1163h-80zM760 1042l-473 -720h946z" />
    <glyph glyph-name="B.med" horiz-adv-x="1591" 
d="M1067 45q96 0 149.5 47.5t53.5 112.5t-53.5 112.5t-147.5 47.5h-786v-320h784zM1081 410q83 0 149.5 29.5t107.5 79t63 110t22 125.5q0 147 -102 245.5t-252 98.5h-786v-688h798zM213 1143h856q82 0 152 -22t119.5 -59t84.5 -87t51.5 -106.5t16.5 -116.5q0 -129 -75 -231
t-208 -138q125 -61 125 -180q0 -87 -72.5 -145t-201.5 -58h-848v1143z" />
    <glyph glyph-name="E.med" horiz-adv-x="1445" 
d="M1350 0h-1137v1143h1137v-45h-1067v-688h899v-45h-899v-320h1067v-45z" />
    <glyph glyph-name="F.med" horiz-adv-x="1433" 
d="M1182 365h-899v-365h-70v1143h1137v-45h-1065v-688h897v-45z" />
    <glyph glyph-name="G.med" horiz-adv-x="1746" 
d="M1597 371h-653v55h715q0 -57 -2 -80q-7 -82 -55 -146.5t-120 -105t-167 -67t-189.5 -37t-195.5 -10.5q-184 0 -334.5 37.5t-261 111t-171.5 190t-61 267.5q0 126 43.5 226t116.5 165t175.5 107.5t214.5 60.5t239 18q186 0 369.5 -40t330.5 -126v-57q-120 81 -312 123.5
t-388 42.5q-114 0 -213.5 -14.5t-194.5 -52t-162 -95t-108 -149t-41 -209.5q0 -112 36.5 -202.5t102.5 -154t160 -106.5t208.5 -63.5t248.5 -20.5q97 0 188.5 10t180 35t154 62t106 95t40.5 130z" />
    <glyph glyph-name="H.med" horiz-adv-x="1798" 
d="M1585 0h-69v367h-1233v-367h-70v1143h70v-721h1233v721h69v-1143z" />
    <glyph glyph-name="P.med" horiz-adv-x="1413" 
d="M883 348h-600v-348h-70v1143h670q112 0 203 -34.5t147 -91.5t85.5 -127t29.5 -145t-29.5 -144.5t-85.5 -126.5t-147 -91.5t-203 -34.5zM883 1090h-600v-689h600q96 0 173.5 29.5t124.5 78.5t72 109.5t25 126.5t-25 127t-72.5 110t-125 78.5t-172.5 29.5z" />
    <glyph glyph-name="R.med" horiz-adv-x="1474" 
d="M1378 0h-71l-246 381q-66 -16 -137 -16h-641v-365h-70v1143h711q102 0 185 -33t134 -88.5t78 -124t27 -143.5q0 -112 -60.5 -208.5t-171.5 -144.5zM924 1094h-641v-680h641q86 0 155 28.5t111.5 77t65 108.5t22.5 126q0 139 -93.5 239.5t-260.5 100.5z" />
    <glyph glyph-name="N.med" horiz-adv-x="1775" 
d="M1563 0h-70v342l-1210 702v-1044h-70v1163l1280 -745v725h70v-1143z" />
    <glyph glyph-name="A.dec" horiz-adv-x="1458" 
d="M-14 266v56h227l522 841l721 -1163h-76l-163 266h-963l-164 -266h-76l164 266h-192zM735 1049l-448 -727h895z" />
    <glyph glyph-name="B.dec" horiz-adv-x="1617" 
d="M57 365v45h185v733h856q102 0 185 -33t134 -88.5t78 -124t27 -143.5q0 -126 -74 -229.5t-209 -141.5q61 -27 93 -75t32 -103q0 -83 -70 -144t-196 -61h-856v365h-185zM311 410h799q83 0 149.5 29.5t107.5 79t63 110t22 125.5q0 89 -38 165.5t-120.5 127.5t-195.5 51h-787
v-688zM311 45h785q96 0 149 47.5t53 112.5t-53 112.5t-147 47.5h-787v-320z" />
    <glyph glyph-name="E.dec" horiz-adv-x="1474" 
d="M57 365v45h185v733h1136v-45h-1067v-688h899v-45h-899v-320h1067v-45h-1136v365h-185z" />
    <glyph glyph-name="F.dec" horiz-adv-x="1462" 
d="M57 365v45h185v733h1136v-45h-1067v-688h899v-45h-899v-365h-69v365h-185z" />
    <glyph glyph-name="H.dec" horiz-adv-x="1824" 
d="M55 367v43h185v733h69v-733h1233v733h70v-1143h-70v367h-1233v-367h-69v367h-185z" />
    <glyph glyph-name="P.dec" horiz-adv-x="1441" 
d="M57 365v45h185v733h710q102 0 185 -33t134 -88.5t78 -124t27 -143.5t-27 -143.5t-78 -124t-134 -88.5t-185 -33h-641v-365h-69v365h-185zM952 1098h-641v-688h641q114 0 196.5 51t120.5 127.5t38 165.5q0 66 -23 126.5t-65.5 109.5t-112 78.5t-154.5 29.5z" />
    <glyph glyph-name="R.dec" horiz-adv-x="1503" 
d="M57 365v45h185v733h710q102 0 185 -33t134 -88.5t78 -124t27 -143.5q0 -112 -60 -208.5t-171 -144.5l262 -401h-72l-245 381q-66 -16 -138 -16h-641v-365h-69v365h-185zM952 1098h-641v-688h641q114 0 196.5 51t120.5 127.5t38 165.5q0 66 -23 126.5t-65.5 109.5
t-112 78.5t-154.5 29.5z" />
    <glyph glyph-name="a.med" horiz-adv-x="1380" 
d="M1307 0l-131 199h-971l-131 -199h-72l688 1044l688 -1044h-71zM690 934l-450 -682h901z" />
    <glyph glyph-name="b.med" horiz-adv-x="1437" 
d="M973 45q215 0 215 160t-215 160h-697v-320h697zM963 410q146 0 228.5 82t82.5 198q0 118 -82.5 205.5t-228.5 87.5h-687v-573h687zM967 1028q87 0 159 -29t117.5 -77t70.5 -108t25 -124q0 -101 -59.5 -185t-165.5 -118q139 -52 139 -182q0 -205 -288 -205h-754v1028h756z
" />
    <glyph glyph-name="e.med" horiz-adv-x="1329" 
d="M1235 0h-1024v1028h1024v-45h-959v-573h805v-45h-805v-320h959v-45z" />
    <glyph glyph-name="f.med" horiz-adv-x="1314" 
d="M1081 362h-805v-362h-65v1028h1024v-45h-956v-573h802v-48z" />
    <glyph glyph-name="g.med" horiz-adv-x="1574" 
d="M1442 319h-385v43h450v-40q0 -145 -190 -243.5t-502 -98.5q-205 0 -365 59t-257 183t-97 298q0 89 26 163.5t69 127.5t103.5 94.5t125.5 67t138.5 42t139 23t131.5 6.5q330 0 568 -149v-51q-114 70 -266.5 111.5t-311.5 41.5q-87 0 -171.5 -12.5t-173.5 -46t-155.5 -85.5
t-109.5 -138t-43 -195q0 -120 50.5 -215.5t138.5 -155.5t203.5 -91t250.5 -31q120 0 229.5 17t201.5 51t147 91.5t55 132.5z" />
    <glyph glyph-name="h.med" horiz-adv-x="1656" 
d="M1446 0h-66v367h-1104v-367h-65v1028h65v-618h1104v618h66v-1028z" />
    <glyph glyph-name="p.med" horiz-adv-x="1286" 
d="M854 367h-578v-367h-65v1028h643q90 0 162.5 -28.5t117.5 -75.5t69 -105.5t24 -122.5q0 -63 -24 -121.5t-69 -105t-117.5 -74.5t-162.5 -28zM836 983h-560v-573h560q154 0 239.5 85t85.5 201t-85.5 201.5t-239.5 85.5z" />
    <glyph glyph-name="r.med" horiz-adv-x="1351" 
d="M948 375q-39 -8 -94 -8h-578v-367h-65v1028h643q90 0 162.5 -28.5t117.5 -75.5t69 -105.5t24 -122.5q0 -99 -55.5 -182t-159.5 -121l258 -393h-76zM836 979h-560v-565h560q154 0 239.5 83t85.5 199t-85.5 199.5t-239.5 83.5z" />
    <glyph glyph-name="n.med" horiz-adv-x="1644" 
d="M1434 1028v-1028h-66v365l-1092 573v-938h-65v1049l1157 -611v590h66z" />
    <glyph glyph-name="a.dec" horiz-adv-x="1390" 
d="M0 203v49h172l526 792l688 -1044h-71l-135 203h-965l-133 -203h-72l133 203h-143zM698 932l-454 -680h907z" />
    <glyph glyph-name="b.dec" horiz-adv-x="1480" 
d="M53 365v45h185v618h755q91 0 167 -29t124.5 -77t75 -108t26.5 -124q0 -101 -65 -185t-180 -118q139 -52 139 -182q0 -57 -26 -99t-69.5 -64t-89.5 -32t-96 -10h-761v365h-185zM303 410h686q156 0 244 82t88 198q0 118 -88.5 205.5t-243.5 87.5h-686v-573zM303 45h696
q215 0 215 160t-215 160h-696v-320z" />
    <glyph glyph-name="e.dec" horiz-adv-x="1355" 
d="M53 365v45h185v618h1024v-45h-959v-573h805v-45h-805v-322h959v-43h-1024v365h-185z" />
    <glyph glyph-name="f.dec" horiz-adv-x="1341" 
d="M53 362v52h185v614h1024v-45h-957v-569h803v-52h-803v-362h-67v362h-185z" />
    <glyph glyph-name="h.dec" horiz-adv-x="1671" 
d="M53 365v45h185v618h65v-618h1104v618h66v-1028h-66v365h-1104v-365h-65v365h-185z" />
    <glyph glyph-name="p.dec" horiz-adv-x="1312" 
d="M53 367v43h185v618h643q90 0 162.5 -28.5t117 -75.5t68.5 -105.5t24 -122.5t-24 -122t-68.5 -104.5t-117 -74.5t-162.5 -28h-578v-367h-65v367h-185zM862 983h-559v-573h559q154 0 240 85t86 201t-86 201.5t-240 85.5z" />
    <glyph glyph-name="r.dec" horiz-adv-x="1378" 
d="M53 367v43h185v618h643q90 0 162.5 -28.5t117 -75.5t68.5 -105.5t24 -122.5q0 -100 -58.5 -182.5t-156.5 -120.5l258 -393h-75l-246 375q-39 -8 -94 -8h-578v-367h-65v367h-185zM862 983h-559v-573h559q154 0 240 84.5t86 201.5q0 116 -86 201.5t-240 85.5z" />
    <glyph glyph-name="A.reg" horiz-adv-x="1525" 
d="M735 1143h53l738 -1143h-80l-270 408h-828l-270 -408h-78zM1147 465l-385 598l-385 -598h770z" />
    <glyph glyph-name="M.reg" horiz-adv-x="2217" 
d="M518 1143l592 -1047l592 1047h41l428 -1141h-74l-383 1022l-579 -1022h-50l-579 1022l-385 -1022h-74l430 1141h41z" />
    <glyph glyph-name="N.reg" horiz-adv-x="1775" 
d="M1563 1143v-1143h-50l-1230 1038v-1038h-70v1143h47l1233 -1045v1045h70z" />
    <glyph glyph-name="V.reg" horiz-adv-x="1523" 
d="M1524 1143l-736 -1143h-53l-735 1143h76l686 -1061l686 1061h76z" />
    <glyph glyph-name="W.reg" horiz-adv-x="2084" 
d="M2060 1143l-506 -1143h-36l-476 1036l-475 -1036h-37l-505 1143h71l455 -1034l473 1034h37l473 -1034l455 1034h71z" />
    <glyph glyph-name="a.reg" horiz-adv-x="1384" 
d="M1380 0h-71l-244 365h-746l-243 -365h-72l662 1028h51zM1034 420l-342 534l-342 -534h684z" />
    <glyph glyph-name="m.reg" horiz-adv-x="2043" 
d="M1989 0h-62l-323 924l-557 -924h-50l-557 924l-323 -924h-62l357 1028h39l571 -942l571 942h39z" />
    <glyph glyph-name="n.reg" horiz-adv-x="1619" 
d="M1421 1028v-1028h-49l-1108 928v-928h-65v1028h49l1108 -932v932h65z" />
    <glyph glyph-name="v.reg" horiz-adv-x="1392" 
d="M1391 1028l-668 -1028h-53l-668 1028h78l616 -958l617 958h78z" />
    <glyph glyph-name="w.reg" horiz-adv-x="1953" 
d="M1929 1028l-491 -1028h-39l-422 913l-424 -913h-39l-489 1028h71l439 -924l423 924h35l426 -924l439 924h71z" />
    <glyph glyph-name="am" horiz-adv-x="3272" 
d="M3219 0h-61l-324 903l-581 -923l-582 923l-338 -923l-272 380h-742l-245 -360h-72l688 1044l629 -931l338 936l596 -943l596 943zM1032 420l-342 512l-342 -512h684z" />
    <glyph glyph-name="as" horiz-adv-x="2433" 
d="M1794 -20q-187 0 -308 36t-213.5 115t-203.5 234h-747l-248 -365h-72l688 1044l285 -419q77 -114 115.5 -168.5t98.5 -133t99.5 -112.5t98 -78t115 -60.5t129.5 -29t161 -12.5q508 0 508 227q0 71 -54 120.5t-140.5 76t-191 46.5t-209.5 40.5t-191.5 48.5t-140.5 80
t-54 127q0 66 42.5 115.5t115.5 77.5t157 41t178 13q131 0 254 -23.5t193 -62.5l-4 -47q-88 42 -210 63t-233 21q-48 0 -96 -3.5t-110.5 -15.5t-109 -31.5t-79.5 -56.5t-33 -85q0 -49 33.5 -85.5t90.5 -59.5t130.5 -40t155 -31.5t162.5 -30.5t154.5 -40t130.5 -56.5
t90.5 -83.5t33.5 -118q0 -278 -571 -278zM936 561l-246 371l-342 -512h682q-68 101 -94 141z" />
    <glyph glyph-name="av" horiz-adv-x="2027" 
d="M1331 -41l-215 326h-854l-188 -285h-72l688 1047l641 -975l617 956h77zM690 934l-393 -596h784z" />
    <glyph glyph-name="ca" horiz-adv-x="2633" 
d="M1561 461l383 583l688 -1044h-72l-227 344h-789q-140 -168 -336 -266t-426 -98q-138 0 -262.5 36t-219 102.5t-150.5 168.5t-56 225q0 162 93 283.5t255 185t369 63.5q310 0 547 -126v-54q-117 66 -260.5 99.5t-284.5 33.5q-187 0 -333.5 -57t-231 -168t-84.5 -260
q0 -116 52.5 -210t140.5 -153t198.5 -90.5t232.5 -31.5q233 0 435 113t338 321zM1618 442l-31 -45h711l-354 541z" />
    <glyph glyph-name="ee" horiz-adv-x="2666" 
d="M55 358v52h185v618h1024v-49h-959v-569h1245v618h1024v-49h-958v-569h805v-52h-805v-311h958v-47h-1024v358h-1245v-311h959v-47h-1024v358h-185z" />
    <glyph glyph-name="e_s" horiz-adv-x="2457" 
d="M53 362v48h185v618h1024v-45h-959v-573h805v-48h-805v-317h1536q59 0 117 5t127.5 21.5t121.5 42.5t87 72.5t35 106.5q0 75 -54 124t-140.5 72.5t-191 39t-209.5 31t-191.5 39t-140.5 72.5t-54 124q0 67 42 117t114 78t155.5 41t177.5 13q131 0 253.5 -23.5t192.5 -62.5
l-4 -47q-90 42 -209 65t-227 23q-38 0 -78 -3t-92 -10t-96.5 -21.5t-83.5 -35t-61.5 -53t-22.5 -73.5q0 -49 33.5 -84t90.5 -55t130.5 -34t155 -25t162.5 -23.5t154.5 -34t130.5 -52t90.5 -81.5t33.5 -119q0 -72 -37.5 -126.5t-94 -85.5t-134 -50.5t-144.5 -26t-139 -6.5
h-1601v362h-185z" />
    <glyph glyph-name="is" horiz-adv-x="1679" 
d="M176 541v487h66v-485q0 -101 13.5 -184.5t36 -147t60.5 -114t79 -85t99.5 -59.5t113.5 -39.5t130.5 -23t141 -11t153.5 -2.5q60 0 116.5 5t126 21t120.5 42.5t85.5 74.5t34.5 111q0 73 -54 130.5t-140.5 95.5t-191 71t-209.5 66.5t-191.5 73t-140.5 99.5t-54 136
q0 63 43 111t115.5 75.5t158 41t181.5 13.5q127 0 250 -23.5t192 -62.5l-4 -47q-184 85 -438 88q-45 0 -93.5 -4t-112 -16.5t-111.5 -33t-81.5 -57.5t-33.5 -85q0 -62 54 -111.5t140.5 -83.5t191.5 -66t209.5 -68.5t191 -80t140.5 -110.5t54 -152q0 -73 -37.5 -129
t-94 -87.5t-134 -51t-144.5 -25.5t-139 -6q-119 0 -198.5 3.5t-182 19t-169.5 44t-138 80.5t-111.5 126.5t-67 184.5t-26.5 251z" />
    <glyph glyph-name="it" horiz-adv-x="1277" 
d="M684 0h-66v983h-569v45h1204v-45h-569v-983zM250 0h-66v641h66v-641z" />
    <glyph glyph-name="la" horiz-adv-x="1894" 
d="M1821 0l-234 354h-737l-154 -233h-73l596 923l673 -1044h-71zM1219 932l-342 -535h684zM1202 0h-1003v1028h65v-975h938v-53z" />
    <glyph glyph-name="le" horiz-adv-x="1562" 
d="M1481 367h-781v661h781v-49h-713v-293h559v-47h-561v-225h715v-47zM1202 0h-1003v1028h65v-979h938v-49z" />
    <glyph glyph-name="li" horiz-adv-x="1337" 
d="M1200 410h-65v618h65v-618zM1202 0h-1003v1028h65v-977h938v-51z" />
    <glyph glyph-name="mr" horiz-adv-x="2863" 
d="M1987 0h-62l-323 924l-582 -944l-582 923l-323 -903h-62l371 1049l596 -943l571 922h779q58 0 109 -7.5t100 -26.5t84.5 -47.5t57 -74.5t21.5 -104q0 -62 -23.5 -109.5t-65 -77t-91.5 -46.5t-111 -23l334 -512h-75l-330 508h-570zM2351 983h-706l149 -432h557
q174 0 250 54.5t76 162.5q0 109 -75.5 162t-250.5 53z" />
    <glyph glyph-name="nd" horiz-adv-x="2717" 
d="M1970 0h-598l-1108 907v-907h-65v1044l1157 -948v932h614q156 0 283 -44t206.5 -117.5t121.5 -164t42 -188.5q0 -99 -42 -189.5t-121.5 -164t-206.5 -117t-283 -43.5zM1421 49h555q113 0 209 25.5t163.5 70t115.5 104t71 126.5t23 139q0 89 -37.5 171t-107.5 148.5
t-183.5 106t-253.5 39.5h-555v-930z" />
    <glyph glyph-name="nn" horiz-adv-x="2777" 
d="M1421 -18l-1157 923v-905h-65v1044l1157 -927v927l1157 -927v911h65v-1046l-1157 923v-923z" />
    <glyph glyph-name="nr" horiz-adv-x="2494" 
d="M1421 -20l-1157 927v-907h-65v1044l1157 -931v915h643q186 0 279.5 -70.5t93.5 -230.5q0 -259 -291 -297l334 -430h-76l-330 426h-588v-446zM2001 983h-580v-508h580q164 0 234.5 62.5t70.5 189.5q0 131 -70 193.5t-235 62.5z" />
    <glyph glyph-name="oc" horiz-adv-x="2291" 
d="M1563 510q0 -136 -67.5 -244t-190.5 -178q149 -61 350 -61q141 0 285.5 32.5t254.5 98.5v-54q-109 -61 -254 -92.5t-292 -31.5q-234 0 -408 77q-174 -77 -412 -77q-215 0 -381 63.5t-260 184.5t-94 282t94 283t260.5 186.5t380.5 64.5q234 0 412 -79q178 79 408 79
q309 0 546 -126v-54q-117 66 -260.5 99.5t-283.5 33.5q-194 0 -348 -63q124 -70 192 -179t68 -245zM932 510q0 137 65.5 245t184.5 177q-151 65 -353 65q-191 0 -341 -58t-237 -169.5t-87 -259.5q0 -146 87 -257t237 -168.5t341 -57.5q204 0 353 63q-119 69 -184.5 176
t-65.5 244zM1493 510q0 129 -66 229.5t-186 163.5q-114 -63 -177 -163t-63 -230t63.5 -229.5t176.5 -161.5q120 63 186 163t66 228z" />
    <glyph glyph-name="og" horiz-adv-x="2428" 
d="M1563 510q0 -134 -65.5 -241t-186.5 -177q154 -65 352 -65q120 0 229.5 24.5t201.5 72.5t147 130.5t55 187.5h-385v43h450v-41q0 -200 -189.5 -332t-502.5 -132q-246 0 -418 81q-179 -81 -422 -81q-215 0 -381 63.5t-260 184.5t-94 282t94 283t260.5 186.5t380.5 64.5
q238 0 418 -83q186 83 436 83q330 0 568 -149v-51q-114 70 -266.5 111.5t-311.5 41.5q-203 0 -366 -67q122 -70 189 -178t67 -242zM950 520q0 274 238 410q-159 67 -359 67q-191 0 -341 -58t-237 -169.5t-87 -259.5q0 -146 87 -257t237 -168.5t341 -57.5q208 0 363 67
q-242 145 -242 426zM1493 510q0 128 -65 228t-183 163q-225 -126 -225 -381q0 -134 60.5 -234.5t168.5 -162.5q115 63 179.5 162.5t64.5 224.5z" />
    <glyph glyph-name="oo" horiz-adv-x="2492" 
d="M2398 510q0 -161 -94 -282t-259.5 -184.5t-379.5 -63.5q-239 0 -420 79q-178 -79 -416 -79q-215 0 -381 63.5t-260 184.5t-94 282t94 283t260.5 186.5t380.5 64.5q240 0 416 -81q179 81 420 81q213 0 379 -64.5t260 -186.5t94 -283zM930 510q0 135 67 243.5t189 178.5
q-154 65 -357 65q-191 0 -341 -58t-237 -169.5t-87 -259.5q0 -146 87 -257t237 -168.5t341 -57.5q198 0 355 63q-122 70 -188 177t-66 243zM1563 510q0 -135 -66.5 -242t-187.5 -178q154 -63 356 -63q189 0 339 57.5t237.5 168.5t87.5 257q0 148 -87.5 259.5t-237.5 169.5
t-339 58q-204 0 -358 -65q122 -70 189 -178.5t67 -243.5zM1493 510q0 128 -65 228t-183 163q-117 -63 -181.5 -163t-64.5 -228q0 -127 65 -226.5t181 -162.5q118 63 183 162.5t65 226.5z" />
    <glyph glyph-name="re" horiz-adv-x="2490" 
d="M2427 205h-1024v823h1024v-45h-957v-317h803v-48h-805v-370h959v-43zM53 367v43h185v618h643q90 0 162.5 -28.5t117 -75.5t68.5 -105.5t24 -122.5q0 -100 -58.5 -182.5t-156.5 -120.5l439 -647h-76l-426 629q-39 -8 -94 -8h-578v-367h-65v367h-185zM862 983h-559v-573
h559q154 0 240 84.5t86 201.5q0 116 -86 201.5t-240 85.5z" />
    <glyph glyph-name="ri" horiz-adv-x="1650" 
d="M1468 1028v-823h-65v823h65zM53 367v43h185v618h643q90 0 162.5 -28.5t117 -75.5t68.5 -105.5t24 -122.5q0 -100 -58.5 -182.5t-156.5 -120.5l439 -647h-76l-426 629q-39 -8 -94 -8h-578v-367h-65v367h-185zM862 983h-559v-573h559q154 0 240 84.5t86 201.5
q0 116 -86 201.5t-240 85.5z" />
    <glyph glyph-name="rn" horiz-adv-x="2824" 
d="M1477 1028l1083 -590v590h66v-1028h-66v365l-1092 593v-751h-65v821h74zM53 367v43h185v618h643q90 0 162.5 -28.5t117 -75.5t68.5 -105.5t24 -122.5q0 -100 -58.5 -182.5t-156.5 -120.5l439 -647h-76l-426 629q-39 -8 -94 -8h-578v-367h-65v367h-185zM862 983h-559v-573
h559q154 0 240 84.5t86 201.5q0 116 -86 201.5t-240 85.5z" />
    <glyph glyph-name="st" horiz-adv-x="2320" 
d="M1726 0h-65v983q-479 0 -547 2q-344 16 -510 16q-55 0 -117 -8t-135 -27.5t-120.5 -61.5t-47.5 -101q0 -49 33.5 -85.5t90.5 -59t130.5 -40t155 -32t162.5 -30.5t154.5 -40t130.5 -56t90.5 -83t33.5 -117q0 -58 -25.5 -104.5t-70.5 -76t-98.5 -50t-118 -31t-119 -14.5
t-112.5 -4q-334 0 -535 106l2 53q212 -114 522 -114q51 0 100 3.5t107.5 12t106.5 26t89 42t64 63t23 86.5q0 72 -54 123t-140.5 78t-191 47.5t-209.5 40.5t-191.5 47t-140.5 78t-54 123q0 65 42 115.5t112.5 79t151.5 43t169 14.5q48 0 273.5 -5.5t244.5 -5.5
q462 -8 1184 -8v-45h-570v-983z" />
    <glyph glyph-name="the" horiz-adv-x="3516" 
d="M659 0h-65v983h-569v45h1269v-618h1104v618h1024v-45h-958v-573h805v-45h-805v-322h958v-43h-1024v365h-1104v-365h-65v365h-185v45h185v573h-570v-983z" />
    <glyph glyph-name="t_e" horiz-adv-x="2344" 
d="M1042 365v45h185v573h-568v-983h-65v983h-569v45h2226v-45h-959v-573h805v-45h-805v-322h959v-43h-1024v365h-185z" />
    <glyph glyph-name="th" horiz-adv-x="2660" 
d="M1042 358v52h185v571h-568v-981h-65v981h-569v47h1267v-618h1104v618h66v-1028h-66v358h-1104v-358h-65v358h-185z" />
    <glyph glyph-name="to" horiz-adv-x="2197" 
d="M2132 403q0 -118 -75 -215t-206.5 -152.5t-291.5 -55.5t-292 55.5t-208 152.5t-76 215q0 117 76 216t208.5 157t291.5 58t291 -58t207 -156.5t75 -216.5zM2066 403q0 164 -145 274.5t-362 110.5q-218 0 -364 -110.5t-146 -274.5q0 -107 66.5 -193.5t183 -135.5t260.5 -49
q217 0 362 108t145 270zM659 0h-65v983h-569v45h1204v-45h-570v-983z" />
    <glyph glyph-name="tt" horiz-adv-x="2004" 
d="M1411 0h-65v983h-687v-983h-65v983h-569v45h1955v-45h-569v-983z" />
    <glyph glyph-name="ty" horiz-adv-x="2375" 
d="M1782 0h-66v465l-536 518h-521v-983h-65v983h-569v45h1204l516 -502l522 502h94l-579 -563v-465z" />
    <glyph glyph-name="ur" horiz-adv-x="2398" 
d="M1262 473v555h643q58 0 109 -7.5t100 -26.5t84.5 -47.5t57 -74.5t21.5 -104q0 -152 -147 -219q-67 -28 -143 -37l333 -512h-75l-330 508h-590q0 -134 -46 -237.5t-126.5 -165.5t-182.5 -93.5t-222 -31.5q-87 0 -169 17.5t-155.5 56t-128.5 94.5t-87 138t-32 181v561h66
v-555q0 -114 43.5 -202t117 -139.5t161 -77t184.5 -25.5q99 0 188 25.5t163.5 77t118.5 139.5t44 202zM1886 983h-559v-432h559q173 0 249.5 54.5t76.5 162.5q0 109 -75.5 162t-250.5 53z" />
    <glyph glyph-name="va" horiz-adv-x="2029" 
d="M696 -20l-694 1048h78l620 -938l639 954l689 -1044h-72l-244 360h-745zM1341 930l-348 -510h688z" />
    <glyph glyph-name="v_e" horiz-adv-x="2109" 
d="M1864 512h-807l-307 -461h1267v-51h-1347l-668 1028h78l616 -958l617 958h704v-51h-657l-273 -414h777v-51z" />
    <glyph glyph-name="and" horiz-adv-x="3883" 
d="M3195 0h-676v371l-1092 569v-940h-65l-135 201h-965l-133 -201h-72l133 201h-143v51h172l526 792l617 -933v933l1157 -606v590h676q141 0 256 -44t187 -117.5t110.5 -164t38.5 -188.5t-38.5 -189t-110.5 -164t-187 -117t-256 -44zM2585 49h596q104 0 193 25.5t152 70
t107.5 104t66 126.5t21.5 139q0 89 -35 171t-100 148.5t-170 106t-235 39.5h-596v-930zM745 934l-454 -682h907z" />
    <glyph glyph-name="md" horiz-adv-x="3143" 
d="M2355 0h-430l-323 924l-582 -944l-582 919l-323 -899h-62l371 1044l596 -948l571 932h764q167 0 302 -44t219 -117.5t128.5 -164t44.5 -188.5q0 -78 -27.5 -152.5t-84.5 -140t-138 -115t-195.5 -78t-248.5 -28.5zM2341 983h-696l325 -938h371q156 0 281 40t202.5 106.5
t118.5 149.5t41 173q0 89 -41 171.5t-118.5 150t-203 107.5t-280.5 40z" />
    <glyph glyph-name="do" horiz-adv-x="2369" 
d="M2275 510q0 -161 -94 -282t-259.5 -184.5t-379.5 -63.5q-240 0 -414 77q-142 -57 -335 -57h-594v1028h594q198 0 342 -61q181 77 407 77q213 0 379 -64.5t260 -186.5t94 -283zM2206 510q0 148 -87.5 259.5t-237.5 169.5t-339 58q-193 0 -344 -59q132 -71 200 -184
t68 -240q0 -129 -69 -243t-203 -185q151 -59 348 -59q189 0 339 57.5t237.5 168.5t87.5 257zM264 53h529q156 0 268 37q-122 70 -188 177t-66 243t68 245t192 179q-128 41 -274 41h-529v-922zM1397 514q0 122 -67 227t-197 166q-121 -63 -188.5 -164.5t-67.5 -232.5
q0 -128 65.5 -228.5t185.5 -164.5q132 61 200.5 166.5t68.5 230.5z" />
    <glyph glyph-name="h_e" horiz-adv-x="2525" 
d="M53 365v45h185v618h65v-618h1104v618h1024v-45h-958v-573h804v-48h-804v-319h958v-43h-1024v365h-1104v-365h-65v365h-185z" />
    <glyph glyph-name="co" horiz-adv-x="2617" 
d="M2556 614q0 -118 -75.5 -215.5t-207 -153t-291.5 -55.5t-292 55.5t-207.5 153t-75.5 215.5q0 117 75.5 216t208 156.5t291.5 57.5t291 -57.5t207.5 -156.5t75.5 -216zM2490 614q0 164 -145.5 274.5t-362.5 110.5q-218 0 -363.5 -110.5t-145.5 -274.5q0 -163 145.5 -270.5
t363.5 -107.5q217 0 362.5 108t145.5 270zM1350 180v-55q-210 -145 -514 -145q-155 0 -293.5 42.5t-237.5 114t-157 170.5t-58 209q0 146 98 267.5t269.5 191t378.5 69.5q284 0 514 -149v-59q-104 76 -238.5 119.5t-275.5 43.5q-185 0 -341 -63.5t-247.5 -174.5t-91.5 -245
q0 -133 91 -246t248 -179t341 -66q306 0 514 155z" />
    <glyph glyph-name="r.swsh" horiz-adv-x="1335" 
d="M1423 -254h-75l-496 762h-588v-508h-65v1028h643q73 0 136 -13t117.5 -41.5t86.5 -81.5t32 -124q0 -119 -81 -181t-209 -75zM823 983h-559v-432h559q173 0 249.5 54.5t76.5 162.5q0 109 -75.5 162t-250.5 53z" />
    <glyph glyph-name="G.alt" horiz-adv-x="1613" 
d="M1407 506h-428v51h498v-463q-231 -114 -582 -114q-133 0 -252 24t-218 73.5t-171.5 119t-113 165.5t-40.5 209t40.5 209t113 166t171.5 119t218 73.5t252 24.5q352 0 582 -112v-58q-207 121 -582 121q-151 0 -280.5 -35t-228.5 -101t-155.5 -171t-56.5 -236t56.5 -235
t155.5 -169.5t228.5 -99.5t280.5 -34q137 0 275 21.5t237 60.5v391z" />
    <glyph glyph-name="g.alt" horiz-adv-x="1486" 
d="M1292 459h-383v45h449v-400q-109 -61 -254.5 -92.5t-292.5 -31.5q-206 0 -367.5 61.5t-255.5 183t-94 285.5t93 286t255 185t369 63q310 0 547 -126v-54q-117 66 -260.5 99.5t-284.5 33.5q-187 0 -332.5 -56.5t-231 -168t-85.5 -262.5t86 -261.5t232.5 -166t334.5 -55.5
q270 0 475 96v336z" />
    <glyph glyph-name="six.alt" horiz-adv-x="1331" 
d="M180 510q82 122 203.5 166.5t300.5 44.5q88 0 168.5 -12.5t154.5 -41t128.5 -71t87 -107.5t32.5 -145q0 -88 -49 -159t-130.5 -115t-182.5 -67t-211 -23q-111 0 -213 23t-185 66.5t-132.5 114.5t-49.5 160q0 42 9 97.5t37.5 136t72 158t121.5 156.5t177.5 138t247.5 96
t325 37v-47q-352 0 -575 -145t-337 -461zM1190 344q0 90 -42.5 156.5t-116.5 103.5t-161 54.5t-188 17.5q-102 0 -189.5 -17.5t-162.5 -54.5t-118.5 -103.5t-43.5 -156.5q0 -101 76.5 -175.5t190.5 -109t247 -34.5q98 0 188 20.5t162 59.5t115 101t43 138z" />
    <glyph glyph-name="six.alt3" horiz-adv-x="1359" 
d="M760 1110q-121 0 -213.5 -30.5t-167.5 -99.5t-127 -185.5t-82 -284.5q29 50 77.5 88.5t102 61t117 37t116.5 19.5t107 5q90 0 172 -13t156.5 -42t129 -71t86.5 -104.5t32 -138.5q0 -94 -46.5 -167t-127.5 -117t-184.5 -66t-223.5 -22q-571 0 -571 458q0 49 5.5 102
t23 126.5t45.5 139.5t78 132.5t115 115t162.5 79t215.5 30.5q94 0 225 -20t209 -56v-51q-81 38 -206.5 56t-225.5 18zM1200 356q0 67 -28.5 121.5t-77 91t-114.5 61t-137.5 35.5t-150.5 11q-99 0 -188 -18t-163.5 -54.5t-118.5 -100.5t-44 -147t43.5 -148t117 -104
t163.5 -59t190 -20t189 20t161.5 59t115 104t42.5 148z" />
    <glyph glyph-name="S.old" horiz-adv-x="1353" 
d="M1210 1069l-6 -47q-199 93 -506 96q-38 0 -71.5 -1t-86.5 -6t-96 -13t-90 -24.5t-79 -38.5t-53 -56t-21 -76q0 -70 59 -118t153 -73.5t207.5 -46t227.5 -46.5t208 -62.5t153 -105.5t59 -166q0 -63 -28 -113.5t-78 -82.5t-108.5 -54.5t-130 -34t-132 -16t-123.5 -4.5
q-148 0 -308 29.5t-278 88.5l2 54q122 -63 277.5 -95t306.5 -32q53 0 104 3.5t114.5 12.5t116 28t98 46.5t71.5 71t26 98.5q0 85 -59 143t-153 88.5t-207.5 53t-227.5 44.5t-208 53.5t-153 90.5t-59 145q0 60 34 106.5t88.5 75t130.5 46.5t152.5 25t161.5 7q152 0 292.5 -26
t219.5 -68z" />
    <glyph glyph-name="OE.alt" horiz-adv-x="2656" 
d="M2554 0h-1137v55q-209 -96 -485 -96q-138 0 -262.5 25t-228.5 76t-180 123t-118.5 171.5t-42.5 216.5q0 144 65.5 261t178.5 193.5t264 117.5t324 41q280 0 485 -99v58h1137v-49h-1065v-465h897v-54h-897v-522h1065v-53zM932 4q287 0 485 107v917q-199 111 -485 111
q-127 0 -241 -23t-209.5 -69.5t-165 -113.5t-108 -159.5t-38.5 -202.5q0 -137 59.5 -246t163.5 -178.5t241.5 -106t297.5 -36.5z" />
    <glyph glyph-name="middot" horiz-adv-x="362" 
d="M180 446q-24 0 -40.5 16t-16.5 38q0 26 16 41.5t41 15.5t42.5 -15.5t17.5 -37.5q0 -26 -17.5 -42t-42.5 -16z" />
    <glyph glyph-name="c.old" horiz-adv-x="1447" 
d="M1358 160v-56q-108 -61 -253.5 -92.5t-287.5 -31.5q-210 0 -372.5 61.5t-256.5 183t-94 285.5q0 163 93 285.5t254 185.5t368 63q146 0 292.5 -35.5t256.5 -93.5v-53q-111 66 -257 99.5t-282 33.5q-192 0 -339.5 -56t-231.5 -166.5t-84 -260.5q0 -152 85.5 -262.5
t232.5 -165.5t339 -55q138 0 283 33t254 98z" />
    <glyph glyph-name="C.old" horiz-adv-x="1568" 
d="M1477 150v-52q-239 -118 -582 -118q-133 0 -252 24t-218 73.5t-171.5 119t-113 165.5t-40.5 209t40.5 209t113 166t171.5 119t218 73.5t252 24.5q338 0 582 -119v-51q-207 121 -582 121q-151 0 -280.5 -35t-228.5 -101t-155.5 -171t-56.5 -236q0 -106 37 -194.5
t102.5 -152t156 -108t198 -66t227.5 -21.5q375 0 582 121z" />
    <glyph glyph-name="r.old" horiz-adv-x="1382" 
d="M852 426h-588v-426h-65v1028h653q160 0 261 -78t101 -223q0 -216 -192 -278l311 -449h-71l-301 434q-47 -8 -109 -8zM852 979h-588v-506h588q87 0 147.5 20t92 57t44.5 79.5t13 97.5q0 38 -7.5 71.5t-28 67.5t-53 58.5t-86 39.5t-122.5 15z" />
    <glyph glyph-name="zero.sn" horiz-adv-x="892" 
d="M823 377q0 -97 -32.5 -175t-86.5 -125.5t-120 -72t-138 -24.5t-137.5 24.5t-119.5 72t-86.5 125.5t-32.5 175q0 98 32 176t85.5 125.5t119.5 72.5t137 25q72 0 138 -25t120.5 -72.5t87.5 -126t33 -175.5zM141 377q0 -85 26 -153t69 -109t97 -62.5t113 -21.5t112.5 21.5
t97.5 62.5t70 109t26 153t-26 153.5t-70.5 110t-98.5 63t-113 21.5q-124 0 -213.5 -90t-89.5 -258z" />
    <glyph glyph-name="one.sn" horiz-adv-x="382" 
d="M287 0h-68v694l-158 -164l-38 37l198 205h66v-772z" />
    <glyph glyph-name="two.sn" horiz-adv-x="759" 
d="M698 0h-653v51q106 55 174 92.5t138.5 81t111.5 77t75.5 72t49 76.5t14.5 80q0 94 -68 144.5t-175 50.5q-72 0 -147 -23t-124 -61l-6 55q51 36 127 58t156 22q143 0 224 -70.5t81 -177.5q0 -36 -9.5 -70t-31 -66t-43.5 -58t-60 -55t-66.5 -49.5t-77.5 -48.5t-78 -44
t-83.5 -44t-79.5 -42h551v-51z" />
    <glyph glyph-name="three.sn" horiz-adv-x="778" 
d="M373 385h-99v51h99q106 0 170.5 46t64.5 110q0 68 -61.5 112t-179.5 44q-73 0 -149 -17t-128 -51v53q108 66 277 66q136 0 222.5 -54.5t86.5 -152.5q0 -65 -52 -116.5t-135 -61.5q91 -8 156.5 -60t65.5 -133q0 -64 -29 -112t-79.5 -75.5t-112 -40.5t-134.5 -13
q-70 0 -159.5 15t-135.5 36v53q57 -25 139 -40t156 -15q143 0 215 49.5t72 140.5q0 70 -67.5 118t-202.5 48z" />
    <glyph glyph-name="four.sn" horiz-adv-x="796" 
d="M612 0h-65v166h-512v53l512 524h65v-524h144v-53h-144v-166zM547 219v453l-443 -453h443z" />
    <glyph glyph-name="five.sn" horiz-adv-x="780" 
d="M649 727h-434l-41 -260q38 19 104 30t115 11q167 0 252.5 -72.5t85.5 -187.5q0 -119 -100.5 -193.5t-274.5 -74.5q-70 0 -155.5 15t-141.5 40l2 53q124 -57 291 -57q143 0 228.5 60.5t85.5 156.5q0 94 -74 152.5t-211 58.5q-72 0 -148.5 -17.5t-130.5 -48.5l56 387h491
v-53z" />
    <glyph glyph-name="six.sn" horiz-adv-x="837" 
d="M543 778l-328 -311q37 22 102 38.5t109 16.5q69 0 133 -15.5t119 -46.5t88 -84.5t33 -121.5t-32.5 -122.5t-86.5 -86.5t-118.5 -48.5t-133.5 -16.5q-70 0 -134.5 16t-120 47.5t-89 86t-33.5 124.5q0 136 119 246l330 317zM733 254q0 59 -29.5 103.5t-77 68t-97.5 34.5
t-101 11q-52 0 -104 -12.5t-99 -37.5t-76.5 -68.5t-29.5 -98.5q0 -72 47 -124t115 -74.5t147 -22.5t146 22.5t113 74.5t46 124z" />
    <glyph glyph-name="seven.sn" horiz-adv-x="669" 
d="M668 776l-506 -776h-80l475 723h-512v53h623z" />
    <glyph glyph-name="eight.sn" horiz-adv-x="886" 
d="M584 401q101 -8 170 -62t69 -136q0 -107 -109.5 -165t-271.5 -58t-270.5 58t-108.5 165q0 81 67.5 132.5t170.5 65.5q-79 15 -127.5 58t-48.5 116q0 94 92 147.5t225 53.5t225.5 -53.5t92.5 -147.5q0 -73 -49 -116t-127 -58zM754 203q0 81 -88 126.5t-224 45.5
q-135 0 -222 -45.5t-87 -126.5t88 -126.5t221 -45.5t222.5 45.5t89.5 126.5zM692 575q0 70 -73 110t-177 40t-176.5 -40t-72.5 -110q0 -149 249 -149q71 0 124 12.5t89.5 47t36.5 89.5z" />
    <glyph glyph-name="nine.sn" horiz-adv-x="847" 
d="M295 20l328 291q-37 -21 -102 -36t-109 -15q-69 0 -133.5 15t-119 44.5t-87.5 80t-33 114.5q0 66 32.5 117.5t86.5 82t118.5 46.5t133.5 16q70 0 134.5 -15.5t120 -45.5t88.5 -82t33 -119q0 -41 -14 -81t-33 -70t-52.5 -66t-58.5 -57.5t-66 -56.5t-60 -52l-164 -149z
M104 514q0 -55 29.5 -97t77.5 -63.5t98 -32t101 -10.5q52 0 104 12t99 35.5t76.5 64t29.5 91.5q0 100 -92.5 154.5t-216.5 54.5q-79 0 -146.5 -21.5t-113.5 -70.5t-46 -117z" />
    <glyph glyph-name="Z.mon" horiz-adv-x="1413" 
d="M1391 0h-1379l1162 1092h-1088v51h1221l-1157 -1092h1241v-51z" />
    <glyph glyph-name="Y.mon" horiz-adv-x="1443" 
d="M754 0h-66v455l-684 688h86l631 -625l629 625h90l-686 -688v-455z" />
    <glyph glyph-name="X.mon" horiz-adv-x="1411" 
d="M1397 0h-88l-604 535l-603 -535h-88l650 578l-635 565h88l588 -522l589 522h88l-637 -565z" />
    <glyph glyph-name="A.mon" horiz-adv-x="1685" 
d="M1612 0l-281 387h-979l-280 -387h-78l848 1163l850 -1163h-80zM842 1063l-449 -619h897z" />
    <glyph glyph-name="B.mon" horiz-adv-x="1581" 
d="M1051 0h-838v1143h745q43 0 79 -2t79 -9t77.5 -18.5t67.5 -31.5t55.5 -47t36 -66.5t13.5 -87.5q0 -108 -59.5 -174.5t-149.5 -77.5q88 -4 159.5 -37t119 -104.5t47.5 -172.5q0 -74 -25 -130.5t-65.5 -90.5t-98.5 -56t-116.5 -30t-126.5 -8zM1053 588h-770v-537h768
q55 0 100 4.5t96 21.5t85.5 44.5t57.5 78.5t23 119q0 67 -22 117t-55.5 78.5t-83.5 45.5t-96.5 22.5t-102.5 5.5zM958 1092h-675v-451h680q37 0 66 1.5t65.5 7t63 14.5t54 26.5t45 41t28.5 59t11 79.5q0 45 -12 80.5t-29.5 58.5t-47.5 39.5t-55.5 24.5t-64.5 12.5t-64.5 5.5
t-64.5 1z" />
    <glyph glyph-name="C.mon" horiz-adv-x="1521" 
d="M1432 150v-56q-225 -114 -562 -114q-162 0 -301 39t-244 111.5t-165 186t-60 254.5t60 254.5t165 186.5t244 112t301 39q338 0 562 -112v-58q-201 121 -562 121q-146 0 -271.5 -35t-220.5 -101t-149.5 -171t-54.5 -236t54.5 -235t149.5 -169.5t220.5 -99.5t271.5 -34
q367 0 562 117z" />
    <glyph glyph-name="D.mon" horiz-adv-x="1652" 
d="M907 0h-694v1143h694q128 0 235 -32t181 -87t125.5 -128.5t75.5 -155.5t24 -169q0 -88 -24 -170t-75.5 -155t-125.5 -127.5t-181 -86.5t-235 -32zM283 51h626q113 0 208 29t161 78t112 116t67.5 141.5t21.5 155.5q0 80 -21.5 155t-67.5 141.5t-112 116.5t-161 79t-208 29
h-626v-1041z" />
    <glyph glyph-name="E.mon" horiz-adv-x="1503" 
d="M1401 0h-1188v1143h1188v-49h-1116v-465h940v-54h-940v-522h1116v-53z" />
    <glyph glyph-name="F.mon" horiz-adv-x="1505" 
d="M1249 578h-964v-578h-72v1143h1217v-53h-1145v-459h964v-53z" />
    <glyph glyph-name="G.mon" horiz-adv-x="1648" 
d="M1493 494h-393v51h456q0 -53 -2 -76q-8 -112 -54.5 -199.5t-114 -141t-158.5 -88t-181 -47.5t-190 -13q-165 0 -301 37.5t-237.5 111.5t-157.5 191t-56 268q0 126 41 225.5t110.5 164t167 107t205 60.5t230.5 18q213 0 383.5 -53.5t271.5 -163.5v-67q-232 227 -657 227
q-109 0 -203.5 -15t-184.5 -52t-153.5 -94.5t-102 -148.5t-38.5 -208q0 -139 51.5 -246t144 -172t214 -98t268.5 -33q97 0 185.5 13.5t173 47t145.5 84t98.5 130t38.5 180.5z" />
    <glyph glyph-name="H.mon" horiz-adv-x="1705" 
d="M1493 0h-70v594h-1140v-594h-70v1143h70v-488h1140v488h70v-1143z" />
    <glyph glyph-name="I.mon" horiz-adv-x="497" 
d="M285 0h-72v1143h72v-1143z" />
    <glyph glyph-name="J.mon" horiz-adv-x="495" 
d="M-139 -373l12 54q91 -15 150 -15q92 0 141 60.5t49 212.5v1204h70v-1204q0 -39 -1.5 -67t-7.5 -65t-17 -62.5t-31 -52.5t-48 -43.5t-70.5 -27t-95.5 -10.5q-63 0 -151 16z" />
    <glyph glyph-name="K.mon" horiz-adv-x="1515" 
d="M1491 1143l-670 -438l684 -705h-90l-651 666l-481 -314v-352h-70v1143h70v-717l1101 717h107z" />
    <glyph glyph-name="L.mon" horiz-adv-x="1454" 
d="M1407 0h-1194v1143h70v-1088h1124v-55z" />
    <glyph glyph-name="M.mon" horiz-adv-x="1851" 
d="M1788 0h-74l-301 999l-487 -1019l-490 1019l-299 -999h-74l363 1165l500 -1052l499 1052z" />
    <glyph glyph-name="N.mon" horiz-adv-x="1693" 
d="M1481 -20l-1198 1032v-1012h-70v1163l1198 -1038v1018h70v-1163z" />
    <glyph glyph-name="O.mon" horiz-adv-x="1675" 
d="M1575 571q0 -113 -37.5 -209t-104.5 -165.5t-159 -119t-202.5 -73.5t-233.5 -24q-154 0 -287 39t-233.5 111.5t-158 186t-57.5 254.5q0 139 57.5 252.5t157.5 187t233.5 113t287.5 39.5q206 0 371 -66.5t265.5 -202.5t100.5 -323zM1503 571q0 131 -51.5 234.5t-143 167.5
t-210.5 97.5t-260 33.5q-112 0 -211 -20.5t-182 -63.5t-143.5 -105.5t-94 -150t-33.5 -193.5q0 -131 51.5 -234t142.5 -167.5t210 -97.5t260 -33t260 33t210.5 97.5t143 167.5t51.5 234z" />
    <glyph glyph-name="P.mon" horiz-adv-x="1472" 
d="M985 516h-702v-516h-70v1143h772q68 0 128 -9.5t115.5 -32t95 -57.5t63.5 -89.5t24 -123.5q0 -85 -35.5 -148t-97 -98.5t-134.5 -52t-159 -16.5zM987 1090h-704v-521h704q75 0 136 14t110 43.5t75.5 81.5t26.5 123t-26.5 122.5t-75.5 80.5t-109.5 42.5t-136.5 13.5z" />
    <glyph glyph-name="Q.mon" horiz-adv-x="1673" 
d="M1575 571q0 -229 -144 -377t-380 -194l18 -6l342 -203l-35 -55l-270 164q-131 79 -182 82v2q-58 -4 -86 -4q-154 0 -287 39t-233.5 111.5t-158 186t-57.5 254.5q0 139 57.5 252.5t157.5 187t233.5 113t287.5 39.5q206 0 371 -66.5t265.5 -202.5t100.5 -323zM1503 571
q0 131 -51.5 234.5t-143 167.5t-210.5 97.5t-260 33.5q-112 0 -211 -20.5t-182 -63.5t-143.5 -105.5t-94 -150t-33.5 -193.5q0 -131 51.5 -234t142.5 -167.5t210 -97.5t260 -33t260 33t210.5 97.5t143 167.5t51.5 234z" />
    <glyph glyph-name="R.mon" horiz-adv-x="1505" 
d="M1405 0h-78l-373 485h-671v-485h-70v1143h735q66 0 125 -8.5t118.5 -31t102 -58.5t69 -95.5t26.5 -136.5q0 -68 -20 -122.5t-53.5 -90t-80.5 -60.5t-96.5 -37t-106.5 -16zM950 1092h-667v-555h667q64 0 115.5 7t100 25.5t81.5 49t52.5 79.5t19.5 115t-19.5 115.5
t-52.5 80t-81.5 50t-100 26.5t-115.5 7z" />
    <glyph glyph-name="S.mon" horiz-adv-x="1468" 
d="M1323 1085l-4 -47q-85 39 -247 57.5t-339 18.5q-538 0 -538 -233q0 -80 65.5 -130t170 -71t231 -34t253.5 -30.5t231.5 -47.5t170 -96.5t65.5 -168.5q0 -323 -634 -323q-165 0 -345 21.5t-319 68.5l2 55q133 -49 311.5 -70.5t345.5 -21.5q576 0 576 264q0 89 -65.5 145
t-170.5 80t-232 37.5t-254 28.5t-232 41.5t-170.5 87t-65.5 155.5q0 291 614 291q394 0 580 -78z" />
    <glyph glyph-name="T.mon" horiz-adv-x="1468" 
d="M770 0h-68v1092h-677v51h1419v-51h-674v-1092z" />
    <glyph glyph-name="U.mon" horiz-adv-x="1611" 
d="M1360 586v557h70v-557q0 -134 -35 -242.5t-94.5 -179t-140.5 -117.5t-169.5 -67.5t-185.5 -20.5q-68 0 -132.5 10.5t-127 33t-116.5 57t-100 85.5t-78 114t-50.5 146.5t-18.5 180.5v557h70v-557q0 -124 31.5 -223t84 -162.5t125 -105.5t149.5 -59.5t163 -17.5t164 17.5
t150.5 59.5t125 105.5t84 162.5t31.5 223z" />
    <glyph glyph-name="V.mon" horiz-adv-x="1488" 
d="M745 -20l-745 1163h76l669 -1049l668 1049h76z" />
    <glyph glyph-name="W.mon" horiz-adv-x="1964" 
d="M1442 -20l-459 1015l-461 -1015l-495 1163h71l424 -1002l461 1022l459 -1022l424 1002h71z" />
    <glyph glyph-name="a.mon" horiz-adv-x="1452" 
d="M1380 0l-227 324h-856l-225 -324h-72l727 1044l725 -1044h-72zM727 936l-393 -559h782z" />
    <glyph glyph-name="b.mon" horiz-adv-x="1492" 
d="M989 0h-790v1028h708q381 0 381 -248q0 -49 -15 -88t-36 -61t-49 -37.5t-47.5 -21.5t-38.5 -9q46 -6 80.5 -13.5t78.5 -26.5t72 -46t48 -75t20 -111q0 -291 -412 -291zM989 524h-725v-471h725q74 0 131 9.5t108.5 34t79 72.5t27.5 118t-28 118.5t-79.5 73.5t-108.5 35
t-130 10zM907 975h-643v-397h643q49 0 87.5 3.5t83.5 15.5t75 32.5t50 58.5t20 90q0 39 -11.5 70t-29 51.5t-45 35t-53 22t-60.5 12t-59.5 5.5t-57.5 1z" />
    <glyph glyph-name="c.mon" horiz-adv-x="1466" 
d="M1376 158v-54q-110 -61 -257 -92.5t-298 -31.5q-208 0 -371.5 61.5t-259.5 183t-96 285.5t94.5 286t258.5 185t374 63q315 0 555 -126v-54q-118 66 -264 99.5t-289 33.5q-189 0 -337 -56.5t-235 -168t-87 -262.5t87.5 -261.5t236.5 -166t339 -55.5q145 0 291.5 32.5
t257.5 98.5z" />
    <glyph glyph-name="d.mon" horiz-adv-x="1556" 
d="M791 0h-592v1028h592q166 0 297.5 -44t211 -117.5t121 -163.5t41.5 -189q0 -79 -25 -152.5t-79.5 -139.5t-131.5 -115.5t-189 -78t-246 -28.5zM264 53h527q151 0 269 38.5t189 104t107.5 146.5t36.5 172q0 90 -36.5 171t-107.5 146.5t-189.5 104.5t-268.5 39h-527v-922z
" />
    <glyph glyph-name="e.mon" horiz-adv-x="1423" 
d="M1327 0h-1128v1028h1128v-51h-1063v-416h895v-51h-895v-459h1063v-51z" />
    <glyph glyph-name="f.mon" horiz-adv-x="1396" 
d="M1151 516h-887v-516h-65v1028h1126v-49h-1063v-414h889v-49z" />
    <glyph glyph-name="g.mon" horiz-adv-x="1540" 
d="M1405 438h-375v47h440v-41q0 -200 -184.5 -332t-488.5 -132q-200 0 -356 59t-250.5 183t-94.5 298q0 89 25 163.5t67 127.5t101 94.5t122.5 67t135.5 42t136 23t128 6.5q319 0 551 -149v-64q-103 77 -251 121.5t-304 44.5q-86 0 -168.5 -12.5t-170.5 -46t-153 -85.5
t-107 -138t-42 -195q0 -120 49 -215.5t135 -155.5t198 -91t243 -31q116 0 222 24t195.5 71t143 129t53.5 187z" />
    <glyph glyph-name="h.mon" horiz-adv-x="1607" 
d="M1409 0h-66v504h-1079v-504h-65v1028h65v-469h1079v469h66v-1028z" />
    <glyph glyph-name="i.mon" 
d="M264 0h-65v1028h65v-1028z" />
    <glyph glyph-name="j.mon" 
d="M-143 -373l2 49q101 -14 159 -14t94 12t55 42t25.5 68.5t6.5 102.5v1141h65v-1141q0 -41 -1 -66t-6 -58t-15 -52.5t-28 -41t-44.5 -32.5t-65.5 -18.5t-90 -7.5q-48 0 -157 16z" />
    <glyph glyph-name="k.mon" horiz-adv-x="1382" 
d="M1352 1028l-623 -407l643 -621h-84l-614 586l-410 -269v-317h-65v1028h65v-639l985 639h103z" />
    <glyph glyph-name="l.mon" horiz-adv-x="1370" 
d="M1321 0h-1122v1028h65v-977h1057v-51z" />
    <glyph glyph-name="m.mon" horiz-adv-x="1769" 
d="M1706 0h-64l-274 897l-483 -917l-486 917l-272 -897h-64l320 1044l502 -950l501 950z" />
    <glyph glyph-name="n.mon" horiz-adv-x="1599" 
d="M1401 -20l-1139 938v-918h-63v1044l1138 -940v924h64v-1048z" />
    <glyph glyph-name="o.mon" horiz-adv-x="1593" 
d="M1497 510q0 -161 -90 -282t-248 -184.5t-362 -63.5q-205 0 -363.5 63.5t-249 184.5t-90.5 282t90 283t249.5 186.5t363.5 64.5q203 0 361.5 -64.5t248.5 -186.5t90 -283zM1427 510q0 148 -83 259.5t-225 169.5t-322 58q-181 0 -324 -58t-226 -169.5t-83 -259.5
q0 -146 83 -257t226 -168.5t324 -57.5q179 0 321.5 57.5t225.5 168.5t83 257z" />
    <glyph glyph-name="p.mon" horiz-adv-x="1402" 
d="M946 453h-682v-453h-65v1028h747q177 0 289.5 -72t112.5 -215q0 -96 -55.5 -162.5t-144 -96t-202.5 -29.5zM948 973h-684v-465h684q78 0 138 13.5t97 35t60.5 53t32 63t8.5 68.5q0 232 -336 232z" />
    <glyph glyph-name="q.mon" horiz-adv-x="1591" 
d="M1497 510q0 -223 -166.5 -363.5t-439.5 -162.5l272 -177l-33 -47l-204 131q-123 82 -181 91q-192 8 -338.5 73t-229.5 182.5t-83 272.5q0 161 90 283t249.5 186.5t363.5 64.5q203 0 361.5 -64.5t248.5 -186.5t90 -283zM1427 510q0 148 -83 259.5t-225 169.5t-322 58
q-181 0 -324 -58t-226 -169.5t-83 -259.5q0 -146 83 -257t226 -168.5t324 -57.5q179 0 321.5 57.5t225.5 168.5t83 257z" />
    <glyph glyph-name="r.mon" horiz-adv-x="1423" 
d="M264 420v-420h-65v1028h714q112 0 200.5 -32.5t143 -102t54.5 -166.5q0 -143 -87.5 -216.5t-234.5 -88.5l340 -422h-78l-336 420h-651zM915 975h-651v-502h651q96 0 163 20t102 57t50 79.5t15 97.5q0 38 -8.5 71t-31.5 66.5t-59 57t-95 38.5t-136 15z" />
    <glyph glyph-name="s.mon" horiz-adv-x="1310" 
d="M1180 975l-6 -47q-166 69 -525 69q-44 0 -81.5 -1t-88.5 -6t-91 -13t-81.5 -23.5t-69.5 -36t-45.5 -52t-17.5 -70.5q0 -56 36 -95t97 -59.5t139.5 -33.5t166 -21.5t174.5 -18t165.5 -28.5t139.5 -48.5t97 -82.5t36 -125q0 -60 -24 -108.5t-68 -80.5t-98 -55t-121.5 -35.5
t-131 -18t-133.5 -5.5q-126 0 -285.5 16.5t-277.5 48.5l2 49q120 -34 278 -50.5t285 -16.5q96 0 180 10.5t165.5 36.5t129.5 77.5t48 124.5q0 80 -58.5 130t-151.5 72t-205.5 34.5t-225.5 25.5t-206 36.5t-151.5 77t-58.5 136.5q0 256 540 256q337 0 523 -69z" />
    <glyph glyph-name="t.mon" horiz-adv-x="1419" 
d="M741 0h-65v975h-647v53h1362v-53h-650v-975z" />
    <glyph glyph-name="u.mon" horiz-adv-x="1540" 
d="M1298 487v541h66v-541q0 -136 -43.5 -236t-125 -158t-187.5 -85.5t-242 -27.5q-590 0 -590 507v541h66v-541q0 -456 526 -456q530 0 530 456z" />
    <glyph glyph-name="v.mon" horiz-adv-x="1423" 
d="M713 -20l-713 1048h78l635 -938l633 938h77z" />
    <glyph glyph-name="w.mon" horiz-adv-x="1970" 
d="M1434 -20l-449 923l-448 -923l-514 1048h69l443 -907l452 923l447 -919l444 903h70z" />
    <glyph glyph-name="x.mon" horiz-adv-x="1378" 
d="M1364 0h-88l-588 481l-584 -481h-90l629 522l-610 506h90l565 -467l567 467h91l-611 -506z" />
    <glyph glyph-name="y.mon" horiz-adv-x="1409" 
d="M739 0h-65v465l-662 563h82l611 -510l612 510h78l-656 -563v-465z" />
    <glyph glyph-name="z.mon" horiz-adv-x="1337" 
d="M1296 0h-1269l1114 975h-1065v53h1194l-1092 -977h1118v-51z" />
    <glyph glyph-name="A.orig" horiz-adv-x="1482" 
d="M1405 0l-252 391h-823l-252 -391h-78l741 1153l744 -1153h-80zM741 1032l-385 -598h770z" />
    <glyph glyph-name="B.orig" horiz-adv-x="1595" 
d="M1497 319q0 -67 -18.5 -120t-52.5 -87t-75 -57t-94 -34.5t-100.5 -16t-103.5 -4.5h-840v1143h707q49 0 89.5 -2t89.5 -9t87 -19t76 -33.5t62.5 -50t40 -71t15.5 -94.5q0 -84 -59.5 -156t-140.5 -79q132 -6 224.5 -92.5t92.5 -217.5zM279 45h768q55 0 100 4.5t98 21.5
t89 45t60.5 79t24.5 120q0 279 -364 279h-776v-549zM918 1098h-639v-461h686q40 0 71.5 2.5t73.5 9.5t73 22.5t59 39t43 62.5t15 89q0 48 -14 86t-34 62t-54.5 41.5t-64 26.5t-73.5 13.5t-71.5 5.5t-70.5 1z" />
    <glyph glyph-name="C.orig" horiz-adv-x="1566" 
d="M176 571q0 -117 60.5 -224t162.5 -184.5t243 -123t296 -45.5q163 0 303.5 38t237.5 107v-47q-218 -139 -541 -139q-229 0 -422.5 82t-306.5 224.5t-113 311.5t112.5 312t306.5 226t423 83q312 0 541 -141v-50q-99 69 -239.5 108.5t-301.5 39.5q-207 0 -382.5 -77.5
t-277.5 -210.5t-102 -290z" />
    <glyph glyph-name="D.orig" horiz-adv-x="1775" 
d="M973 0h-760v1143h760q91 0 175 -14t162.5 -42t143.5 -75t113 -108.5t75 -146.5t27 -186q0 -120 -38.5 -217.5t-104 -162.5t-155.5 -109t-189 -63t-209 -19zM281 1098v-1053h673q102 0 189 14t171.5 50.5t144 94t96 151.5t36.5 216t-36.5 216.5t-96 152t-144 94
t-171.5 50.5t-189 14h-673z" />
    <glyph glyph-name="E.orig" horiz-adv-x="1452" 
d="M213 0v1143h1137v-45h-1065v-475h897v-45h-899v-533h1067v-45h-1137z" />
    <glyph glyph-name="F.orig" horiz-adv-x="1427" 
d="M213 0v1143h1137v-45h-1065v-475h897v-45h-899v-578h-70z" />
    <glyph glyph-name="G.orig" horiz-adv-x="1730" 
d="M1671 578q0 -45 -2 -68q-7 -122 -52 -219t-114 -159t-162.5 -103.5t-192.5 -58.5t-210 -17q-229 0 -422.5 82t-306.5 224.5t-113 311.5t112.5 312t306.5 226t423 83q312 0 541 -141v-50q-102 69 -242.5 108.5t-298.5 39.5q-207 0 -383.5 -77.5t-279.5 -210.5t-103 -290
q0 -117 61 -224t164 -184.5t244.5 -123t296.5 -45.5q103 0 199 18.5t184 60t153 103t103.5 153.5t38.5 206h-442v43h497z" />
    <glyph glyph-name="H.orig" horiz-adv-x="1794" 
d="M1511 0v598h-1232v-598h-66v1143h66v-502h1232v502h70v-1143h-70z" />
    <glyph glyph-name="I.orig" horiz-adv-x="495" 
d="M283 0h-70v1143h70v-1143z" />
    <glyph glyph-name="J.orig" horiz-adv-x="495" 
d="M66 -395q-53 0 -121 30v72q71 -33 127 -33q60 0 88.5 29.5t40.5 104t12 227.5v1108h70v-1094q0 -104 -5 -173t-18.5 -124.5t-38.5 -85.5t-62.5 -45.5t-92.5 -15.5z" />
    <glyph glyph-name="K.orig" horiz-adv-x="1390" 
d="M281 371v-371h-68v1143h68v-686l784 686h104l-419 -361l690 -782h-103l-632 735z" />
    <glyph glyph-name="L.orig" horiz-adv-x="1368" 
d="M279 1143v-1098h1044v-45h-1110v1143h66z" />
    <glyph glyph-name="M.orig" horiz-adv-x="2271" 
d="M485 995l-358 -995h-74l406 1139l676 -1033l677 1035l406 -1141h-72l-354 997l-655 -1009z" />
    <glyph glyph-name="N.orig" horiz-adv-x="1789" 
d="M279 0h-66v1151l1298 -1016v1008h66v-1147l-1298 999v-995z" />
    <glyph glyph-name="O.orig" horiz-adv-x="1878" 
d="M96 571q0 169 112.5 312t306 226t423.5 83t424 -83t307 -226t113 -312t-113 -311.5t-307 -224.5t-424 -82t-423.5 82t-306 224.5t-112.5 311.5zM176 571q0 -117 60.5 -224t162.5 -184.5t243 -123t296 -45.5t296 45.5t243.5 123t163.5 184.5t61 224q0 157 -102.5 290
t-278.5 210.5t-383 77.5t-382.5 -77.5t-277.5 -210.5t-102 -290z" />
    <glyph glyph-name="P.orig" horiz-adv-x="1406" 
d="M279 567v-567h-66v1143h713q81 0 153 -14.5t136.5 -46.5t102.5 -90.5t38 -137.5q0 -63 -25.5 -113.5t-67.5 -82.5t-99 -53t-115.5 -29.5t-122.5 -8.5h-647zM279 1098v-486h624q199 0 286 60t87 182q0 126 -86.5 185t-286.5 59h-624z" />
    <glyph glyph-name="Q.orig" horiz-adv-x="1812" 
d="M1714 571q0 -171 -93.5 -300.5t-249 -200t-355.5 -86.5l592 -342l-29 -48l-539 314q-75 45 -174 72q-162 5 -301 45.5t-243.5 113.5t-164 184t-59.5 248q0 112 41 207.5t114.5 165.5t174.5 120t222 74.5t255 24.5t254.5 -24.5t222 -73.5t175.5 -119t115.5 -166t41.5 -209
zM1645 571q0 131 -58 234.5t-159.5 167.5t-234.5 97.5t-288 33.5t-287.5 -33.5t-233.5 -97.5t-158.5 -167.5t-57.5 -234.5t57.5 -234t158.5 -167.5t233.5 -97.5t287.5 -33q156 0 288.5 33t234 97.5t159.5 167.5t58 234z" />
    <glyph glyph-name="R.orig" horiz-adv-x="1462" 
d="M279 567v-567h-66v1143h715q81 0 152.5 -14.5t136 -46.5t102 -90.5t37.5 -137.5t-52.5 -141t-130 -97t-178.5 -55l365 -561h-72l-360 567h-649zM279 1098v-486h626q198 0 285.5 60t87.5 182q0 125 -87 184.5t-286 59.5h-626z" />
    <glyph glyph-name="S.orig" horiz-adv-x="1347" 
d="M1286 285q0 -88 -51 -154t-139.5 -104t-193 -56t-224.5 -18q-171 0 -318.5 29t-232.5 81v56q104 -55 254 -90t301 -35q232 0 379 82t147 190q0 65 -38 112.5t-102.5 75t-148 47t-176 33.5t-185 29t-176 39t-148 58.5t-102.5 92t-38 134.5q0 74 49.5 132t132 92.5
t180.5 52.5t203 18q146 0 282 -24t212 -66v-58q-204 103 -518 103q-49 0 -104 -6.5t-120.5 -24.5t-116.5 -45t-85.5 -73t-34.5 -103q0 -83 61.5 -140t159.5 -86.5t216.5 -50.5t237 -42.5t216.5 -51.5t159.5 -87.5t61.5 -141.5z" />
    <glyph glyph-name="T.orig" horiz-adv-x="1404" 
d="M670 1098h-647v45h1359v-45h-645v-1098h-67v1098z" />
    <glyph glyph-name="U.orig" horiz-adv-x="1638" 
d="M1384 547v596h68v-625q0 -142 -54 -253.5t-145 -178t-201 -100t-231 -33.5q-97 0 -187.5 20.5t-172.5 65t-143 109.5t-96.5 160t-35.5 210v625h70v-596q0 -135 48.5 -243t129 -174t180 -101t207.5 -35t207 35t179.5 101t128.5 174t48 243z" />
    <glyph glyph-name="V.orig" horiz-adv-x="1484" 
d="M76 1143l665 -1032l668 1032h76l-744 -1155l-741 1155h76z" />
    <glyph glyph-name="W.orig" horiz-adv-x="2154" 
d="M1077 1128l469 -974l518 989h72l-582 -1135l-477 973l-473 -975l-586 1137h72l518 -987z" />
    <glyph glyph-name="X.orig" horiz-adv-x="1286" 
d="M1262 1143l-574 -561l574 -582h-82l-535 539l-536 -539h-82l573 582l-575 561h94l526 -514l524 514h93z" />
    <glyph glyph-name="Y.orig" horiz-adv-x="1359" 
d="M96 1143l584 -563l582 563h94l-643 -627v-516h-66v516l-641 627h90z" />
    <glyph glyph-name="Z.orig" horiz-adv-x="1351" 
d="M63 1143h1190l-1077 -1098h1155v-45h-1296l1081 1098h-1053v45z" />
    <glyph glyph-name="a.orig" horiz-adv-x="1345" 
d="M1270 0l-230 352h-739l-225 -352h-72l670 1038l667 -1038h-71zM674 926l-344 -535h686z" />
    <glyph glyph-name="b.orig" horiz-adv-x="1443" 
d="M1356 289q0 -59 -24.5 -108t-65 -82t-93.5 -55.5t-109 -33t-112 -10.5h-753v1028h637q413 0 413 -254q0 -66 -46.5 -124.5t-110.5 -82.5q105 -9 184.5 -99.5t79.5 -178.5zM262 43h686q46 0 88.5 6t88 22.5t79 42.5t55 70t21.5 101q0 56 -19.5 100t-51 71t-75.5 45
t-87.5 24.5t-92.5 6.5h-692v-489zM834 983h-572v-410h612q300 0 300 199q0 43 -12.5 77t-30.5 55.5t-49 37t-57 23.5t-65.5 12.5t-63.5 5t-62 0.5z" />
    </font>
</defs>
</svg>
