<svg width="50" height="50" viewBox="0 0 50 50" fill="none" xmlns="http://www.w3.org/2000/svg">
<rect x="0.5" y="0.5" width="49" height="49" rx="24.5" fill="#FF81C9"/>
<rect x="0.5" y="0.5" width="49" height="49" rx="24.5" stroke="#FF81C9"/>
<path fill-rule="evenodd" clip-rule="evenodd" d="M30.3283 10.9932C29.893 10.9458 29.1116 10.9486 28.7327 10.999C28.615 11.0146 28.292 11.0783 28.0149 11.1407C27.0311 11.3619 26.3787 11.6583 25.4139 12.3225C25.1258 12.5209 25.0299 12.5979 24.8274 12.7932C24.7897 12.8296 24.7474 12.8658 24.7333 12.8738C24.6805 12.9036 24.3671 13.2297 24.1622 13.468C23.5108 14.2255 23.0309 15.0662 22.4136 16.5309C22.3919 16.5825 22.3396 16.7188 22.2975 16.8338C22.2554 16.9487 22.2017 17.094 22.1783 17.1566C22.1548 17.2192 22.0894 17.4051 22.0329 17.5697C21.9672 17.7615 21.91 17.8716 21.8738 17.8762C21.8427 17.8802 21.6502 17.7827 21.4458 17.6595C20.8597 17.3062 19.9173 16.8255 19.4836 16.6587C19.4003 16.6266 19.2983 16.5864 19.2569 16.5693C19.16 16.5292 18.5805 16.3099 18.2146 16.1748C17.4157 15.88 15.4532 15.4171 14.372 15.2686C14.1659 15.2403 13.8715 15.1978 13.7179 15.1741C13.3312 15.1146 13.1436 15.1238 13.0488 15.2071C12.9426 15.3003 12.9235 15.3917 12.9562 15.6502C12.9877 15.8995 13.2183 16.8932 13.2609 16.9633C13.2769 16.9897 13.2851 17.0315 13.279 17.0563C13.2655 17.1116 13.7067 18.5659 13.7831 18.7178C13.7988 18.7491 13.8094 18.7845 13.8065 18.7964C13.7978 18.8318 13.9848 19.2956 14.0169 19.3183C14.0332 19.3299 14.0412 19.3611 14.0348 19.3877C14.0283 19.4143 14.0636 19.5192 14.1133 19.6208C14.1629 19.7225 14.2566 19.9304 14.3214 20.0828C14.3861 20.2353 14.4515 20.3858 14.4665 20.4174C14.4816 20.449 14.5179 20.5293 14.5472 20.5959C14.5765 20.6625 14.6388 20.7889 14.6856 20.8769C14.7325 20.9649 14.834 21.1594 14.9113 21.3092C15.1084 21.6913 15.6581 22.5941 15.9289 22.9804C16.0541 23.159 16.1779 23.3383 16.2041 23.3789C16.2303 23.4194 16.3779 23.6222 16.5321 23.8294C16.6864 24.0367 16.8522 24.2681 16.9007 24.3438C16.9492 24.4195 17.0012 24.4844 17.0163 24.4881C17.0809 24.5039 17.0561 24.6267 16.987 24.6338C16.9465 24.6379 16.8207 24.6774 16.7075 24.7216C16.4986 24.803 15.6984 25.0359 15.6598 25.0264C15.6482 25.0236 15.5169 25.045 15.368 25.0739C14.8823 25.1681 14.756 25.1873 14.3908 25.2217C13.9015 25.2678 13.1337 25.2855 12.8084 25.2581C12.7303 25.2516 12.5104 25.2367 12.3196 25.2251C11.5807 25.1802 10.2075 24.8732 9.14961 24.5164C8.23491 24.2079 8.06373 24.239 8.14063 24.6993C8.16479 24.8441 8.26153 25.0472 8.45219 25.3535C8.78813 25.8933 9.02119 26.2422 9.18255 26.4469C9.24926 26.5315 9.31907 26.6231 9.3377 26.6504C9.57356 26.9963 9.9143 27.4276 10.2092 27.7534C10.2488 27.7973 10.355 27.9225 10.4451 28.0316C10.5351 28.1407 10.6776 28.2957 10.7615 28.376C10.8455 28.4563 10.9206 28.534 10.9285 28.5486C10.9474 28.5838 11.1925 28.8403 11.2583 28.8936C11.2868 28.9167 11.416 29.0362 11.5454 29.159C11.6748 29.2819 11.8504 29.4407 11.9355 29.5118C12.0206 29.583 12.0963 29.6543 12.1038 29.6703C12.1232 29.7116 12.7921 30.2474 12.8383 30.2587C12.8594 30.2638 12.9251 30.3106 12.9843 30.3626C13.2103 30.5611 13.2752 30.6087 13.6745 30.8687C14.1074 31.1506 14.9607 31.666 15.1179 31.7406C15.1689 31.7648 15.2848 31.8242 15.3755 31.8726C15.6207 32.0034 15.6672 32.0258 15.9128 32.131C16.0365 32.1841 16.1954 32.2581 16.266 32.2956C16.405 32.3693 16.4988 32.4086 16.9611 32.5859C17.9862 32.9793 18.3701 33.0978 19.5738 33.3928C20.6688 33.6612 20.7376 33.6825 20.6965 33.7405C20.6725 33.7744 20.6033 33.902 20.5428 34.0238C20.4403 34.2302 20.0668 34.9087 19.9198 35.1554C19.8843 35.215 19.7911 35.3972 19.7128 35.5603C19.4627 36.0808 19.2311 36.3126 18.6703 36.6035C18.1788 36.8584 17.524 37.2682 17.4015 37.3975C17.1002 37.7156 17.1002 38.1976 17.4014 38.4992C17.697 38.7951 18.1283 38.7933 18.6642 38.4938C18.8216 38.4058 18.9667 38.3441 18.9865 38.3565C19.0064 38.369 19.0206 38.4338 19.018 38.5005C19.0111 38.6834 19.087 39.2461 19.1339 39.3594C19.2076 39.5378 19.3401 39.632 19.6212 39.7062C19.9741 39.7993 20.1579 39.7401 20.3735 39.4637C20.4574 39.3561 20.5365 39.2263 20.5492 39.1754C20.5619 39.1244 20.5988 39.0206 20.6311 38.9446C20.6869 38.8141 20.695 38.8101 20.7821 38.8701C20.8328 38.9049 20.8938 38.9598 20.9178 38.9922C21.0561 39.1784 21.4644 39.3239 21.6975 39.2698C21.8676 39.2304 22.0979 39.1053 22.1128 39.0442C22.1188 39.0197 22.1723 38.9722 22.2317 38.9386L22.3398 38.8774L22.2968 39.0611C22.2065 39.4475 22.4099 39.82 22.7882 39.9613C22.9544 40.0234 23.0226 40.0268 23.2175 39.9829C23.4341 39.9342 23.7165 39.7477 23.7687 39.6192C23.7797 39.592 23.8265 39.5344 23.8729 39.491C23.9563 39.413 24.0609 39.2658 24.0815 39.1976C24.1134 39.0919 24.1964 39.1875 24.293 39.4413C24.4497 39.8528 24.5018 39.9391 24.6716 40.0679C24.8754 40.2224 25.0041 40.2472 25.3049 40.1897C25.7566 40.1033 25.945 39.8189 25.9122 39.273C25.9027 39.1154 25.8966 38.9793 25.8987 38.9707C25.9008 38.962 26.0492 38.9937 26.2284 39.041C26.7258 39.1723 27.026 39.0778 27.2628 38.7153C27.52 38.3216 27.322 37.7408 26.8662 37.552C26.8145 37.5305 26.6711 37.4693 26.5475 37.416C26.4239 37.3626 26.213 37.2724 26.0788 37.2156C25.9447 37.1587 25.7177 37.0614 25.5744 36.9993L25.3138 36.8864L25.3564 36.3999C25.3797 36.1324 25.4232 35.6213 25.4529 35.2641C25.5518 34.0764 25.5833 33.7836 25.6175 33.7343C25.6361 33.7074 25.7239 33.68 25.8125 33.6734C25.9011 33.6669 26.0611 33.6462 26.1682 33.6276C26.2752 33.6089 26.4592 33.5772 26.577 33.5571C26.9756 33.4891 28.126 33.2135 28.3903 33.1226C28.862 32.9604 29.4704 32.73 29.5652 32.6776C29.6162 32.6494 29.6715 32.6297 29.688 32.6337C29.7233 32.6423 30.2277 32.3968 30.745 32.1193C31.1631 31.8951 32.1192 31.2551 32.4209 30.9977C32.4784 30.9486 32.5957 30.8499 32.6815 30.7784C32.9607 30.5455 33.2868 30.2495 33.2932 30.223C33.2967 30.2088 33.368 30.136 33.4515 30.0612C33.6625 29.8724 34.39 29.0304 34.6532 28.6702C34.7733 28.506 34.9073 28.3244 34.9511 28.2668C35.4627 27.5929 36.3365 25.9597 36.6265 25.1356C36.6744 24.9993 36.7977 24.6567 36.9004 24.3743C37.0824 23.8739 37.6203 21.7893 37.6461 21.4846C37.6524 21.4106 37.6796 21.2158 37.7066 21.0516C37.7336 20.8874 37.7737 20.6084 37.7956 20.4315C37.8176 20.2547 37.8622 19.9535 37.8947 19.7622L37.9538 19.4143L38.0649 19.4409C39.327 19.7434 39.7137 19.8137 39.9412 19.7824C40.0705 19.7645 40.1809 19.751 40.1866 19.7524C40.1922 19.7538 40.2103 19.6977 40.2266 19.6276C40.2587 19.4905 40.2228 19.3761 40.1342 19.3326C40.1038 19.3177 40.0567 19.2731 40.0297 19.2334C40.0027 19.1937 39.9492 19.1455 39.911 19.1261C39.8278 19.0842 39.0536 18.5624 38.7056 18.3137C38.5696 18.2166 38.3956 18.1087 38.319 18.074C38.2424 18.0394 38.1829 17.9978 38.1868 17.9817C38.1963 17.9429 38.4332 17.7298 38.558 17.6479C38.6124 17.6121 38.6601 17.5698 38.664 17.5539C38.6678 17.538 38.699 17.5072 38.7333 17.4855C38.7676 17.4638 38.9126 17.3441 39.0555 17.2196C39.1985 17.0951 39.3552 16.9668 39.4037 16.9345C39.4523 16.9022 39.4952 16.8628 39.4991 16.8469C39.503 16.831 39.534 16.8001 39.5681 16.7784C39.6022 16.7566 39.6705 16.7021 39.7199 16.6572C39.7692 16.6123 39.928 16.4741 40.0726 16.3499C40.2171 16.2258 40.3784 16.0695 40.4308 16.0027C40.5587 15.8396 40.6515 15.5727 40.5989 15.5191C40.5191 15.4377 40.2012 15.3643 40.0169 15.3847C39.9143 15.3961 39.6775 15.421 39.4906 15.4401C39.154 15.4744 38.9277 15.5057 38.6764 15.5528C38.0589 15.6686 37.8022 15.6997 37.6327 15.6789C37.4633 15.6583 37.4148 15.6336 37.2921 15.5064C37.2135 15.4248 37.1149 15.2726 37.0731 15.168C37.0314 15.0635 36.9612 14.9322 36.9173 14.8763C36.8734 14.8203 36.7916 14.7025 36.7357 14.6145C36.6796 14.5265 36.6233 14.4518 36.6105 14.4486C36.5977 14.4453 36.5463 14.3815 36.4962 14.3067C36.3369 14.0685 35.4873 13.1967 35.2335 13.0108C35.1589 12.9562 35.035 12.8623 34.9583 12.8023C34.8006 12.6789 33.9685 12.1508 33.8348 12.0892C33.7866 12.067 33.637 11.9929 33.5023 11.9246C33.1569 11.7496 33.1273 11.7359 32.957 11.6741C32.8733 11.6437 32.651 11.5619 32.4631 11.4923C31.9934 11.3185 30.8407 11.0489 30.3283 10.9932ZM30.7863 11.7458C29.8684 11.6692 29.4827 11.6508 29.1695 11.6688C28.9732 11.6801 28.7858 11.6879 28.7531 11.6861C28.7203 11.6843 28.6534 11.6912 28.6043 11.7016C28.5553 11.7119 28.3439 11.7546 28.1346 11.7965C27.3811 11.9474 26.8113 12.1772 26.1707 12.5889C25.666 12.9131 25.5351 13.0169 25.0788 13.455C24.8756 13.6501 24.5105 14.0742 24.3719 14.2762C24.1203 14.6427 23.8059 15.1205 23.7772 15.1798C23.7592 15.2171 23.7284 15.2748 23.7088 15.308C23.6892 15.3412 23.6482 15.426 23.6178 15.4964C23.5875 15.5668 23.5527 15.6341 23.5406 15.6461C23.5284 15.658 23.5003 15.7086 23.478 15.7585C23.4557 15.8084 23.4017 15.915 23.358 15.9954C23.2923 16.1165 23.0525 16.7174 22.7558 17.5047C22.64 17.8119 22.2066 19.3339 21.9961 20.1723C21.8521 20.7463 21.7897 20.9235 21.552 21.4342C21.4285 21.6995 21.0798 22.2952 20.937 22.4848C20.8935 22.5426 20.8544 22.5982 20.8499 22.6086C20.8208 22.6766 20.2067 23.3624 20.1806 23.356C20.1629 23.3517 20.1435 23.3679 20.1376 23.392C20.1283 23.43 19.7313 23.793 19.5801 23.9017C19.5513 23.9224 19.4702 23.9844 19.3998 24.0394C19.1065 24.2688 18.3401 24.7699 18.2983 24.7597C18.2798 24.7552 18.2209 24.786 18.1671 24.8281C18.1134 24.8702 17.9611 24.9489 17.8287 25.0029C17.6962 25.0569 17.5765 25.1092 17.5628 25.119C17.549 25.1289 17.4657 25.1646 17.3778 25.1983C17.2898 25.2321 17.1798 25.2806 17.1333 25.3061C17.0563 25.3483 16.8343 25.4216 16.2536 25.5964C16.0147 25.6683 15.3373 25.8123 15.0003 25.8629C14.8972 25.8784 14.1602 25.9477 14.1315 25.9446C14.1204 25.9435 14.0924 25.9436 14.0693 25.9449C13.8308 25.9582 13.5028 25.9619 13.4049 25.9524C13.3382 25.9459 13.2357 25.946 13.1772 25.9526C13.0585 25.9659 12.5078 25.9242 11.8965 25.8556C11.6332 25.8261 11.1048 25.7124 10.3721 25.5278C9.4303 25.2905 9.24848 25.254 9.23721 25.3002C9.22982 25.3304 9.3662 25.554 9.54031 25.797C9.71438 26.0401 9.87162 26.2611 9.8897 26.2883C9.90778 26.3155 9.96278 26.3848 10.012 26.4424C10.0611 26.4999 10.1179 26.5726 10.1381 26.6038C10.1583 26.635 10.3033 26.8148 10.4603 27.0034C10.6174 27.1919 10.8335 27.4514 10.9405 27.5801C11.0476 27.7087 11.1558 27.8189 11.1809 27.8251C11.2061 27.8312 11.2223 27.8538 11.2171 27.8753C11.2118 27.8968 11.2312 27.9202 11.26 27.9272C11.289 27.9343 11.3529 27.9963 11.4021 28.065C11.4886 28.1858 11.5539 28.2494 12.1818 28.8239C12.7047 29.3022 13.4265 29.8907 13.7172 30.0758C13.8083 30.1337 13.9095 30.206 13.9422 30.2365C14.0404 30.3279 14.798 30.8031 15.2264 31.0419C15.9047 31.4202 16.8921 31.8758 17.4576 32.0715C17.6037 32.122 17.7574 32.1794 17.7991 32.199C17.9697 32.279 18.4894 32.4336 19.1519 32.6013C20.1344 32.8501 20.1219 32.8538 20.4872 32.2091C20.5949 32.019 20.7068 31.8321 20.7359 31.7936C20.765 31.7552 20.8423 31.6343 20.9078 31.525C21.0416 31.3015 21.4073 30.7695 21.5902 30.5323C21.6567 30.446 21.7341 30.3438 21.7624 30.3052C21.7906 30.2665 21.9409 30.0796 22.0965 29.8899C22.3509 29.5797 22.5217 29.3892 22.8733 29.0237C22.9354 28.9591 23.0144 28.8759 23.0488 28.8388C23.0832 28.8017 23.2369 28.6561 23.3904 28.5155C23.5438 28.3748 23.6734 28.2433 23.6783 28.2234C23.6831 28.2035 23.7017 28.1908 23.7196 28.1952C23.7375 28.1995 23.8344 28.1253 23.935 28.0304C24.0355 27.9353 24.1524 27.8319 24.1947 27.8005C24.3899 27.6554 24.4287 27.6249 24.5032 27.5583C24.5469 27.5192 24.6166 27.4626 24.6581 27.4326C25.3378 26.9404 25.6962 26.7045 26.3303 26.3323C27.0266 25.9236 27.2767 25.788 27.8389 25.5145C28.0716 25.4012 28.356 25.2669 28.4707 25.2161C28.5854 25.1652 28.6885 25.1112 28.6998 25.096C28.7112 25.0809 28.7438 25.0742 28.7725 25.0812C28.8011 25.0882 28.8339 25.0811 28.8454 25.0654C28.8799 25.0179 30.4109 24.4047 30.463 24.4174C30.4993 24.4263 30.8672 24.2935 30.8907 24.263C30.9019 24.2487 30.9253 24.2404 30.9428 24.2447C30.9604 24.249 31.1035 24.2097 31.2609 24.1574C31.4183 24.105 31.6147 24.0498 31.6972 24.0346C31.7798 24.0194 31.8803 23.9892 31.9206 23.9676C31.9609 23.9459 32.372 23.8421 32.834 23.7369C33.8795 23.499 34.9874 23.3146 35.9564 23.2174C36.4318 23.1697 36.5452 23.1237 36.6209 22.9479C36.656 22.8665 36.6922 22.7295 36.7014 22.6436C36.7208 22.4636 36.7871 22.0695 36.8982 21.4753C36.9831 21.0215 37.23 19.4041 37.2394 19.2399C37.2427 19.1837 37.2523 19.0667 37.2608 18.9798C37.2873 18.7079 37.2946 17.9111 37.2713 17.83C37.259 17.7875 37.2569 17.7202 37.2666 17.6805C37.2763 17.6408 37.2743 17.5919 37.2621 17.5719C37.2499 17.5518 37.2425 17.5236 37.2457 17.5092C37.257 17.458 37.0987 16.7799 37.0233 16.5568C36.9317 16.2851 36.7233 15.8947 36.3983 15.386C36.0186 14.7914 35.8883 14.606 35.8413 14.5933C35.8172 14.5868 35.7829 14.5516 35.7651 14.515C35.6728 14.3255 34.6146 13.2989 34.477 13.2653C34.4655 13.2625 34.3736 13.1954 34.2728 13.116C34.1719 13.0368 33.9178 12.873 33.7082 12.7522C33.3627 12.553 33.1677 12.4582 32.7319 12.2776C32.6517 12.2444 32.5509 12.1995 32.5078 12.1778C32.3507 12.0987 31.023 11.7656 30.7863 11.7458ZM34.7384 14.8626C34.4767 14.8971 34.2664 15.0064 34.1272 15.1802C33.8768 15.4929 33.8327 15.8868 34.0136 16.1947C34.2691 16.6294 34.7328 16.7854 35.1713 16.584C35.4978 16.4342 35.6948 16.1363 35.6985 15.7874C35.7028 15.3705 35.45 15.0302 35.0495 14.9138C34.9296 14.8789 34.7896 14.8559 34.7384 14.8626ZM39.1229 16.1829C39.0863 16.1928 38.9221 16.2171 38.7578 16.2367C38.5936 16.2563 38.4009 16.2826 38.3296 16.295C38.2582 16.3074 38.0988 16.325 37.9754 16.3341C37.852 16.3432 37.738 16.3696 37.722 16.3926C37.685 16.446 37.884 17.2538 37.9341 17.2533C37.9546 17.2531 38.1174 17.1283 38.2957 16.9761C38.4741 16.8238 38.6437 16.6825 38.6726 16.662C38.7015 16.6416 38.7275 16.6153 38.7303 16.6037C38.7332 16.5921 38.8433 16.497 38.975 16.3924C39.212 16.2043 39.2519 16.1477 39.1229 16.1829ZM15.1118 16.079C14.0521 15.8797 13.7583 15.837 13.6984 15.8734C13.6829 15.8828 13.6852 15.9352 13.7033 15.9898C13.7214 16.0444 13.7627 16.2074 13.7949 16.3519C13.8273 16.4964 13.8627 16.6262 13.8736 16.6403C13.8846 16.6543 13.905 16.7152 13.919 16.7756C13.9468 16.8955 13.9784 17.0049 14.1087 17.4314C14.1562 17.5868 14.1927 17.7234 14.1899 17.7348C14.1871 17.7463 14.2487 17.9328 14.3268 18.1492C14.4049 18.3657 14.4727 18.5649 14.4775 18.592C14.4822 18.6191 14.5128 18.7017 14.5453 18.7755C14.5778 18.8493 14.6558 19.0434 14.7185 19.2067C14.9726 19.8679 15.0438 20.0327 15.3083 20.573C15.6955 21.3641 16.6774 22.9677 16.9317 23.2245C16.9758 23.269 17.0085 23.3189 17.0045 23.3355C17.0005 23.3519 17.0155 23.3699 17.0379 23.3754C17.0603 23.3809 17.0957 23.4075 17.1166 23.4346C17.1375 23.4617 17.2039 23.5491 17.2641 23.6288C17.4642 23.8936 17.7553 24.2131 17.8083 24.226C17.8735 24.2419 18.746 23.7117 18.9915 23.5069C19.0916 23.4235 19.1968 23.3383 19.2252 23.3177C19.3316 23.2406 19.7979 22.792 19.8803 22.6875C19.9274 22.6278 20.0102 22.5339 20.0643 22.4788C20.1754 22.3658 20.6564 21.6845 20.7251 21.5429C20.7498 21.492 20.7874 21.4173 20.8086 21.3769C21.201 20.6324 21.5123 19.681 21.5901 18.9885C21.6359 18.5806 21.5674 18.4889 20.9635 18.1507C20.3261 17.7937 19.7609 17.5114 19.3197 17.3296C19.1128 17.2444 18.9095 17.1588 18.8679 17.1394C18.8263 17.1199 18.6904 17.0659 18.5659 17.0193C18.4414 16.9728 18.2884 16.9154 18.2258 16.8918C18.079 16.8365 16.1744 16.3064 15.8414 16.2282C15.7014 16.1953 15.3731 16.1281 15.1118 16.079ZM36.1257 23.8794C36.0212 23.8877 35.9169 23.8953 35.8938 23.8965C35.8708 23.8976 35.7971 23.9068 35.7301 23.9169C35.6631 23.927 35.5103 23.9423 35.3905 23.951C35.2708 23.9597 35.1228 23.984 35.0617 24.005C35.0007 24.026 34.9513 24.0375 34.952 24.0305C34.9538 24.0122 34.8163 24.0276 34.567 24.0736C34.4477 24.0956 34.1941 24.1423 34.0033 24.1774C33.5329 24.264 32.4605 24.5193 32.3021 24.5825C32.2314 24.6106 32.1768 24.6192 32.1808 24.6015C32.1847 24.5839 32.1706 24.5848 32.1493 24.6035C32.1279 24.6223 32.0417 24.6513 31.9575 24.6679C31.8734 24.6846 31.7271 24.7271 31.6324 24.7624C31.5378 24.7977 31.4435 24.8224 31.423 24.8174C31.4024 24.8124 31.3813 24.8259 31.3761 24.8474C31.3708 24.8689 31.348 24.8819 31.3254 24.8764C31.3028 24.8709 31.1478 24.9141 30.981 24.9724C30.8143 25.0308 30.6283 25.0906 30.5677 25.1055C30.5072 25.1203 30.4462 25.1412 30.4322 25.1519C30.4182 25.1626 30.1815 25.2543 29.9063 25.3557C29.631 25.457 29.3091 25.5877 29.1909 25.646C29.0727 25.7043 28.9566 25.7473 28.933 25.7415C28.9093 25.7357 28.8808 25.7427 28.8697 25.7571C28.8586 25.7715 28.7555 25.8247 28.6407 25.8753C27.7318 26.2761 26.1163 27.206 25.461 27.7055C25.3631 27.7802 25.2601 27.8568 25.2322 27.8758C25.0925 27.9707 24.5517 28.3978 24.4259 28.5125C24.3471 28.5844 24.2124 28.7006 24.1265 28.7707C24.0407 28.8408 23.9522 28.9217 23.9299 28.9504C23.9076 28.9791 23.7868 29.0987 23.6614 29.2161C23.1739 29.6723 21.8641 31.2186 21.7514 31.471C21.7402 31.4961 21.7158 31.5259 21.6972 31.5372C21.6786 31.5485 21.6572 31.5829 21.6497 31.6137C21.6422 31.6445 21.5969 31.7188 21.549 31.7789C21.3781 31.9934 20.9247 32.7534 20.8827 32.8957C20.871 32.9352 21.1698 33.0032 21.3716 33.0069C21.4623 33.0086 21.6094 33.0167 21.6985 33.0249C22.2249 33.0736 23.6616 33.1329 24.1376 33.1256C24.5899 33.1186 25.7214 33.0325 26.0004 32.9839C26.1038 32.9658 26.3434 32.9268 26.5329 32.8971C28.2274 32.6317 30.1349 31.8501 31.5261 30.8512C31.6772 30.7426 31.8245 30.6388 31.8533 30.6205C32.0107 30.5205 32.6843 29.9275 33.0172 29.5958C33.6656 28.9497 34.4269 27.9678 34.8257 27.2631C34.9333 27.073 35.044 26.8858 35.0717 26.847C35.1233 26.7748 35.2002 26.6275 35.2731 26.4614C35.2956 26.41 35.3426 26.319 35.3775 26.2591C35.5735 25.9231 36.0693 24.7347 36.33 23.9762C36.3712 23.8563 36.378 23.8595 36.1257 23.8794ZM24.6951 33.868C24.6238 34.109 24.5752 34.4892 24.5067 35.3436C24.4861 35.6005 24.4524 35.9277 24.4319 36.0707C24.4114 36.2137 24.3935 36.4143 24.3921 36.5165C24.3907 36.6186 24.3489 36.8786 24.2993 37.0942C24.2288 37.4005 24.185 37.5165 24.0988 37.6249C24.0381 37.7012 23.8981 37.8764 23.7876 38.0143C23.6771 38.1521 23.584 38.2757 23.5808 38.2888C23.5739 38.3173 23.4408 38.4911 23.2087 38.7747C23.0388 38.9825 22.9404 39.2261 23.0188 39.2452C23.1278 39.2718 23.2327 39.1927 23.4413 38.9267C23.5659 38.7677 23.7057 38.5957 23.7519 38.5443C23.7981 38.4929 23.8527 38.4141 23.8733 38.3693C23.9414 38.2206 24.1921 38.0629 24.3295 38.0823C24.4313 38.0967 24.4786 38.1366 24.5712 38.2863C24.6345 38.3886 24.7129 38.572 24.7455 38.6938C24.7781 38.8156 24.8288 38.9596 24.8583 39.0138C24.8877 39.068 24.9087 39.1252 24.9048 39.1408C24.901 39.1565 24.9109 39.1949 24.9268 39.2263C24.9427 39.2577 24.97 39.3176 24.9875 39.3594C25.0049 39.4012 25.054 39.4557 25.0966 39.4805C25.1581 39.5163 25.1839 39.5067 25.2225 39.4335C25.259 39.3643 25.2495 39.2872 25.184 39.1226C25.0654 38.8247 24.9617 38.4331 24.9757 38.3359C25.0118 38.0845 25.0555 38.0136 25.187 37.9934C25.3088 37.9745 25.6845 38.0744 25.9628 38.1996C26.1917 38.3025 26.3712 38.3566 26.5195 38.3673L26.6796 38.3788L26.5806 38.2435C26.5177 38.1576 26.4161 38.0827 26.3021 38.0384C26.2034 38.0001 26.0387 37.9311 25.936 37.8852C25.8334 37.8394 25.69 37.7777 25.6175 37.7483C25.545 37.7188 25.3843 37.6521 25.2603 37.6001C25.1364 37.548 24.9735 37.4798 24.8983 37.4484C24.7298 37.3782 24.6048 37.182 24.6206 37.0127C24.6271 36.9429 24.65 36.6943 24.6714 36.4604C24.6929 36.2266 24.7191 35.9628 24.7297 35.8743C24.7404 35.7859 24.7582 35.5666 24.7694 35.3871C24.7806 35.2077 24.8015 34.9612 24.8158 34.8394C24.83 34.7176 24.8425 34.5903 24.8434 34.5563C24.8443 34.5224 24.8515 34.4217 24.8594 34.3325C24.8954 33.9229 24.8821 33.7791 24.8065 33.7606C24.7501 33.7468 24.7234 33.7725 24.6951 33.868ZM23.6394 33.8094C23.4899 33.8152 23.2659 33.8063 23.1415 33.7896C22.8142 33.7455 22.5881 33.8359 22.3906 34.0897C22.3039 34.201 22.2151 34.3295 22.1932 34.3753C22.1712 34.421 22.1146 34.5422 22.0674 34.6445C21.9834 34.8266 21.855 35.0635 21.5023 35.6866C21.406 35.8567 21.2557 36.1275 21.1683 36.2883C21.0809 36.4492 20.9953 36.6053 20.9782 36.6353C20.9487 36.6867 21.2243 37.0266 21.3131 37.0483C21.3333 37.0532 21.3675 37.0856 21.3892 37.1202C21.4108 37.1548 21.4887 37.2419 21.5623 37.3137C22.0727 37.8124 22.2903 38.1184 22.3596 38.4349C22.3879 38.5644 22.406 38.6952 22.3996 38.7255C22.3864 38.7889 22.7127 38.4237 22.7586 38.3237C22.7753 38.2873 22.8497 38.1791 22.9239 38.0834C23.0442 37.9282 23.4416 37.3726 23.466 37.3255C23.4712 37.3154 23.5103 37.2597 23.5529 37.2018C23.6534 37.065 23.6861 36.846 23.8093 35.4839C23.8214 35.3502 23.8427 35.1505 23.8567 35.04C23.8784 34.8674 23.9181 34.4652 23.9405 34.191C23.9612 33.9377 23.96 33.8028 23.937 33.801C23.9227 33.7998 23.7888 33.8036 23.6394 33.8094ZM21.5105 33.7529C21.4604 33.7918 21.3324 33.9855 21.2665 34.122C21.2264 34.2052 20.9636 34.6696 20.8261 34.9004C20.7728 34.9899 20.6554 35.2035 20.5651 35.375C19.8902 36.6577 19.7442 36.8288 19.0187 37.1864C18.9457 37.2224 18.6739 37.3762 18.4147 37.5282C18.0621 37.735 17.9374 37.8296 17.9193 37.9039C17.8977 37.9926 17.9072 38.0031 18.009 38.0029C18.0716 38.0028 18.1874 37.9674 18.2663 37.9243C18.3451 37.8812 18.58 37.7523 18.7881 37.638C19.2163 37.4029 19.3777 37.3519 19.5226 37.4057C19.6531 37.4542 19.7362 37.6795 19.7263 37.9574C19.7221 38.0745 19.7172 38.2165 19.7152 38.273C19.7133 38.3295 19.7065 38.4769 19.7 38.6005C19.6877 38.8337 19.7296 39.0218 19.7974 39.0384C19.8908 39.0612 19.9669 38.86 19.9714 38.579C19.9774 38.2028 20.0804 37.7884 20.1924 37.6901C20.2643 37.627 20.3024 37.6237 20.4221 37.6705C20.5624 37.7254 20.9538 38.0108 20.981 38.078C21.0209 38.1767 21.3605 38.4787 21.4774 38.5195C21.601 38.5627 21.6123 38.5589 21.6091 38.4747C21.6048 38.3639 21.4576 38.1454 21.3019 38.0189C21.2396 37.9682 21.1713 37.899 21.1501 37.8651C21.1288 37.8311 20.9374 37.6333 20.7246 37.4256C20.2943 37.0054 20.2063 36.847 20.2663 36.601C20.3067 36.4357 20.3577 36.3384 21.0047 35.1925C21.0216 35.1625 21.1202 34.9816 21.2239 34.7905C21.546 34.1967 21.6902 33.9349 21.7417 33.8508C21.7856 33.7792 21.7779 33.7664 21.6763 33.7416C21.613 33.7262 21.5384 33.7313 21.5105 33.7529Z" fill="white"/>
</svg>
