<?xml version="1.0" encoding="utf-8"?>
<!-- Generator: Adobe Illustrator 16.0.0, SVG Export Plug-In . SVG Version: 6.00 Build 0)  -->
<!DOCTYPE svg PUBLIC "-//W3C//DTD SVG 1.1//EN" "http://www.w3.org/Graphics/SVG/1.1/DTD/svg11.dtd">
<svg version="1.1" id="Layer_1" xmlns="http://www.w3.org/2000/svg" xmlns:xlink="http://www.w3.org/1999/xlink" x="0px" y="0px"
	 width="219.5px" height="145px" viewBox="0 0 219.5 145" enable-background="new 0 0 219.5 145" xml:space="preserve">
<g>
	<path fill="#FFFFFF" d="M133.447,64.301h13.264c0.167,0,0.316,0.1,0.382,0.252c0.065,0.154,0.033,0.33-0.081,0.45
		c-0.145,0.151-12.928,13.492-28.811,30.163c15.623-13.609,38.083-32.636,42.643-36.495l-22.22-0.729
		c-0.151-0.005-0.287-0.092-0.356-0.227c-0.067-0.135-0.059-0.296,0.025-0.422c0.126-0.186,11.834-17.535,22.708-34.171
		c-13.024,13.556-25.257,26.279-26.087,27.144l-3.076,6.258L133.447,64.301L133.447,64.301z M111.502,102.018
		c-0.109,0-0.218-0.043-0.299-0.127c-0.155-0.162-0.155-0.414-0.002-0.576c16.563-17.405,31.27-32.771,34.537-36.184h-12.629
		c-0.195,0-0.365-0.138-0.405-0.331l-1.708-8.248c-0.02-0.091-0.008-0.184,0.033-0.267l3.168-6.445
		c0.019-0.038,0.043-0.072,0.072-0.104c0,0,14.617-15.202,29.188-30.371c0.147-0.156,0.39-0.171,0.56-0.038
		c0.166,0.134,0.205,0.372,0.09,0.552C153.764,35.788,141.775,53.61,139.4,57.136l22.549,0.741c0.171,0.006,0.322,0.117,0.378,0.279
		c0.056,0.162,0.007,0.342-0.124,0.453c-0.34,0.287-34.197,28.907-50.426,43.302C111.697,101.98,111.6,102.018,111.502,102.018
		L111.502,102.018z"/>
	<polygon fill="#FFFFFF" points="4.174,137.602 4.174,116.632 5.724,116.632 5.724,136.168 18.037,136.168 18.037,137.602 	"/>
	<path fill="#FFFFFF" d="M4.674,137.102h12.862v-0.434H5.224v-19.536h-0.55V137.102L4.674,137.102z M18.537,138.102H3.674v-21.97
		h2.55v19.536h12.313V138.102L18.537,138.102z"/>
	<path fill="#FFFFFF" d="M29.169,130.318h11.055l-5.513-12.123L29.169,130.318L29.169,130.318z M24.227,137.602l9.768-21.115h1.492
		l9.768,21.115h-1.71l-2.662-5.862H28.511l-2.662,5.862H24.227L24.227,137.602z"/>
	<path fill="#FFFFFF" d="M29.947,129.818h9.5L34.71,119.4L29.947,129.818L29.947,129.818z M41,130.818H28.39l6.322-13.827
		L41,130.818L41,130.818z M43.866,137.102h0.606l-9.306-20.115h-0.852l-9.306,20.115h0.519l2.662-5.862h13.015L43.866,137.102
		L43.866,137.102z M46.037,138.102h-2.816l-2.661-5.862H28.833l-2.662,5.862h-2.727l10.23-22.115h2.131L46.037,138.102
		L46.037,138.102z"/>
	<polygon fill="#FFFFFF" points="51.913,137.602 51.913,136.738 66.257,118.05 52.424,118.05 52.424,116.632 68.48,116.632 
		68.48,117.509 54.135,136.197 68.48,136.197 68.48,137.602 	"/>
	<path fill="#FFFFFF" d="M52.412,137.102H67.98v-0.402H53.121L67.98,117.34v-0.207H52.924v0.418h14.347l-14.859,19.358V137.102
		L52.412,137.102z M68.98,138.102H51.412v-1.533l13.831-18.019H51.924v-2.418H68.98v1.548l-13.831,18.02H68.98V138.102
		L68.98,138.102z"/>
	<polygon fill="#FFFFFF" points="74.773,116.632 76.717,116.632 84.555,127.893 92.437,116.632 94.294,116.632 85.301,129.279 
		85.301,137.602 83.751,137.602 83.751,129.311 	"/>
	<path fill="#FFFFFF" d="M84.251,137.102h0.55v-7.979l0.092-0.131l8.432-11.858h-0.628l-8.143,11.634l-8.098-11.634h-0.717
		l8.512,12.021V137.102L84.251,137.102z M85.801,138.102h-2.55v-8.633l-9.445-13.337h3.173l7.577,10.888l7.62-10.888h3.086
		l-9.461,13.308V138.102L85.801,138.102z"/>
	<path fill="#FFFFFF" d="M115.535,136.168h7.619c1.803,0,3.229-0.389,4.283-1.163s1.58-1.835,1.58-3.181
		c0-1.297-0.55-2.301-1.646-3.012c-1.099-0.711-2.675-1.067-4.729-1.067h-7.107V136.168L115.535,136.168z M115.535,126.313h6.931
		c1.619,0,2.921-0.379,3.905-1.142c0.984-0.76,1.477-1.837,1.477-3.231c0-1.168-0.461-2.104-1.382-2.808
		c-0.921-0.7-2.206-1.053-3.853-1.053h-7.078V126.313L115.535,126.313z M113.984,137.602v-20.97h8.658
		c2.057,0,3.703,0.474,4.941,1.418c1.236,0.946,1.855,2.214,1.855,3.804c0,0.683-0.103,1.307-0.308,1.871
		c-0.204,0.564-0.487,1.047-0.848,1.439c-0.36,0.396-0.736,0.725-1.126,0.986c-0.389,0.264-0.819,0.488-1.286,0.673
		c3.157,0.829,4.737,2.516,4.737,5.06c0,1.745-0.687,3.137-2.055,4.168c-1.369,1.033-3.189,1.551-5.462,1.551H113.984
		L113.984,137.602z"/>
	<path fill="#FFFFFF" d="M116.035,125.813h6.431c1.498,0,2.709-0.35,3.599-1.037c0.863-0.666,1.283-1.592,1.283-2.836
		c0-1.014-0.388-1.801-1.185-2.408c-0.828-0.633-2.022-0.95-3.55-0.95h-6.578V125.813L116.035,125.813z M122.466,126.813h-7.431
		v-9.231h7.578c1.752,0,3.15,0.39,4.156,1.153c1.047,0.8,1.578,1.877,1.578,3.205c0,1.553-0.563,2.771-1.673,3.627
		C125.607,126.395,124.191,126.813,122.466,126.813L122.466,126.813z M116.035,135.668h7.119c1.686,0,3.027-0.357,3.988-1.064
		c0.926-0.683,1.375-1.59,1.375-2.777c0-1.125-0.463-1.975-1.418-2.594c-1.009-0.653-2.509-0.985-4.457-0.985h-6.607V135.668
		L116.035,135.668z M123.154,136.668h-8.119v-9.423h7.607c2.146,0,3.828,0.387,5.002,1.149c1.244,0.806,1.873,1.959,1.873,3.43
		c0,1.508-0.601,2.714-1.783,3.583C126.6,136.244,125.059,136.668,123.154,136.668L123.154,136.668z M114.484,137.102h8.611
		c2.148,0,3.885-0.486,5.159-1.449c1.249-0.94,1.854-2.174,1.854-3.77c0-2.309-1.428-3.805-4.363-4.574l-1.479-0.39l1.42-0.562
		c0.433-0.17,0.832-0.379,1.191-0.621c0.355-0.24,0.704-0.547,1.036-0.909c0.315-0.345,0.565-0.771,0.747-1.272
		c0.184-0.509,0.277-1.08,0.277-1.701c0-1.438-0.543-2.552-1.66-3.404c-1.143-0.873-2.704-1.315-4.639-1.315h-8.158v19.968H114.484z
		 M123.096,138.102h-9.611v-21.97h9.158c2.158,0,3.924,0.513,5.246,1.521c1.362,1.043,2.053,2.455,2.053,4.201
		c0,0.736-0.112,1.424-0.336,2.043c-0.228,0.625-0.547,1.166-0.951,1.605c-0.383,0.421-0.793,0.779-1.215,1.063
		c-0.078,0.056-0.157,0.105-0.239,0.156c2.598,0.991,3.911,2.723,3.911,5.161c0,1.902-0.758,3.438-2.254,4.567
		C127.406,137.545,125.467,138.102,123.096,138.102L123.096,138.102z"/>
	<polygon fill="#FFFFFF" points="139.127,137.602 139.127,116.632 140.691,116.632 140.691,137.602 	"/>
	<path fill="#FFFFFF" d="M139.627,137.102h0.564v-19.97h-0.564V137.102L139.627,137.102z M141.191,138.102h-2.564v-21.97h2.564
		V138.102L141.191,138.102z"/>
	<path fill="#FFFFFF" d="M152,127.511h7.077c1.804,0,3.272-0.432,4.409-1.294c1.136-0.861,1.703-2.05,1.703-3.561
		c0-1.424-0.531-2.542-1.594-3.356c-1.063-0.813-2.539-1.221-4.432-1.221H152V127.511L152,127.511z M150.45,137.602v-20.97h8.803
		c1.257,0,2.396,0.185,3.414,0.556s1.851,0.877,2.493,1.521c1.053,1.053,1.578,2.369,1.578,3.948c0,1.696-0.559,3.056-1.68,4.079
		c-1.121,1.022-2.608,1.662-4.461,1.916l6.916,8.949h-1.974l-6.685-8.688H152v8.688H150.45L150.45,137.602z"/>
	<path fill="#FFFFFF" d="M152.5,127.011h6.577c1.683,0,3.065-0.401,4.106-1.192c1.014-0.77,1.506-1.803,1.506-3.16
		c0-1.271-0.457-2.238-1.397-2.96c-0.97-0.741-2.358-1.117-4.127-1.117H152.5V127.011L152.5,127.011z M159.077,128.011H151.5
		v-10.432h7.665c1.994,0,3.587,0.444,4.735,1.323c1.188,0.91,1.789,2.174,1.789,3.754c0,1.669-0.641,3.001-1.901,3.959
		C162.568,127.541,160.984,128.011,159.077,128.011L159.077,128.011z M165.787,137.102h0.709l-6.823-8.828l0.856-0.115
		c1.742-0.238,3.152-0.842,4.191-1.789c1.021-0.934,1.518-2.146,1.518-3.711c0-1.455-0.467-2.633-1.432-3.596
		c-0.59-0.588-1.365-1.062-2.312-1.403c-0.957-0.349-2.05-0.525-3.243-0.525h-8.303v19.972h0.55v-8.688h7.604L165.787,137.102
		L165.787,137.102z M168.533,138.102h-3.238l-6.684-8.687H152.5v8.687h-2.55v-21.97h9.303c1.312,0,2.519,0.197,3.585,0.586
		c1.083,0.394,1.982,0.944,2.676,1.638c1.146,1.146,1.725,2.593,1.725,4.303c0,1.834-0.618,3.331-1.844,4.447
		c-1.017,0.931-2.324,1.564-3.894,1.896L168.533,138.102L168.533,138.102z"/>
	<path fill="#FFFFFF" d="M176.965,136.168h5.426c1.424,0,2.737-0.232,3.941-0.702c1.203-0.468,2.21-1.108,3.02-1.923
		s1.438-1.773,1.885-2.881c0.449-1.105,0.675-2.288,0.675-3.546c0-1.238-0.226-2.408-0.675-3.511
		c-0.446-1.103-1.075-2.061-1.885-2.873c-0.81-0.813-1.815-1.459-3.02-1.938s-2.518-0.717-3.941-0.717h-5.426V136.168
		L176.965,136.168z M175.416,137.602v-20.97h6.975c1.618,0,3.125,0.269,4.52,0.806c1.395,0.535,2.572,1.271,3.539,2.201
		c0.965,0.93,1.72,2.041,2.266,3.334c0.547,1.291,0.819,2.674,0.819,4.146c0,1.462-0.272,2.837-0.819,4.123
		c-0.546,1.286-1.301,2.397-2.266,3.334c-0.967,0.937-2.146,1.675-3.539,2.216s-2.9,0.813-4.52,0.813h-6.975V137.602z"/>
	<path fill="#FFFFFF" d="M177.465,135.668h4.926c1.354,0,2.618-0.225,3.76-0.668c1.131-0.438,2.088-1.049,2.848-1.811
		c0.758-0.763,1.355-1.676,1.775-2.715c0.422-1.041,0.638-2.173,0.638-3.358c0-1.168-0.216-2.285-0.636-3.321
		c-0.424-1.036-1.021-1.945-1.777-2.709c-0.757-0.762-1.717-1.375-2.852-1.825c-1.14-0.45-2.402-0.682-3.756-0.682h-4.926V135.668
		L177.465,135.668z M182.391,136.668h-5.926v-19.089h5.926c1.479,0,2.867,0.253,4.125,0.752c1.262,0.501,2.336,1.19,3.19,2.05
		c0.851,0.855,1.522,1.878,1.994,3.037c0.471,1.156,0.71,2.4,0.71,3.698c0,1.317-0.239,2.571-0.709,3.733
		c-0.473,1.164-1.143,2.188-1.995,3.045c-0.856,0.859-1.931,1.547-3.192,2.037C185.256,136.42,183.869,136.668,182.391,136.668
		L182.391,136.668z M175.916,137.102h6.475c1.549,0,3.008-0.263,4.338-0.776c1.324-0.515,2.459-1.224,3.371-2.108
		s1.637-1.949,2.154-3.171c0.518-1.219,0.779-2.541,0.779-3.928c0-1.396-0.262-2.726-0.779-3.951s-1.242-2.289-2.152-3.168
		c-0.914-0.881-2.049-1.586-3.373-2.097c-1.328-0.51-2.787-0.771-4.338-0.771h-6.475V137.102L175.916,137.102z M182.391,138.102
		h-7.475v-21.97h7.475c1.674,0,3.254,0.281,4.698,0.837c1.449,0.559,2.696,1.336,3.706,2.309c1.01,0.975,1.811,2.15,2.38,3.5
		c0.57,1.35,0.858,2.81,0.858,4.341c0,1.522-0.289,2.975-0.858,4.317c-0.569,1.342-1.37,2.521-2.379,3.498
		c-1.009,0.979-2.255,1.76-3.707,2.321C185.645,137.816,184.063,138.102,182.391,138.102L182.391,138.102z"/>
	<path fill="#FFFFFF" d="M200.514,134.544l1.008-1.169c1.19,1.092,2.365,1.884,3.524,2.376c1.16,0.492,2.496,0.738,4.007,0.738
		c1.559,0,2.831-0.396,3.816-1.185c0.984-0.789,1.477-1.806,1.477-3.041c0-0.781-0.158-1.431-0.475-1.945
		c-0.316-0.518-0.911-0.984-1.784-1.403s-2.094-0.79-3.663-1.11c-2.525-0.518-4.335-1.236-5.432-2.158
		c-1.098-0.92-1.645-2.187-1.645-3.793c0-1.569,0.637-2.881,1.914-3.936c1.276-1.053,2.887-1.579,4.825-1.579
		c1.479,0,2.772,0.203,3.875,0.606c1.103,0.406,2.203,1.051,3.306,1.938l-0.979,1.228c-0.966-0.838-1.952-1.44-2.961-1.813
		s-2.109-0.556-3.298-0.556c-1.521,0-2.754,0.383-3.699,1.147c-0.946,0.766-1.419,1.724-1.419,2.873
		c0,0.788,0.157,1.444,0.476,1.967c0.316,0.521,0.926,1.004,1.827,1.446c0.901,0.443,2.167,0.831,3.795,1.162
		c2.427,0.497,4.185,1.204,5.271,2.12c1.089,0.917,1.633,2.155,1.633,3.715c0,1.68-0.654,3.051-1.96,4.116
		c-1.308,1.065-2.974,1.603-5.001,1.603c-1.646,0-3.146-0.272-4.496-0.818C203.104,136.527,201.79,135.686,200.514,134.544
		L200.514,134.544z"/>
	<path fill="#FFFFFF" d="M201.218,134.493c1.113,0.938,2.263,1.649,3.423,2.116c1.283,0.521,2.733,0.783,4.311,0.783
		c1.9,0,3.479-0.5,4.686-1.488c1.194-0.978,1.775-2.195,1.775-3.729c0-1.418-0.477-2.508-1.453-3.333
		c-1.018-0.856-2.717-1.532-5.049-2.012c-1.661-0.338-2.979-0.743-3.915-1.204c-0.999-0.49-1.665-1.025-2.035-1.637
		c-0.362-0.596-0.548-1.346-0.548-2.227c0-1.305,0.54-2.4,1.604-3.264c1.032-0.835,2.383-1.259,4.014-1.259
		c1.244,0,2.412,0.196,3.471,0.586c0.922,0.339,1.833,0.864,2.716,1.569l0.347-0.433c-0.924-0.694-1.854-1.216-2.771-1.552
		c-1.043-0.383-2.288-0.577-3.702-0.577c-1.813,0-3.327,0.493-4.508,1.466c-1.166,0.963-1.731,2.121-1.731,3.549
		c0,1.465,0.479,2.582,1.467,3.412c1.025,0.861,2.781,1.551,5.209,2.049c1.601,0.328,2.873,0.715,3.779,1.149
		c0.971,0.468,1.623,0.987,1.994,1.595c0.364,0.594,0.549,1.336,0.549,2.207c0,1.391-0.561,2.545-1.664,3.43
		c-1.07,0.858-2.459,1.295-4.129,1.295c-1.57,0-2.984-0.262-4.201-0.777c-1.082-0.458-2.185-1.172-3.283-2.124L201.218,134.493
		L201.218,134.493z M208.95,138.395c-1.705,0-3.281-0.289-4.685-0.854c-1.396-0.563-2.771-1.447-4.086-2.621l-0.365-0.327
		l1.666-1.932l0.379,0.349c1.143,1.05,2.281,1.816,3.382,2.284c1.093,0.463,2.375,0.698,3.812,0.698
		c1.436,0,2.615-0.361,3.504-1.074c0.867-0.696,1.289-1.563,1.289-2.649c0-0.685-0.135-1.248-0.4-1.687
		c-0.264-0.433-0.795-0.839-1.573-1.213c-0.834-0.4-2.028-0.763-3.547-1.072c-2.632-0.539-4.479-1.276-5.653-2.267
		c-1.211-1.014-1.822-2.422-1.822-4.176c0-1.721,0.703-3.172,2.096-4.319c1.363-1.124,3.095-1.693,5.145-1.693
		c1.532,0,2.893,0.218,4.047,0.64c1.148,0.422,2.309,1.101,3.446,2.018l0.388,0.313l-1.615,2.022l-0.394-0.341
		c-0.915-0.795-1.858-1.374-2.806-1.721c-0.947-0.351-2-0.525-3.125-0.525c-1.396,0-2.535,0.349-3.385,1.035
		c-0.83,0.673-1.233,1.486-1.233,2.486c0,0.691,0.136,1.268,0.403,1.707c0.265,0.437,0.81,0.857,1.621,1.258
		c0.858,0.424,2.096,0.801,3.674,1.121c2.533,0.52,4.33,1.248,5.494,2.228c1.197,1.013,1.808,2.392,1.808,4.099
		c0,1.825-0.722,3.342-2.144,4.504C212.877,137.816,211.088,138.395,208.95,138.395L208.95,138.395z"/>
	<path fill="#FFFFFF" d="M105.471,126.745c0,1.532-1.242,2.774-2.775,2.774c-1.533,0-2.776-1.242-2.776-2.774
		c0-1.533,1.243-2.776,2.776-2.776C104.229,123.969,105.471,125.212,105.471,126.745"/>
	<path fill="none" stroke="#FFFFFF" stroke-width="0.6235" stroke-miterlimit="10" d="M118.934,78.245l14.078,0.292 M124.857,76.363
		l6.099-0.114 M124.727,80.539l6.599,0.168"/>
	<polygon fill="#FFFFFF" points="135.574,46.091 134.557,40.362 133.154,35.27 131.245,31.959 128.434,28.605 126.025,26.738 
		122.969,25.593 119.404,25.593 116.35,25.975 113.548,26.611 111.128,28.14 108.709,30.686 107.436,33.359 107.241,33.944 
		106.991,33.837 103.234,35.651 99.224,37.752 99.319,38.07 104.54,39.885 106.432,40.236 106.672,44.437 108.072,50.293 
		107.181,49.784 106.545,49.529 103.107,49.147 99.924,49.657 96.868,50.931 92.157,53.094 89.229,54.24 85.664,55.386 
		83.118,55.259 79.553,55.769 76.242,55.004 73.059,54.24 69.621,52.84 67.457,51.694 65.42,50.293 62.874,48.766 60.661,45.99 
		60.455,47.492 60.072,50.548 60.072,55.896 60.709,60.225 62.11,64.044 63.255,67.228 65.292,69.773 66.82,71.938 68.73,74.104 
		71.277,76.141 72.773,77.667 71.34,77.857 67.425,78.146 61.667,77.376 62.237,79.195 64.02,82.633 65.802,85.689 68.858,88.617 
		71.913,91.291 74.587,92.945 78.366,94.561 82.226,95.747 85.919,96.639 88.465,96.639 92.539,96.256 95.85,95.874 100.051,94.092 
		103.489,92.564 106.8,90.146 109.473,87.473 111.893,83.396 113.548,82.251 117.495,80.725 122.205,78.561 125.801,75.813 
		129.718,70.919 132.9,65.699 135.064,59.97 135.702,53.858 	"/>
	<path fill="#FFFFFF" d="M107.568,18.171l4.562-8.832l3.509,4.416l3.568-11.2l3.217,11.463l3.567-4.796l3.86,8.949
		C129.852,18.171,117.861,23.376,107.568,18.171L107.568,18.171z"/>
	<path fill="#FFFFFF" d="M108.085,18.532c-0.146,0-0.282-0.089-0.338-0.233c-0.072-0.187,0.022-0.396,0.209-0.468l0.276-0.108
		c8.818-3.5,16.479-2.073,21.355-0.26c0.188,0.069,0.282,0.278,0.212,0.466c-0.068,0.187-0.275,0.282-0.465,0.213
		c-4.756-1.768-12.229-3.159-20.835,0.254l-0.286,0.112C108.172,18.524,108.128,18.532,108.085,18.532L108.085,18.532z"/>
	<path fill="none" stroke="#FFFFFF" stroke-width="0.6251" stroke-miterlimit="10" d="M113.15,80.248l7.92,11.753 M114.882,86.4
		l3.239,5.238 M118.145,83.775l3.735,5.488"/>
	<path fill="#FFFFFF" d="M114.3,35.204c0,1.114-0.903,2.018-2.017,2.018c-1.115,0-2.018-0.903-2.018-2.018
		c0-1.115,0.901-2.019,2.018-2.019C113.396,33.186,114.3,34.089,114.3,35.204"/>
	<path fill="#7B7C7E" d="M88.539,96.943c-1.391,0-2.822-0.079-4.293-0.239c-7.967-1.752-18.358-6.45-22.867-18.929l-0.127-0.35
		c-0.053-0.141-0.027-0.298,0.069-0.41c0.096-0.117,0.246-0.175,0.393-0.146c8.284,1.483,10.325,0.151,10.344,0.139
		c0.186-0.129,0.444-0.089,0.576,0.095c0.133,0.183,0.101,0.435-0.078,0.569c-0.209,0.16-2.229,1.487-10.278,0.14
		c4.441,11.883,14.452,16.389,22.104,18.071c12.618,1.373,22.308-3.37,27.974-13.728c0.108-0.201,0.361-0.274,0.563-0.165
		c0.201,0.11,0.273,0.362,0.165,0.563C107.902,92.023,99.469,96.943,88.539,96.943L88.539,96.943z"/>
	<path fill="#7B7C7E" d="M60.737,46.858c-3.712,24.769,15.832,32.723,18.095,33.556c2.131,1.045,4.974,1.588,8.262,1.588
		c7.382,0,17.805-2.954,23.243-9.439c6.761-8.063,2.845-15.597,0.849-18.46c-2.248-2.99-5.023-4.513-8.24-4.513
		c-2.944,0-5.591,1.271-7.013,1.953l-0.313,0.15c-4.757,2.806-9.65,4.236-14.51,4.236C70.466,55.929,62.851,49.014,60.737,46.858
		L60.737,46.858z M87.094,82.832c-3.414,0-6.384-0.572-8.589-1.656c-2.316-0.85-22.847-9.206-18.455-35.288
		c0.027-0.16,0.144-0.289,0.299-0.332c0.156-0.042,0.322,0.009,0.427,0.131c0.08,0.094,8.181,9.413,20.334,9.413
		c4.71,0,9.461-1.394,14.121-4.141l0.343-0.165c1.481-0.712,4.239-2.035,7.372-2.035c3.491,0,6.49,1.635,8.912,4.855
		c2.115,3.034,6.244,10.979-0.885,19.481C105.364,79.785,94.663,82.832,87.094,82.832L87.094,82.832z"/>
	<path fill="#7B7C7E" d="M104.587,83.717c-3.399,0-6.969-0.49-10.567-1.654c-23.778-7.692-25.314-19.63-26.548-29.225l-0.133-1.022
		c-0.03-0.228,0.13-0.437,0.357-0.466c0.229-0.035,0.436,0.13,0.466,0.357l0.133,1.026c1.205,9.358,2.703,21.007,25.981,28.539
		c13.419,4.345,26.445-0.879,31.02-5.776c4.261-4.56,13.126-14.049,9.011-33.877c-1.461-7.043-4.303-11.823-8.445-14.207
		c-4.838-2.785-9.814-1.348-10.764-1.031c-6.919,2.306-8.876,9.117-8.453,14.249c0.428,5.161,2.018,9.944,2.035,9.992
		c0.072,0.217-0.045,0.452-0.263,0.525c-0.215,0.072-0.453-0.044-0.524-0.262c-0.017-0.049-1.638-4.923-2.075-10.188
		c-0.362-4.373,1.129-12.476,9.017-15.104c1.008-0.336,6.296-1.862,11.44,1.099c4.355,2.507,7.332,7.473,8.845,14.758
		c4.202,20.25-4.862,29.95-9.218,34.611C122.416,79.793,114.193,83.716,104.587,83.717L104.587,83.717z"/>
	<path fill="#7B7C7E" d="M94.54,91.068c-7.78,0-17.252-2.631-24.569-12.92c-0.132-0.188-0.089-0.444,0.098-0.578
		c0.187-0.135,0.446-0.088,0.579,0.099c14.51,20.403,37.752,9.865,37.985,9.756c0.21-0.098,0.456-0.007,0.553,0.2
		c0.097,0.208,0.008,0.455-0.201,0.552C108.863,88.232,102.612,91.068,94.54,91.068L94.54,91.068z"/>
	<path fill="#7B7C7E" d="M99.281,38.07l6.441,1.998l-0.299-1.97c-0.006-0.042-0.005-0.085,0.001-0.127l0.382-2.42
		c0.006-0.035,0.016-0.07,0.031-0.104l0.526-1.183L99.281,38.07L99.281,38.07z M106.232,41.076c-0.041,0-0.083-0.006-0.123-0.019
		l-8.422-2.613c-0.157-0.049-0.271-0.187-0.289-0.35c-0.019-0.164,0.062-0.323,0.204-0.406l9.385-5.434l0.003,0.005
		c0.855-0.698,4.637-2.598,9.091-3.166c4.854-0.619,11.839,0.137,17.535,7.263c0.143,0.179,0.114,0.44-0.065,0.583
		c-0.179,0.144-0.439,0.115-0.582-0.064c-3.437-4.298-7.711-6.676-12.705-7.068c-6.576-0.517-12.246,2.651-12.746,3.068
		c-0.025,0.032-0.056,0.06-0.089,0.083c0.032,0.017,0.062,0.038,0.089,0.063c0.131,0.12,0.168,0.311,0.096,0.473l-0.996,2.241
		l-0.363,2.303l0.388,2.562c0.021,0.141-0.032,0.283-0.14,0.377C106.426,41.042,106.33,41.076,106.232,41.076L106.232,41.076z"/>
	<path fill="#7B7C7E" d="M106.651,78.938c-1.051,0-2.124-0.041-3.223-0.123c-18.563-1.396-19.004-23.355-19.006-23.579
		c-0.002-0.23,0.182-0.417,0.411-0.42c0.217-0.033,0.416,0.182,0.419,0.411c0.003,0.214,0.439,21.419,18.238,22.759
		c8.854,0.664,16.116-1.414,21.577-6.18c8.057-7.035,9.813-17.941,10.143-20.823c-16.286,7.625-27.057,0.183-27.164,0.106
		c-0.188-0.133-0.23-0.392-0.098-0.579c0.133-0.186,0.392-0.229,0.578-0.098c0.106,0.075,10.795,7.425,26.984-0.495
		c0.136-0.064,0.29-0.054,0.413,0.028s0.193,0.223,0.186,0.37c-0.008,0.137-0.936,13.768-10.496,22.116
		C120.66,76.755,114.292,78.938,106.651,78.938L106.651,78.938z"/>
	<path fill="#7B7C7E" d="M130.714,66.062c-0.017,0-0.03,0-0.046-0.002c-12.531-1.379-12.305-12.006-12.302-12.113
		c0.008-0.229,0.188-0.403,0.43-0.4c0.229,0.009,0.408,0.2,0.399,0.43c-0.012,0.405-0.188,9.966,11.563,11.259
		c0.229,0.024,0.393,0.229,0.368,0.458C131.102,65.904,130.923,66.062,130.714,66.062L130.714,66.062z"/>
	<path fill="#FFFFFF" d="M97.81,38.463c-0.206,0-0.386-0.153-0.411-0.363c-0.029-0.228,0.132-0.435,0.359-0.463l8.542-1.072
		c0.227-0.031,0.436,0.133,0.464,0.359c0.029,0.228-0.133,0.436-0.36,0.464l-8.542,1.072C97.844,38.462,97.827,38.463,97.81,38.463
		L97.81,38.463z"/>
	<path fill="#FFFFFF" d="M88.54,96.964c-1.392,0-2.825-0.079-4.296-0.237c-7.975-1.754-18.373-6.455-22.884-18.942l-0.4-1.066
		l0.757,0.138c8.266,1.48,10.309,0.153,10.329,0.142l0.522,0.698c-0.209,0.16-2.23,1.49-10.259,0.146
		c4.444,11.851,14.437,16.347,22.076,18.026c12.611,1.374,22.289-3.37,27.951-13.719l0.766,0.418
		C107.916,92.041,99.478,96.964,88.54,96.964L88.54,96.964z"/>
	<path fill="#FFFFFF" d="M60.75,46.902c-3.681,24.72,15.827,32.661,18.089,33.493c2.13,1.045,4.97,1.586,8.255,1.586
		c7.378,0,17.793-2.949,23.226-9.433c6.752-8.052,2.843-15.574,0.849-18.436c-2.245-2.984-5.015-4.503-8.223-4.503
		c-2.94,0-5.584,1.269-7.004,1.951l-0.313,0.149c-4.759,2.807-9.655,4.239-14.519,4.239C70.507,55.95,62.908,49.092,60.75,46.902
		L60.75,46.902z M87.094,82.854c-3.417,0-6.39-0.572-8.598-1.658c-2.316-0.85-22.86-9.212-18.466-35.313l0.155-0.92l0.606,0.71
		c0.08,0.094,8.175,9.405,20.319,9.405c4.706,0,9.454-1.392,14.111-4.137l0.344-0.166c1.483-0.712,4.243-2.037,7.381-2.037
		c3.497,0,6.501,1.636,8.928,4.864c2.118,3.038,6.253,10.994-0.886,19.507C105.376,79.805,94.668,82.854,87.094,82.854
		L87.094,82.854z"/>
	<path fill="#FFFFFF" d="M104.586,83.736c-3.4,0-6.973-0.49-10.572-1.654c-23.791-7.698-25.328-19.643-26.563-29.241l-0.133-1.022
		l0.865-0.114l0.133,1.026c1.203,9.353,2.701,20.996,25.966,28.521c13.411,4.342,26.427-0.878,30.999-5.771
		c4.258-4.559,13.119-14.041,9.006-33.857c-1.461-7.037-4.299-11.813-8.436-14.193c-4.83-2.78-9.802-1.345-10.748-1.029
		c-6.909,2.303-8.862,9.104-8.438,14.228c0.428,5.159,2.016,9.939,2.031,9.987l-0.825,0.277c-0.017-0.05-1.638-4.926-2.074-10.192
		c-0.363-4.38,1.13-12.493,9.03-15.127c1.01-0.335,6.305-1.864,11.458,1.101c4.361,2.511,7.341,7.48,8.854,14.772
		c4.205,20.26-4.865,29.966-9.223,34.631C122.428,79.813,114.199,83.736,104.586,83.736L104.586,83.736z"/>
	<path fill="#FFFFFF" d="M94.539,91.089c-7.785,0-17.263-2.633-24.584-12.927l0.71-0.506c14.502,20.392,37.728,9.857,37.96,9.75
		l0.369,0.789C108.872,88.253,102.617,91.089,94.539,91.089L94.539,91.089z"/>
	<path fill="#FFFFFF" d="M99.335,38.064l6.361,1.975l-0.303-2.004l0.425-2.596l0.501-1.127L99.335,38.064L99.335,38.064z
		 M106.767,41.283L96.731,38.17l10.246-5.933l0.002,0.003c0.862-0.713,4.565-2.588,9.099-3.167
		c4.859-0.622,11.852,0.137,17.554,7.271l-0.68,0.544c-3.423-4.281-7.681-6.656-12.653-7.058
		c-5.621-0.452-10.621,1.814-12.248,2.733l-1.414,3.178l-0.362,2.297L106.767,41.283L106.767,41.283z"/>
	<path fill="#FFFFFF" d="M106.651,78.958c-1.051,0-2.125-0.041-3.225-0.124c-18.582-1.396-19.023-23.377-19.024-23.599l0.871-0.009
		c0.002,0.214,0.438,21.401,18.219,22.738c8.851,0.671,16.105-1.411,21.561-6.175c8.018-7,9.79-17.839,10.133-20.771
		c-16.277,7.605-27.042,0.166-27.151,0.088l0.505-0.71c0.106,0.076,10.785,7.419,26.964-0.496l0.671-0.328l-0.045,0.746
		c-0.008,0.137-0.936,13.775-10.502,22.127C120.67,76.773,114.298,78.958,106.651,78.958L106.651,78.958z"/>
	<path fill="#FFFFFF" d="M130.665,66.08c-12.55-1.381-12.323-12.027-12.319-12.134l0.871,0.03
		c-0.013,0.404-0.188,9.946,11.545,11.236L130.665,66.08L130.665,66.08z"/>
</g>
</svg>
