<svg width="39" height="47" viewBox="0 0 39 30" fill="none" xmlns="http://www.w3.org/2000/svg">
<path d="M4.1983 3.6915L7.81941 24.2626C7.88553 24.6935 8.11157 25.088 8.45705 25.3755C8.82148 25.6815 9.294 25.8468 9.78108 25.8388H31.1996C31.6091 25.8389 32.0081 25.717 32.3403 25.4904C32.6724 25.2638 32.9208 24.944 33.0502 24.5764L38.9001 7.96592C38.9977 7.68847 39.0243 7.39302 38.9776 7.10394C38.931 6.81485 38.8124 6.54041 38.6317 6.30321C38.4509 6.06601 38.2132 5.87285 37.9382 5.73965C37.6631 5.60646 37.3585 5.53703 37.0496 5.53711H8.47655L7.78041 1.56905C7.70894 1.11568 7.46056 0.704119 7.08426 0.415547C6.72762 0.139756 6.2792 -0.00738506 5.81873 0.000285438H1.94998C1.43281 0.000285438 0.936826 0.194733 0.571135 0.540851C0.205443 0.886969 0 1.35641 0 1.84589C0 2.33538 0.205443 2.80481 0.571135 3.15093C0.936826 3.49705 1.43281 3.6915 1.94998 3.6915H4.1983ZM11.4015 22.1476L9.12589 9.22832H34.3449L29.7937 22.1476H11.4015ZM15.5998 33.2212C15.5998 34.2002 15.1889 35.139 14.4575 35.8313C13.7262 36.5235 12.7342 36.9124 11.6999 36.9124C10.6655 36.9124 9.67356 36.5235 8.94218 35.8313C8.21079 35.139 7.79991 34.2002 7.79991 33.2212C7.79991 32.2422 8.21079 31.3034 8.94218 30.6111C9.67356 29.9189 10.6655 29.53 11.6999 29.53C12.7342 29.53 13.7262 29.9189 14.4575 30.6111C15.1889 31.3034 15.5998 32.2422 15.5998 33.2212ZM33.1496 33.2212C33.1496 34.2002 32.7387 35.139 32.0073 35.8313C31.2759 36.5235 30.284 36.9124 29.2496 36.9124C28.2153 36.9124 27.2233 36.5235 26.492 35.8313C25.7606 35.139 25.3497 34.2002 25.3497 33.2212C25.3497 32.2422 25.7606 31.3034 26.492 30.6111C27.2233 29.9189 28.2153 29.53 29.2496 29.53C30.284 29.53 31.2759 29.9189 32.0073 30.6111C32.7387 31.3034 33.1496 32.2422 33.1496 33.2212Z" fill="#8EBCEE"/>
</svg>
