<svg width="41" height="20" viewBox="0 0 41 20" fill="none" xmlns="http://www.w3.org/2000/svg">
<path d="M27.889 4.75563C27.9702 4.73317 28.0095 4.71321 28.0488 4.71321C29.7118 4.71071 31.3757 4.70239 33.0388 4.72153C33.1712 4.72319 33.354 4.88291 33.4257 5.01434C34.0501 6.16311 34.6583 7.3202 35.2613 8.47896C35.3954 8.736 35.5637 8.87908 35.878 8.90071C36.4871 8.9423 37.0935 9.01883 37.7 9.09369C38.4124 9.18187 38.4491 9.25174 38.35 9.93718C38.0459 12.0467 37.7504 14.1571 37.4565 16.2683C37.4181 16.5445 37.3651 16.8689 37.7623 16.9288C38.1527 16.9879 38.2185 16.6884 38.2552 16.3973C38.262 16.3424 38.2765 16.2883 38.2842 16.2334C38.5849 14.0673 38.8847 11.902 39.1854 9.73588C39.2853 9.01633 38.9018 8.47896 38.1646 8.36583C37.5479 8.271 36.9253 8.20029 36.3026 8.15454C36.0497 8.13624 35.931 8.03393 35.8242 7.82846C35.222 6.66887 34.5968 5.5201 34.0023 4.35635C33.8332 4.02611 33.6128 3.89883 33.2353 3.90216C31.5722 3.91714 29.9083 3.90882 28.2452 3.90882C28.094 3.90882 27.9437 3.90882 27.7515 3.90882C27.7515 3.06782 27.7532 2.28173 27.7506 1.49481C27.7489 0.900873 27.6729 0.827671 27.0596 0.827671C21.7997 0.826839 16.5389 0.827671 11.2789 0.827671C10.6374 0.827671 10.5682 0.89505 10.5682 1.5156C10.5682 5.73804 10.5682 9.96131 10.5682 14.1837C10.5682 14.2802 10.5332 14.4017 10.5793 14.4699C10.6767 14.6146 10.8125 14.8384 10.9415 14.8442C11.6932 14.88 12.4483 14.88 13.1999 14.8442C13.328 14.8384 13.5382 14.603 13.539 14.4732C13.5399 14.3476 13.328 14.128 13.1914 14.113C12.7421 14.0648 12.2834 14.0931 11.829 14.0881C11.6804 14.0864 11.5317 14.0714 11.3993 14.0631C11.3993 9.88977 11.3993 5.77214 11.3993 1.64038C16.591 1.64038 21.7467 1.64038 26.923 1.64038C26.923 5.79128 26.923 9.92055 26.923 14.0889C26.741 14.0889 26.5873 14.0889 26.4335 14.0889C24.6987 14.0889 22.9648 14.0889 21.2299 14.0897C21.1027 14.0897 20.9506 14.0581 20.8533 14.113C20.7243 14.1862 20.55 14.3343 20.5551 14.4433C20.562 14.583 20.7038 14.7461 20.8328 14.8409C20.9156 14.9025 21.0796 14.8659 21.2077 14.8659C23.1416 14.8667 25.0745 14.8667 27.0084 14.8667C27.6968 14.8667 27.8899 14.6787 27.8899 14.0032C27.8907 11.0677 27.8899 8.13292 27.8899 5.19734C27.889 5.04844 27.889 4.90037 27.889 4.75563ZM20.1691 16.2259C20.1691 14.6279 18.8383 13.3195 17.1983 13.3037C15.5574 13.2878 14.1762 14.6238 14.1762 16.2259C14.1762 17.8164 15.5147 19.1274 17.1556 19.1432C18.8101 19.159 20.1691 17.843 20.1691 16.2259ZM33.389 19.1432C35.0435 19.1449 36.4042 17.8122 36.388 16.206C36.3718 14.6096 35.0239 13.3037 33.3924 13.302C31.7635 13.3003 30.4105 14.6088 30.3909 16.2026C30.3712 17.8039 31.7362 19.1424 33.389 19.1432ZM31.5167 9.13113C32.0138 9.13113 32.5109 9.13695 33.008 9.12946C33.4889 9.12198 33.6495 8.87741 33.4403 8.45318C33.1029 7.76857 32.7672 7.08147 32.3905 6.41682C32.2999 6.25794 32.0548 6.10072 31.8711 6.08825C31.263 6.04749 30.6505 6.07244 30.0398 6.07327C29.693 6.0741 29.5145 6.23548 29.5171 6.58153C29.5205 7.25948 29.5213 7.93743 29.5171 8.61538C29.5145 8.98223 29.6947 9.14111 30.068 9.13279C30.5506 9.12364 31.0341 9.13113 31.5167 9.13113ZM25.4119 16.9471C26.5343 16.9471 27.6567 16.9455 28.7791 16.948C29.0712 16.9488 29.3505 16.9172 29.3505 16.5545C29.3505 16.1876 29.0609 16.1652 28.7748 16.1652C26.5164 16.1652 24.2571 16.166 21.9987 16.1644C21.7074 16.1644 21.4204 16.2026 21.4238 16.5578C21.4273 16.9072 21.7083 16.9496 22.003 16.948C23.139 16.9438 24.2759 16.9471 25.4119 16.9471ZM4.56002 11.8795C5.69606 11.8795 6.83296 11.877 7.969 11.8812C8.26198 11.882 8.54215 11.8529 8.54471 11.4927C8.54727 11.1284 8.26113 11.1043 7.97156 11.1043C5.71315 11.1059 3.45473 11.1068 1.19631 11.1034C0.903335 11.1034 0.616335 11.1367 0.617189 11.4894C0.618044 11.8354 0.896502 11.8829 1.19461 11.8812C2.31613 11.8762 3.4385 11.8795 4.56002 11.8795ZM5.92669 8.56131C5.20236 8.56131 4.47802 8.56215 3.75369 8.56131C3.46925 8.56048 3.22581 8.62786 3.22581 8.95893C3.22581 9.2925 3.47779 9.35822 3.7554 9.35905C5.17588 9.36155 6.5955 9.36072 8.01598 9.35905C8.29529 9.35905 8.54556 9.28835 8.54386 8.95644C8.54215 8.62537 8.297 8.56048 8.01342 8.56048C7.31898 8.56215 6.62284 8.56131 5.92669 8.56131ZM7.21819 6.81112C7.51629 6.81112 7.8144 6.81278 8.1125 6.81112C8.38327 6.80945 8.58827 6.67386 8.53019 6.41682C8.49688 6.26959 8.27394 6.06745 8.12531 6.0583C7.50348 6.01837 6.87738 6.04 6.25298 6.04166C5.98306 6.04249 5.8054 6.17392 5.8165 6.44011C5.82675 6.70464 6.01552 6.81694 6.28202 6.81361C6.59379 6.80779 6.90642 6.81112 7.21819 6.81112Z" fill="white" stroke="#8FBCEE" stroke-width="0.5" stroke-miterlimit="10"/>
<path d="M27.8891 4.75566C27.8891 4.9004 27.8891 5.04847 27.8891 5.19737C27.8891 8.13294 27.8891 11.0677 27.8891 14.0033C27.8891 14.6795 27.696 14.8667 27.0076 14.8667C25.0737 14.8667 23.1408 14.8667 21.2069 14.8659C21.0796 14.8659 20.9156 14.9025 20.8319 14.8409C20.703 14.7453 20.5612 14.5831 20.5543 14.4433C20.5492 14.3343 20.7235 14.1863 20.8524 14.1131C20.9498 14.0582 21.1019 14.0898 21.2291 14.0898C22.9639 14.0889 24.6979 14.0889 26.4327 14.0889C26.5865 14.0889 26.7402 14.0889 26.9221 14.0889C26.9221 9.92057 26.9221 5.79047 26.9221 1.64041C21.7459 1.64041 16.5901 1.64041 11.3985 1.64041C11.3985 5.77217 11.3985 9.88979 11.3985 14.0631C11.5309 14.0715 11.6795 14.0864 11.8282 14.0881C12.2826 14.0939 12.7413 14.0656 13.1906 14.1131C13.3272 14.128 13.5382 14.3476 13.5382 14.4732C13.5374 14.603 13.3272 14.8384 13.1991 14.8442C12.4474 14.88 11.6924 14.88 10.9407 14.8442C10.8117 14.8384 10.6768 14.6147 10.5785 14.4699C10.5324 14.4017 10.5674 14.2811 10.5674 14.1838C10.5674 9.96133 10.5674 5.73807 10.5674 1.51563C10.5674 0.895077 10.6375 0.827698 11.2781 0.827698C16.538 0.827698 21.7989 0.827698 27.0588 0.827698C27.6721 0.827698 27.7481 0.9009 27.7498 1.49484C27.7515 2.28093 27.7507 3.06785 27.7507 3.90884C27.9429 3.90884 28.0941 3.90884 28.2444 3.90884C29.9075 3.90884 31.5714 3.91716 33.2344 3.90219C33.612 3.89886 33.8324 4.02613 34.0015 4.35637C34.596 5.51929 35.2212 6.66807 35.8234 7.82849C35.9302 8.03395 36.0489 8.13627 36.3018 8.15457C36.9244 8.20032 37.5471 8.27103 38.1638 8.36586C38.901 8.47899 39.2845 9.01719 39.1846 9.7359C38.883 11.902 38.5841 14.0673 38.2834 16.2334C38.2757 16.2883 38.2612 16.3424 38.2544 16.3973C38.2176 16.6884 38.1519 16.9887 37.7615 16.9288C37.3652 16.8681 37.4173 16.5445 37.4557 16.2684C37.7504 14.158 38.0451 12.0468 38.3492 9.93721C38.4483 9.25177 38.4115 9.1819 37.6992 9.09372C37.0936 9.01886 36.4862 8.94233 35.8772 8.90073C35.5629 8.87911 35.3938 8.73603 35.2605 8.47899C34.6575 7.3194 34.0493 6.16231 33.4249 5.01436C33.3532 4.88293 33.1712 4.72322 33.038 4.72155C31.3749 4.70242 29.7119 4.71074 28.0479 4.71324C28.0095 4.71324 27.9702 4.7332 27.8891 4.75566Z" fill="#8FBCEE" stroke="#8FBCEE" stroke-width="0.5" stroke-miterlimit="10"/>
<path d="M20.1695 16.2259C20.1695 17.843 18.8105 19.159 17.1551 19.1424C15.5143 19.1266 14.1749 17.8156 14.1758 16.2251C14.1758 14.6221 15.557 13.287 17.1978 13.3028C18.8387 13.3195 20.1695 14.628 20.1695 16.2259ZM14.9975 16.2318C14.9992 17.418 15.9764 18.3629 17.1936 18.3555C18.3851 18.348 19.3563 17.403 19.3631 16.2426C19.3708 15.0572 18.4005 14.1056 17.1824 14.1031C15.9593 14.1006 14.9958 15.0397 14.9975 16.2318Z" fill="#8FBCEE" stroke="#8FBCEE" stroke-width="0.5" stroke-miterlimit="10"/>
<path d="M33.389 19.1432C31.7361 19.1415 30.3712 17.8031 30.3908 16.2026C30.4105 14.6088 31.7635 13.3003 33.3924 13.302C35.0238 13.3037 36.3717 14.6097 36.3879 16.206C36.405 17.8123 35.0435 19.1449 33.389 19.1432ZM33.3949 14.1022C32.1735 14.1006 31.2074 15.0422 31.21 16.2326C31.2125 17.3997 32.1726 18.3446 33.3659 18.3538C34.5814 18.3638 35.5679 17.4196 35.5739 16.2401C35.5808 15.0522 34.6147 14.1039 33.3949 14.1022Z" fill="#8FBCEE" stroke="#8FBCEE" stroke-width="0.5" stroke-miterlimit="10"/>
<path d="M31.5172 9.13114C31.0346 9.13114 30.5511 9.12365 30.0685 9.13363C29.6953 9.14112 29.515 8.98307 29.5176 8.61623C29.5219 7.93827 29.5219 7.26032 29.5176 6.58237C29.5159 6.23549 29.6944 6.07411 30.0404 6.07411C30.6511 6.07328 31.2635 6.04833 31.8717 6.08909C32.0562 6.10157 32.3005 6.25795 32.391 6.41767C32.7677 7.08148 33.1034 7.76858 33.4408 8.45402C33.6492 8.87826 33.4895 9.12282 33.0086 9.13031C32.5115 9.13779 32.0143 9.13114 31.5172 9.13114ZM30.353 8.31593C31.0696 8.31593 31.7376 8.31593 32.4662 8.31593C32.2313 7.85176 32.0271 7.43335 31.8059 7.02408C31.7683 6.95504 31.659 6.88516 31.5796 6.88267C31.1755 6.86852 30.7715 6.87601 30.353 6.87601C30.353 7.38177 30.353 7.83097 30.353 8.31593Z" fill="#8FBCEE" stroke="#8FBCEE" stroke-width="0.5" stroke-miterlimit="10"/>
<path d="M25.4118 16.9471C24.2749 16.9471 23.1389 16.9446 22.002 16.9488C21.7065 16.9496 21.4263 16.908 21.4229 16.5587C21.4195 16.2035 21.7065 16.1652 21.9977 16.1652C24.2562 16.1669 26.5154 16.166 28.7738 16.166C29.06 16.166 29.3495 16.1885 29.3495 16.5553C29.3495 16.918 29.0702 16.9488 28.7781 16.9488C27.6566 16.9455 26.5342 16.9471 25.4118 16.9471Z" fill="#8FBCEE" stroke="#8FBCEE" stroke-width="0.5" stroke-miterlimit="10"/>
<path d="M4.56088 11.8795C3.4385 11.8795 2.31613 11.8762 1.19461 11.882C0.896502 11.8837 0.618044 11.8363 0.617189 11.4902C0.616335 11.1375 0.903335 11.1034 1.19631 11.1043C3.45473 11.1076 5.71315 11.1068 7.97156 11.1051C8.26198 11.1051 8.54727 11.1292 8.54471 11.4936C8.543 11.8538 8.26198 11.8829 7.969 11.882C6.83381 11.877 5.69777 11.8795 4.56088 11.8795Z" fill="#8FBCEE" stroke="#8FBCEE" stroke-width="0.5" stroke-miterlimit="10"/>
<path d="M5.92659 8.56132C6.62273 8.56132 7.31802 8.56216 8.01417 8.56049C8.29775 8.55966 8.5429 8.62538 8.54461 8.95645C8.54631 9.28836 8.29604 9.35823 8.01673 9.35906C6.59625 9.36073 5.17663 9.36073 3.75615 9.35906C3.47769 9.35823 3.22571 9.29251 3.22656 8.95895C3.22656 8.62787 3.47 8.56049 3.75444 8.56132C4.47792 8.56216 5.20225 8.56132 5.92659 8.56132Z" fill="#8FBCEE" stroke="#8FBCEE" stroke-width="0.5" stroke-miterlimit="10"/>
<path d="M7.21839 6.81113C6.90577 6.81113 6.594 6.8078 6.28137 6.81196C6.01402 6.81529 5.8261 6.70382 5.81585 6.43846C5.8056 6.17227 5.98327 6.04084 6.25233 6.04001C6.87673 6.03835 7.50283 6.01589 8.12466 6.05665C8.27329 6.06663 8.49623 6.26794 8.52954 6.41517C8.58848 6.67221 8.38262 6.80863 8.11185 6.80947C7.8146 6.81196 7.5165 6.81113 7.21839 6.81113Z" fill="#8FBCEE" stroke="#8FBCEE" stroke-width="0.5" stroke-miterlimit="10"/>
<path d="M14.9971 16.2317C14.9954 15.0397 15.9589 14.1006 17.1829 14.1031C18.4001 14.1056 19.3704 15.0572 19.3636 16.2426C19.3567 17.403 18.3856 18.348 17.194 18.3554C15.9759 18.3621 14.9988 17.418 14.9971 16.2317Z" fill="white" stroke="#8FBCEE" stroke-width="0.5" stroke-miterlimit="10"/>
<path d="M33.3949 14.1022C34.6138 14.1039 35.5807 15.0522 35.5739 16.2401C35.5671 17.4196 34.5814 18.3638 33.3659 18.3538C32.1726 18.3446 31.2125 17.3997 31.21 16.2326C31.2074 15.043 32.1735 14.1014 33.3949 14.1022Z" fill="white" stroke="#8FBCEE" stroke-width="0.5" stroke-miterlimit="10"/>
<path d="M30.3525 8.31593C30.3525 7.83097 30.3525 7.38177 30.3525 6.87518C30.7711 6.87518 31.176 6.86769 31.5791 6.88183C31.6577 6.88433 31.7679 6.9542 31.8055 7.02325C32.0267 7.43251 32.2309 7.85093 32.4657 8.3151C31.7371 8.31593 31.0692 8.31593 30.3525 8.31593Z" fill="white" stroke="#8FBCEE" stroke-width="0.5" stroke-miterlimit="10"/>
</svg>
