<?xml version="1.0" encoding="UTF-8"?>
<svg id="Layer_1" data-name="Layer 1" xmlns="http://www.w3.org/2000/svg" viewBox="0 0 400 400">
  <defs>
    <style>
      .cls-1 {
        fill: #8ebcee;
      }
    </style>
  </defs>
  <path class="cls-1" d="m146.53,158.71c15.08,10.78,32.76,16.37,51.15,16.17,4.78-.05,9.62-.51,14.39-1.35,39.18-6.93,68.44-39.9,71.15-80.18,2.59-38.49-22.47-75.05-59.58-86.94-4.54-1.45-9.21-2.33-13.79-3.19-1.94-.36-3.94-.74-5.91-1.16l-15.29.06-.96.16c-.28.08-.56.17-.85.26-.23.07-.49.16-.64.19-23.52,2.98-44.31,15.02-58.53,33.92-14.11,18.75-19.91,41.81-16.31,64.94,3.61,23.2,16.1,43.49,35.17,57.13Zm.32-69.96c-.13-13.27,4.94-25.81,14.26-35.32,9.3-9.48,21.75-14.79,35.04-14.93,27.64-.25,50.37,21.83,50.67,49.23.15,13.57-4.89,26.27-14.19,35.76-9.3,9.5-21.94,14.81-35.58,14.96-13.31.13-25.84-4.95-35.3-14.31-9.47-9.37-14.76-21.94-14.89-35.39Z"/>
  <path class="cls-1" d="m375.84,343.84c-7.47-41.77-29.92-79.28-63.23-105.62-34.33-27.16-77.51-41.28-124.94-40.83-54.94,2.45-103.66,31.16-137.2,80.84-19.49,28.87-29.36,62.15-29.34,98.9,0,10.29,6.09,18.76,15.5,21.58,2.26.68,4.54,1.01,6.79.98,4.2-.05,8.25-1.35,11.71-3.78,5.79-4.06,9.36-10.85,9.8-18.62.08-1.51.16-3.02.24-4.53.36-7.19.73-14.63,2.1-21.67,13.96-71.6,78.35-118.36,149.81-108.78,55.35,7.43,93.05,39,112.07,93.85,3.65,10.52,5.58,22.52,6.08,37.77.22,6.63,2.76,12.54,7.16,16.62,4.14,3.84,9.72,5.81,15.71,5.59,5.88-.25,11.22-2.7,15.03-6.89,4-4.4,6.02-10.38,5.68-16.84-.41-7.87-1.13-18.23-2.98-28.57Z"/>
</svg>